<svg width="405" height="261" viewBox="0 0 405 261" fill="none" xmlns="http://www.w3.org/2000/svg">
    <path d="M13.6382 103.129C14.6415 102.524 15.7213 102.056 16.8488 101.737L17.5072 98.5668L22.868 98.4678L23.6605 101.62C24.7964 101.898 25.89 102.328 26.9119 102.896L29.6215 101.148L33.4789 104.877L31.8008 107.645C32.406 108.647 32.8743 109.724 33.1934 110.85L36.3633 111.514L36.4623 116.875L33.3099 117.644C33.0327 118.782 32.6034 119.878 32.0338 120.902L33.7819 123.611L30.0702 127.439L27.3023 125.761C26.2998 126.364 25.2223 126.832 24.0975 127.154L23.4333 130.324L18.0725 130.417L17.3033 127.27C16.165 126.991 15.0694 126.56 14.046 125.988L11.3307 127.748L7.47324 124.025L9.1514 121.257C8.54849 120.252 8.08026 119.173 7.75876 118.046L4.5889 117.388L4.49567 112.027L7.64222 111.252C7.92309 110.117 8.35214 109.024 8.91832 108.001L7.17024 105.291L10.8937 101.434L13.6615 103.112L13.6382 103.129ZM16.4992 110.267C15.7124 111.087 15.1859 112.121 14.986 113.239C14.7862 114.357 14.922 115.51 15.3762 116.551C15.8305 117.592 16.5829 118.475 17.5386 119.089C18.4942 119.703 19.6103 120.021 20.7461 120.001C21.8819 119.982 22.9865 119.626 23.9205 118.98C24.8546 118.333 25.5763 117.425 25.9946 116.369C26.4129 115.313 26.5091 114.156 26.271 113.045C26.033 111.935 25.4713 110.919 24.6569 110.127C24.1133 109.599 23.4704 109.183 22.7654 108.904C22.0604 108.624 21.3071 108.487 20.549 108.5C19.7908 108.513 19.0426 108.676 18.3476 108.979C17.6526 109.283 17.0244 109.72 16.4992 110.267Z" fill="#EBEBEB"/>
    <path d="M21.5337 25.5317C22.537 24.9264 23.6168 24.458 24.7443 24.139L25.4086 20.9633L30.7694 20.8701L31.5386 24.0283C32.6739 24.3112 33.7671 24.7422 34.79 25.3102L37.4995 23.533L41.357 27.2623L39.6788 30.0301C40.284 31.0314 40.7524 32.1093 41.0715 33.2349L44.2471 33.8992L44.3404 39.26L41.188 40.0291C40.9097 41.1577 40.4805 42.2435 39.9119 43.2573L41.66 45.9726L37.9307 49.8301L35.1629 48.1461C34.1629 48.7537 33.0847 49.2222 31.9581 49.5387L31.2938 52.7144L25.933 52.8076L25.193 49.6669C24.0555 49.385 22.9603 48.9539 21.9358 48.385L19.2262 50.1331L15.3688 46.4096L17.0528 43.636C16.4457 42.6349 15.9754 41.5571 15.6543 40.4312L12.4844 39.7727L12.3912 34.4119L15.5378 33.637C15.8215 32.5186 16.2526 31.4428 16.8197 30.438L15.0716 27.7284L18.7659 23.8535L21.5337 25.5317ZM24.3947 32.6755C23.6085 33.4954 23.0828 34.5298 22.8837 35.6482C22.6847 36.7665 22.8213 37.9188 23.2763 38.9596C23.7313 40.0004 24.4844 40.8832 25.4405 41.4966C26.3966 42.11 27.5129 42.4265 28.6486 42.4062C29.7844 42.3859 30.8887 42.0297 31.8223 41.3826C32.7559 40.7355 33.4769 39.8264 33.8945 38.77C34.3121 37.7136 34.4074 36.5572 34.1686 35.4467C33.9298 34.3361 33.3674 33.3212 32.5525 32.5298C32.0088 32.0009 31.3658 31.5848 30.6605 31.3056C29.9552 31.0264 29.2016 30.8896 28.4432 30.9032C27.6848 30.9167 26.9366 31.0803 26.2417 31.3845C25.5469 31.6887 24.9191 32.1275 24.3947 32.6755Z" fill="#EBEBEB"/>
    <path d="M138.533 55.6283C139.741 54.8963 141.043 54.3299 142.402 53.9444L143.2 50.1102L149.674 49.9995L150.606 53.7987C151.979 54.1358 153.299 54.6551 154.534 55.3428L157.809 53.1985L162.47 57.6969L160.442 61.0416C161.172 62.2513 161.738 63.5523 162.126 64.9107L165.955 65.709L166.071 72.1827L162.266 73.115C161.932 74.488 161.412 75.8092 160.722 77.0424L162.866 80.3171L158.374 84.9787L155.029 82.9509C153.817 83.6806 152.514 84.2468 151.154 84.6349L150.356 88.4632L143.882 88.5797L142.95 84.7747C141.577 84.4382 140.257 83.9188 139.022 83.2306L135.754 85.3749L131.092 80.8765L133.12 77.5318C132.387 76.3239 131.82 75.0224 131.436 73.6627L127.602 72.8645L127.491 66.3907L131.29 65.4584C131.632 64.0877 132.151 62.7674 132.834 61.531L130.69 58.2621L135.188 53.6006L138.533 55.6342V55.6283ZM141.983 64.2347C141.028 65.2228 140.389 66.4717 140.144 67.8233C139.9 69.1749 140.062 70.5687 140.609 71.8284C141.157 73.088 142.065 74.1571 143.221 74.9004C144.376 75.6436 145.725 76.0277 147.099 76.0041C148.472 75.9805 149.807 75.5502 150.936 74.7677C152.065 73.9851 152.937 72.8854 153.44 71.6077C153.944 70.3299 154.058 68.9314 153.767 67.589C153.477 66.2465 152.794 65.0205 151.807 64.0658C150.481 62.7863 148.702 62.0855 146.86 62.1171C145.018 62.1488 143.263 62.9105 141.983 64.2347Z" fill="#EBEBEB"/>
    <path d="M50.3713 13.5405C50.8777 13.2309 51.4249 12.9935 51.997 12.8354L52.3291 11.2097L55.0386 11.1631L55.4291 12.7538C56.0029 12.8959 56.5555 13.1134 57.0723 13.4006L58.4416 12.5033L60.3703 14.4029L59.5196 15.8072C59.8268 16.3127 60.064 16.8577 60.2246 17.4271L61.827 17.7592L61.8737 20.4687L60.2829 20.8591C60.1428 21.4337 59.9252 21.9865 59.6361 22.5023L60.5335 23.8775L58.6514 25.8237L57.2529 24.973C56.7481 25.2816 56.2029 25.5189 55.633 25.678L55.3009 27.2863L52.5855 27.3329L52.2126 25.7421C51.6387 25.6 51.0862 25.3825 50.5694 25.0953L49.2 25.9927L47.248 24.1106L48.1337 22.7063C47.8211 22.2101 47.5743 21.6754 47.3995 21.1155L45.8029 20.7542L45.7563 18.0447L47.3471 17.6543C47.4872 17.0798 47.7048 16.527 47.9939 16.0111L47.0965 14.6359L48.9786 12.6897L50.3771 13.5405H50.3713ZM51.8163 17.1474C51.415 17.5614 51.1456 18.0851 51.0421 18.6524C50.9387 19.2196 51.0058 19.8048 51.2351 20.3338C51.4644 20.8628 51.8455 21.3119 52.3302 21.6242C52.8149 21.9365 53.3813 22.098 53.9578 22.0882C54.5343 22.0784 55.095 21.8978 55.5687 21.5692C56.0425 21.2406 56.4082 20.7788 56.6193 20.2423C56.8305 19.7058 56.8778 19.1186 56.7551 18.5553C56.6324 17.9919 56.3453 17.4776 55.9302 17.0774C55.3749 16.5422 54.63 16.249 53.8588 16.2621C53.0876 16.2752 52.3532 16.5936 51.8163 17.1474Z" fill="#EBEBEB"/>
    <path fill-rule="evenodd" clip-rule="evenodd" d="M336.987 32.886C336.987 33.087 336.927 33.2835 336.816 33.4505C336.704 33.6175 336.545 33.7474 336.359 33.8238C336.173 33.9002 335.968 33.9196 335.771 33.8795C335.574 33.8394 335.394 33.7417 335.252 33.5987C335.111 33.4558 335.015 33.274 334.978 33.0766C334.94 32.8791 334.961 32.6749 335.04 32.4899C335.119 32.3048 335.25 32.1473 335.419 32.0373C335.587 31.9273 335.784 31.8698 335.985 31.8721C336.252 31.8752 336.507 31.9834 336.694 32.1732C336.882 32.363 336.987 32.6191 336.987 32.886Z" fill="#E0E0E0"/>
    <path fill-rule="evenodd" clip-rule="evenodd" d="M363.214 16.0979C363.216 16.2989 363.157 16.4958 363.046 16.6634C362.935 16.831 362.777 16.9619 362.591 17.0393C362.406 17.1168 362.201 17.1374 362.004 17.0984C361.807 17.0595 361.626 16.9628 361.484 16.8207C361.341 16.6785 361.245 16.4973 361.206 16.3001C361.167 16.1029 361.187 15.8986 361.265 15.7131C361.342 15.5276 361.473 15.3693 361.641 15.2583C361.808 15.1473 362.005 15.0887 362.206 15.0899C362.474 15.0899 362.73 15.1961 362.919 15.3851C363.108 15.5742 363.214 15.8306 363.214 16.0979Z" fill="#E0E0E0"/>
    <path d="M331.947 220.98C331.947 220.98 331.947 220.7 331.947 220.158C331.947 219.616 331.947 218.806 331.947 217.752C331.947 215.631 331.947 212.507 331.947 208.487C331.947 200.422 331.947 188.745 331.9 174.271C331.9 145.305 331.9 105.134 331.854 60.2842V60.2492V60.2143C333.165 57.6096 334.581 54.8069 335.997 51.9866V52.0565V32.8859L336.148 33.0315L203.136 32.95L203.201 32.8859C203.201 39.0391 203.201 43.7648 203.201 46.9521C203.201 48.5409 203.201 49.7452 203.201 50.5648C203.201 49.7549 203.201 48.5429 203.201 46.9521C203.201 43.7648 203.201 39.0391 203.166 32.8859V32.816H203.235L336.247 32.7344H336.393V32.8859C336.393 38.9226 336.393 45.1225 336.393 51.4622V52.0449V52.0798L332.081 60.3308V60.2609C332.081 105.128 332.046 145.282 332.034 174.248C332.034 188.722 331.999 200.399 331.988 208.463C331.988 212.49 331.988 215.607 331.988 217.728C331.988 218.783 331.988 219.593 331.988 220.135C331.988 220.677 331.947 220.98 331.947 220.98Z" fill="#E0E0E0"/>
    <path d="M358.069 105.758C358.069 105.758 358.069 105.46 358.069 104.883C358.069 104.307 358.04 103.45 358.017 102.331C357.976 100.088 357.918 96.7957 357.842 92.5712C357.708 84.1163 357.516 71.9496 357.259 57.0792C358.739 53.1324 360.293 48.9914 361.921 44.6562V44.7028C361.921 36.0031 361.921 26.3712 361.921 16.1915L362.066 16.3372H324.774H263.008H262.927L262.886 16.2614L259.221 8.50576L259.337 8.57569L217.616 8.52324L205.962 8.48828H202.903H201.854C201.854 8.48828 202.21 8.48828 202.903 8.48828H205.962L217.616 8.45332L259.337 8.40088H259.413L259.448 8.4708L263.148 16.0983L263.026 16.0225H324.791H362.206V16.1682C362.206 26.3479 362.206 35.9798 362.206 44.6795L357.545 57.0909V57.0443C357.737 71.9205 357.894 84.0871 358.005 92.542C358.052 96.7666 358.092 100.059 358.116 102.302C358.116 103.421 358.116 104.272 358.116 104.854C358.081 105.46 358.069 105.758 358.069 105.758Z" fill="#E0E0E0"/>
    <path d="M350.803 112.272C350.803 112.272 350.803 111.945 350.762 111.304C350.721 110.663 350.721 109.714 350.686 108.478C350.628 105.984 350.541 102.325 350.424 97.6286C350.209 88.2181 349.9 74.653 349.521 58.0054L354.998 45.1861V45.2327C355.167 38.2403 355.354 30.6653 355.546 22.6882L355.686 22.8281H291.152L186.378 22.7873L186.46 22.7581L177.946 31.2014H177.906L149.523 30.9858L141.948 30.9042H149.523L177.859 31.0615H177.789C180.438 28.4045 183.272 25.5648 186.291 22.5425L186.32 22.5076H186.366L291.141 22.4668H355.674H355.814V22.6125C355.616 30.5604 355.418 38.1413 355.231 45.1569C353.314 49.632 351.473 53.8974 349.731 57.9762V57.9296C350.069 74.583 350.313 88.154 350.529 97.5528C350.617 102.249 350.686 105.909 350.733 108.403C350.733 109.638 350.768 110.588 350.774 111.229C350.78 111.87 350.803 112.272 350.803 112.272Z" fill="#E0E0E0"/>
    <path fill-rule="evenodd" clip-rule="evenodd" d="M141.079 30.759C141.079 30.9596 141.02 31.1556 140.908 31.3223C140.797 31.489 140.639 31.619 140.453 31.6957C140.268 31.7725 140.064 31.7926 139.868 31.7534C139.671 31.7143 139.49 31.6177 139.349 31.476C139.207 31.3342 139.11 31.1535 139.071 30.9568C139.032 30.7601 139.052 30.5563 139.129 30.371C139.205 30.1858 139.335 30.0274 139.502 29.916C139.669 29.8046 139.865 29.7451 140.065 29.7451C140.199 29.7444 140.331 29.7701 140.454 29.8207C140.578 29.8714 140.69 29.9461 140.784 30.0404C140.878 30.1347 140.953 30.2468 141.004 30.3701C141.054 30.4935 141.08 30.6257 141.079 30.759Z" fill="#E0E0E0"/>
    <path fill-rule="evenodd" clip-rule="evenodd" d="M201.872 8.4011C201.872 8.60163 201.813 8.79765 201.701 8.96438C201.59 9.13112 201.431 9.26107 201.246 9.33781C201.061 9.41455 200.857 9.43463 200.66 9.3955C200.464 9.35638 200.283 9.25982 200.141 9.11802C199.999 8.97623 199.903 8.79557 199.864 8.5989C199.825 8.40222 199.845 8.19836 199.921 8.0131C199.998 7.82783 200.128 7.66949 200.295 7.55808C200.462 7.44667 200.658 7.38721 200.858 7.38721C201.127 7.38721 201.385 7.49403 201.575 7.68417C201.765 7.87431 201.872 8.1322 201.872 8.4011Z" fill="#E0E0E0"/>
    <path d="M370.154 219.057H348.973C355.173 197.975 356.583 158.456 355.546 132.276H363.337C362.929 158.363 364.811 197.672 370.154 219.057Z" fill="#EBEBEB"/>
    <path d="M399.272 244.696C397.468 242.689 395.21 241.145 392.687 240.191C390.163 239.238 387.448 238.905 384.768 239.218C385.275 234.557 385.741 229.598 383.9 225.327C382.059 221.056 377.007 218.002 373.161 220.269C374.583 213.807 372.089 206.552 367.089 202.625C364.609 200.705 361.6 199.589 358.468 199.427C355.335 199.264 352.228 200.063 349.562 201.716C344.23 205.113 341.095 212.076 341.934 218.655C339.21 218.482 336.489 219.029 334.043 220.241C331.598 221.453 329.514 223.288 328.002 225.56C326.449 227.958 325.486 230.689 325.19 233.531C324.894 236.373 325.275 239.244 326.301 241.91C318.37 241.485 310.807 251.863 310.964 260.364L403.828 260.254C404.243 257.485 404.05 254.659 403.263 251.973C402.476 249.286 401.114 246.803 399.272 244.696Z" fill="#EBEBEB"/>
    <path d="M352.528 93.4277L370.405 99.5926C374.35 103.642 371.698 109.359 368.365 111.555C369.582 112.141 370.581 113.099 371.217 114.29C371.854 115.481 372.096 116.843 371.908 118.18C371.72 119.517 371.111 120.76 370.171 121.729C369.231 122.698 368.006 123.343 366.676 123.571C367.12 124.237 367.419 124.99 367.553 125.779C367.686 126.569 367.652 127.378 367.453 128.154C367.253 128.929 366.891 129.654 366.393 130.281C365.894 130.908 365.268 131.422 364.557 131.791C363.846 132.16 363.065 132.374 362.266 132.421C361.466 132.468 360.666 132.345 359.917 132.062C359.167 131.778 358.486 131.34 357.918 130.775C357.35 130.211 356.907 129.533 356.618 128.786C355.867 126.81 356.222 124.48 355.161 122.656C354.159 120.948 352.184 120.127 350.57 118.973C346.573 116.118 344.743 110.815 345.326 105.938C345.908 101.061 348.804 96.65 352.528 93.4277Z" fill="#EBEBEB"/>
    <path d="M363.879 97.4776C364.565 99.2425 364.894 101.126 364.846 103.019C364.837 103.288 364.744 103.547 364.579 103.76C364.415 103.973 364.188 104.128 363.93 104.205C363.673 104.282 363.397 104.275 363.143 104.187C362.889 104.099 362.67 103.933 362.515 103.712C362.591 106.026 362.515 108.343 362.288 110.647C362.259 110.971 362.13 111.278 361.919 111.526C361.709 111.774 361.426 111.951 361.111 112.033C360.796 112.115 360.463 112.097 360.159 111.982C359.854 111.868 359.592 111.662 359.409 111.392C356.094 106.557 354.644 100.684 355.331 94.8613L363.879 97.4776Z" fill="#E0E0E0"/>
    <path d="M346.147 75.9233L346.048 75.9991C343.268 78.2324 341.025 81.0616 339.485 84.2779C337.945 87.4942 337.147 91.0153 337.15 94.5812V99.1088L346.141 92.8565L346.147 75.9233Z" fill="#E0E0E0"/>
    <path d="M371.832 75.8887L371.932 75.9644C374.673 78.1658 376.886 80.9548 378.406 84.1256C379.926 87.2964 380.714 90.7681 380.713 94.2844V98.7536L371.832 92.5945V75.8887Z" fill="#E0E0E0"/>
    <path d="M358.972 31.5688C361.006 31.5688 364.747 36.8131 368.22 45.606C370.277 50.7769 371.495 56.2436 371.827 61.7991V99.5926H346.159V65.2952C346.141 61.949 346.441 58.6087 347.056 55.3195C347.688 52.0099 348.582 48.7559 349.731 45.5885C352.988 36.7898 356.962 31.6038 358.972 31.5688Z" fill="#F5F5F5"/>
    <path d="M346.415 93.4625C346.415 93.5032 352.108 93.5615 359.13 93.6023C366.151 93.6431 371.844 93.6373 371.844 93.6023C371.844 93.5673 366.151 93.5032 359.13 93.4683C352.108 93.4333 346.415 93.4275 346.415 93.4625Z" fill="#E0E0E0"/>
    <path d="M346.526 94.6108C346.526 94.6458 352.219 94.7099 359.24 94.7448C366.262 94.7798 371.955 94.7856 371.955 94.7448C371.955 94.704 366.268 94.6458 359.24 94.605C352.213 94.5642 346.526 94.5758 346.526 94.6108Z" fill="#E0E0E0"/>
    <path d="M346.508 95.8169C346.508 95.8577 352.201 95.916 359.223 95.9568C366.244 95.9976 371.937 95.9918 371.937 95.9568C371.937 95.9218 366.244 95.8577 359.223 95.8228C352.201 95.7878 346.508 95.782 346.508 95.8169Z" fill="#E0E0E0"/>
    <path d="M346.474 97.0286C346.474 97.0636 352.166 97.1277 359.182 97.1627C366.198 97.1976 371.902 97.2034 371.902 97.1627C371.902 97.1219 366.209 97.0694 359.188 97.0286C352.166 96.9878 346.474 96.9878 346.474 97.0286Z" fill="#E0E0E0"/>
    <path d="M346.474 98.2355C346.474 98.2763 352.166 98.3345 359.188 98.3753C366.209 98.4161 371.902 98.4103 371.902 98.3753C371.902 98.3404 366.215 98.2763 359.188 98.2355C352.161 98.1947 346.474 98.2005 346.474 98.2355Z" fill="#E0E0E0"/>
    <path d="M358.937 75.9468C358.934 76.005 358.934 76.0634 358.937 76.1216C358.916 76.2917 358.905 76.4629 358.902 76.6344C358.902 77.0772 358.902 77.724 358.902 78.5165C358.902 80.1072 358.902 82.304 358.902 84.728C358.902 87.152 358.967 89.3546 359.002 90.9395C359.002 91.7262 359.036 92.3671 359.048 92.8274C359.048 93.0372 359.048 93.2062 359.048 93.3344C359.041 93.3944 359.041 93.455 359.048 93.515C359.053 93.4549 359.053 93.3945 359.048 93.3344C359.048 93.2062 359.048 93.0372 359.048 92.8216C359.048 92.3613 359.048 91.7262 359.048 90.9395C359.048 89.3371 359.013 87.1462 358.996 84.728C358.978 82.3098 358.949 80.1189 358.932 78.5165C358.932 77.7356 358.932 77.0947 358.932 76.6344C358.932 76.4129 358.932 76.2381 358.932 76.1216C358.941 76.0638 358.943 76.0051 358.937 75.9468Z" fill="#E0E0E0"/>
    <path d="M346.147 75.9235C346.147 75.9584 351.846 75.9934 358.879 75.9934C365.912 75.9934 371.617 75.9643 371.617 75.9293C371.617 75.8943 365.912 75.8594 358.879 75.8594C351.846 75.8594 346.147 75.8885 346.147 75.9235Z" fill="#E0E0E0"/>
    <path d="M356.886 88.4108C356.886 88.4108 356.846 88.3526 356.729 88.2943C356.563 88.2229 356.378 88.2105 356.205 88.2593C356.068 88.2875 355.942 88.3522 355.839 88.4466C355.736 88.5411 355.661 88.6616 355.622 88.7954C355.569 88.9574 355.567 89.1317 355.617 89.2945C355.667 89.4574 355.766 89.6009 355.901 89.7054C356.035 89.8099 356.199 89.8704 356.369 89.8786C356.539 89.8868 356.707 89.8422 356.851 89.751C356.971 89.6822 357.069 89.5827 357.137 89.4627C357.205 89.3428 357.239 89.2069 357.236 89.0693C357.235 88.8883 357.176 88.7124 357.067 88.5682C356.991 88.4691 356.927 88.44 356.921 88.4458C356.915 88.4516 356.962 88.4982 357.026 88.5973C357.108 88.7407 357.146 88.9046 357.137 89.0693C357.135 89.1879 357.103 89.3041 357.042 89.4063C356.982 89.5085 356.896 89.5932 356.793 89.652C356.669 89.7277 356.526 89.7639 356.381 89.7555C356.236 89.7472 356.097 89.6949 355.983 89.6054C355.869 89.516 355.785 89.3939 355.742 89.2554C355.7 89.1168 355.7 88.9685 355.744 88.8304C355.775 88.7176 355.835 88.6148 355.918 88.5321C356.001 88.4493 356.103 88.3895 356.216 88.3584C356.374 88.3084 356.543 88.3084 356.7 88.3584C356.822 88.3817 356.88 88.4167 356.886 88.4108Z" fill="#E0E0E0"/>
    <path d="M356.746 81.1332C356.746 81.1332 356.706 81.075 356.589 81.0225C356.423 80.9518 356.239 80.9375 356.065 80.9817C355.928 81.0104 355.802 81.0754 355.7 81.1697C355.597 81.2641 355.522 81.3843 355.482 81.5178C355.433 81.6804 355.433 81.8537 355.482 82.0163C355.531 82.1788 355.626 82.3236 355.756 82.4326C355.893 82.5306 356.056 82.587 356.224 82.5953C356.392 82.6036 356.559 82.5633 356.706 82.4792C356.799 82.4195 356.88 82.3411 356.942 82.2489C357.004 82.1568 357.047 82.0528 357.067 81.9435C357.087 81.8341 357.085 81.7218 357.06 81.6135C357.035 81.5052 356.987 81.4032 356.921 81.3139C356.845 81.2148 356.781 81.1798 356.776 81.1857C356.77 81.1915 356.822 81.2439 356.88 81.343C356.962 81.4842 357.001 81.6463 356.991 81.8092C356.991 81.9282 356.959 82.045 356.899 82.1475C356.839 82.25 356.752 82.3344 356.647 82.3918C356.524 82.4667 356.381 82.5023 356.237 82.494C356.093 82.4857 355.956 82.4339 355.842 82.3455C355.728 82.257 355.644 82.136 355.6 81.9986C355.557 81.8612 355.556 81.7139 355.598 81.5761C355.629 81.4625 355.689 81.3587 355.772 81.275C355.854 81.1913 355.957 81.1304 356.07 81.0983C356.229 81.0543 356.396 81.0543 356.554 81.0983C356.682 81.075 356.741 81.1332 356.746 81.1332Z" fill="#E0E0E0"/>
    <path d="M358.285 115.034C358.583 115.229 358.792 115.532 358.869 115.88C358.945 116.227 358.883 116.59 358.694 116.892C358.505 117.193 358.206 117.409 357.86 117.492C357.514 117.575 357.149 117.519 356.845 117.336C356.54 117.153 356.319 116.858 356.229 116.513C356.14 116.169 356.189 115.803 356.366 115.495C356.543 115.187 356.834 114.96 357.177 114.864C357.519 114.768 357.886 114.811 358.197 114.982" fill="#E0E0E0"/>
    <path d="M353.157 53.4081C352.399 54.5506 351.996 55.8923 352 57.2636C352.004 58.6349 352.415 59.9742 353.18 61.1122C353.945 62.2502 355.03 63.1358 356.299 63.6569C357.567 64.1781 358.962 64.3115 360.306 64.0402C361.65 63.7689 362.884 63.1051 363.851 62.1328C364.818 61.1605 365.475 59.9233 365.739 58.5776C366.002 57.232 365.861 55.8383 365.333 54.5727C364.805 53.3072 363.914 52.2267 362.772 51.4677C362.013 50.9637 361.162 50.614 360.269 50.4387C359.375 50.2634 358.455 50.2659 357.562 50.4461C356.669 50.6263 355.821 50.9806 355.065 51.4889C354.309 51.9971 353.661 52.6493 353.157 53.4081Z" fill="white"/>
    <path d="M353.157 53.4084C353.521 52.9706 353.91 52.5542 354.322 52.1615C355.483 51.1279 356.956 50.5125 358.506 50.4134C359.643 50.3456 360.778 50.564 361.808 51.0485C362.838 51.5331 363.731 52.2684 364.403 53.187C365.202 54.2677 365.66 55.562 365.72 56.9046C365.787 58.3461 365.393 59.7714 364.594 60.9734C363.796 62.1753 362.635 63.0913 361.28 63.5881C360.641 63.8284 359.969 63.9661 359.287 63.996C358.633 64.0385 357.977 63.9795 357.341 63.8212C356.156 63.5302 355.072 62.9265 354.2 62.0731C353.432 61.34 352.849 60.4354 352.499 59.4335C351.981 57.9723 351.971 56.3795 352.469 54.9118C352.668 54.3801 352.901 53.8623 353.169 53.3618C353.074 53.4762 352.99 53.5991 352.918 53.7289C352.816 53.8765 352.726 54.0325 352.65 54.1951C352.535 54.4124 352.438 54.6384 352.359 54.871C351.899 56.1317 351.811 57.4982 352.107 58.8073C352.402 60.1164 353.068 61.3129 354.025 62.2537C354.928 63.1372 356.051 63.763 357.277 64.0659C358.629 64.3979 360.049 64.3188 361.356 63.8387C362.782 63.331 364.007 62.3761 364.847 61.1161C365.687 59.8561 366.097 58.3585 366.017 56.8463C365.946 55.4491 365.466 54.1036 364.636 52.9772C363.885 51.968 362.88 51.1759 361.723 50.6814C360.485 50.1653 359.124 50.0162 357.804 50.2518C356.484 50.4873 355.259 51.0976 354.276 52.01C354.093 52.175 353.923 52.3542 353.769 52.546C353.647 52.6786 353.536 52.8208 353.437 52.9714C353.324 53.1034 353.23 53.2505 353.157 53.4084Z" fill="#E0E0E0"/>
    <path d="M358.972 31.5688C361.006 31.5688 364.747 36.8131 368.22 45.606H349.731C352.988 36.7898 356.962 31.6038 358.972 31.5688Z" fill="#E0E0E0"/>
    <path d="M358.972 31.5693L358.611 31.6101C358.271 31.7105 357.951 31.866 357.661 32.0704C356.583 32.9071 355.652 33.9173 354.905 35.0596C352.866 37.9731 350.5 42.6347 348.583 48.753C347.56 52.1248 346.823 55.5769 346.38 59.0725C346.151 61.0319 346.03 63.0025 346.019 64.9752C346.019 67.0088 346.019 69.1065 346.019 71.2625C346.019 79.8864 346.019 89.4484 346.019 99.6048V99.7796H372.007V99.6339C372.007 89.4717 372.007 79.9097 371.972 71.2858C371.972 69.1298 371.972 67.0321 371.972 64.9985C371.972 63.9788 371.972 62.9766 371.972 61.9918C371.972 61.007 371.85 60.0339 371.739 59.0783C371.312 55.5802 370.553 52.1307 369.473 48.7763C368.559 46.0419 367.469 43.3695 366.209 40.7759C365.279 38.8058 364.202 36.9086 362.987 35.1004C362.251 33.9524 361.337 32.9295 360.278 32.0704C360.074 31.9539 359.911 31.8315 359.747 31.7616C359.611 31.6998 359.471 31.6473 359.328 31.6043L358.972 31.5635C358.972 31.5635 359.089 31.5635 359.322 31.6334C359.461 31.6791 359.598 31.7336 359.73 31.7966C359.908 31.8922 360.079 31.9992 360.243 32.117C361.282 32.9877 362.179 34.016 362.9 35.1645C364.086 36.9645 365.138 38.8498 366.046 40.805C367.287 43.4011 368.361 46.0732 369.263 48.8054C370.323 52.1485 371.067 55.5841 371.483 59.0667C371.594 60.0106 371.687 60.9779 371.704 61.9802V64.981C371.704 67.0127 371.704 69.1085 371.704 71.2683C371.704 79.898 371.704 89.4542 371.704 99.6164L371.856 99.4649H346.159L346.305 99.6164C346.305 89.46 346.305 79.898 346.275 71.2741C346.275 69.1182 346.275 67.0205 346.275 64.9869C346.281 63.0222 346.396 61.0594 346.619 59.1075C347.048 55.6249 347.769 52.1846 348.775 48.8229C350.657 42.6755 352.994 38.0139 354.993 35.1004C355.726 33.9592 356.637 32.9422 357.69 32.0879C357.973 31.8834 358.285 31.7242 358.617 31.6159L358.972 31.5693Z" fill="#E0E0E0"/>
    <path d="M355.144 60.785C355.53 60.5201 355.882 60.209 356.193 59.8585C356.805 59.2758 357.62 58.3785 358.524 57.4054L360.761 54.8939C361.092 54.5663 361.391 54.2072 361.653 53.8218C361.269 54.0873 360.919 54.3984 360.61 54.7483C359.992 55.331 359.176 56.2225 358.279 57.2014L356.041 59.7128C355.709 60.0407 355.408 60.3997 355.144 60.785Z" fill="#E0E0E0"/>
    <path d="M357.183 60.7971C357.993 60.1714 358.741 59.4689 359.415 58.6994C360.162 57.992 360.835 57.2112 361.425 56.3687C360.616 56.9949 359.869 57.6974 359.194 58.4664C358.448 59.1745 357.774 59.9553 357.183 60.7971Z" fill="#E0E0E0"/>
    <path d="M396.888 260.486C396.888 260.574 308.045 260.644 198.481 260.644C88.9165 260.644 0.0497131 260.603 0.0497131 260.486C0.0497131 260.37 88.8757 260.335 198.481 260.335C308.086 260.335 396.888 260.405 396.888 260.486Z" fill="#263238"/>
    <path d="M374.256 125.633H352.936C349.759 125.633 347.184 128.208 347.184 131.385V152.705C347.184 155.882 349.759 158.457 352.936 158.457H374.256C377.433 158.457 380.008 155.882 380.008 152.705V131.385C380.008 128.208 377.433 125.633 374.256 125.633Z" fill="#263238"/>
    <path d="M369.443 125.633H348.123C344.946 125.633 342.371 128.208 342.371 131.385V152.705C342.371 155.882 344.946 158.457 348.123 158.457H369.443C372.62 158.457 375.195 155.882 375.195 152.705V131.385C375.195 128.208 372.62 125.633 369.443 125.633Z" fill="#455A64"/>
    <path d="M348.74 141.849L351.864 138.726L357.883 144.081L367.94 133.982L370.842 137.106L357.44 150.1L348.74 141.849Z" fill="white"/>
    <path d="M359.036 224.936C359.831 225.317 360.542 225.853 361.125 226.514C361.709 227.175 362.154 227.946 362.434 228.782C362.978 230.461 363.132 232.243 362.882 233.991C362.498 237.371 360.581 240.785 358.512 243.489C355.663 241.001 355.016 236.671 354.812 234.451C354.509 230.955 356.082 224.417 359.036 224.936Z" fill="#068BF7"/>
    <path d="M361.816 249.065C361.623 248.099 361.689 247.099 362.006 246.166C362.323 245.233 362.881 244.4 363.622 243.751C364.376 243.118 365.249 242.64 366.189 242.347C367.13 242.054 368.119 241.951 369.1 242.044C369.559 242.034 370.015 242.125 370.435 242.311C370.855 242.498 371.229 242.774 371.529 243.122C371.751 243.486 371.871 243.903 371.877 244.329C371.883 244.755 371.775 245.175 371.564 245.546C371.131 246.275 370.514 246.877 369.775 247.294C367.305 248.838 364.636 249.887 361.845 249.042" fill="#068BF7"/>
    <path d="M358.168 259.437C358.182 259.204 358.215 258.972 358.267 258.744C358.36 258.254 358.477 257.625 358.611 256.867C358.931 254.776 359.586 252.749 360.551 250.866C361.554 248.986 363.04 247.409 364.858 246.297C365.407 245.969 365.994 245.707 366.606 245.517C366.821 245.447 366.996 245.418 367.107 245.388C367.167 245.379 367.227 245.379 367.287 245.388C366.476 245.669 365.696 246.03 364.957 246.466C363.204 247.605 361.766 249.169 360.779 251.011C359.829 252.874 359.161 254.867 358.798 256.926C358.623 257.712 358.483 258.348 358.378 258.785C358.328 259.008 358.257 259.226 358.168 259.437Z" fill="#263238"/>
    <path d="M358.273 230.017C358.301 230.115 358.313 230.217 358.308 230.32C358.308 230.541 358.343 230.832 358.361 231.188C358.401 231.945 358.448 233.041 358.489 234.393C358.576 237.102 358.646 240.849 358.629 244.98C358.611 249.112 358.512 252.864 358.401 255.568C358.343 256.925 358.291 258.021 358.244 258.773C358.244 259.134 358.197 259.419 358.186 259.647C358.185 259.749 358.172 259.851 358.145 259.95C358.136 259.849 358.136 259.747 358.145 259.647C358.145 259.419 358.145 259.128 358.145 258.773C358.145 257.986 358.192 256.896 358.227 255.562C358.291 252.858 358.366 249.117 358.384 244.98C358.401 240.843 358.384 237.108 358.314 234.398C358.314 233.07 358.279 231.98 358.267 231.194C358.267 230.832 358.267 230.547 358.267 230.32C358.26 230.219 358.262 230.117 358.273 230.017Z" fill="#263238"/>
    <path d="M356.892 251.122C356.549 249.074 355.722 247.137 354.481 245.472C353.24 243.807 351.619 242.462 349.754 241.548C348.804 241.094 347.563 240.791 346.782 241.502C346.002 242.213 346.2 243.483 346.555 244.468C347.392 246.509 348.813 248.256 350.642 249.49C352.47 250.724 354.622 251.389 356.828 251.402" fill="#068BF7"/>
    <path d="M350.214 244.753C350.417 244.822 350.612 244.91 350.797 245.016C351.032 245.124 351.259 245.247 351.479 245.383C351.777 245.549 352.067 245.729 352.347 245.925C352.693 246.156 353.026 246.407 353.343 246.676C353.714 246.974 354.066 247.293 354.398 247.632C355.164 248.416 355.838 249.284 356.408 250.219C356.964 251.163 357.41 252.168 357.737 253.214C357.873 253.67 357.984 254.133 358.069 254.601C358.153 255.009 358.209 255.421 358.238 255.836C358.291 256.215 358.273 256.559 358.291 256.862C358.307 257.118 358.307 257.375 358.291 257.631C358.286 257.852 358.26 258.073 358.215 258.289C358.157 258.289 358.256 257.345 358.092 255.854C358.04 255.481 357.993 255.073 357.894 254.642C357.801 254.181 357.682 253.726 357.539 253.278C357.208 252.262 356.766 251.285 356.222 250.365C355.662 249.445 355.003 248.59 354.258 247.813C353.934 247.472 353.592 247.149 353.233 246.845C352.926 246.575 352.606 246.322 352.271 246.088C351.048 245.19 350.191 244.8 350.214 244.753Z" fill="#263238"/>
    <path d="M99.2361 114.445H38.3211V260.527H99.2361V114.445Z" fill="#E0E0E0"/>
    <path d="M68.7786 114.445H20.6188V260.527H68.7786V114.445Z" fill="#F5F5F5"/>
    <path d="M68.8485 260.417C68.767 260.417 68.697 227.704 68.697 187.353C68.697 147.001 68.767 114.283 68.8485 114.283C68.9301 114.283 69 146.995 69 187.353C69 227.71 68.9359 260.417 68.8485 260.417Z" fill="#263238"/>
    <path d="M92.1563 131.227H77.5656V132.73H92.1563V131.227Z" fill="#263238"/>
    <path d="M92.1563 135.528H77.5656V137.031H92.1563V135.528Z" fill="#263238"/>
    <path d="M92.1563 139.834H77.5656V141.337H92.1563V139.834Z" fill="#263238"/>
    <path d="M64.1229 120.657H25.5951V255.889H64.1229V120.657Z" fill="#E0E0E0"/>
    <path d="M60.2829 125.639H28.3629V130.476H60.2829V125.639Z" fill="#EBEBEB"/>
    <path d="M33.1993 125.639H28.3629V130.476H33.1993V125.639Z" fill="#068BF7"/>
    <path d="M61.2735 125.639H50.7617V130.476H61.2735V125.639Z" fill="#F5F5F5"/>
    <path d="M60.2829 134.246H28.3629V139.082H60.2829V134.246Z" fill="#EBEBEB"/>
    <path d="M33.1993 134.246H28.3629V139.082H33.1993V134.246Z" fill="white"/>
    <path d="M61.2735 134.246H50.7617V139.082H61.2735V134.246Z" fill="#F5F5F5"/>
    <path d="M60.2829 142.858H28.3629V147.694H60.2829V142.858Z" fill="#EBEBEB"/>
    <path d="M33.1993 142.858H28.3629V147.694H33.1993V142.858Z" fill="#068BF7"/>
    <path d="M61.2735 142.858H50.7617V147.694H61.2735V142.858Z" fill="#F5F5F5"/>
    <path d="M60.2829 151.47H28.3629V156.307H60.2829V151.47Z" fill="#EBEBEB"/>
    <path d="M33.1993 151.47H28.3629V156.307H33.1993V151.47Z" fill="white"/>
    <path d="M61.2735 151.47H50.7617V156.307H61.2735V151.47Z" fill="#F5F5F5"/>
    <path d="M60.2829 160.077H28.3629V164.913H60.2829V160.077Z" fill="#EBEBEB"/>
    <path d="M33.1993 160.077H28.3629V164.913H33.1993V160.077Z" fill="#068BF7"/>
    <path d="M61.2735 160.077H50.7617V164.913H61.2735V160.077Z" fill="#F5F5F5"/>
    <path d="M60.2829 168.688H28.3629V173.525H60.2829V168.688Z" fill="#EBEBEB"/>
    <path d="M33.1993 168.688H28.3629V173.525H33.1993V168.688Z" fill="#068BF7"/>
    <path d="M61.2735 168.688H50.7617V173.525H61.2735V168.688Z" fill="#F5F5F5"/>
    <path d="M60.2829 177.301H28.3629V182.137H60.2829V177.301Z" fill="#EBEBEB"/>
    <path d="M33.1993 177.301H28.3629V182.137H33.1993V177.301Z" fill="white"/>
    <path d="M61.2735 177.301H50.7617V182.137H61.2735V177.301Z" fill="#F5F5F5"/>
    <path d="M60.2829 185.907H28.3629V190.744H60.2829V185.907Z" fill="#EBEBEB"/>
    <path d="M33.1993 185.907H28.3629V190.744H33.1993V185.907Z" fill="white"/>
    <path d="M61.2735 185.907H50.7617V190.744H61.2735V185.907Z" fill="#F5F5F5"/>
    <path d="M60.2829 194.52H28.3629V199.356H60.2829V194.52Z" fill="#EBEBEB"/>
    <path d="M33.1993 194.52H28.3629V199.356H33.1993V194.52Z" fill="white"/>
    <path d="M61.2735 194.52H50.7617V199.356H61.2735V194.52Z" fill="#F5F5F5"/>
    <path d="M60.2829 203.132H28.3629V207.968H60.2829V203.132Z" fill="#EBEBEB"/>
    <path d="M33.1993 203.132H28.3629V207.968H33.1993V203.132Z" fill="#068BF7"/>
    <path d="M61.2735 203.132H50.7617V207.968H61.2735V203.132Z" fill="#F5F5F5"/>
    <path d="M60.2829 211.744H28.3629V216.581H60.2829V211.744Z" fill="#EBEBEB"/>
    <path d="M33.1993 211.744H28.3629V216.581H33.1993V211.744Z" fill="white"/>
    <path d="M61.2735 211.744H50.7617V216.581H61.2735V211.744Z" fill="#F5F5F5"/>
    <path d="M60.2829 220.35H28.3629V225.186H60.2829V220.35Z" fill="#EBEBEB"/>
    <path d="M33.1993 220.35H28.3629V225.186H33.1993V220.35Z" fill="#068BF7"/>
    <path d="M61.2735 220.35H50.7617V225.186H61.2735V220.35Z" fill="#F5F5F5"/>
    <path d="M60.2829 228.962H28.3629V233.799H60.2829V228.962Z" fill="#EBEBEB"/>
    <path d="M33.1993 228.962H28.3629V233.799H33.1993V228.962Z" fill="white"/>
    <path d="M61.2735 228.962H50.7617V233.799H61.2735V228.962Z" fill="#F5F5F5"/>
    <path d="M60.2829 237.575H28.3629V242.411H60.2829V237.575Z" fill="#EBEBEB"/>
    <path d="M33.1993 237.575H28.3629V242.411H33.1993V237.575Z" fill="#068BF7"/>
    <path d="M61.2735 237.575H50.7617V242.411H61.2735V237.575Z" fill="#F5F5F5"/>
    <path d="M60.2829 246.181H28.3629V251.018H60.2829V246.181Z" fill="#EBEBEB"/>
    <path d="M33.1993 246.181H28.3629V251.018H33.1993V246.181Z" fill="white"/>
    <path d="M61.2735 246.181H50.7617V251.018H61.2735V246.181Z" fill="#F5F5F5"/>
    <path d="M99.2361 260.527C99.2361 259.228 99.1778 199.869 99.0962 114.446L99.2361 114.586H20.6305L20.782 114.434C20.782 170.513 20.7529 221.79 20.7471 260.516L20.6305 260.399L99.2477 260.516L20.6305 260.627H20.514V260.51C20.514 221.784 20.514 170.507 20.479 114.428V114.277H20.6422H99.2477H99.3876V114.417C99.3876 157.163 99.341 193.698 99.3235 219.552C99.2652 245.342 99.2361 259.881 99.2361 260.527Z" fill="#263238"/>
    <path d="M305.638 73.2725H95.9613C94.2258 73.2725 92.5614 73.9619 91.3342 75.1891C90.1071 76.4162 89.4176 78.0806 89.4176 79.8161V227.92C89.4176 229.655 90.1071 231.32 91.3342 232.547C92.5614 233.774 94.2258 234.463 95.9613 234.463H176.437L172.533 260.335H230.879L227.604 234.463H305.638C307.374 234.463 309.038 233.774 310.265 232.547C311.493 231.32 312.182 229.655 312.182 227.92V79.8161C312.182 78.9568 312.013 78.1059 311.684 77.312C311.355 76.5181 310.873 75.7967 310.265 75.1891C309.658 74.5814 308.936 74.0994 308.142 73.7706C307.349 73.4417 306.498 73.2725 305.638 73.2725Z" fill="#455A64"/>
    <path d="M203.597 218.888C206.452 222.967 201.988 227.43 197.91 224.575C197.774 224.48 197.655 224.361 197.56 224.225C194.716 220.146 199.174 215.689 203.247 218.538C203.383 218.633 203.501 218.752 203.597 218.888Z" fill="#263238"/>
    <path d="M100.932 78.9248H300.697C302.196 78.9248 303.634 79.5203 304.694 80.5803C305.754 81.6403 306.349 83.0779 306.349 84.5769V207.368H95.2795V84.5769C95.2795 83.0779 95.875 81.6403 96.935 80.5803C97.995 79.5203 99.4326 78.9248 100.932 78.9248Z" fill="#263238"/>
    <path d="M249.257 234.464C249.257 234.539 231.677 234.598 210.001 234.598C188.324 234.598 170.744 234.539 170.744 234.464C170.744 234.388 188.318 234.335 210.001 234.335C231.683 234.335 249.257 234.382 249.257 234.464Z" fill="#263238"/>
    <path d="M131.861 89.0688H116.478V92.3145H131.861V89.0688Z" fill="#455A64"/>
    <path d="M124.17 103.613H116.478V106.858H124.17V103.613Z" fill="#068BF7"/>
    <path d="M133.102 110.926H122.27V114.172H133.102V110.926Z" fill="#455A64"/>
    <path d="M141.132 110.926H134.821V114.172H141.132V110.926Z" fill="#455A64"/>
    <path d="M197.723 110.926H184.741V114.172H197.723V110.926Z" fill="#455A64"/>
    <path d="M235.657 118.052H213.73V121.298H235.657V118.052Z" fill="#455A64"/>
    <path d="M269.482 110.926H258.953V114.172H269.482V110.926Z" fill="#455A64"/>
    <path d="M293.885 110.926H272.71V114.172H293.885V110.926Z" fill="#455A64"/>
    <path d="M133.102 118.052H122.27V121.298H133.102V118.052Z" fill="#455A64"/>
    <path d="M126.442 125.161H115.61V128.406H126.442V125.161Z" fill="#068BF7"/>
    <path d="M126.448 132.276H121.384V135.521H126.448V132.276Z" fill="#455A64"/>
    <path d="M145.018 147.251H139.961V150.497H145.018V147.251Z" fill="#455A64"/>
    <path d="M219.464 174.312H209.575V177.557H219.464V174.312Z" fill="#455A64"/>
    <path d="M274.703 174.312H250.48V177.557H274.703V174.312Z" fill="#455A64"/>
    <path d="M182.235 167.208H172.347V170.454H182.235V167.208Z" fill="#E0E0E0"/>
    <path d="M146.411 161.113H136.523V164.359H146.411V161.113Z" fill="#455A64"/>
    <path d="M207.524 174.312H191.931V177.557H207.524V174.312Z" fill="#455A64"/>
    <path d="M129.594 139.513H121.384V142.759H129.594V139.513Z" fill="#455A64"/>
    <path d="M136.616 147.373H121.384V150.619H136.616V147.373Z" fill="#455A64"/>
    <path d="M143.672 153.387H121.384V156.633H143.672V153.387Z" fill="#455A64"/>
    <path d="M184.053 153.387H161.765V156.633H184.053V153.387Z" fill="#455A64"/>
    <path d="M167.621 167.208H136.325V170.454H167.621V167.208Z" fill="#455A64"/>
    <path d="M189.257 174.312H136.325V177.557H189.257V174.312Z" fill="#455A64"/>
    <path d="M173.244 181.42H120.312V184.666H173.244V181.42Z" fill="#455A64"/>
    <path d="M159.399 153.387H146.026V156.633H159.399V153.387Z" fill="#455A64"/>
    <path d="M142.239 132.276H128.441V135.521H142.239V132.276Z" fill="#455A64"/>
    <path d="M145.281 139.519H131.482V142.764H145.281V139.519Z" fill="#455A64"/>
    <path d="M198.737 139.519H162.202V142.764H198.737V139.519Z" fill="#455A64"/>
    <path d="M241.921 139.519H199.728V142.764H241.921V139.519Z" fill="#455A64"/>
    <path d="M158.968 139.519H147.547V142.764H158.968V139.519Z" fill="#455A64"/>
    <path d="M162.214 132.276H144.127V135.521H162.214V132.276Z" fill="#455A64"/>
    <path d="M174.281 132.276H164.212V135.521H174.281V132.276Z" fill="#E0E0E0"/>
    <path d="M146.114 118.052H134.821V121.298H146.114V118.052Z" fill="#455A64"/>
    <path d="M209.546 118.052H153.788V121.298H209.546V118.052Z" fill="#455A64"/>
    <path d="M272.133 139.519H245.772V142.764H272.133V139.519Z" fill="#455A64"/>
    <path d="M248.4 174.312H222.033V177.557H248.4V174.312Z" fill="#455A64"/>
    <path d="M254.851 110.926H199.926V114.172H254.851V110.926Z" fill="#455A64"/>
    <path d="M181.326 110.926H143.107V114.172H181.326V110.926Z" fill="#455A64"/>
    <path d="M142.21 95.9565H116.478V99.2021H142.21V95.9565Z" fill="#455A64"/>
    <path d="M180.015 95.9565H144.779V99.2021H180.015V95.9565Z" fill="#455A64"/>
    <path d="M145.595 89.0688H134.268V92.3145H145.595V89.0688Z" fill="#E0E0E0"/>
    <path d="M110.861 89.0688H107.714V92.3145H110.861V89.0688Z" fill="#455A64"/>
    <path d="M110.861 96.1772H107.714V99.4229H110.861V96.1772Z" fill="#455A64"/>
    <path d="M110.861 103.281H107.714V106.526H110.861V103.281Z" fill="#455A64"/>
    <path d="M110.861 110.384H107.714V113.63H110.861V110.384Z" fill="#455A64"/>
    <path d="M110.861 117.487H107.714V120.733H110.861V117.487Z" fill="#455A64"/>
    <path d="M110.861 124.59H107.714V127.836H110.861V124.59Z" fill="#455A64"/>
    <path d="M110.861 131.693H107.714V134.939H110.861V131.693Z" fill="#455A64"/>
    <path d="M110.861 138.796H107.714V142.042H110.861V138.796Z" fill="#455A64"/>
    <path d="M110.861 145.899H107.714V149.145H110.861V145.899Z" fill="#455A64"/>
    <path d="M143.777 196.763H138.719V200.009H143.777V196.763Z" fill="#E0E0E0"/>
    <path d="M135.643 196.763H120.411V200.009H135.643V196.763Z" fill="#068BF7"/>
    <path d="M110.861 196.401H107.714V199.647H110.861V196.401Z" fill="#455A64"/>
    <path d="M110.861 153.002H107.714V156.248H110.861V153.002Z" fill="#455A64"/>
    <path d="M110.861 160.105H107.714V163.351H110.861V160.105Z" fill="#455A64"/>
    <path d="M110.861 167.208H107.714V170.454H110.861V167.208Z" fill="#455A64"/>
    <path d="M110.861 174.312H107.714V177.557H110.861V174.312Z" fill="#455A64"/>
    <path d="M110.861 181.42H107.714V184.666H110.861V181.42Z" fill="#455A64"/>
    <path d="M135.742 188.891H120.312V192.137H135.742V188.891Z" fill="#455A64"/>
    <path d="M173.629 188.891H138.719V192.137H173.629V188.891Z" fill="#455A64"/>
    <path d="M110.861 188.891H107.714V192.137H110.861V188.891Z" fill="#455A64"/>
    <path d="M195.643 95.9336H184.315V99.1792H195.643V95.9336Z" fill="#E0E0E0"/>
    <g opacity="0.3">
        <path d="M209.121 152.775H201.382V215.637H293.582L291.182 154.302L209.121 152.775Z" fill="black"/>
    </g>
    <path d="M299.578 143.481H207.32V209.698H299.578V143.481Z" fill="#E0E0E0"/>
    <path d="M299.858 209.99H207.029V143.189H299.858V209.99ZM207.6 209.407H299.275V143.772H207.611L207.6 209.407Z" fill="#263238"/>
    <path d="M239.753 150.555H224.836V153.702H239.753V150.555Z" fill="#455A64"/>
    <path d="M232.294 164.656H224.836V167.803H232.294V164.656Z" fill="#068BF7"/>
    <path d="M240.953 171.748H230.447V174.895H240.953V171.748Z" fill="#455A64"/>
    <path d="M248.744 171.748H242.626V174.895H248.744V171.748Z" fill="#455A64"/>
    <path d="M240.953 178.664H230.447V181.811H240.953V178.664Z" fill="#455A64"/>
    <path d="M234.503 185.558H223.997V188.704H234.503V185.558Z" fill="#068BF7"/>
    <path d="M234.497 192.451H229.591V195.597H234.497V192.451Z" fill="#455A64"/>
    <path d="M237.556 199.472H229.591V202.619H237.556V199.472Z" fill="#455A64"/>
    <path d="M249.816 192.451H236.437V195.597H249.816V192.451Z" fill="#455A64"/>
    <path d="M252.764 199.478H239.386V202.625H252.764V199.478Z" fill="#455A64"/>
    <path d="M285.005 199.478H269.179V202.625H285.005V199.478Z" fill="#455A64"/>
    <path d="M266.038 199.478H254.967V202.625H266.038V199.478Z" fill="#455A64"/>
    <path d="M269.191 192.451H251.652V195.597H269.191V192.451Z" fill="#455A64"/>
    <path d="M280.891 192.451H271.125V195.597H280.891V192.451Z" fill="white"/>
    <path d="M253.575 178.664H242.626V181.811H253.575V178.664Z" fill="#455A64"/>
    <path d="M287.72 171.748H250.655V174.895H287.72V171.748Z" fill="#455A64"/>
    <path d="M249.793 157.233H224.836V160.379H249.793V157.233Z" fill="#455A64"/>
    <path d="M286.45 157.233H252.281V160.379H286.45V157.233Z" fill="#455A64"/>
    <path d="M253.068 150.555H242.084V153.702H253.068V150.555Z" fill="white"/>
    <path d="M219.382 150.555H216.334V153.702H219.382V150.555Z" fill="#455A64"/>
    <path d="M219.382 157.443H216.334V160.589H219.382V157.443Z" fill="#455A64"/>
    <path d="M219.382 164.336H216.334V167.482H219.382V164.336Z" fill="#455A64"/>
    <path d="M219.382 171.223H216.334V174.37H219.382V171.223Z" fill="#455A64"/>
    <path d="M219.382 178.11H216.334V181.257H219.382V178.11Z" fill="#455A64"/>
    <path d="M219.382 184.998H216.334V188.145H219.382V184.998Z" fill="#455A64"/>
    <path d="M219.382 191.891H216.334V195.038H219.382V191.891Z" fill="#455A64"/>
    <path d="M219.382 198.779H216.334V201.925H219.382V198.779Z" fill="#455A64"/>
    <g opacity="0.3">
        <path d="M157.599 234.107C158.764 228.28 154.977 210.852 154.977 210.852L126.646 214.453L125.481 233.979L157.599 234.107Z" fill="black"/>
    </g>
    <path d="M121.553 210.852C121.553 210.852 122.8 234.026 117.603 241.997L152.885 242.865C152.885 242.865 155.623 229.329 155 210.852H121.553Z" fill="#068BF7"/>
    <path d="M154.883 215.339C154.883 215.421 147.536 215.49 138.481 215.49C129.426 215.49 122.078 215.421 122.078 215.339C122.078 215.257 129.42 215.188 138.481 215.188C147.541 215.188 154.883 215.257 154.883 215.339Z" fill="#263238"/>
    <path d="M150.962 223.27C150.962 223.351 145.088 223.421 137.851 223.421C130.614 223.421 124.741 223.351 124.741 223.27C124.741 223.188 130.608 223.118 137.851 223.118C145.094 223.118 150.962 223.188 150.962 223.27Z" fill="#263238"/>
    <path d="M151.271 227.599C151.271 227.68 145.403 227.75 138.16 227.75C130.917 227.75 125.049 227.68 125.049 227.599C125.049 227.517 130.917 227.447 138.154 227.447C145.391 227.447 151.271 227.517 151.271 227.599Z" fill="#263238"/>
    <path d="M150.426 231.929C150.426 232.01 144.552 232.08 137.315 232.08C130.078 232.08 124.205 232.01 124.205 231.929C124.205 231.847 130.072 231.777 137.315 231.777C144.558 231.777 150.426 231.847 150.426 231.929Z" fill="#263238"/>
    <g opacity="0.3">
        <path d="M115.726 211.283C115.726 211.283 117.236 228.438 117.236 234.539H112.889L115.726 211.283Z" fill="black"/>
    </g>
    <path d="M105.302 211.283C105.302 211.283 106.549 234.463 101.351 242.428H112.97C112.97 242.428 116.309 229.76 115.726 211.283H105.302Z" fill="#E0E0E0"/>
    <path d="M267.722 110.501L287.26 88.0438L267.588 73.7561L283.024 64.6719C283.024 64.6719 307.235 79.3849 306.914 88.2186C306.629 96.2598 276.107 116.602 276.107 116.602L267.722 110.501Z" fill="#FFBF9D"/>
    <path d="M252.397 161.544C250.077 165.353 246.889 168.559 243.094 170.902C239.299 173.245 235.005 174.658 230.56 175.027C226.116 175.395 221.647 174.709 217.518 173.023C213.389 171.337 209.717 168.7 206.801 165.326C203.884 161.952 201.806 157.937 200.735 153.608C199.665 149.278 199.632 144.757 200.639 140.413C201.647 136.068 203.667 132.024 206.534 128.608C209.401 125.192 213.035 122.501 217.139 120.756C222.656 118.409 228.777 117.874 234.618 119.229C240.459 120.584 245.719 123.758 249.64 128.294C253.561 132.831 255.941 138.495 256.437 144.47C256.932 150.446 255.518 156.424 252.397 161.544ZM205.671 133.062C202.394 138.437 201.145 144.805 202.148 151.02C203.152 157.234 206.342 162.885 211.144 166.955C215.946 171.025 222.044 173.246 228.339 173.217C234.633 173.189 240.711 170.912 245.475 166.799C250.24 162.685 253.379 157.005 254.326 150.782C255.272 144.559 253.965 138.202 250.639 132.858C247.314 127.513 242.188 123.532 236.187 121.633C230.185 119.734 223.703 120.04 217.908 122.498C212.829 124.646 208.55 128.33 205.671 133.033V133.062Z" fill="#068BF7"/>
    <g opacity="0.3">
        <path d="M252.397 161.544C250.077 165.353 246.889 168.559 243.094 170.902C239.299 173.245 235.005 174.658 230.56 175.027C226.116 175.395 221.647 174.709 217.518 173.023C213.389 171.337 209.717 168.7 206.801 165.326C203.884 161.952 201.806 157.937 200.735 153.608C199.665 149.278 199.632 144.757 200.639 140.413C201.647 136.068 203.667 132.024 206.534 128.608C209.401 125.192 213.035 122.501 217.139 120.756C222.656 118.409 228.777 117.874 234.618 119.229C240.459 120.584 245.719 123.758 249.64 128.294C253.561 132.831 255.941 138.495 256.437 144.47C256.932 150.446 255.518 156.424 252.397 161.544ZM205.671 133.062C202.394 138.437 201.145 144.805 202.148 151.02C203.152 157.234 206.342 162.885 211.144 166.955C215.946 171.025 222.044 173.246 228.339 173.217C234.633 173.189 240.711 170.912 245.475 166.799C250.24 162.685 253.379 157.005 254.326 150.782C255.272 144.559 253.965 138.202 250.639 132.858C247.314 127.513 242.188 123.532 236.187 121.633C230.185 119.734 223.703 120.04 217.908 122.498C212.829 124.646 208.55 128.33 205.671 133.033V133.062Z" fill="black"/>
    </g>
    <path d="M251.25 160.274C248.929 164.083 245.741 167.289 241.946 169.632C238.151 171.975 233.857 173.388 229.412 173.756C224.968 174.125 220.499 173.439 216.37 171.753C212.241 170.067 208.569 167.43 205.653 164.056C202.736 160.682 200.658 156.667 199.587 152.338C198.517 148.008 198.484 143.487 199.491 139.143C200.499 134.798 202.519 130.754 205.386 127.338C208.253 123.922 211.887 121.231 215.991 119.486C221.508 117.139 227.629 116.604 233.47 117.959C239.311 119.314 244.571 122.488 248.492 127.024C252.413 131.561 254.793 137.225 255.289 143.2C255.784 149.176 254.37 155.154 251.25 160.274ZM204.523 131.792C201.249 137.167 200.003 143.534 201.009 149.746C202.014 155.958 205.205 161.607 210.008 165.674C214.81 169.741 220.907 171.96 227.2 171.929C233.493 171.898 239.568 169.621 244.33 165.507C249.092 161.393 252.229 155.714 253.174 149.492C254.119 143.271 252.81 136.916 249.484 131.574C246.159 126.231 241.034 122.253 235.034 120.355C229.034 118.457 222.553 118.764 216.76 121.222C211.675 123.378 207.396 127.075 204.523 131.792Z" fill="#068BF7"/>
    <path d="M292.434 108.217L293.541 109.965C294.538 111.503 293.32 113.985 291.141 114.993L254.18 137.625L250.731 132.579L286.759 107.354C289.09 105.571 291.152 106.235 292.434 108.217Z" fill="#068BF7"/>
    <path d="M228.233 122.009C228.078 122.024 227.922 122.024 227.767 122.009C227.464 122.009 227.015 121.968 226.438 122.009C224.81 122.077 223.196 122.341 221.631 122.795C220.549 123.111 219.49 123.5 218.461 123.961C217.286 124.491 216.149 125.103 215.058 125.79C213.852 126.544 212.708 127.393 211.638 128.331C210.481 129.331 209.418 130.435 208.462 131.629C207.515 132.826 206.686 134.112 205.986 135.469C205.355 136.745 204.833 138.073 204.424 139.437C203.746 141.756 203.421 144.165 203.463 146.581C203.484 148.209 203.68 149.83 204.045 151.417C204.15 152 204.308 152.408 204.372 152.711C204.422 152.856 204.458 153.007 204.477 153.159C204.412 153.02 204.358 152.876 204.313 152.728C204.232 152.431 204.057 152.012 203.929 151.446C203.513 149.858 203.281 148.228 203.235 146.587C203.163 144.146 203.47 141.708 204.144 139.361C204.548 137.976 205.073 136.629 205.712 135.335C206.416 133.956 207.255 132.65 208.218 131.437C209.186 130.23 210.262 129.114 211.434 128.104C212.525 127.152 213.694 126.294 214.93 125.54C216.034 124.849 217.187 124.242 218.38 123.722C219.424 123.277 220.496 122.903 221.59 122.603C223.171 122.17 224.8 121.941 226.438 121.921C226.886 121.914 227.333 121.929 227.779 121.968C227.931 121.969 228.083 121.983 228.233 122.009Z" fill="white"/>
    <path d="M250.329 152.285C250.259 152.285 250.783 150.992 251.15 148.818C251.191 148.545 251.238 148.236 251.279 147.968C251.319 147.7 251.331 147.356 251.366 147.035C251.436 146.394 251.424 145.701 251.436 144.973C251.383 141.812 250.649 138.7 249.286 135.848C248.954 135.201 248.657 134.577 248.307 134.035C248.138 133.762 247.986 133.488 247.817 133.237C247.648 132.987 247.479 132.759 247.322 132.532C246.023 130.755 244.991 129.846 245.038 129.793C245.292 129.99 245.531 130.204 245.755 130.434C246.035 130.687 246.296 130.96 246.536 131.25C246.877 131.619 247.196 132.008 247.491 132.416C247.66 132.637 247.829 132.87 248.01 133.115C248.19 133.36 248.342 133.633 248.523 133.913C248.893 134.501 249.234 135.108 249.542 135.731C250.23 137.174 250.768 138.683 251.15 140.235C251.509 141.792 251.704 143.381 251.733 144.978C251.733 145.713 251.733 146.412 251.634 147.065C251.599 147.385 251.582 147.706 251.529 148.003C251.477 148.3 251.424 148.585 251.378 148.859C251.29 149.352 251.178 149.84 251.04 150.322C250.953 150.689 250.84 151.049 250.702 151.4C250.603 151.705 250.478 152.001 250.329 152.285Z" fill="white"/>
    <path d="M232.848 132.229C232.906 132.293 229.095 135.86 224.335 140.201C219.574 144.542 215.676 148.015 215.594 147.951C215.513 147.886 219.347 144.32 224.108 139.985C228.868 135.65 232.766 132.165 232.848 132.229Z" fill="white"/>
    <path d="M240.097 136.827C240.013 136.92 239.922 137.006 239.823 137.084L239.007 137.783L235.989 140.329C233.437 142.473 229.917 145.445 226.083 148.772C222.249 152.1 218.782 155.147 216.294 157.361L213.334 159.983L212.524 160.689C212.434 160.776 212.334 160.852 212.226 160.916C212.304 160.817 212.39 160.726 212.483 160.642L213.258 159.896C213.934 159.249 214.919 158.334 216.171 157.204C218.63 154.949 222.057 151.872 225.908 148.539C229.76 145.206 233.303 142.27 235.896 140.166C237.189 139.111 238.226 138.266 238.978 137.695L239.829 137.037C239.909 136.956 239.999 136.886 240.097 136.827Z" fill="white"/>
    <g opacity="0.3">
        <path d="M204.686 158.788L243.558 125.249C243.558 125.249 247.398 128.162 249.029 130.819L209.249 165.041C207.341 163.268 205.792 161.146 204.686 158.788Z" fill="white"/>
    </g>
    <g opacity="0.3">
        <path d="M213.508 168.188L251.384 135.195C251.384 135.195 251.57 134.886 252.089 137.258L215.367 169.219C214.677 169.021 214.042 168.668 213.508 168.188Z" fill="white"/>
    </g>
    <path d="M267.722 110.5C267.722 110.5 256.325 123.058 256.068 123.53C255.812 124.002 252.741 131.25 253.499 132.719C254.256 134.187 259.967 139.344 259.967 139.344C259.967 139.344 262.006 138.464 260.077 135.014L258.149 131.571L259.186 128.075C259.186 128.075 260.724 132.486 261.616 133.453C262.507 134.42 266.038 136.075 266.924 135.201C267.452 134.696 267.809 134.037 267.944 133.319C267.944 133.319 270.362 135.242 272.069 132.183C272.069 132.183 274.219 131.85 275.14 130.347C276.061 128.844 275.967 126 275.967 126C275.879 125.815 275.749 125.652 275.588 125.523C275.427 125.395 275.239 125.305 275.039 125.259C274.838 125.214 274.63 125.215 274.429 125.261C274.229 125.308 274.042 125.399 273.881 125.528C272.968 126.222 272.263 127.153 271.842 128.22L270.846 126.892C271.105 125.098 271.617 123.35 272.366 121.7C273.06 120.371 277.535 117.475 278.065 115.168C278.514 113.216 274.61 111.922 272.605 112.033C272.305 112.05 272.008 112.111 271.725 112.214L267.722 110.5Z" fill="#FFBF9D"/>
    <path d="M266.732 126.536C266.714 126.65 266.714 126.766 266.732 126.88C266.758 127.187 266.81 127.491 266.889 127.789C267.146 128.787 267.656 129.702 268.371 130.444C269.086 131.186 269.98 131.731 270.968 132.025C271.265 132.115 271.569 132.177 271.877 132.212C271.989 132.229 272.103 132.229 272.215 132.212C272.215 132.177 271.731 132.142 271.003 131.897C270.05 131.578 269.188 131.037 268.486 130.318C267.796 129.589 267.287 128.709 267 127.748C266.778 127.02 266.761 126.536 266.732 126.536Z" fill="#FF9A6C"/>
    <path d="M262.898 126.158C262.885 126.278 262.885 126.399 262.898 126.519C262.904 126.662 262.92 126.804 262.944 126.944C262.963 127.14 262.995 127.335 263.037 127.527C263.145 128.006 263.291 128.476 263.474 128.931C263.934 130.049 264.621 131.059 265.491 131.897C265.848 132.243 266.239 132.553 266.656 132.824C266.825 132.946 266.994 133.034 267.134 133.121C267.274 133.208 267.408 133.267 267.513 133.313C267.619 133.373 267.733 133.42 267.851 133.453C267.851 133.424 267.396 133.208 266.726 132.725C266.331 132.444 265.961 132.13 265.619 131.787C265.201 131.368 264.823 130.911 264.488 130.423C264.123 129.91 263.8 129.368 263.521 128.803C263.366 128.379 263.249 127.943 263.171 127.498C262.962 126.671 262.933 126.152 262.898 126.158Z" fill="#FF9A6C"/>
    <path d="M258.533 125.249C258.533 125.249 258.434 125.418 258.393 125.721C258.352 126.115 258.399 126.513 258.533 126.886C258.651 127.272 258.873 127.619 259.174 127.888C259.396 128.098 259.565 128.185 259.576 128.168C259.196 127.783 258.895 127.328 258.691 126.828C258.538 126.316 258.485 125.78 258.533 125.249Z" fill="#FF9A6C"/>
    <path d="M297.842 86.7095C297.842 86.7561 297.218 86.3366 296.135 85.9461C294.727 85.4352 293.213 85.2928 291.735 85.5324C290.262 85.7996 288.902 86.4971 287.825 87.5369C286.986 88.3235 286.572 88.9179 286.526 88.8888C286.588 88.7275 286.676 88.5778 286.788 88.4459C287.055 88.0679 287.353 87.7132 287.68 87.3854C288.752 86.2483 290.162 85.4863 291.7 85.212C293.228 84.9623 294.796 85.1418 296.228 85.7306C296.66 85.903 297.073 86.1177 297.463 86.3715C297.714 86.5755 297.853 86.692 297.842 86.7095Z" fill="#FF9A6C"/>
    <path d="M238.751 34.7851C238.751 30.9685 238.751 27.1285 238.086 23.3643C237.422 19.6001 236.111 15.8884 233.745 12.8758C233.384 12.4213 230.628 9.49037 230.098 9.71762C229.719 9.8866 231.77 12.7884 231.683 13.2138C230.844 17.0712 231.589 21.1443 233.104 24.7919C234.609 28.3243 236.503 31.678 238.751 34.791" fill="#263238"/>
    <path d="M234.596 20.8064C231.945 11.5999 224.381 5.46991 215.251 8.37756L214.423 8.69221C210.406 10.2349 207.116 13.2332 205.208 17.0908C203.3 20.9484 202.914 25.3827 204.127 29.5119C206.458 37.4773 209.161 46.2469 210.799 50.3724C214.202 58.9147 223.298 56.9568 223.298 56.9568L228.973 70.0092L247.037 60.7502L234.596 20.8064Z" fill="#FFBF9D"/>
    <path d="M223.338 57.0213C227.296 55.4937 230.733 52.8652 233.244 49.4463C233.244 49.4463 233.501 57.47 224.638 59.9872L223.338 57.0213Z" fill="#FF9A6C"/>
    <path d="M210.245 37.2499C210.367 37.5679 210.608 37.8256 210.917 37.9682C211.227 38.1108 211.579 38.127 211.9 38.0133C212.06 37.9661 212.21 37.8873 212.339 37.7816C212.469 37.6759 212.575 37.5453 212.654 37.3976C212.732 37.2499 212.78 37.0881 212.794 36.9216C212.809 36.7552 212.79 36.5874 212.739 36.4283C212.613 36.1145 212.37 35.8617 212.062 35.7227C211.753 35.5837 211.403 35.5693 211.084 35.6825C210.926 35.7298 210.779 35.808 210.651 35.9125C210.523 36.0171 210.417 36.1459 210.339 36.2916C210.261 36.4373 210.212 36.597 210.196 36.7614C210.18 36.9259 210.197 37.0919 210.245 37.2499Z" fill="#263238"/>
    <path d="M207.349 32.3668C207.565 32.4717 208.229 31.4287 209.552 30.9217C210.875 30.4148 212.092 30.712 212.168 30.4964C212.215 30.3973 211.947 30.1642 211.411 30.0185C210.688 29.843 209.929 29.896 209.237 30.1701C208.55 30.4287 207.964 30.9004 207.565 31.5161C207.274 31.9822 207.25 32.326 207.349 32.3668Z" fill="#263238"/>
    <path d="M221.52 33.2933C221.639 33.6146 221.878 33.8767 222.188 34.0237C222.497 34.1707 222.851 34.1909 223.175 34.08C223.336 34.0328 223.486 33.9539 223.616 33.8477C223.746 33.7416 223.853 33.6105 223.931 33.4621C224.01 33.3138 224.057 33.1512 224.072 32.9841C224.086 32.8169 224.066 32.6487 224.014 32.4892C223.896 32.168 223.656 31.9058 223.347 31.7588C223.038 31.6118 222.683 31.5916 222.36 31.7026C222.199 31.7504 222.05 31.8298 221.92 31.9361C221.791 32.0424 221.684 32.1734 221.606 32.3216C221.527 32.4697 221.48 32.632 221.465 32.7989C221.45 32.9657 221.469 33.1338 221.52 33.2933Z" fill="#263238"/>
    <path d="M220.472 27.9443C220.687 28.0492 221.351 27.0003 222.674 26.4992C223.997 25.9981 225.209 26.2894 225.29 26.068C225.337 25.9748 225.069 25.7417 224.533 25.596C223.811 25.4213 223.052 25.4722 222.359 25.7417C221.672 26.0044 221.084 26.4775 220.681 27.0936C220.402 27.5597 220.373 27.9035 220.472 27.9443Z" fill="#263238"/>
    <path d="M219.632 39.8955C219.632 39.8139 218.735 39.9888 217.343 40.3267C216.993 40.4258 216.649 40.4782 216.503 40.2684C216.338 39.9327 216.283 39.5535 216.346 39.1846C216.346 38.2523 216.346 37.2676 216.346 36.242C216.346 32.0583 216.177 28.667 216.008 28.667C215.839 28.667 215.717 32.0641 215.734 36.242C215.734 37.2734 215.734 38.2523 215.769 39.1905C215.717 39.6772 215.834 40.167 216.101 40.5773C216.197 40.6768 216.313 40.7536 216.442 40.802C216.572 40.8504 216.71 40.8692 216.847 40.857C217.046 40.8336 217.242 40.7866 217.43 40.7171C218.823 40.2801 219.656 39.9713 219.632 39.8955Z" fill="#263238"/>
    <path d="M223.863 39.3188C223.641 39.3887 224.189 40.8163 223.356 42.3022C222.523 43.7881 220.938 44.2192 221.025 44.4232C221.025 44.5222 221.474 44.5689 222.121 44.3416C222.956 44.0338 223.659 43.4445 224.108 42.6751C224.533 41.9253 224.652 41.04 224.44 40.2045C224.253 39.5635 223.956 39.2722 223.863 39.3188Z" fill="#263238"/>
    <path d="M218.49 22.5659C218.758 22.8747 220.011 22.1988 221.631 21.7909C223.251 21.383 224.661 21.3248 224.743 20.9285C224.778 20.7362 224.428 20.4857 223.793 20.3458C222.956 20.1729 222.089 20.1989 221.264 20.4216C220.437 20.6255 219.672 21.0252 219.032 21.587C218.549 22.024 218.374 22.4202 218.49 22.5659Z" fill="#263238"/>
    <path d="M206.213 27.7751C206.563 27.9849 207.349 27.3265 208.439 26.8953C209.529 26.4641 210.531 26.3126 210.624 25.9222C210.659 25.7357 210.397 25.491 209.884 25.3395C209.211 25.2136 208.517 25.2878 207.886 25.553C207.255 25.8181 206.716 26.2626 206.335 26.8312C206.044 27.3148 206.044 27.6703 206.213 27.7751Z" fill="#263238"/>
    <path d="M236.344 27.4316C236.467 27.3092 241.588 23.4226 243.634 29.3603C245.679 35.2979 239.328 36.1487 239.258 35.9797C239.188 35.8107 236.344 27.4316 236.344 27.4316Z" fill="#FFBF9D"/>
    <path d="M240.289 33.1015C240.289 33.1015 240.417 33.1365 240.621 33.154C240.904 33.1753 241.184 33.0854 241.402 32.9034C241.944 32.4547 242.13 31.2777 241.787 30.1939C241.629 29.6826 241.362 29.2115 241.006 28.8129C240.885 28.6475 240.726 28.5139 240.542 28.4236C240.359 28.3333 240.156 28.2889 239.951 28.2943C239.823 28.3084 239.703 28.3647 239.61 28.4544C239.517 28.544 239.457 28.6619 239.438 28.7896C239.438 28.9819 239.497 29.0867 239.467 29.11C239.438 29.1334 239.304 29.0518 239.269 28.7896C239.248 28.6304 239.285 28.4689 239.374 28.3351C239.495 28.1552 239.681 28.0296 239.893 27.9854C240.153 27.949 240.419 27.9803 240.664 28.0762C240.909 28.1722 241.125 28.3295 241.291 28.5332C241.726 28.9578 242.046 29.4848 242.224 30.0657C242.602 31.2718 242.381 32.6062 241.606 33.154C241.463 33.2551 241.299 33.3228 241.127 33.3521C240.954 33.3813 240.778 33.3714 240.61 33.3229C240.347 33.2414 240.272 33.119 240.289 33.1015Z" fill="#FF9A6C"/>
    <path d="M204.675 18.3419C203.509 18.1379 205.368 14.0357 207.373 12.1653C210.403 9.32756 215.53 6.48401 219.155 6.30337C223.507 6.08778 227.476 6.95017 230.692 9.89277C233.861 12.9239 236.164 16.7458 237.364 20.964C237.842 22.2128 237.977 23.5669 237.754 24.8855C237.364 26.4821 236.053 27.8514 236.735 29.6461C236.869 29.9673 236.938 30.3119 236.938 30.66C236.938 31.0081 236.869 31.3528 236.735 31.6739C236.035 33.2006 234.334 32.5596 233.355 31.6739C231.257 29.786 230.168 27.0473 229.154 24.4135C228.431 22.5431 227.697 20.626 227.615 18.6215C227.575 17.5319 227.726 16.4364 227.615 15.3468C227.596 14.7996 227.459 14.2631 227.212 13.7742C226.966 13.2853 226.616 12.8557 226.188 12.5149C225.981 12.3862 225.762 12.277 225.535 12.1886C224.46 11.7444 223.286 11.5944 222.134 11.7542C220.982 11.914 219.893 12.3776 218.98 13.0976C216.026 15.4284 210.898 19.1227 209.016 18.4934C206.312 17.5785 205.432 16.687 205.432 16.687L204.675 18.3419Z" fill="#263238"/>
    <path d="M195.69 73.6043C195.69 73.6043 194.839 71.2036 197.723 67.9754C200.608 64.7473 223.467 58.4076 223.467 58.4076C223.467 58.4076 231.776 67.8181 238.966 61.391C244.211 56.7294 244.385 52.0679 244.385 52.0679H265.071L267.652 73.3188L259.407 73.3654L195.69 73.6043Z" fill="#068BF7"/>
    <path d="M261.313 52.0625C261.313 52.0625 266.708 50.9729 271.638 53.2279C279.918 56.9863 294.305 68.9607 294.305 68.9607L276.824 83.3241L264.704 73.3833L261.313 52.0625Z" fill="#068BF7"/>
    <path d="M268.829 76.8151C268.749 76.7859 268.673 76.7467 268.602 76.6986C268.462 76.6112 268.253 76.483 268.019 76.3023C267.293 75.799 266.606 75.242 265.963 74.6358C264.999 73.7409 264.13 72.749 263.37 71.6757C262.403 70.3672 261.744 68.8575 261.441 67.2589C260.858 63.8676 261.365 60.6511 262.461 58.67C262.88 57.8797 263.46 57.1852 264.162 56.6305C264.357 56.4882 264.561 56.3597 264.774 56.246C264.914 56.1644 264.995 56.1236 265.001 56.1353C265.007 56.1469 264.721 56.345 264.232 56.718C263.579 57.2936 263.042 57.9875 262.647 58.7632C261.633 60.7152 261.144 63.8734 261.738 67.1948C262.034 68.751 262.669 70.223 263.597 71.5067C264.335 72.5748 265.177 73.5682 266.108 74.4727C266.736 75.0915 267.397 75.6751 268.089 76.2208C268.346 76.4056 268.594 76.604 268.829 76.8151Z" fill="#263238"/>
    <path d="M264.686 73.3304C264.686 73.412 250.445 73.5402 232.877 73.6101C215.309 73.68 201.062 73.6684 201.062 73.581C201.062 73.4936 215.303 73.3771 232.877 73.3071C250.451 73.2372 264.686 73.243 264.686 73.3304Z" fill="#263238"/>
    <path d="M188.237 70.4228C188.278 70.5103 188.313 70.5977 188.348 70.6851C188.491 71.0987 188.577 71.53 188.604 71.967C188.602 72.1733 188.612 72.3795 188.633 72.5846C188.68 72.7093 188.736 72.8301 188.802 72.9459C189.058 73.7709 189.136 74.6409 189.029 75.4981C188.92 76.4336 189.084 77.3809 189.501 78.2251C189.991 79.0292 191.127 79.5012 191.902 78.9652C191.865 79.2617 191.937 79.5618 192.105 79.8087C192.274 80.0556 192.527 80.2323 192.817 80.3054C193.11 80.3686 193.415 80.3551 193.702 80.2663C193.989 80.1776 194.248 80.0164 194.454 79.7984C194.864 79.3604 195.147 78.8182 195.27 78.231C195.282 78.5819 195.43 78.9145 195.682 79.159C195.934 79.4034 196.271 79.5407 196.622 79.542C196.973 79.5255 197.314 79.4207 197.613 79.2374C197.912 79.054 198.161 78.7981 198.335 78.4932C198.672 77.877 198.87 77.1951 198.918 76.4945C199.01 75.5939 199.152 74.699 199.343 73.8141C199.343 73.8141 200.223 73.9598 200.625 73.9948H200.742C201.094 73.5552 201.377 73.0639 201.581 72.538C202.163 71.3726 202.571 70.6501 202.997 69.6246C203.323 68.8437 203.527 68.0571 203.043 67.5502C201.878 66.3207 199.594 68.8204 199.594 68.8204C199.267 67.9464 196.616 67.8065 196.097 68.9661C195.888 68.3251 195.969 67.958 195.451 67.5269C195.197 67.3067 194.895 67.1492 194.569 67.0672C194.243 66.9852 193.902 66.981 193.574 67.0549C193.243 67.1345 192.948 67.3231 192.737 67.5905C192.525 67.8578 192.41 68.1883 192.409 68.5291C192.125 68.0926 191.717 67.7518 191.237 67.5511C190.756 67.3505 190.227 67.2994 189.717 67.4045C189.107 67.5537 188.574 67.9231 188.219 68.4417C188.044 68.6966 187.916 68.9808 187.841 69.2808C187.799 69.3927 187.778 69.511 187.777 69.6304C187.786 69.6833 187.804 69.7344 187.829 69.7819C187.981 69.9917 188.132 70.1898 188.237 70.4228Z" fill="#FFBF9D"/>
    <path d="M185.434 68.7277C185.146 68.6956 184.855 68.7263 184.58 68.8179C184.306 68.9094 184.054 69.0596 183.843 69.2579C183.421 69.9094 183.245 70.6907 183.348 71.4605C184.146 71.612 184.56 71.647 185.364 71.7985C185.533 71.8276 185.673 71.7985 185.813 71.8859C186.18 72.1481 186.122 73.0513 186.267 73.4591C186.425 73.8198 186.714 74.1069 187.075 74.2618C187.437 74.4167 187.844 74.4276 188.214 74.2924C188.576 74.1363 188.886 73.8802 189.108 73.5541C189.33 73.228 189.454 72.8454 189.466 72.4511C189.472 71.656 189.181 70.8874 188.651 70.2951C188.252 69.8261 187.76 69.4447 187.206 69.175C186.653 68.9052 186.049 68.7529 185.434 68.7277Z" fill="#FFBF9D"/>
    <path d="M192.444 68.3134C192.595 68.3134 192.595 70.7199 192.444 73.6683C192.292 76.6168 192.048 79 191.902 78.9942C191.756 78.9883 191.751 76.5876 191.902 73.6392C192.054 70.6908 192.298 68.2784 192.444 68.3134Z" fill="#FF9A6C"/>
    <path d="M196.138 68.791C196.284 68.791 196.476 70.9703 196.243 73.6507C196.01 76.3311 195.451 78.4521 195.311 78.423C195.171 78.3938 195.48 76.2495 195.701 73.6041C195.923 70.9586 195.969 68.7968 196.138 68.791Z" fill="#FF9A6C"/>
    <path d="M199.728 69.2861C199.879 69.2861 199.943 71.0983 199.658 73.3009C199.372 75.5035 199.04 77.2458 198.9 77.2341C198.76 77.2225 198.842 75.4161 199.122 73.231C199.401 71.0459 199.576 69.2803 199.728 69.2861Z" fill="#FF9A6C"/>
    <path d="M186.588 69.1001C186.588 69.036 186.972 68.9486 187.526 69.2049C188.224 69.5624 188.753 70.1797 189 70.9239C189.259 71.6307 189.384 72.3797 189.367 73.1323C189.303 73.7966 188.82 73.9889 188.785 73.9015C188.75 73.8141 189.006 73.6101 188.959 73.1206C188.862 72.4381 188.698 71.7668 188.47 71.1162C188.252 70.483 187.845 69.9319 187.305 69.5371C186.92 69.2457 186.582 69.1816 186.588 69.1001Z" fill="#FF9A6C"/>
    <path d="M274.895 253.727C277.61 251.963 279.76 249.455 281.087 246.501C282.414 243.548 282.862 240.275 282.377 237.074L288.991 232.738L289.929 232.156L342.296 197.835C344.821 199.441 347.728 200.345 350.718 200.455C353.708 200.565 356.674 199.876 359.31 198.459C361.946 197.043 364.157 194.95 365.716 192.396C367.274 189.841 368.125 186.918 368.179 183.926L365.12 183.396L361.787 188.057L354.124 186.443L349.847 179.888L351.461 172.22L357.83 168.065L353.518 166.935C348.95 165.589 346.415 166.684 342.115 169.493C339.41 171.258 337.269 173.763 335.947 176.71C334.626 179.658 334.18 182.923 334.662 186.117L281.421 221.015L279.772 222.087L274.726 225.391C271.997 223.662 268.829 222.754 265.598 222.776C262.367 222.797 259.211 223.748 256.505 225.513C252.223 228.304 246.448 234.114 245.825 238.816L248.866 239.317L255.235 235.162L262.903 236.776L267.18 243.332L265.566 251L258.708 252.935L259.192 255.155C261.727 256.218 264.484 256.644 267.221 256.395C269.959 256.146 272.594 255.23 274.895 253.727Z" fill="#E0E0E0"/>
    <g opacity="0.3">
        <path d="M274.895 253.727C277.61 251.963 279.76 249.455 281.087 246.501C282.414 243.548 282.862 240.275 282.377 237.074L288.991 232.738L289.929 232.156L342.296 197.835C344.821 199.441 347.728 200.345 350.718 200.455C353.708 200.565 356.674 199.876 359.31 198.459C361.946 197.043 364.157 194.95 365.716 192.396C367.274 189.841 368.125 186.918 368.179 183.926L365.12 183.396L361.787 188.057L354.124 186.443L349.847 179.888L351.461 172.22L357.83 168.065L353.518 166.935C348.95 165.589 346.415 166.684 342.115 169.493C339.41 171.258 337.269 173.763 335.947 176.71C334.626 179.658 334.18 182.923 334.662 186.117L281.421 221.015L279.772 222.087L274.726 225.391C271.997 223.662 268.829 222.754 265.598 222.776C262.367 222.797 259.211 223.748 256.505 225.513C252.223 228.304 246.448 234.114 245.825 238.816L248.866 239.317L255.235 235.162L262.903 236.776L267.18 243.332L265.566 251L258.708 252.935L259.192 255.155C261.727 256.218 264.484 256.644 267.221 256.395C269.959 256.146 272.594 255.23 274.895 253.727Z" fill="black"/>
    </g>
    <path d="M271.854 253.226C274.564 251.46 276.709 248.95 278.031 245.997C279.352 243.043 279.795 239.772 279.306 236.573L285.926 232.232L286.858 231.649L339.225 197.323C341.751 198.934 344.661 199.843 347.655 199.954C350.65 200.066 353.619 199.376 356.258 197.957C358.897 196.538 361.11 194.44 362.667 191.881C364.225 189.321 365.072 186.392 365.12 183.396L358.71 187.557L351.048 185.943L346.771 179.382L348.385 171.719L354.759 167.559C352 166.401 348.983 165.999 346.017 166.393C343.051 166.788 340.244 167.966 337.884 169.806C335.524 171.645 333.697 174.08 332.59 176.86C331.483 179.64 331.136 182.664 331.586 185.622L278.345 220.526L276.719 221.563L271.673 224.873C269.147 223.272 266.241 222.373 263.252 222.267C260.264 222.161 257.301 222.852 254.669 224.27C252.036 225.688 249.828 227.781 248.272 230.334C246.715 232.888 245.867 235.809 245.813 238.799L252.188 234.639L259.85 236.253L264.127 242.814L262.513 250.476L256.156 254.654C258.69 255.716 261.446 256.142 264.182 255.893C266.919 255.644 269.553 254.728 271.854 253.226Z" fill="#E0E0E0"/>
    <path d="M271.854 253.226C271.854 253.226 271.551 253.424 270.95 253.809C270.031 254.324 269.07 254.761 268.078 255.114C264.176 256.449 259.92 256.308 256.115 254.718L256.01 254.677L256.109 254.613L262.478 250.447L262.443 250.488C262.938 248.128 263.474 245.558 264.046 242.825V242.889C262.711 240.838 261.272 238.636 259.763 236.334L259.821 236.369L252.153 234.766H252.228L245.854 238.933L245.691 239.038V238.845C245.733 235.983 246.501 233.179 247.924 230.695C249.347 228.211 251.377 226.129 253.825 224.645C256.454 223.025 259.478 222.16 262.565 222.145C265.803 222.139 268.975 223.052 271.714 224.779H271.58L331.533 185.494L331.469 185.634C331.003 182.472 331.428 179.243 332.699 176.31C333.92 173.513 335.872 171.096 338.351 169.314C340.829 167.532 343.742 166.451 346.782 166.183C349.528 165.945 352.291 166.374 354.835 167.436L355.086 167.547L354.859 167.692L348.484 171.853L348.548 171.76C348.008 174.335 347.47 176.889 346.934 179.422V179.317L351.211 185.872L351.123 185.814L358.786 187.428H358.681L365.056 183.274L365.277 183.134V183.39C365.218 186.506 364.302 189.545 362.629 192.174C360.957 194.803 358.593 196.921 355.797 198.296C353.14 199.625 350.179 200.228 347.214 200.044C344.35 199.853 341.579 198.954 339.149 197.427H339.283L279.33 236.643V236.579C279.731 239.342 279.455 242.162 278.525 244.795C277.846 246.709 276.827 248.485 275.519 250.039C274.719 250.974 273.823 251.822 272.844 252.568C272.162 253.04 271.813 253.273 271.813 253.273L272.821 252.539C273.789 251.784 274.677 250.933 275.472 249.998C277.009 248.157 278.137 246.009 278.78 243.699C279.423 241.388 279.567 238.967 279.201 236.596V236.555H279.236L339.12 197.241L339.19 197.2L339.26 197.241C341.652 198.746 344.382 199.629 347.202 199.811C350.122 199.998 353.04 199.407 355.657 198.097C358.399 196.739 360.715 194.653 362.352 192.068C363.989 189.482 364.884 186.497 364.939 183.437L365.149 183.553L358.774 187.714L358.728 187.743H358.669L351.007 186.135H350.949V186.088L346.666 179.527L346.637 179.48V179.422C347.169 176.885 347.707 174.331 348.251 171.76V171.701L348.297 171.666L354.672 167.512V167.762C352.169 166.71 349.447 166.283 346.743 166.52C344.038 166.756 341.431 167.649 339.149 169.12C336.415 170.899 334.263 173.442 332.961 176.433C331.711 179.32 331.293 182.498 331.755 185.61V185.698L331.679 185.75L271.743 224.995L271.673 225.035L271.603 224.995C268.899 223.286 265.764 222.384 262.565 222.396C259.593 222.413 256.678 223.218 254.119 224.73C251.559 226.242 249.447 228.407 247.998 231.002C246.672 233.397 245.951 236.079 245.9 238.816L245.737 238.729L252.147 234.574H252.188L259.85 236.194H259.885V236.229L264.156 242.79V242.819V242.854C263.574 245.581 263.032 248.151 262.531 250.517V250.546L256.121 254.695V254.59C259.9 256.176 264.126 256.336 268.014 255.038C269.007 254.695 269.97 254.268 270.892 253.762L271.854 253.226Z" fill="#263238"/>
    <path d="M336.865 194.98C336.865 194.98 336.719 194.904 336.486 194.735C336.157 194.484 335.844 194.214 335.548 193.925C333.582 192.008 332.245 189.539 331.714 186.845C331.631 186.442 331.576 186.033 331.551 185.622C331.528 185.473 331.528 185.322 331.551 185.173C331.597 185.173 331.673 185.802 331.912 186.804C332.229 188.105 332.711 189.361 333.345 190.539C333.983 191.715 334.766 192.806 335.676 193.785C336.399 194.531 336.894 194.939 336.865 194.98Z" fill="#263238"/>
    <path d="M104.218 38.0132H62.398C59.2217 38.0132 56.6469 40.5881 56.6469 43.7644V85.5844C56.6469 88.7607 59.2217 91.3356 62.398 91.3356H104.218C107.394 91.3356 109.969 88.7607 109.969 85.5844V43.7644C109.969 40.5881 107.394 38.0132 104.218 38.0132Z" fill="#068BF7"/>
    <g opacity="0.3">
        <path d="M104.218 38.0132H62.398C59.2217 38.0132 56.6469 40.5881 56.6469 43.7644V85.5844C56.6469 88.7607 59.2217 91.3356 62.398 91.3356H104.218C107.394 91.3356 109.969 88.7607 109.969 85.5844V43.7644C109.969 40.5881 107.394 38.0132 104.218 38.0132Z" fill="black"/>
    </g>
    <path d="M96.3983 38.0132H54.5783C51.402 38.0132 48.8271 40.5881 48.8271 43.7644V85.5844C48.8271 88.7607 51.402 91.3356 54.5783 91.3356H96.3983C99.5746 91.3356 102.149 88.7607 102.149 85.5844V43.7644C102.149 40.5881 99.5746 38.0132 96.3983 38.0132Z" fill="#068BF7"/>
    <path d="M67.9802 52.7903C69.0804 52.1219 70.2664 51.6063 71.5055 51.2578L72.2281 47.7616L78.125 47.6567L78.9757 51.1179C80.2262 51.4252 81.4296 51.8995 82.5534 52.5281L85.531 50.5702L89.7789 54.6491L87.9317 57.6966C88.5949 58.7987 89.1083 59.9842 89.4584 61.2219L92.9545 61.9502L93.0594 67.8471L89.5982 68.6979C89.2899 69.948 88.8157 71.1513 88.1881 72.2756L90.146 75.2532L86.0671 79.4952L83.0196 77.648C81.9189 78.3154 80.7331 78.8309 79.4943 79.1805L78.7659 82.6767L72.869 82.7816L72.0241 79.3379C70.7748 79.027 69.5719 78.5529 68.4464 77.9277L65.4688 79.8798L61.2268 75.8009L63.0739 72.7592C62.4065 71.6565 61.8911 70.4687 61.5415 69.2281L58.0453 68.5056L57.9404 62.6087L61.4016 61.758C61.7115 60.5083 62.1856 59.3052 62.8117 58.1802L60.8597 55.2026L64.9386 50.9548L67.9861 52.8078L67.9802 52.7903ZM71.121 60.645C70.2512 61.5452 69.6679 62.6832 69.445 63.915C69.222 65.1468 69.3694 66.417 69.8685 67.565C70.3676 68.713 71.1959 69.6871 72.2487 70.3643C73.3016 71.0414 74.5316 71.3911 75.7832 71.3691C77.0347 71.3471 78.2517 70.9544 79.28 70.2406C80.3084 69.5269 81.102 68.5241 81.5604 67.3593C82.0188 66.1945 82.1214 64.9199 81.8553 63.6967C81.5892 62.4735 80.9662 61.3568 80.0653 60.4877C78.8581 59.3231 77.2378 58.6854 75.5606 58.7149C73.8834 58.7444 72.2865 59.4386 71.121 60.645Z" fill="white"/>
    <g opacity="0.3">
        <path d="M90.1693 38.0132L48.8271 71.0345V77.4616L98.1231 38.0132H90.1693Z" fill="white"/>
    </g>
    <g opacity="0.3">
        <path d="M48.8796 84.9556L102.15 43.6309V55.2323L54.4443 91.3594C53.7083 91.3587 52.9797 91.2124 52.3004 90.9289C51.6211 90.6455 51.0046 90.2306 50.4863 89.7079C49.9681 89.1853 49.5583 88.5654 49.2805 87.8838C49.0027 87.2022 48.8625 86.4724 48.8679 85.7364L48.8796 84.9556Z" fill="white"/>
    </g>
</svg>
