<svg width="300" height="200" viewBox="0 0 248 184" fill="none" xmlns="http://www.w3.org/2000/svg">
    <path d="M211.224 121.478H37.3296V147.064H211.224V121.478Z" fill="#263238"/>
    <path d="M217.058 0H31.4886C25.5991 0 20.8247 4.78444 20.8247 10.6863V128.294C20.8247 134.196 25.5991 138.981 31.4886 138.981H217.058C222.947 138.981 227.722 134.196 227.722 128.294V10.6863C227.722 4.78444 222.947 0 217.058 0Z" fill="#263238"/>
    <path d="M218.2 9.20624H30.3535V128.331H218.2V9.20624Z" fill="#FEFEFE"/>
    <path d="M0.660645 176.091V179.889C0.660645 181.988 2.94471 183.694 5.75251 183.694H242.779C245.594 183.694 247.871 181.988 247.871 179.889V176.091H0.660645Z" fill="#263238"/>
    <path d="M124.277 146.773H22.8031C22.454 147.137 6.5019 161.447 1.63553 172.075C-0.452133 176.616 0.908098 179.007 4.79247 179.007H243.79C247.667 179.007 249.028 176.616 246.947 172.075C242.073 161.447 226.121 147.137 225.772 146.766L124.277 146.773Z" fill="#263238"/>
    <path d="M235.047 173.583H18.8315L33.8162 151.351H220.062L235.047 173.583Z" fill="#9C9EB9"/>
    <path d="M232.421 169.677L231.948 168.984H217.524L214.832 163.59H228.311L227.845 162.897H214.49L211.799 157.503H224.208L223.743 156.774H211.457L208.736 151.315H207.493L210.162 156.774H194.719L192.537 151.315H191.293L193.417 156.774H177.967L176.359 151.315H175.108L176.679 156.774H161.237L160.175 151.315H158.931L159.942 156.774H144.499L143.99 151.315H142.746L143.211 156.774H128.547V151.315H127.172V156.774H111.976L112.442 151.315H111.191L110.689 156.774H95.2533L96.2716 151.315H95.0278L93.9658 156.774H78.5229L80.094 151.315H78.8429L77.2354 156.774H61.7852L63.9092 151.315H62.6653L60.4831 156.774H45.0329L47.7097 151.315H46.4659L43.7454 156.774H30.121L29.6555 157.503H43.4035L40.7121 162.897H26.0184L25.5529 163.59H40.3702L37.6788 168.984H21.9304L21.4648 169.677H37.3514L35.402 173.584H36.8569L38.7699 169.677H55.3912L53.8418 173.584H55.2967L56.8169 169.677H73.4673L72.3108 173.584H73.7656L74.8931 169.677H91.5434L90.816 173.584H92.2708L92.9983 169.677H109.649L109.285 173.584H110.703L111.038 169.677H127.325V173.584H128.7V169.677H144.455L144.783 173.584H146.237L145.874 169.677H162.524L163.252 173.584H164.706L163.979 169.677H180.629L181.749 173.584H183.204L182.048 169.677H198.698L200.218 173.584H201.673L200.124 169.677H216.774L218.687 173.584H220.142L218.2 169.677H232.421ZM61.516 157.503H77.0244L75.4314 162.897H59.4284L61.516 157.503ZM44.7128 157.503H60.2212L58.0826 162.897H42.0796L44.7128 157.503ZM55.6676 168.984H39.0754L41.7232 163.59H57.8062L55.6676 168.984ZM73.6346 168.984H57.0497L59.1447 163.59H75.2277L73.6346 168.984ZM91.6017 168.984H75.0313L76.5879 163.59H92.6637L91.6017 168.984ZM92.7874 162.897H76.7844L78.3337 157.503H93.8494L92.7874 162.897ZM109.576 168.984H92.991L93.9948 163.59H110.071L109.576 168.984ZM110.136 162.897H94.1331L95.1369 157.503H110.674L110.136 162.897ZM127.186 168.984H110.958L111.416 163.59H127.186V168.984ZM127.186 162.897H111.474L111.933 157.503H127.208L127.186 162.897ZM128.561 157.503H143.284L143.742 162.897H128.561V157.503ZM128.561 168.984V163.59H143.837L144.295 168.984H128.561ZM210.504 157.503L213.152 162.897H197.149L195.01 157.503H210.504ZM193.701 157.503L195.796 162.897H179.793L178.2 157.503H193.701ZM144.579 157.503H160.087L161.091 162.897H145.088L144.579 157.503ZM145.641 168.984L145.139 163.59H161.222L162.226 168.984H145.641ZM161.382 157.503H176.869L178.418 162.897H162.415L161.382 157.503ZM163.608 168.984L162.568 163.59H178.643L180.2 168.984H163.608ZM181.582 168.984L179.989 163.59H196.065L198.167 168.984H181.582ZM199.549 168.984L197.411 163.59H213.494L216.134 168.984H199.549Z" fill="#D0D1DE"/>
    <path d="M124.277 179.014H113.773C113.764 179.548 113.95 180.067 114.296 180.472C114.513 180.67 114.797 180.777 115.089 180.771H133.456C133.749 180.777 134.033 180.67 134.249 180.472C134.596 180.067 134.782 179.548 134.773 179.014H124.277Z" fill="#110239"/>
    <path d="M198.363 117.491H50.1826V26.8762H198.363V117.491ZM52.9468 114.721H195.599V29.6461H52.9468V114.721Z" fill="#D0D1DE"/>
    <path d="M176.81 49.6842H163.033V108.787H176.81V49.6842Z" fill="#FD425F"/>
    <path d="M151.271 81.6128H137.494V108.788H151.271V81.6128Z" fill="#D0D1DE"/>
    <path d="M125.739 75.0302H111.962V108.788H125.739V75.0302Z" fill="#068BF7"/>
    <path d="M100.207 55.9167H86.4297V108.787H100.207V55.9167Z" fill="#D0D1DE"/>
    <path d="M74.6747 67.522H60.8975V108.788H74.6747V67.522Z" fill="#D0D1DE"/>
    <path d="M144.688 71.0574L118.523 65.8527L93.3039 41.7027L68.2446 63.8846L67.3281 62.8494L93.3402 39.8221L119.185 64.5698L144.084 69.5266L169.355 33.8666L170.482 34.6684L144.688 71.0574Z" fill="#110239"/>
    <path d="M70.8994 63.3664C70.8994 63.9834 70.7168 64.5866 70.3747 65.0997C70.0326 65.6128 69.5464 66.0126 68.9775 66.2488C68.4086 66.4849 67.7826 66.5467 67.1787 66.4263C66.5748 66.3059 66.0201 66.0088 65.5847 65.5725C65.1493 65.1362 64.8528 64.5803 64.7327 63.9751C64.6126 63.3699 64.6742 62.7425 64.9098 62.1725C65.1455 61.6024 65.5445 61.1151 66.0564 60.7723C66.5684 60.4295 67.1704 60.2465 67.7862 60.2465C68.6119 60.2465 69.4037 60.5752 69.9876 61.1603C70.5714 61.7454 70.8994 62.5389 70.8994 63.3664Z" fill="#FD425F"/>
    <path d="M93.1436 43.8821C94.863 43.8821 96.2568 42.4853 96.2568 40.7622C96.2568 39.0392 94.863 37.6423 93.1436 37.6423C91.4242 37.6423 90.0303 39.0392 90.0303 40.7622C90.0303 42.4853 91.4242 43.8821 93.1436 43.8821Z" fill="#FD425F"/>
    <path d="M121.964 65.1815C121.965 65.7992 121.784 66.4034 121.442 66.9176C121.101 67.4318 120.615 67.8328 120.045 68.0698C119.476 68.3069 118.85 68.3693 118.245 68.2491C117.64 68.129 117.085 67.8317 116.649 67.3949C116.213 66.9582 115.917 66.4016 115.797 65.7957C115.677 65.1898 115.739 64.5619 115.976 63.9915C116.212 63.4212 116.612 62.934 117.126 62.5917C117.639 62.2494 118.242 62.0675 118.858 62.069C119.681 62.0709 120.47 62.3994 121.052 62.9827C121.634 63.566 121.962 64.3566 121.964 65.1815Z" fill="#FD425F"/>
    <path d="M147.495 69.5989C147.495 70.2162 147.313 70.8198 146.97 71.333C146.628 71.8462 146.141 72.2461 145.572 72.482C145.002 72.7179 144.376 72.7793 143.772 72.6583C143.168 72.5373 142.613 72.2395 142.178 71.8024C141.743 71.3653 141.447 70.8087 141.327 70.2031C141.208 69.5974 141.271 68.9698 141.508 68.3999C141.744 67.8299 142.145 67.3432 142.658 67.0013C143.171 66.6593 143.773 66.4776 144.389 66.479C145.214 66.4809 146.004 66.8105 146.586 67.3954C147.168 67.9802 147.495 68.7727 147.495 69.5989Z" fill="#FD425F"/>
    <path d="M173.035 34.8725C173.037 35.4899 172.855 36.0938 172.514 36.6078C172.173 37.1218 171.687 37.5228 171.118 37.7601C170.55 37.9973 169.924 38.0601 169.319 37.9406C168.715 37.821 168.159 37.5245 167.723 37.0884C167.287 36.6524 166.99 36.0965 166.869 35.4911C166.748 34.8857 166.81 34.258 167.045 33.6875C167.28 33.117 167.679 32.6293 168.192 32.2862C168.704 31.943 169.306 31.7599 169.922 31.7599C170.746 31.7599 171.537 32.0876 172.121 32.6711C172.705 33.2546 173.033 34.0463 173.035 34.8725Z" fill="#FD425F"/>
    <path d="M92.7222 58.0166C93.7142 57.7994 94.6307 57.3213 95.3773 56.6316C95.6692 56.2591 96.0328 55.9493 96.4465 55.7204C96.9175 55.4604 97.359 55.15 97.7632 54.7946C98.1449 54.4102 98.6261 54.1401 99.1526 54.0146C99.8218 53.9563 99.4654 54.7436 99.1526 55.2101C98.8398 55.6766 96.9704 56.4566 97.0795 57.12C97.1886 57.7833 99.3198 56.7628 99.7417 56.5514C100.746 56.0557 100.818 55.2174 101.415 54.3646C101.757 53.8835 102.062 53.7741 102.28 54.4228C102.44 54.9112 102.106 55.4069 101.866 55.8079C101.355 56.6681 100.644 57.3911 99.7927 57.9145C100.613 57.4749 101.338 56.8751 101.924 56.1505C102.266 55.7423 103.379 53.7522 104.106 54.2261C105.481 55.181 101.691 58.6945 100.789 58.9642C101.631 58.5509 102.396 57.9962 103.052 57.3241C103.466 56.9523 104.397 56.0411 104.557 57.0179C104.797 58.4758 101.975 59.5182 100.804 60.2107C101.656 59.966 102.471 59.6055 103.226 59.1391C104.281 58.607 104.303 59.5619 103.321 60.2981C102.827 60.6246 102.312 60.9169 101.779 61.1729C99.5963 62.2153 98.3087 62.2299 96.0319 61.9893C95.21 61.9018 93.6242 62.6016 93.1223 62.0768C92.1912 61.0927 92.6858 59.1829 92.7222 58.0166Z" fill="#F88667"/>
    <path d="M93.3109 57.7177L94.984 63.2504C94.984 63.2504 75.4384 68.3093 70.6811 69.0819C65.9239 69.8546 55.4782 57.8489 55.4782 57.8489C55.4782 57.8489 51.9212 49.1817 54.5835 49.2983C56.6348 49.3858 71.605 60.8303 72.4269 61.2749C73.2489 61.7196 93.3109 57.7177 93.3109 57.7177Z" fill="#068BF7"/>
    <path d="M42.1085 156.614C42.1085 156.614 41.963 160.36 42.5959 162.117C43.2287 163.874 47.7459 166.571 47.7459 166.571C47.7459 166.571 43.6579 167.366 42.0939 166.148C40.53 164.931 36.8057 158.582 37.0457 157.758C37.2858 156.934 38.4206 154.376 38.4206 154.376L42.1085 156.614Z" fill="#F88667"/>
    <path d="M66.4335 154.318C66.4335 154.318 66.2953 158.064 66.9281 159.821C67.5609 161.578 72.0709 164.275 72.0709 164.275C72.0709 164.275 67.9901 165.069 66.4189 163.852C64.8477 162.635 61.1307 156.286 61.378 155.462C61.6253 154.638 62.7455 152.08 62.7455 152.08L66.4335 154.318Z" fill="#F88667"/>
    <path d="M37.9773 156.613C37.9773 156.613 34.5511 157.758 35.4095 160.761C35.9552 163.007 36.1998 165.317 36.1369 167.628H37.1407C37.1407 167.628 37.3516 163.334 37.9917 163.48C38.6319 163.626 40.0649 167.628 41.4906 167.628H49.5721C49.5721 167.628 50.4305 166.767 49.5721 166.272C48.7138 165.776 43.2509 165.98 42.6253 164.77C41.9998 163.56 37.9773 156.613 37.9773 156.613Z" fill="#110239"/>
    <path d="M62.4978 154.222C62.4978 154.222 59.0717 155.367 59.93 158.37C60.4757 160.616 60.7203 162.926 60.6574 165.237H61.6612C61.6612 165.237 61.8722 160.943 62.5123 161.089C63.1524 161.235 64.5854 165.237 66.0111 165.237H74.078C74.078 165.237 74.9363 164.377 74.078 163.874C73.2196 163.371 67.7569 163.589 67.1313 162.372C66.5058 161.155 62.4978 154.222 62.4978 154.222Z" fill="#110239"/>
    <path d="M60.2358 79.5639C60.2358 79.5639 50.634 82.9389 43.6799 79.5639C43.6799 79.5639 39.4682 83.1066 38.799 90.3377C38.6138 93.0519 38.7088 95.7781 39.0827 98.4728C39.5627 102.497 40.7339 113.052 40.0065 119.554C38.9372 129.081 35.9839 156.73 35.9839 156.73L42.5961 157.765C42.5961 157.765 48.6772 124.394 49.3974 120.275C50.1175 116.157 52.4307 99.4204 52.4307 99.4204C52.4307 99.4204 56.5478 112.359 57.6098 118.628C57.7699 119.59 60.7086 155.017 60.7086 155.017H67.1171C67.1171 155.017 66.7606 115.654 66.7606 117.731C66.7606 118.533 65.0221 91.1177 60.2358 79.5639Z" fill="#01C7E2"/>
    <path d="M56.8969 104.611C55.4422 100.237 54.5767 98.0503 51.6162 94.114C51.9217 95.9072 52.1981 97.7004 52.4018 99.5082V99.4134C52.4018 99.4134 55.9223 110.493 57.2898 117.105C57.1661 109.969 57.9589 107.833 56.8969 104.611Z" fill="#00A7CC"/>
    <path d="M53.4416 40.2597C52.7723 40.1212 49.5936 33.4004 48.2333 32.0883C47.5787 36.6806 44.8145 47.5711 44.8145 47.5711C48.1751 51.2158 54.8746 48.9706 54.8746 48.9706C53.8336 46.1887 53.3467 43.2293 53.4416 40.2597Z" fill="#E45940"/>
    <path d="M52.1033 24.252C52.1033 24.252 58.6501 25.7099 59.8794 27.627C61.1087 29.5442 61.1232 34.4937 61.8142 35.8058C62.2361 36.6003 62.6071 37.2637 62.8181 37.7083C63.029 38.153 62.5417 38.3571 61.9743 38.5539C61.8309 38.6057 61.7011 38.6898 61.5952 38.7998C61.4892 38.9097 61.4099 39.0426 61.3632 39.1881C60.9777 40.3909 59.9084 43.4524 58.8173 43.8752C57.4716 44.4073 50.8158 44.2032 48.83 38.4008C46.8441 32.5984 47.928 23.0055 52.1033 24.252Z" fill="#F88667"/>
    <path d="M45.8108 45.2968C48.7277 46.6054 51.7175 47.7444 54.7653 48.7082C54.7653 48.7082 60.0317 59.1248 60.3881 62.0333C60.7445 64.9418 63.4578 84.7619 63.4578 84.7619C63.4578 84.7619 53.034 91.4098 37.9185 86.1395C37.9185 86.1395 41.5555 70.5255 40.7117 64.3587C39.8679 58.1918 40.6026 49.8672 45.8108 45.2968Z" fill="#068BF7"/>
    <path d="M43.9782 87.6848C43.8036 81.0514 45.3239 75.0303 45.433 68.3896C45.5421 63.0246 43.338 59.9703 40.6466 56.6827C40.3509 59.2337 40.3656 61.8111 40.6903 64.3585C41.5195 70.5254 37.897 86.1394 37.897 86.1394C39.8758 86.8291 41.9105 87.3461 43.9782 87.6848Z" fill="#068BF7"/>
    <path d="M37.9333 63.6516C41.5703 60.59 40.1155 57.5285 43.8034 54.6127L44.6109 53.9931C44.8001 52.3894 40.9738 53.2204 42.014 51.6094C43.4688 49.3497 49.7319 45.931 49.5936 43.7368C49.5064 42.2789 49.47 43.1537 49.7464 41.6739C50.0664 39.9755 50.7793 39.6474 49.4554 38.4082C48.5243 37.5335 47.7387 36.5932 48.4807 35.2811C49.0844 34.2095 50.0447 33.8961 50.8812 34.902C51.0994 35.1644 52.1977 37.3731 52.4814 36.1339C52.5615 35.784 52.0959 35.1061 52.0523 34.7198C52.0033 34.4668 52.0183 34.2056 52.0958 33.9599C52.1733 33.7141 52.3109 33.4917 52.496 33.3129C53.1507 32.584 54.1253 32.2414 54.8018 31.5343C55.6529 30.6596 55.762 29.4932 56.984 29.0048C57.6138 28.7708 58.3014 28.7428 58.9481 28.9246C59.2318 29.0048 60.4757 29.8358 60.6721 29.763C62.7815 28.932 61.8359 25.659 60.3956 24.6603C57.7827 22.7611 54.6539 21.7057 51.4267 21.6352C47.6078 21.7081 44.1526 24.6749 41.8976 27.5397C40.2901 29.6245 40.3992 31.8259 39.2427 34.1002C38.1806 36.1339 35.9038 37.1544 34.529 38.9914C33.2415 40.7117 33.2342 42.9641 33.7361 44.9906C34.1289 46.5797 34.5727 48.0157 34.3108 49.6486C33.9908 51.675 32.3686 53.1621 31.823 55.1157C31.1777 56.9054 31.1444 58.8594 31.7285 60.6702C32.6814 64.2639 34.8418 65.248 37.9333 63.6516Z" fill="#110239"/>
    <path d="M32.2521 96.6576C32.2424 97.6342 32.4936 98.5957 32.9796 99.4422C33.2619 99.7924 33.4699 100.197 33.5906 100.63C33.725 101.137 33.9178 101.626 34.1652 102.088C34.4364 102.526 34.5801 103.031 34.5799 103.546C34.4926 104.18 33.8525 103.685 33.467 103.291C33.0814 102.897 32.7832 101.017 32.1577 100.944C31.5321 100.871 31.9976 103.131 32.0994 103.546C32.3395 104.589 33.1032 104.836 33.7288 105.573C34.0998 106.003 34.1362 106.302 33.4888 106.367C33.0014 106.411 32.6159 105.988 32.2958 105.675C31.6068 105.016 31.0898 104.197 30.7901 103.291C31.0223 104.15 31.4201 104.955 31.9612 105.66C32.2668 106.061 33.867 107.548 33.2705 108.088C32.0921 109.159 29.6335 104.873 29.6335 103.969C29.8326 104.843 30.1795 105.676 30.6591 106.433C30.9137 106.899 31.5611 107.971 30.6155 107.891C29.2188 107.796 28.8624 104.975 28.4696 103.692C28.5139 104.541 28.673 105.379 28.9425 106.185C29.2043 107.286 28.3096 107.096 27.8441 106.025C27.6511 105.491 27.4932 104.946 27.3712 104.392C26.8766 102.168 27.1458 100.937 27.8659 98.8664C28.1278 98.1374 27.8223 96.4827 28.4187 96.1547C29.5099 95.4913 31.1756 96.3733 32.2521 96.6576Z" fill="#F88667"/>
    <path d="M33.0377 96.7307L27.022 97.0514C27.022 97.0514 26.9492 79.2287 28.5423 73.1784C30.1353 67.1282 41.5702 50.8217 44.1307 49.5679C47.2586 48.11 56.4967 52.0536 49.739 57.3457C42.9814 62.6379 36.4929 75.234 36.231 75.7443C35.9692 76.2546 33.0377 96.7307 33.0377 96.7307Z" fill="#068BF7"/>
</svg>
