<svg width="189" height="45" viewBox="0 0 189 45" fill="none" xmlns="http://www.w3.org/2000/svg">
    <path fill-rule="evenodd" clip-rule="evenodd" d="M34.8431 0H10C4.47715 0 0 4.47716 0 10V34.8431C0 40.3659 4.47716 44.8431 10 44.8431H34.8431C40.3659 44.8431 44.8431 40.3659 44.8431 34.8431V10C44.8431 4.47715 40.3659 0 34.8431 0ZM22.4399 21.8467C21.4525 21.8467 20.6625 21.563 20.07 20.9957C19.5022 20.4037 19.2183 19.6391 19.2183 18.7018C19.2183 17.7645 19.5022 17.0122 20.07 16.4449C20.6625 15.8529 21.4525 15.5569 22.4399 15.5569C23.4274 15.5569 24.1927 15.8529 24.7358 16.4449C25.3035 17.0122 25.5874 17.7645 25.5874 18.7018C25.5874 19.6391 25.3035 20.4037 24.7358 20.9957C24.1927 21.563 23.4274 21.8467 22.4399 21.8467ZM23.1805 34.9229C22.8102 35.3668 22.4152 35.6135 21.9956 35.6628C21.5759 35.7368 21.2179 35.6628 20.9217 35.4408C20.6255 35.2188 20.4526 34.8982 20.4033 34.4789C20.3786 34.0842 20.5637 33.6526 20.9587 33.1839C21.2796 32.7893 21.5265 32.3946 21.6993 32C21.8968 31.63 22.0449 31.26 22.1437 30.89C21.255 30.816 20.5391 30.4954 19.9959 29.9281C19.4775 29.3608 19.2183 28.6208 19.2183 27.7082C19.2183 26.7956 19.5022 26.0556 20.07 25.4883C20.6378 24.8963 21.4154 24.6003 22.4029 24.6003C23.3903 24.6003 24.168 24.9456 24.7358 25.6363C25.3282 26.3022 25.6245 27.2519 25.6245 28.4851C25.6245 29.4471 25.464 30.4461 25.1431 31.482C24.8468 32.518 24.1927 33.6649 23.1805 34.9229ZM23.8213 10.6686C23.8213 11.5068 23.1418 12.1864 22.3035 12.1864C21.4653 12.1864 20.7858 11.5068 20.7858 10.6686C20.7858 9.83036 21.4653 9.15083 22.3035 9.15083C23.1418 9.15083 23.8213 9.83036 23.8213 10.6686ZM27.8282 14.4934C28.6999 14.4934 29.4066 13.8139 29.4066 12.9756C29.4066 12.1374 28.6999 11.4579 27.8282 11.4579C26.9564 11.4579 26.2497 12.1374 26.2497 12.9756C26.2497 13.8139 26.9564 14.4934 27.8282 14.4934ZM15.2003 12.9756C15.2003 13.8139 15.907 14.4934 16.7788 14.4934C17.6506 14.4934 18.3573 13.8139 18.3573 12.9756C18.3573 12.1374 17.6506 11.4579 16.7788 11.4579C15.907 11.4579 15.2003 12.1374 15.2003 12.9756ZM30.2565 19.7143C31.1282 19.7143 31.8349 19.0076 31.8349 18.1359C31.8349 17.2641 31.1282 16.5574 30.2565 16.5574C29.3847 16.5574 28.678 17.2641 28.678 18.1359C28.678 19.0076 29.3847 19.7143 30.2565 19.7143ZM12.772 18.1359C12.772 19.0076 13.4787 19.7143 14.3505 19.7143C15.2222 19.7143 15.929 19.0076 15.929 18.1359C15.929 17.2641 15.2222 16.5574 14.3505 16.5574C13.4787 16.5574 12.772 17.2641 12.772 18.1359Z" fill="white"/>
    <path d="M61.1773 24.4353C60.0507 24.4353 59.0026 24.307 58.0329 24.0503C57.0632 23.7794 56.2718 23.4015 55.6586 22.9166C55.4447 22.7598 55.2879 22.5958 55.188 22.4246C55.1025 22.2393 55.0597 22.0111 55.0597 21.7402C55.0597 21.3837 55.1666 21.0699 55.3805 20.799C55.6087 20.528 55.8654 20.3926 56.1506 20.3926C56.3075 20.3926 56.4572 20.4211 56.5998 20.4781C56.7566 20.5209 56.942 20.6065 57.1559 20.7348C57.7691 21.1198 58.3894 21.405 59.0169 21.5904C59.6443 21.7615 60.3359 21.8471 61.0917 21.8471C62.0329 21.8471 62.753 21.6902 63.2521 21.3765C63.7512 21.0628 64.0008 20.6136 64.0008 20.0289C64.0008 19.5869 63.7655 19.2304 63.2949 18.9594C62.8386 18.6885 62.0186 18.4318 60.835 18.1894C59.5089 17.9184 58.4465 17.5905 57.6479 17.2054C56.8636 16.8204 56.2861 16.3427 55.9153 15.7723C55.5588 15.2019 55.3805 14.5103 55.3805 13.6974C55.3805 12.7991 55.6372 11.9934 56.1506 11.2804C56.6782 10.5531 57.3984 9.98981 58.311 9.59053C59.2379 9.17699 60.2789 8.97021 61.434 8.97021C63.4589 8.97021 65.1273 9.47645 66.4393 10.4889C66.6532 10.66 66.8029 10.8383 66.8885 11.0237C66.9883 11.1948 67.0382 11.4087 67.0382 11.6654C67.0382 12.0219 66.9241 12.3356 66.696 12.6065C66.4821 12.8775 66.2325 13.013 65.9473 13.013C65.7904 13.013 65.6407 12.9916 65.4981 12.9488C65.3698 12.906 65.1844 12.8133 64.942 12.6707C64.3573 12.3 63.8154 12.0219 63.3163 11.8365C62.8315 11.6511 62.2111 11.5584 61.4554 11.5584C60.5855 11.5584 59.901 11.7295 59.4019 12.0718C58.9028 12.3998 58.6532 12.8561 58.6532 13.4408C58.6532 13.783 58.7459 14.0682 58.9313 14.2964C59.131 14.5103 59.4518 14.7028 59.8939 14.8739C60.3502 15.045 60.9919 15.2233 61.819 15.4087C63.7584 15.8365 65.1487 16.3855 65.9901 17.0557C66.8457 17.7259 67.2735 18.6457 67.2735 19.815C67.2735 20.7277 67.0168 21.5334 66.5034 22.2321C66.0043 22.9309 65.2913 23.4728 64.3644 23.8578C63.4518 24.2428 62.3894 24.4353 61.1773 24.4353Z" fill="white"/>
    <path d="M83.6021 9.05578C84.0726 9.05578 84.4505 9.21264 84.7357 9.52636C85.0352 9.82582 85.1849 10.218 85.1849 10.7028V22.8524C85.1849 23.323 85.0495 23.6938 84.7785 23.9647C84.5076 24.2357 84.1511 24.3711 83.709 24.3711C83.2812 24.3711 82.9318 24.2357 82.6609 23.9647C82.3899 23.6938 82.2545 23.323 82.2545 22.8524V15.3017L79.2171 21.0129C79.0174 21.3837 78.7964 21.6546 78.554 21.8257C78.3258 21.9968 78.0477 22.0824 77.7198 22.0824C77.406 22.0824 77.128 21.9968 76.8855 21.8257C76.6431 21.6546 76.4221 21.3837 76.2224 21.0129L73.185 15.4087V22.8524C73.185 23.3088 73.0496 23.6795 72.7786 23.9647C72.5077 24.2357 72.1512 24.3711 71.7091 24.3711C71.2813 24.3711 70.9319 24.2357 70.661 23.9647C70.39 23.6938 70.2546 23.323 70.2546 22.8524V10.7028C70.2546 10.218 70.3972 9.82582 70.6824 9.52636C70.9818 9.21264 71.3669 9.05578 71.8374 9.05578C72.5219 9.05578 73.0424 9.41941 73.3989 10.1467L77.7411 18.3819L82.062 10.1467C82.447 9.41941 82.9603 9.05578 83.6021 9.05578Z" fill="white"/>
    <path d="M102.806 22.2107C102.92 22.4674 102.977 22.6956 102.977 22.8952C102.977 23.2945 102.813 23.6368 102.485 23.922C102.172 24.1929 101.808 24.3284 101.394 24.3284C101.123 24.3284 100.867 24.2571 100.624 24.1145C100.382 23.9576 100.196 23.7294 100.068 23.43L98.9345 20.9059H91.6832L90.5495 23.43C90.4212 23.7294 90.2358 23.9576 89.9934 24.1145C89.7652 24.2571 89.5085 24.3284 89.2233 24.3284C88.8098 24.3284 88.439 24.1929 88.111 23.922C87.7831 23.6368 87.6191 23.2945 87.6191 22.8952C87.6191 22.6956 87.6761 22.4674 87.7902 22.2107L93.5655 10.0825C93.7224 9.74026 93.9577 9.48358 94.2714 9.31246C94.5851 9.12708 94.9202 9.03439 95.2767 9.03439C95.6475 9.03439 95.9898 9.12708 96.3035 9.31246C96.6172 9.49784 96.8596 9.75452 97.0307 10.0825L102.806 22.2107ZM97.8008 18.3819L95.3195 12.8204L92.8169 18.3819H97.8008Z" fill="white"/>
    <path d="M117.715 22.1252C117.928 22.4389 118.035 22.7455 118.035 23.045C118.035 23.4442 117.871 23.7722 117.543 24.0289C117.23 24.2856 116.859 24.4139 116.431 24.4139C116.16 24.4139 115.896 24.3498 115.64 24.2214C115.383 24.0931 115.169 23.8934 114.998 23.6225L112.174 19.43C111.932 19.0593 111.675 18.7954 111.404 18.6386C111.133 18.4675 110.791 18.3819 110.378 18.3819H108.645V22.7027C108.645 23.2161 108.495 23.6225 108.196 23.922C107.911 24.2214 107.519 24.3711 107.019 24.3711C106.506 24.3711 106.1 24.2214 105.8 23.922C105.501 23.6225 105.351 23.2161 105.351 22.7027V10.7242C105.351 10.2251 105.486 9.84008 105.757 9.56914C106.028 9.2982 106.413 9.16273 106.913 9.16273H112.281C114.05 9.16273 115.383 9.55488 116.281 10.3392C117.194 11.1092 117.65 12.2287 117.65 13.6974C117.65 14.8525 117.33 15.8151 116.688 16.5851C116.046 17.3552 115.141 17.8614 113.971 18.1038C114.399 18.1894 114.777 18.3605 115.105 18.6172C115.447 18.8596 115.775 19.2161 116.089 19.6867L117.715 22.1252ZM111.789 15.8579C112.745 15.8579 113.437 15.6939 113.864 15.3659C114.292 15.0236 114.506 14.496 114.506 13.783C114.506 13.0557 114.292 12.5281 113.864 12.2001C113.437 11.8722 112.745 11.7082 111.789 11.7082H108.602V15.8579H111.789Z" fill="white"/>
    <path d="M125.621 24.3498C125.122 24.3498 124.716 24.2 124.402 23.9006C124.103 23.6011 123.953 23.2018 123.953 22.7027V11.8793H120.488C119.432 11.8793 118.905 11.423 118.905 10.5103C118.905 9.61192 119.432 9.16273 120.488 9.16273H130.755C131.81 9.16273 132.338 9.61192 132.338 10.5103C132.338 11.423 131.81 11.8793 130.755 11.8793H127.29V22.7027C127.29 23.2018 127.14 23.6011 126.84 23.9006C126.541 24.2 126.135 24.3498 125.621 24.3498Z" fill="white"/>
    <path d="M139.462 24.3498C138.963 24.3498 138.557 24.2 138.243 23.9006C137.943 23.6011 137.794 23.2018 137.794 22.7027V11.8793H134.329C133.273 11.8793 132.746 11.423 132.746 10.5103C132.746 9.61192 133.273 9.16273 134.329 9.16273H144.596C145.651 9.16273 146.179 9.61192 146.179 10.5103C146.179 11.423 145.651 11.8793 144.596 11.8793H141.131V22.7027C141.131 23.2018 140.981 23.6011 140.681 23.9006C140.382 24.2 139.976 24.3498 139.462 24.3498Z" fill="white"/>
    <path d="M149.71 24.2428C149.21 24.2428 148.825 24.1073 148.555 23.8364C148.284 23.5655 148.148 23.1804 148.148 22.6813V10.7242C148.148 10.2251 148.284 9.84008 148.555 9.56914C148.825 9.2982 149.21 9.16273 149.71 9.16273H157.282C158.337 9.16273 158.865 9.59053 158.865 10.4461C158.865 11.316 158.337 11.7509 157.282 11.7509H151.399V15.2803H156.854C157.909 15.2803 158.437 15.7153 158.437 16.5851C158.437 17.4407 157.909 17.8685 156.854 17.8685H151.399V21.6546H157.282C158.337 21.6546 158.865 22.0895 158.865 22.9594C158.865 23.815 158.337 24.2428 157.282 24.2428H149.71Z" fill="white"/>
    <path d="M173.726 22.1252C173.94 22.4389 174.047 22.7455 174.047 23.045C174.047 23.4442 173.883 23.7722 173.555 24.0289C173.241 24.2856 172.87 24.4139 172.442 24.4139C172.172 24.4139 171.908 24.3498 171.651 24.2214C171.394 24.0931 171.18 23.8934 171.009 23.6225L168.186 19.43C167.943 19.0593 167.687 18.7954 167.416 18.6386C167.145 18.4675 166.803 18.3819 166.389 18.3819H164.656V22.7027C164.656 23.2161 164.507 23.6225 164.207 23.922C163.922 24.2214 163.53 24.3711 163.031 24.3711C162.517 24.3711 162.111 24.2214 161.812 23.922C161.512 23.6225 161.362 23.2161 161.362 22.7027V10.7242C161.362 10.2251 161.498 9.84008 161.769 9.56914C162.04 9.2982 162.425 9.16273 162.924 9.16273H168.293C170.061 9.16273 171.394 9.55488 172.293 10.3392C173.205 11.1092 173.662 12.2287 173.662 13.6974C173.662 14.8525 173.341 15.8151 172.699 16.5851C172.057 17.3552 171.152 17.8614 169.983 18.1038C170.41 18.1894 170.788 18.3605 171.116 18.6172C171.459 18.8596 171.787 19.2161 172.1 19.6867L173.726 22.1252ZM167.801 15.8579C168.756 15.8579 169.448 15.6939 169.876 15.3659C170.303 15.0236 170.517 14.496 170.517 13.783C170.517 13.0557 170.303 12.5281 169.876 12.2001C169.448 11.8722 168.756 11.7082 167.801 11.7082H164.614V15.8579H167.801Z" fill="white"/>
    <path d="M182.224 24.4353C181.097 24.4353 180.049 24.307 179.08 24.0503C178.11 23.7794 177.319 23.4015 176.705 22.9166C176.491 22.7598 176.335 22.5958 176.235 22.4246C176.149 22.2393 176.106 22.0111 176.106 21.7402C176.106 21.3837 176.213 21.0699 176.427 20.799C176.655 20.528 176.912 20.3926 177.197 20.3926C177.354 20.3926 177.504 20.4211 177.646 20.4781C177.803 20.5209 177.989 20.6065 178.203 20.7348C178.816 21.1198 179.436 21.405 180.064 21.5904C180.691 21.7615 181.383 21.8471 182.138 21.8471C183.08 21.8471 183.8 21.6902 184.299 21.3765C184.798 21.0628 185.047 20.6136 185.047 20.0289C185.047 19.5869 184.812 19.2304 184.342 18.9594C183.885 18.6885 183.065 18.4318 181.882 18.1894C180.556 17.9184 179.493 17.5905 178.695 17.2054C177.91 16.8204 177.333 16.3427 176.962 15.7723C176.605 15.2019 176.427 14.5103 176.427 13.6974C176.427 12.7991 176.684 11.9934 177.197 11.2804C177.725 10.5531 178.445 9.98981 179.358 9.59053C180.285 9.17699 181.326 8.97021 182.481 8.97021C184.506 8.97021 186.174 9.47645 187.486 10.4889C187.7 10.66 187.85 10.8383 187.935 11.0237C188.035 11.1948 188.085 11.4087 188.085 11.6654C188.085 12.0219 187.971 12.3356 187.743 12.6065C187.529 12.8775 187.279 13.013 186.994 13.013C186.837 13.013 186.687 12.9916 186.545 12.9488C186.416 12.906 186.231 12.8133 185.989 12.6707C185.404 12.3 184.862 12.0219 184.363 11.8365C183.878 11.6511 183.258 11.5584 182.502 11.5584C181.632 11.5584 180.948 11.7295 180.449 12.0718C179.949 12.3998 179.7 12.8561 179.7 13.4408C179.7 13.783 179.793 14.0682 179.978 14.2964C180.178 14.5103 180.499 14.7028 180.941 14.8739C181.397 15.045 182.039 15.2233 182.866 15.4087C184.805 15.8365 186.195 16.3855 187.037 17.0557C187.892 17.7259 188.32 18.6457 188.32 19.815C188.32 20.7277 188.063 21.5334 187.55 22.2321C187.051 22.9309 186.338 23.4728 185.411 23.8578C184.498 24.2428 183.436 24.4353 182.224 24.4353Z" fill="white"/>
    <path d="M59.7101 32.6613C60.1061 32.7716 60.4112 32.9729 60.6254 33.265C60.8461 33.5571 60.9564 33.9141 60.9564 34.336C60.9564 34.9202 60.7455 35.3778 60.3235 35.7089C59.9081 36.0399 59.3336 36.2055 58.6001 36.2055H56.0881C55.8998 36.2055 55.7505 36.1535 55.6402 36.0497C55.5363 35.9458 55.4844 35.7998 55.4844 35.6115V29.935C55.4844 29.7467 55.5363 29.6007 55.6402 29.4968C55.7505 29.393 55.8998 29.341 56.0881 29.341H58.5028C59.2168 29.341 59.775 29.5001 60.1775 29.8181C60.5864 30.1297 60.7909 30.5679 60.7909 31.1326C60.7909 31.4961 60.6935 31.8109 60.4988 32.0771C60.3106 32.3432 60.0477 32.5379 59.7101 32.6613ZM56.7112 32.2329H58.2983C59.1616 32.2329 59.5933 31.9115 59.5933 31.2689C59.5933 30.9444 59.4862 30.7042 59.272 30.5484C59.0578 30.3926 58.7332 30.3147 58.2983 30.3147H56.7112V32.2329ZM58.4638 35.2318C58.9182 35.2318 59.2492 35.1506 59.457 34.9884C59.6647 34.8261 59.7685 34.5729 59.7685 34.2289C59.7685 33.8849 59.6614 33.6285 59.4472 33.4597C59.2395 33.2909 58.9117 33.2065 58.4638 33.2065H56.7112V35.2318H58.4638Z" fill="white"/>
    <path d="M65.4316 36.2931C64.763 36.2931 64.182 36.1503 63.6887 35.8647C63.2019 35.5791 62.8254 35.1701 62.5593 34.6378C62.2931 34.1056 62.1601 33.4824 62.1601 32.7684C62.1601 32.0544 62.2899 31.4344 62.5495 30.9087C62.8157 30.3764 63.1954 29.9674 63.6887 29.6818C64.182 29.3962 64.763 29.2534 65.4316 29.2534C66.1002 29.2534 66.6779 29.3962 67.1647 29.6818C67.6581 29.9674 68.0346 30.3764 68.2942 30.9087C68.5603 31.4344 68.6934 32.0544 68.6934 32.7684C68.6934 33.4824 68.5603 34.1056 68.2942 34.6378C68.0281 35.1701 67.6483 35.5791 67.155 35.8647C66.6682 36.1503 66.0937 36.2931 65.4316 36.2931ZM65.4316 35.2902C66.0612 35.2902 66.5513 35.0727 66.9018 34.6378C67.2589 34.2029 67.4374 33.5798 67.4374 32.7684C67.4374 31.957 67.2589 31.3371 66.9018 30.9087C66.5513 30.4738 66.0612 30.2563 65.4316 30.2563C64.7955 30.2563 64.2989 30.4738 63.9419 30.9087C63.5914 31.3371 63.4161 31.957 63.4161 32.7684C63.4161 33.5798 63.5914 34.2029 63.9419 34.6378C64.2989 35.0727 64.7955 35.2902 65.4316 35.2902Z" fill="white"/>
    <path d="M73.0389 36.2931C72.0977 36.2931 71.3836 36.0497 70.8968 35.5628C70.41 35.076 70.1665 34.3652 70.1665 33.4305V29.9155C70.1665 29.7273 70.2217 29.578 70.3321 29.4676C70.4424 29.3508 70.5917 29.2924 70.78 29.2924C70.9682 29.2924 71.1175 29.3508 71.2278 29.4676C71.3382 29.578 71.3934 29.7273 71.3934 29.9155V33.4986C71.3934 34.0893 71.5329 34.5372 71.812 34.8423C72.0912 35.1409 72.5001 35.2902 73.0389 35.2902C73.5712 35.2902 73.9769 35.1377 74.256 34.8326C74.5351 34.5275 74.6747 34.0828 74.6747 33.4986V29.9155C74.6747 29.7273 74.7298 29.578 74.8402 29.4676C74.9505 29.3508 75.0998 29.2924 75.2881 29.2924C75.4763 29.2924 75.6256 29.3508 75.736 29.4676C75.8463 29.578 75.9015 29.7273 75.9015 29.9155V33.4305C75.9015 34.3587 75.6581 35.0695 75.1712 35.5628C74.6844 36.0497 73.9736 36.2931 73.0389 36.2931Z" fill="white"/>
    <path d="M82.7892 29.2924C82.971 29.2924 83.1138 29.3508 83.2177 29.4676C83.328 29.578 83.3832 29.7273 83.3832 29.9155V35.631C83.3832 35.8192 83.328 35.9718 83.2177 36.0886C83.1073 36.2055 82.9645 36.2639 82.7892 36.2639C82.5815 36.2639 82.4225 36.1892 82.3121 36.0399L78.7582 31.415V35.631C78.7582 35.8192 78.7063 35.9718 78.6024 36.0886C78.4986 36.2055 78.3558 36.2639 78.174 36.2639C77.9923 36.2639 77.8495 36.2055 77.7456 36.0886C77.6417 35.9718 77.5898 35.8192 77.5898 35.631V29.9155C77.5898 29.7273 77.645 29.578 77.7553 29.4676C77.8657 29.3508 78.0117 29.2924 78.1935 29.2924C78.3947 29.2924 78.5505 29.367 78.6609 29.5163L82.205 34.1218V29.9155C82.205 29.7273 82.257 29.578 82.3608 29.4676C82.4712 29.3508 82.614 29.2924 82.7892 29.2924Z" fill="white"/>
    <path d="M85.7109 36.2055C85.5227 36.2055 85.3734 36.1535 85.2631 36.0497C85.1592 35.9458 85.1073 35.7998 85.1073 35.6115V29.935C85.1073 29.7467 85.1592 29.6007 85.2631 29.4968C85.3734 29.393 85.5227 29.341 85.7109 29.341H87.6388C88.7618 29.341 89.6316 29.6429 90.2483 30.2466C90.8714 30.8438 91.183 31.6844 91.183 32.7684C91.183 33.8589 90.8714 34.706 90.2483 35.3097C89.6316 35.9069 88.7618 36.2055 87.6388 36.2055H85.7109ZM87.5609 35.1831C89.1383 35.1831 89.927 34.3782 89.927 32.7684C89.927 31.1651 89.1383 30.3634 87.5609 30.3634H86.3633V35.1831H87.5609Z" fill="white"/>
    <path d="M93.2852 36.2055C93.097 36.2055 92.9509 36.1535 92.8471 36.0497C92.7432 35.9458 92.6913 35.803 92.6913 35.6212V29.9155C92.6913 29.7273 92.7464 29.578 92.8568 29.4676C92.9736 29.3508 93.1262 29.2924 93.3144 29.2924C93.5092 29.2924 93.6617 29.3508 93.7721 29.4676C93.8889 29.578 93.9473 29.7273 93.9473 29.9155V35.1734H96.6833C97.0728 35.1734 97.2675 35.3454 97.2675 35.6894C97.2675 36.0334 97.0728 36.2055 96.6833 36.2055H93.2852Z" fill="white"/>
    <path d="M98.9392 36.2055C98.751 36.2055 98.6017 36.1535 98.4913 36.0497C98.3875 35.9458 98.3355 35.7998 98.3355 35.6115V29.935C98.3355 29.7467 98.3875 29.6007 98.4913 29.4968C98.6017 29.393 98.751 29.341 98.9392 29.341H102.454C102.642 29.341 102.788 29.3832 102.892 29.4676C102.996 29.552 103.048 29.6721 103.048 29.8279C103.048 29.9902 102.996 30.1167 102.892 30.2076C102.788 30.292 102.642 30.3342 102.454 30.3342H99.5624V32.2231H102.259C102.448 32.2231 102.594 32.2653 102.698 32.3497C102.801 32.4341 102.853 32.5574 102.853 32.7197C102.853 32.8755 102.801 32.9956 102.698 33.08C102.594 33.1643 102.448 33.2065 102.259 33.2065H99.5624V35.2123H102.454C102.642 35.2123 102.788 35.2577 102.892 35.3486C102.996 35.433 103.048 35.5563 103.048 35.7186C103.048 35.8744 102.996 35.9945 102.892 36.0789C102.788 36.1633 102.642 36.2055 102.454 36.2055H98.9392Z" fill="white"/>
    <path d="M106.593 36.2931C106.093 36.2931 105.62 36.2282 105.172 36.0983C104.73 35.962 104.37 35.7803 104.091 35.5531C103.942 35.4427 103.867 35.287 103.867 35.0857C103.867 34.9494 103.906 34.8326 103.984 34.7352C104.068 34.6313 104.166 34.5794 104.276 34.5794C104.393 34.5794 104.526 34.6249 104.675 34.7157C104.954 34.917 105.246 35.063 105.551 35.1539C105.857 35.2448 106.194 35.2902 106.564 35.2902C107.038 35.2902 107.401 35.2091 107.655 35.0468C107.908 34.878 108.034 34.6346 108.034 34.3165C108.034 34.0699 107.914 33.8816 107.674 33.7518C107.44 33.6155 107.048 33.4857 106.496 33.3623C105.925 33.239 105.461 33.0962 105.104 32.9339C104.747 32.7716 104.477 32.5639 104.295 32.3108C104.114 32.0576 104.023 31.7363 104.023 31.3468C104.023 30.9444 104.136 30.5841 104.364 30.266C104.591 29.948 104.906 29.7013 105.308 29.526C105.717 29.3443 106.175 29.2534 106.681 29.2534C107.609 29.2534 108.365 29.5001 108.95 29.9934C109.034 30.0648 109.092 30.1362 109.125 30.2076C109.164 30.2725 109.183 30.3569 109.183 30.4608C109.183 30.5971 109.141 30.7172 109.057 30.821C108.979 30.9184 108.885 30.9671 108.774 30.9671C108.709 30.9671 108.648 30.9573 108.589 30.9379C108.537 30.9184 108.466 30.8827 108.375 30.8308C108.109 30.636 107.849 30.4932 107.596 30.4024C107.35 30.305 107.044 30.2563 106.681 30.2563C106.24 30.2563 105.889 30.3472 105.629 30.5289C105.376 30.7042 105.25 30.9509 105.25 31.2689C105.25 31.5351 105.363 31.7395 105.59 31.8823C105.818 32.0251 106.204 32.1582 106.749 32.2815C107.327 32.4114 107.794 32.5574 108.151 32.7197C108.515 32.8755 108.791 33.0767 108.979 33.3234C109.174 33.57 109.271 33.8784 109.271 34.2484C109.271 34.6508 109.157 35.0078 108.93 35.3194C108.709 35.6245 108.395 35.8647 107.986 36.0399C107.583 36.2087 107.119 36.2931 106.593 36.2931Z" fill="white"/>
    <path d="M113.046 36.2931C112.546 36.2931 112.072 36.2282 111.624 36.0983C111.183 35.962 110.823 35.7803 110.543 35.5531C110.394 35.4427 110.319 35.287 110.319 35.0857C110.319 34.9494 110.358 34.8326 110.436 34.7352C110.521 34.6313 110.618 34.5794 110.728 34.5794C110.845 34.5794 110.978 34.6249 111.128 34.7157C111.407 34.917 111.699 35.063 112.004 35.1539C112.309 35.2448 112.647 35.2902 113.017 35.2902C113.49 35.2902 113.854 35.2091 114.107 35.0468C114.36 34.878 114.487 34.6346 114.487 34.3165C114.487 34.0699 114.367 33.8816 114.127 33.7518C113.893 33.6155 113.5 33.4857 112.948 33.3623C112.377 33.239 111.913 33.0962 111.556 32.9339C111.199 32.7716 110.93 32.5639 110.748 32.3108C110.566 32.0576 110.475 31.7363 110.475 31.3468C110.475 30.9444 110.589 30.5841 110.816 30.266C111.043 29.948 111.358 29.7013 111.761 29.526C112.169 29.3443 112.627 29.2534 113.133 29.2534C114.062 29.2534 114.818 29.5001 115.402 29.9934C115.486 30.0648 115.545 30.1362 115.577 30.2076C115.616 30.2725 115.636 30.3569 115.636 30.4608C115.636 30.5971 115.594 30.7172 115.509 30.821C115.431 30.9184 115.337 30.9671 115.227 30.9671C115.162 30.9671 115.1 30.9573 115.042 30.9379C114.99 30.9184 114.918 30.8827 114.828 30.8308C114.561 30.636 114.302 30.4932 114.049 30.4024C113.802 30.305 113.497 30.2563 113.133 30.2563C112.692 30.2563 112.341 30.3472 112.082 30.5289C111.829 30.7042 111.702 30.9509 111.702 31.2689C111.702 31.5351 111.816 31.7395 112.043 31.8823C112.27 32.0251 112.656 32.1582 113.202 32.2815C113.779 32.4114 114.247 32.5574 114.604 32.7197C114.967 32.8755 115.243 33.0767 115.431 33.3234C115.626 33.57 115.723 33.8784 115.723 34.2484C115.723 34.6508 115.61 35.0078 115.383 35.3194C115.162 35.6245 114.847 35.8647 114.438 36.0399C114.036 36.2087 113.572 36.2931 113.046 36.2931Z" fill="white"/>
    <path d="M120.632 36.2639C120.444 36.2639 120.292 36.2087 120.175 36.0983C120.064 35.9815 120.009 35.8257 120.009 35.631V29.935C120.009 29.7467 120.061 29.6007 120.165 29.4968C120.275 29.393 120.425 29.341 120.613 29.341H123.008C123.742 29.341 124.313 29.526 124.722 29.896C125.131 30.2595 125.335 30.7723 125.335 31.4344C125.335 32.0965 125.131 32.6126 124.722 32.9826C124.313 33.3526 123.742 33.5376 123.008 33.5376H121.265V35.631C121.265 35.8257 121.207 35.9815 121.09 36.0983C120.98 36.2087 120.827 36.2639 120.632 36.2639ZM122.852 32.5736C123.716 32.5736 124.147 32.1972 124.147 31.4442C124.147 30.6912 123.716 30.3147 122.852 30.3147H121.265V32.5736H122.852Z" fill="white"/>
    <path d="M129.709 36.2931C129.041 36.2931 128.46 36.1503 127.966 35.8647C127.48 35.5791 127.103 35.1701 126.837 34.6378C126.571 34.1056 126.438 33.4824 126.438 32.7684C126.438 32.0544 126.568 31.4344 126.827 30.9087C127.093 30.3764 127.473 29.9674 127.966 29.6818C128.46 29.3962 129.041 29.2534 129.709 29.2534C130.378 29.2534 130.956 29.3962 131.442 29.6818C131.936 29.9674 132.312 30.3764 132.572 30.9087C132.838 31.4344 132.971 32.0544 132.971 32.7684C132.971 33.4824 132.838 34.1056 132.572 34.6378C132.306 35.1701 131.926 35.5791 131.433 35.8647C130.946 36.1503 130.371 36.2931 129.709 36.2931ZM129.709 35.2902C130.339 35.2902 130.829 35.0727 131.18 34.6378C131.537 34.2029 131.715 33.5798 131.715 32.7684C131.715 31.957 131.537 31.3371 131.18 30.9087C130.829 30.4738 130.339 30.2563 129.709 30.2563C129.073 30.2563 128.577 30.4738 128.22 30.9087C127.869 31.3371 127.694 31.957 127.694 32.7684C127.694 33.5798 127.869 34.2029 128.22 34.6378C128.577 35.0727 129.073 35.2902 129.709 35.2902Z" fill="white"/>
    <path d="M136.859 36.2931C136.359 36.2931 135.885 36.2282 135.437 36.0983C134.996 35.962 134.636 35.7803 134.357 35.5531C134.207 35.4427 134.133 35.287 134.133 35.0857C134.133 34.9494 134.172 34.8326 134.25 34.7352C134.334 34.6313 134.431 34.5794 134.542 34.5794C134.658 34.5794 134.792 34.6249 134.941 34.7157C135.22 34.917 135.512 35.063 135.817 35.1539C136.122 35.2448 136.46 35.2902 136.83 35.2902C137.304 35.2902 137.667 35.2091 137.92 35.0468C138.173 34.878 138.3 34.6346 138.3 34.3165C138.3 34.0699 138.18 33.8816 137.94 33.7518C137.706 33.6155 137.313 33.4857 136.762 33.3623C136.19 33.239 135.726 33.0962 135.369 32.9339C135.012 32.7716 134.743 32.5639 134.561 32.3108C134.379 32.0576 134.288 31.7363 134.288 31.3468C134.288 30.9444 134.402 30.5841 134.629 30.266C134.856 29.948 135.171 29.7013 135.574 29.526C135.983 29.3443 136.44 29.2534 136.947 29.2534C137.875 29.2534 138.631 29.5001 139.215 29.9934C139.3 30.0648 139.358 30.1362 139.39 30.2076C139.429 30.2725 139.449 30.3569 139.449 30.4608C139.449 30.5971 139.407 30.7172 139.322 30.821C139.244 30.9184 139.15 30.9671 139.04 30.9671C138.975 30.9671 138.913 30.9573 138.855 30.9379C138.803 30.9184 138.732 30.8827 138.641 30.8308C138.375 30.636 138.115 30.4932 137.862 30.4024C137.615 30.305 137.31 30.2563 136.947 30.2563C136.505 30.2563 136.155 30.3472 135.895 30.5289C135.642 30.7042 135.515 30.9509 135.515 31.2689C135.515 31.5351 135.629 31.7395 135.856 31.8823C136.083 32.0251 136.469 32.1582 137.015 32.2815C137.592 32.4114 138.06 32.5574 138.417 32.7197C138.78 32.8755 139.056 33.0767 139.244 33.3234C139.439 33.57 139.537 33.8784 139.537 34.2484C139.537 34.6508 139.423 35.0078 139.196 35.3194C138.975 35.6245 138.66 35.8647 138.251 36.0399C137.849 36.2087 137.385 36.2931 136.859 36.2931Z" fill="white"/>
    <path d="M143.311 36.2931C142.812 36.2931 142.338 36.2282 141.89 36.0983C141.448 35.962 141.088 35.7803 140.809 35.5531C140.66 35.4427 140.585 35.287 140.585 35.0857C140.585 34.9494 140.624 34.8326 140.702 34.7352C140.786 34.6313 140.884 34.5794 140.994 34.5794C141.111 34.5794 141.244 34.6249 141.393 34.7157C141.672 34.917 141.965 35.063 142.27 35.1539C142.575 35.2448 142.912 35.2902 143.282 35.2902C143.756 35.2902 144.12 35.2091 144.373 35.0468C144.626 34.878 144.752 34.6346 144.752 34.3165C144.752 34.0699 144.632 33.8816 144.392 33.7518C144.159 33.6155 143.766 33.4857 143.214 33.3623C142.643 33.239 142.179 33.0962 141.822 32.9339C141.465 32.7716 141.195 32.5639 141.014 32.3108C140.832 32.0576 140.741 31.7363 140.741 31.3468C140.741 30.9444 140.855 30.5841 141.082 30.266C141.309 29.948 141.624 29.7013 142.026 29.526C142.435 29.3443 142.893 29.2534 143.399 29.2534C144.327 29.2534 145.084 29.5001 145.668 29.9934C145.752 30.0648 145.811 30.1362 145.843 30.2076C145.882 30.2725 145.901 30.3569 145.901 30.4608C145.901 30.5971 145.859 30.7172 145.775 30.821C145.697 30.9184 145.603 30.9671 145.492 30.9671C145.428 30.9671 145.366 30.9573 145.307 30.9379C145.256 30.9184 145.184 30.8827 145.093 30.8308C144.827 30.636 144.567 30.4932 144.314 30.4024C144.068 30.305 143.763 30.2563 143.399 30.2563C142.958 30.2563 142.607 30.3472 142.348 30.5289C142.094 30.7042 141.968 30.9509 141.968 31.2689C141.968 31.5351 142.081 31.7395 142.309 31.8823C142.536 32.0251 142.922 32.1582 143.467 32.2815C144.045 32.4114 144.512 32.5574 144.869 32.7197C145.233 32.8755 145.509 33.0767 145.697 33.3234C145.892 33.57 145.989 33.8784 145.989 34.2484C145.989 34.6508 145.875 35.0078 145.648 35.3194C145.428 35.6245 145.113 35.8647 144.704 36.0399C144.301 36.2087 143.837 36.2931 143.311 36.2931Z" fill="white"/>
    <path d="M148.011 36.2639C147.823 36.2639 147.671 36.2055 147.554 36.0886C147.443 35.9718 147.388 35.8192 147.388 35.631V29.9155C147.388 29.7273 147.443 29.578 147.554 29.4676C147.671 29.3508 147.823 29.2924 148.011 29.2924C148.206 29.2924 148.359 29.3508 148.469 29.4676C148.586 29.578 148.644 29.7273 148.644 29.9155V35.631C148.644 35.8192 148.586 35.9718 148.469 36.0886C148.359 36.2055 148.206 36.2639 148.011 36.2639Z" fill="white"/>
    <path d="M154.596 32.6613C154.992 32.7716 155.297 32.9729 155.511 33.265C155.732 33.5571 155.842 33.9141 155.842 34.336C155.842 34.9202 155.631 35.3778 155.209 35.7089C154.794 36.0399 154.219 36.2055 153.486 36.2055H150.974C150.785 36.2055 150.636 36.1535 150.526 36.0497C150.422 35.9458 150.37 35.7998 150.37 35.6115V29.935C150.37 29.7467 150.422 29.6007 150.526 29.4968C150.636 29.393 150.785 29.341 150.974 29.341H153.388C154.102 29.341 154.661 29.5001 155.063 29.8181C155.472 30.1297 155.677 30.5679 155.677 31.1326C155.677 31.4961 155.579 31.8109 155.384 32.0771C155.196 32.3432 154.933 32.5379 154.596 32.6613ZM151.597 32.2329H153.184C154.047 32.2329 154.479 31.9115 154.479 31.2689C154.479 30.9444 154.372 30.7042 154.158 30.5484C153.943 30.3926 153.619 30.3147 153.184 30.3147H151.597V32.2329ZM153.349 35.2318C153.804 35.2318 154.135 35.1506 154.343 34.9884C154.55 34.8261 154.654 34.5729 154.654 34.2289C154.654 33.8849 154.547 33.6285 154.333 33.4597C154.125 33.2909 153.797 33.2065 153.349 33.2065H151.597V35.2318H153.349Z" fill="white"/>
    <path d="M157.883 36.2639C157.695 36.2639 157.542 36.2055 157.425 36.0886C157.315 35.9718 157.26 35.8192 157.26 35.631V29.9155C157.26 29.7273 157.315 29.578 157.425 29.4676C157.542 29.3508 157.695 29.2924 157.883 29.2924C158.078 29.2924 158.23 29.3508 158.341 29.4676C158.458 29.578 158.516 29.7273 158.516 29.9155V35.631C158.516 35.8192 158.458 35.9718 158.341 36.0886C158.23 36.2055 158.078 36.2639 157.883 36.2639Z" fill="white"/>
    <path d="M160.836 36.2055C160.648 36.2055 160.501 36.1535 160.398 36.0497C160.294 35.9458 160.242 35.803 160.242 35.6212V29.9155C160.242 29.7273 160.297 29.578 160.407 29.4676C160.524 29.3508 160.677 29.2924 160.865 29.2924C161.06 29.2924 161.212 29.3508 161.323 29.4676C161.439 29.578 161.498 29.7273 161.498 29.9155V35.1734H164.234C164.623 35.1734 164.818 35.3454 164.818 35.6894C164.818 36.0334 164.623 36.2055 164.234 36.2055H160.836Z" fill="white"/>
    <path d="M166.509 36.2639C166.321 36.2639 166.168 36.2055 166.052 36.0886C165.941 35.9718 165.886 35.8192 165.886 35.631V29.9155C165.886 29.7273 165.941 29.578 166.052 29.4676C166.168 29.3508 166.321 29.2924 166.509 29.2924C166.704 29.2924 166.857 29.3508 166.967 29.4676C167.084 29.578 167.142 29.7273 167.142 29.9155V35.631C167.142 35.8192 167.084 35.9718 166.967 36.0886C166.857 36.2055 166.704 36.2639 166.509 36.2639Z" fill="white"/>
    <path d="M171.117 36.2541C170.922 36.2541 170.767 36.199 170.65 36.0886C170.539 35.9718 170.484 35.8192 170.484 35.631V30.3731H168.712C168.323 30.3731 168.128 30.2011 168.128 29.8571C168.128 29.5131 168.323 29.341 168.712 29.341H173.512C173.902 29.341 174.097 29.5131 174.097 29.8571C174.097 30.2011 173.902 30.3731 173.512 30.3731H171.74V35.631C171.74 35.8192 171.682 35.9718 171.565 36.0886C171.455 36.199 171.305 36.2541 171.117 36.2541Z" fill="white"/>
    <path d="M175.706 36.2639C175.518 36.2639 175.365 36.2055 175.248 36.0886C175.138 35.9718 175.083 35.8192 175.083 35.631V29.9155C175.083 29.7273 175.138 29.578 175.248 29.4676C175.365 29.3508 175.518 29.2924 175.706 29.2924C175.901 29.2924 176.053 29.3508 176.164 29.4676C176.28 29.578 176.339 29.7273 176.339 29.9155V35.631C176.339 35.8192 176.28 35.9718 176.164 36.0886C176.053 36.2055 175.901 36.2639 175.706 36.2639Z" fill="white"/>
    <path d="M178.668 36.2055C178.48 36.2055 178.331 36.1535 178.22 36.0497C178.117 35.9458 178.065 35.7998 178.065 35.6115V29.935C178.065 29.7467 178.117 29.6007 178.22 29.4968C178.331 29.393 178.48 29.341 178.668 29.341H182.183C182.371 29.341 182.518 29.3832 182.621 29.4676C182.725 29.552 182.777 29.6721 182.777 29.8279C182.777 29.9902 182.725 30.1167 182.621 30.2076C182.518 30.292 182.371 30.3342 182.183 30.3342H179.291V32.2231H181.989C182.177 32.2231 182.323 32.2653 182.427 32.3497C182.531 32.4341 182.582 32.5574 182.582 32.7197C182.582 32.8755 182.531 32.9956 182.427 33.08C182.323 33.1643 182.177 33.2065 181.989 33.2065H179.291V35.2123H182.183C182.371 35.2123 182.518 35.2577 182.621 35.3486C182.725 35.433 182.777 35.5563 182.777 35.7186C182.777 35.8744 182.725 35.9945 182.621 36.0789C182.518 36.1633 182.371 36.2055 182.183 36.2055H178.668Z" fill="white"/>
    <path d="M186.322 36.2931C185.823 36.2931 185.349 36.2282 184.901 36.0983C184.459 35.962 184.099 35.7803 183.82 35.5531C183.671 35.4427 183.596 35.287 183.596 35.0857C183.596 34.9494 183.635 34.8326 183.713 34.7352C183.797 34.6313 183.895 34.5794 184.005 34.5794C184.122 34.5794 184.255 34.6249 184.404 34.7157C184.683 34.917 184.975 35.063 185.281 35.1539C185.586 35.2448 185.923 35.2902 186.293 35.2902C186.767 35.2902 187.131 35.2091 187.384 35.0468C187.637 34.878 187.763 34.6346 187.763 34.3165C187.763 34.0699 187.643 33.8816 187.403 33.7518C187.169 33.6155 186.777 33.4857 186.225 33.3623C185.654 33.239 185.19 33.0962 184.833 32.9339C184.476 32.7716 184.206 32.5639 184.024 32.3108C183.843 32.0576 183.752 31.7363 183.752 31.3468C183.752 30.9444 183.865 30.5841 184.093 30.266C184.32 29.948 184.635 29.7013 185.037 29.526C185.446 29.3443 185.904 29.2534 186.41 29.2534C187.338 29.2534 188.094 29.5001 188.679 29.9934C188.763 30.0648 188.821 30.1362 188.854 30.2076C188.893 30.2725 188.912 30.3569 188.912 30.4608C188.912 30.5971 188.87 30.7172 188.786 30.821C188.708 30.9184 188.614 30.9671 188.503 30.9671C188.438 30.9671 188.377 30.9573 188.318 30.9379C188.266 30.9184 188.195 30.8827 188.104 30.8308C187.838 30.636 187.578 30.4932 187.325 30.4024C187.079 30.305 186.773 30.2563 186.41 30.2563C185.969 30.2563 185.618 30.3472 185.358 30.5289C185.105 30.7042 184.979 30.9509 184.979 31.2689C184.979 31.5351 185.092 31.7395 185.319 31.8823C185.547 32.0251 185.933 32.1582 186.478 32.2815C187.056 32.4114 187.523 32.5574 187.88 32.7197C188.244 32.8755 188.52 33.0767 188.708 33.3234C188.903 33.57 189 33.8784 189 34.2484C189 34.6508 188.886 35.0078 188.659 35.3194C188.438 35.6245 188.124 35.8647 187.715 36.0399C187.312 36.2087 186.848 36.2931 186.322 36.2931Z" fill="white"/>
</svg>
