<svg width="249" height="60" viewBox="0 0 249 60" fill="none" xmlns="http://www.w3.org/2000/svg">
    <path fill-rule="evenodd" clip-rule="evenodd" d="M44.0371 0H15C6.71573 0 0 6.71573 0 15V45C0 53.2843 6.71573 60 15 60H44.0371C52.3214 60 59.0371 53.2843 59.0371 45V15C59.0371 6.71573 52.3214 0 44.0371 0ZM29.5427 29.2302C28.2427 29.2302 27.2027 28.8506 26.4227 28.0916C25.6752 27.2995 25.3014 26.2764 25.3014 25.0224C25.3014 23.7683 25.6752 22.7617 26.4227 22.0026C27.2027 21.2106 28.2427 20.8145 29.5427 20.8145C30.8428 20.8145 31.8503 21.2106 32.5653 22.0026C33.3128 22.7617 33.6865 23.7683 33.6865 25.0224C33.6865 26.2764 33.3128 27.2995 32.5653 28.0916C31.8503 28.8506 30.8428 29.2302 29.5427 29.2302ZM30.5177 46.7261C30.0302 47.3202 29.5102 47.6502 28.9577 47.7162C28.4052 47.8152 27.934 47.7162 27.544 47.4192C27.1539 47.1221 26.9264 46.6931 26.8614 46.1321C26.8289 45.604 27.0727 45.0265 27.5927 44.3994C28.0152 43.8714 28.3402 43.3433 28.5677 42.8153C28.8277 42.3203 29.0227 41.8252 29.1527 41.3302C27.9827 41.2312 27.0402 40.8022 26.3252 40.0431C25.6427 39.284 25.3014 38.294 25.3014 37.0729C25.3014 35.8518 25.6752 34.8617 26.4227 34.1027C27.1702 33.3106 28.194 32.9146 29.494 32.9146C30.794 32.9146 31.8178 33.3766 32.5653 34.3007C33.3453 35.1917 33.7353 36.4623 33.7353 38.1125C33.7353 39.3996 33.524 40.7362 33.1015 42.1223C32.7115 43.5084 31.8503 45.043 30.5177 46.7261ZM31.3613 14.2742C31.3613 15.3957 30.4667 16.3049 29.3632 16.3049C28.2596 16.3049 27.365 15.3957 27.365 14.2742C27.365 13.1526 28.2596 12.2434 29.3632 12.2434C30.4667 12.2434 31.3613 13.1526 31.3613 14.2742ZM36.6365 19.3919C37.7842 19.3919 38.7146 18.4827 38.7146 17.3611C38.7146 16.2396 37.7842 15.3304 36.6365 15.3304C35.4888 15.3304 34.5584 16.2396 34.5584 17.3611C34.5584 18.4827 35.4888 19.3919 36.6365 19.3919ZM20.0116 17.3611C20.0116 18.4827 20.942 19.3919 22.0897 19.3919C23.2374 19.3919 24.1678 18.4827 24.1678 17.3611C24.1678 16.2396 23.2374 15.3304 22.0897 15.3304C20.942 15.3304 20.0116 16.2396 20.0116 17.3611ZM39.8335 26.3774C40.9812 26.3774 41.9116 25.4319 41.9116 24.2654C41.9116 23.099 40.9812 22.1535 39.8335 22.1535C38.6858 22.1535 37.7554 23.099 37.7554 24.2654C37.7554 25.4319 38.6858 26.3774 39.8335 26.3774ZM16.8147 24.2654C16.8147 25.4319 17.7451 26.3774 18.8928 26.3774C20.0405 26.3774 20.9709 25.4319 20.9709 24.2654C20.9709 23.099 20.0405 22.1535 18.8928 22.1535C17.7451 22.1535 16.8147 23.099 16.8147 24.2654Z" fill="#068BF7"/>
    <path d="M80.5415 32.6943C79.0583 32.6943 77.6785 32.5225 76.4018 32.1791C75.1252 31.8166 74.0833 31.311 73.276 30.6622C72.9944 30.4524 72.7879 30.2329 72.6565 30.004C72.5438 29.7559 72.4875 29.4506 72.4875 29.0881C72.4875 28.6111 72.6283 28.1914 72.9099 27.8288C73.2103 27.4663 73.5482 27.2851 73.9237 27.2851C74.1302 27.2851 74.3273 27.3232 74.5151 27.3995C74.7216 27.4568 74.9656 27.5713 75.2472 27.743C76.0545 28.2581 76.8712 28.6397 77.6972 28.8878C78.5233 29.1167 79.4338 29.2312 80.4288 29.2312C81.6679 29.2312 82.616 29.0213 83.2731 28.6016C83.9301 28.1818 84.2587 27.5808 84.2587 26.7985C84.2587 26.207 83.9489 25.73 83.3294 25.3675C82.7286 25.005 81.6491 24.6616 80.0909 24.3372C78.3449 23.9747 76.9463 23.5358 75.8949 23.0207C74.8624 22.5055 74.102 21.8663 73.6139 21.1031C73.1446 20.3399 72.9099 19.4145 72.9099 18.327C72.9099 17.1249 73.2478 16.0469 73.9237 15.0929C74.6183 14.1198 75.5664 13.3662 76.7679 12.8319C77.9882 12.2786 79.3587 12.002 80.8794 12.002C83.5453 12.002 85.7418 12.6793 87.469 14.034C87.7506 14.2629 87.9477 14.5014 88.0604 14.7495C88.1918 14.9784 88.2575 15.2646 88.2575 15.6081C88.2575 16.0851 88.1073 16.5048 87.8069 16.8674C87.5253 17.2299 87.1968 17.4111 86.8213 17.4111C86.6148 17.4111 86.4177 17.3825 86.2299 17.3253C86.061 17.268 85.8169 17.144 85.4978 16.9532C84.728 16.4571 84.0146 16.0851 83.3575 15.837C82.7192 15.589 81.9026 15.465 80.9076 15.465C79.7623 15.465 78.8612 15.6939 78.2041 16.1519C77.547 16.5907 77.2185 17.2013 77.2185 17.9835C77.2185 18.4415 77.3405 18.8231 77.5846 19.1283C77.8474 19.4145 78.2698 19.6721 78.8518 19.9011C79.4526 20.1301 80.2974 20.3686 81.3863 20.6166C83.9395 21.189 85.77 21.9236 86.8776 22.8203C88.0041 23.7171 88.5673 24.9478 88.5673 26.5123C88.5673 27.7334 88.2293 28.8115 87.5535 29.7464C86.8964 30.6813 85.9577 31.4064 84.7374 31.9215C83.5359 32.4367 82.1372 32.6943 80.5415 32.6943Z" fill="#068BF7"/>
    <path d="M110.064 12.1164C110.684 12.1164 111.181 12.3263 111.557 12.7461C111.951 13.1468 112.148 13.6715 112.148 14.3202V30.5764C112.148 31.206 111.97 31.7021 111.613 32.0646C111.256 32.4271 110.787 32.6084 110.205 32.6084C109.642 32.6084 109.182 32.4271 108.825 32.0646C108.468 31.7021 108.29 31.206 108.29 30.5764V20.4735L104.291 28.115C104.028 28.6111 103.737 28.9736 103.418 29.2026C103.118 29.4316 102.752 29.546 102.32 29.546C101.907 29.546 101.541 29.4316 101.222 29.2026C100.903 28.9736 100.612 28.6111 100.349 28.115L96.35 20.6166V30.5764C96.35 31.1869 96.1716 31.683 95.8149 32.0646C95.4582 32.4271 94.9889 32.6084 94.4069 32.6084C93.8437 32.6084 93.3837 32.4271 93.027 32.0646C92.6703 31.7021 92.492 31.206 92.492 30.5764V14.3202C92.492 13.6715 92.6797 13.1468 93.0552 12.7461C93.4494 12.3263 93.9563 12.1164 94.5759 12.1164C95.477 12.1164 96.1622 12.603 96.6316 13.5761L102.348 24.5948L108.037 13.5761C108.544 12.603 109.219 12.1164 110.064 12.1164Z" fill="#068BF7"/>
    <path d="M135.347 29.7178C135.497 30.0612 135.572 30.3665 135.572 30.6336C135.572 31.1679 135.356 31.6258 134.924 32.0074C134.511 32.3699 134.033 32.5512 133.488 32.5512C133.132 32.5512 132.794 32.4558 132.474 32.265C132.155 32.0551 131.911 31.7498 131.742 31.3491L130.25 27.9719H120.703L119.211 31.3491C119.042 31.7498 118.798 32.0551 118.479 32.265C118.178 32.4558 117.84 32.5512 117.465 32.5512C116.92 32.5512 116.432 32.3699 116 32.0074C115.569 31.6258 115.353 31.1679 115.353 30.6336C115.353 30.3665 115.428 30.0612 115.578 29.7178L123.181 13.4902C123.388 13.0323 123.698 12.6888 124.111 12.4599C124.524 12.2118 124.965 12.0878 125.434 12.0878C125.922 12.0878 126.373 12.2118 126.786 12.4599C127.199 12.7079 127.518 13.0514 127.743 13.4902L135.347 29.7178ZM128.757 24.5948L125.491 17.1536L122.196 24.5948H128.757Z" fill="#068BF7"/>
    <path d="M154.974 29.6033C155.256 30.023 155.397 30.4333 155.397 30.834C155.397 31.3682 155.181 31.807 154.749 32.1505C154.336 32.4939 153.848 32.6656 153.285 32.6656C152.928 32.6656 152.581 32.5798 152.243 32.4081C151.905 32.2363 151.623 31.9692 151.398 31.6067L147.681 25.9972C147.361 25.5011 147.024 25.1481 146.667 24.9382C146.31 24.7093 145.86 24.5948 145.315 24.5948H143.034V30.376C143.034 31.0629 142.837 31.6067 142.443 32.0074C142.067 32.4081 141.551 32.6084 140.894 32.6084C140.218 32.6084 139.683 32.4081 139.289 32.0074C138.894 31.6067 138.697 31.0629 138.697 30.376V14.3488C138.697 13.681 138.876 13.1658 139.232 12.8033C139.589 12.4408 140.096 12.2595 140.753 12.2595H147.821C150.149 12.2595 151.905 12.7842 153.088 13.8336C154.289 14.864 154.89 16.3617 154.89 18.327C154.89 19.8725 154.467 21.1604 153.623 22.1907C152.778 23.221 151.586 23.8984 150.046 24.2227C150.609 24.3372 151.107 24.5662 151.539 24.9096C151.989 25.234 152.421 25.711 152.834 26.3406L154.974 29.6033ZM147.174 21.2176C148.432 21.2176 149.342 20.9982 149.905 20.5594C150.469 20.1014 150.75 19.3955 150.75 18.4415C150.75 17.4684 150.469 16.7624 149.905 16.3236C149.342 15.8847 148.432 15.6653 147.174 15.6653H142.978V21.2176H147.174Z" fill="#068BF7"/>
    <path d="M165.384 32.5798C164.727 32.5798 164.191 32.3794 163.778 31.9788C163.384 31.5781 163.187 31.0438 163.187 30.376V15.8943H158.625C157.236 15.8943 156.541 15.2837 156.541 14.0626C156.541 12.8606 157.236 12.2595 158.625 12.2595H172.142C173.531 12.2595 174.226 12.8606 174.226 14.0626C174.226 15.2837 173.531 15.8943 172.142 15.8943H167.58V30.376C167.58 31.0438 167.383 31.5781 166.989 31.9788C166.595 32.3794 166.059 32.5798 165.384 32.5798Z" fill="#068BF7"/>
    <path d="M183.606 32.5798C182.949 32.5798 182.413 32.3794 182 31.9788C181.606 31.5781 181.409 31.0438 181.409 30.376V15.8943H176.847C175.458 15.8943 174.763 15.2837 174.763 14.0626C174.763 12.8606 175.458 12.2595 176.847 12.2595H190.364C191.753 12.2595 192.448 12.8606 192.448 14.0626C192.448 15.2837 191.753 15.8943 190.364 15.8943H185.802V30.376C185.802 31.0438 185.605 31.5781 185.211 31.9788C184.817 32.3794 184.281 32.5798 183.606 32.5798Z" fill="#068BF7"/>
    <path d="M197.097 32.4367C196.44 32.4367 195.933 32.2554 195.576 31.8929C195.219 31.5304 195.041 31.0152 195.041 30.3474V14.3488C195.041 13.681 195.219 13.1658 195.576 12.8033C195.933 12.4408 196.44 12.2595 197.097 12.2595H207.065C208.455 12.2595 209.149 12.8319 209.149 13.9767C209.149 15.1406 208.455 15.7226 207.065 15.7226H199.321V20.4449H206.502C207.892 20.4449 208.586 21.0268 208.586 22.1907C208.586 23.3355 207.892 23.9079 206.502 23.9079H199.321V28.9736H207.065C208.455 28.9736 209.149 29.5556 209.149 30.7195C209.149 31.8643 208.455 32.4367 207.065 32.4367H197.097Z" fill="#068BF7"/>
    <path d="M228.715 29.6033C228.996 30.023 229.137 30.4333 229.137 30.834C229.137 31.3682 228.921 31.807 228.489 32.1505C228.076 32.4939 227.588 32.6656 227.025 32.6656C226.668 32.6656 226.321 32.5798 225.983 32.4081C225.645 32.2363 225.364 31.9692 225.138 31.6067L221.421 25.9972C221.102 25.5011 220.764 25.1481 220.407 24.9382C220.051 24.7093 219.6 24.5948 219.056 24.5948H216.775V30.376C216.775 31.0629 216.577 31.6067 216.183 32.0074C215.808 32.4081 215.291 32.6084 214.634 32.6084C213.958 32.6084 213.423 32.4081 213.029 32.0074C212.635 31.6067 212.438 31.0629 212.438 30.376V14.3488C212.438 13.681 212.616 13.1658 212.973 12.8033C213.33 12.4408 213.836 12.2595 214.494 12.2595H221.562C223.89 12.2595 225.645 12.7842 226.828 13.8336C228.029 14.864 228.63 16.3617 228.63 18.327C228.63 19.8725 228.208 21.1604 227.363 22.1907C226.518 23.221 225.326 23.8984 223.787 24.2227C224.35 24.3372 224.847 24.5662 225.279 24.9096C225.73 25.234 226.161 25.711 226.575 26.3406L228.715 29.6033ZM220.914 21.2176C222.172 21.2176 223.083 20.9982 223.646 20.5594C224.209 20.1014 224.491 19.3955 224.491 18.4415C224.491 17.4684 224.209 16.7624 223.646 16.3236C223.083 15.8847 222.172 15.6653 220.914 15.6653H216.718V21.2176H220.914Z" fill="#068BF7"/>
    <path d="M239.903 32.6943C238.42 32.6943 237.04 32.5225 235.763 32.1791C234.486 31.8166 233.444 31.311 232.637 30.6622C232.356 30.4524 232.149 30.2329 232.018 30.004C231.905 29.7559 231.849 29.4506 231.849 29.0881C231.849 28.6111 231.99 28.1914 232.271 27.8288C232.571 27.4663 232.909 27.2851 233.285 27.2851C233.491 27.2851 233.689 27.3232 233.876 27.3995C234.083 27.4568 234.327 27.5713 234.608 27.743C235.416 28.2581 236.232 28.6397 237.058 28.8878C237.884 29.1167 238.795 29.2312 239.79 29.2312C241.029 29.2312 241.977 29.0213 242.634 28.6016C243.291 28.1818 243.62 27.5808 243.62 26.7985C243.62 26.207 243.31 25.73 242.691 25.3675C242.09 25.005 241.01 24.6616 239.452 24.3372C237.706 23.9747 236.307 23.5358 235.256 23.0207C234.224 22.5055 233.463 21.8663 232.975 21.1031C232.506 20.3399 232.271 19.4145 232.271 18.327C232.271 17.1249 232.609 16.0469 233.285 15.0929C233.98 14.1198 234.928 13.3662 236.129 12.8319C237.349 12.2786 238.72 12.002 240.241 12.002C242.906 12.002 245.103 12.6793 246.83 14.034C247.112 14.2629 247.309 14.5014 247.422 14.7495C247.553 14.9784 247.619 15.2646 247.619 15.6081C247.619 16.0851 247.469 16.5048 247.168 16.8674C246.887 17.2299 246.558 17.4111 246.183 17.4111C245.976 17.4111 245.779 17.3825 245.591 17.3253C245.422 17.268 245.178 17.144 244.859 16.9532C244.089 16.4571 243.376 16.0851 242.719 15.837C242.08 15.589 241.264 15.465 240.269 15.465C239.124 15.465 238.222 15.6939 237.565 16.1519C236.908 16.5907 236.58 17.2013 236.58 17.9835C236.58 18.4415 236.702 18.8231 236.946 19.1283C237.209 19.4145 237.631 19.6721 238.213 19.9011C238.814 20.1301 239.659 20.3686 240.747 20.6166C243.301 21.189 245.131 21.9236 246.239 22.8203C247.365 23.7171 247.928 24.9478 247.928 26.5123C247.928 27.7334 247.591 28.8115 246.915 29.7464C246.258 30.6813 245.319 31.4064 244.099 31.9215C242.897 32.4367 241.498 32.6943 239.903 32.6943Z" fill="#068BF7"/>
    <path d="M78.6101 43.7008C79.1314 43.8485 79.533 44.1177 79.815 44.5085C80.1056 44.8994 80.2508 45.3771 80.2508 45.9416C80.2508 46.7233 79.9731 47.3356 79.4176 47.7785C78.8707 48.2215 78.1144 48.4429 77.1487 48.4429H73.8415C73.5937 48.4429 73.3971 48.3734 73.2519 48.2345C73.1151 48.0955 73.0468 47.9001 73.0468 47.6482V40.0531C73.0468 39.8012 73.1151 39.6058 73.2519 39.4668C73.3971 39.3278 73.5937 39.2584 73.8415 39.2584H77.0205C77.9606 39.2584 78.6955 39.4711 79.2254 39.8967C79.7637 40.3136 80.0329 40.8999 80.0329 41.6555C80.0329 42.1418 79.9047 42.5631 79.6484 42.9192C79.4005 43.2753 79.0544 43.5358 78.6101 43.7008ZM74.6619 43.1276H76.7514C77.8879 43.1276 78.4562 42.6977 78.4562 41.8379C78.4562 41.4036 78.3152 41.0822 78.0332 40.8738C77.7512 40.6654 77.3239 40.5611 76.7514 40.5611H74.6619V43.1276ZM76.9693 47.1402C77.5675 47.1402 78.0033 47.0316 78.2768 46.8145C78.5502 46.5973 78.687 46.2586 78.687 45.7983C78.687 45.338 78.546 44.9949 78.264 44.7691C77.9905 44.5433 77.5589 44.4304 76.9693 44.4304H74.6619V47.1402H76.9693Z" fill="black"/>
    <path d="M86.1425 48.5602C85.2623 48.5602 84.4975 48.3691 83.848 47.987C83.2071 47.6048 82.7114 47.0576 82.361 46.3455C82.0106 45.6333 81.8355 44.7995 81.8355 43.8441C81.8355 42.8888 82.0064 42.0593 82.3482 41.3558C82.6986 40.6436 83.1985 40.0965 83.848 39.7143C84.4975 39.3322 85.2623 39.1411 86.1425 39.1411C87.0227 39.1411 87.7833 39.3322 88.4243 39.7143C89.0737 40.0965 89.5694 40.6436 89.9112 41.3558C90.2616 42.0593 90.4368 42.8888 90.4368 43.8441C90.4368 44.7995 90.2616 45.6333 89.9112 46.3455C89.5608 47.0576 89.0609 47.6048 88.4114 47.987C87.7705 48.3691 87.0142 48.5602 86.1425 48.5602ZM86.1425 47.2183C86.9715 47.2183 87.6167 46.9274 88.0782 46.3455C88.5482 45.7636 88.7832 44.9298 88.7832 43.8441C88.7832 42.7585 88.5482 41.9291 88.0782 41.3558C87.6167 40.7739 86.9715 40.483 86.1425 40.483C85.305 40.483 84.6513 40.7739 84.1813 41.3558C83.7198 41.9291 83.4891 42.7585 83.4891 43.8441C83.4891 44.9298 83.7198 45.7636 84.1813 46.3455C84.6513 46.9274 85.305 47.2183 86.1425 47.2183Z" fill="black"/>
    <path d="M96.1577 48.5602C94.9186 48.5602 93.9785 48.2345 93.3376 47.5831C92.6967 46.9317 92.3762 45.9807 92.3762 44.73V40.027C92.3762 39.7751 92.4489 39.5754 92.5941 39.4277C92.7394 39.2714 92.936 39.1932 93.1838 39.1932C93.4316 39.1932 93.6282 39.2714 93.7734 39.4277C93.9187 39.5754 93.9914 39.7751 93.9914 40.027V44.8212C93.9914 45.6116 94.1751 46.2108 94.5426 46.619C94.91 47.0186 95.4484 47.2183 96.1577 47.2183C96.8585 47.2183 97.3926 47.0142 97.7601 46.606C98.1275 46.1978 98.3113 45.6029 98.3113 44.8212V40.027C98.3113 39.7751 98.3839 39.5754 98.5292 39.4277C98.6745 39.2714 98.871 39.1932 99.1188 39.1932C99.3667 39.1932 99.5632 39.2714 99.7085 39.4277C99.8538 39.5754 99.9264 39.7751 99.9264 40.027V44.73C99.9264 45.972 99.6059 46.923 98.965 47.5831C98.3241 48.2345 97.3883 48.5602 96.1577 48.5602Z" fill="black"/>
    <path d="M108.994 39.1932C109.234 39.1932 109.422 39.2714 109.558 39.4277C109.704 39.5754 109.776 39.7751 109.776 40.027V47.6743C109.776 47.9262 109.704 48.1303 109.558 48.2866C109.413 48.4429 109.225 48.5211 108.994 48.5211C108.721 48.5211 108.511 48.4212 108.366 48.2215L103.687 42.0333V47.6743C103.687 47.9262 103.619 48.1303 103.482 48.2866C103.346 48.4429 103.158 48.5211 102.918 48.5211C102.679 48.5211 102.491 48.4429 102.354 48.2866C102.218 48.1303 102.149 47.9262 102.149 47.6743V40.027C102.149 39.7751 102.222 39.5754 102.367 39.4277C102.512 39.2714 102.705 39.1932 102.944 39.1932C103.209 39.1932 103.414 39.2931 103.559 39.4929L108.225 45.655V40.027C108.225 39.7751 108.294 39.5754 108.43 39.4277C108.576 39.2714 108.764 39.1932 108.994 39.1932Z" fill="black"/>
    <path d="M112.841 48.4429C112.593 48.4429 112.396 48.3734 112.251 48.2345C112.114 48.0955 112.046 47.9001 112.046 47.6482V40.0531C112.046 39.8012 112.114 39.6058 112.251 39.4668C112.396 39.3278 112.593 39.2584 112.841 39.2584H115.379C116.857 39.2584 118.002 39.6622 118.814 40.4699C119.635 41.269 120.045 42.3937 120.045 43.8441C120.045 45.3032 119.635 46.4367 118.814 47.2444C118.002 48.0434 116.857 48.4429 115.379 48.4429H112.841ZM115.276 47.075C117.353 47.075 118.391 45.9981 118.391 43.8441C118.391 41.6989 117.353 40.6263 115.276 40.6263H113.7V47.075H115.276Z" fill="black"/>
    <path d="M122.813 48.4429C122.565 48.4429 122.372 48.3734 122.236 48.2345C122.099 48.0955 122.031 47.9044 122.031 47.6613V40.027C122.031 39.7751 122.103 39.5754 122.249 39.4277C122.402 39.2714 122.603 39.1932 122.851 39.1932C123.107 39.1932 123.308 39.2714 123.453 39.4277C123.607 39.5754 123.684 39.7751 123.684 40.027V47.062H127.286C127.799 47.062 128.055 47.2921 128.055 47.7525C128.055 48.2128 127.799 48.4429 127.286 48.4429H122.813Z" fill="black"/>
    <path d="M130.256 48.4429C130.008 48.4429 129.812 48.3734 129.667 48.2345C129.53 48.0955 129.461 47.9001 129.461 47.6482V40.0531C129.461 39.8012 129.53 39.6058 129.667 39.4668C129.812 39.3278 130.008 39.2584 130.256 39.2584H134.884C135.132 39.2584 135.324 39.3148 135.461 39.4277C135.597 39.5406 135.666 39.7013 135.666 39.9098C135.666 40.1269 135.597 40.2962 135.461 40.4178C135.324 40.5307 135.132 40.5872 134.884 40.5872H131.077V43.1146H134.627C134.875 43.1146 135.067 43.171 135.204 43.2839C135.341 43.3968 135.409 43.5619 135.409 43.779C135.409 43.9874 135.341 44.1481 135.204 44.261C135.067 44.3739 134.875 44.4304 134.627 44.4304H131.077V47.1141H134.884C135.132 47.1141 135.324 47.1749 135.461 47.2965C135.597 47.4094 135.666 47.5744 135.666 47.7915C135.666 48 135.597 48.1607 135.461 48.2736C135.324 48.3865 135.132 48.4429 134.884 48.4429H130.256Z" fill="black"/>
    <path d="M140.333 48.5602C139.675 48.5602 139.051 48.4733 138.461 48.2996C137.88 48.1172 137.406 47.8741 137.039 47.5701C136.842 47.4224 136.744 47.214 136.744 46.9447C136.744 46.7623 136.795 46.606 136.898 46.4757C137.009 46.3368 137.137 46.2673 137.282 46.2673C137.436 46.2673 137.611 46.3281 137.808 46.4497C138.175 46.7189 138.56 46.9143 138.961 47.0359C139.363 47.1575 139.807 47.2183 140.295 47.2183C140.918 47.2183 141.397 47.1098 141.73 46.8926C142.064 46.6668 142.23 46.3411 142.23 45.9155C142.23 45.5855 142.072 45.3336 141.756 45.1599C141.448 44.9775 140.931 44.8038 140.205 44.6388C139.453 44.4738 138.842 44.2827 138.372 44.0656C137.902 43.8485 137.547 43.5705 137.308 43.2318C137.068 42.8931 136.949 42.4632 136.949 41.9421C136.949 41.4036 137.098 40.9216 137.398 40.496C137.697 40.0704 138.111 39.7404 138.641 39.5059C139.179 39.2627 139.782 39.1411 140.448 39.1411C141.67 39.1411 142.666 39.4711 143.435 40.1312C143.546 40.2268 143.623 40.3223 143.666 40.4178C143.717 40.5047 143.743 40.6176 143.743 40.7566C143.743 40.9389 143.687 41.0996 143.576 41.2386C143.474 41.3689 143.35 41.434 143.204 41.434C143.119 41.434 143.038 41.421 142.961 41.3949C142.892 41.3689 142.798 41.3211 142.679 41.2516C142.328 40.9911 141.987 40.8 141.653 40.6784C141.329 40.5481 140.927 40.483 140.448 40.483C139.867 40.483 139.406 40.6046 139.064 40.8477C138.731 41.0822 138.564 41.4123 138.564 41.8379C138.564 42.194 138.714 42.4675 139.013 42.6586C139.312 42.8497 139.82 43.0277 140.538 43.1927C141.299 43.3664 141.914 43.5619 142.384 43.779C142.863 43.9874 143.226 44.2567 143.474 44.5867C143.73 44.9168 143.858 45.3293 143.858 45.8244C143.858 46.3628 143.709 46.8405 143.409 47.2574C143.119 47.6656 142.704 47.987 142.166 48.2215C141.636 48.4473 141.025 48.5602 140.333 48.5602Z" fill="black"/>
    <path d="M148.828 48.5602C148.17 48.5602 147.546 48.4733 146.956 48.2996C146.375 48.1172 145.901 47.8741 145.533 47.5701C145.337 47.4224 145.239 47.214 145.239 46.9447C145.239 46.7623 145.29 46.606 145.392 46.4757C145.504 46.3368 145.632 46.2673 145.777 46.2673C145.931 46.2673 146.106 46.3281 146.303 46.4497C146.67 46.7189 147.055 46.9143 147.456 47.0359C147.858 47.1575 148.302 47.2183 148.789 47.2183C149.413 47.2183 149.892 47.1098 150.225 46.8926C150.558 46.6668 150.725 46.3411 150.725 45.9155C150.725 45.5855 150.567 45.3336 150.251 45.1599C149.943 44.9775 149.426 44.8038 148.7 44.6388C147.948 44.4738 147.337 44.2827 146.867 44.0656C146.397 43.8485 146.042 43.5705 145.803 43.2318C145.563 42.8931 145.444 42.4632 145.444 41.9421C145.444 41.4036 145.593 40.9216 145.892 40.496C146.191 40.0704 146.606 39.7404 147.136 39.5059C147.674 39.2627 148.277 39.1411 148.943 39.1411C150.165 39.1411 151.161 39.4711 151.93 40.1312C152.041 40.2268 152.118 40.3223 152.161 40.4178C152.212 40.5047 152.238 40.6176 152.238 40.7566C152.238 40.9389 152.182 41.0996 152.071 41.2386C151.968 41.3689 151.845 41.434 151.699 41.434C151.614 41.434 151.533 41.421 151.456 41.3949C151.387 41.3689 151.293 41.3211 151.174 41.2516C150.823 40.9911 150.481 40.8 150.148 40.6784C149.823 40.5481 149.422 40.483 148.943 40.483C148.362 40.483 147.901 40.6046 147.559 40.8477C147.226 41.0822 147.059 41.4123 147.059 41.8379C147.059 42.194 147.208 42.4675 147.508 42.6586C147.807 42.8497 148.315 43.0277 149.033 43.1927C149.794 43.3664 150.409 43.5619 150.879 43.779C151.357 43.9874 151.721 44.2567 151.968 44.5867C152.225 44.9168 152.353 45.3293 152.353 45.8244C152.353 46.3628 152.203 46.8405 151.904 47.2574C151.614 47.6656 151.199 47.987 150.661 48.2215C150.131 48.4473 149.52 48.5602 148.828 48.5602Z" fill="black"/>
    <path d="M158.816 48.5211C158.568 48.5211 158.367 48.4473 158.213 48.2996C158.068 48.1433 157.996 47.9348 157.996 47.6743V40.0531C157.996 39.8012 158.064 39.6058 158.201 39.4668C158.346 39.3278 158.542 39.2584 158.79 39.2584H161.944C162.909 39.2584 163.661 39.5059 164.2 40.0009C164.738 40.4873 165.007 41.1734 165.007 42.0593C165.007 42.9452 164.738 43.6357 164.2 44.1307C163.661 44.6258 162.909 44.8733 161.944 44.8733H159.649V47.6743C159.649 47.9348 159.572 48.1433 159.418 48.2996C159.273 48.4473 159.072 48.5211 158.816 48.5211ZM161.739 43.5836C162.875 43.5836 163.443 43.0798 163.443 42.0724C163.443 41.0649 162.875 40.5611 161.739 40.5611H159.649V43.5836H161.739Z" fill="black"/>
    <path d="M170.766 48.5602C169.886 48.5602 169.121 48.3691 168.471 47.987C167.83 47.6048 167.335 47.0576 166.984 46.3455C166.634 45.6333 166.459 44.7995 166.459 43.8441C166.459 42.8888 166.63 42.0593 166.971 41.3558C167.322 40.6436 167.822 40.0965 168.471 39.7143C169.121 39.3322 169.886 39.1411 170.766 39.1411C171.646 39.1411 172.407 39.3322 173.048 39.7143C173.697 40.0965 174.193 40.6436 174.535 41.3558C174.885 42.0593 175.06 42.8888 175.06 43.8441C175.06 44.7995 174.885 45.6333 174.535 46.3455C174.184 47.0576 173.684 47.6048 173.035 47.987C172.394 48.3691 171.637 48.5602 170.766 48.5602ZM170.766 47.2183C171.595 47.2183 172.24 46.9274 172.701 46.3455C173.171 45.7636 173.406 44.9298 173.406 43.8441C173.406 42.7585 173.171 41.9291 172.701 41.3558C172.24 40.7739 171.595 40.483 170.766 40.483C169.928 40.483 169.275 40.7739 168.805 41.3558C168.343 41.9291 168.112 42.7585 168.112 43.8441C168.112 44.9298 168.343 45.7636 168.805 46.3455C169.275 46.9274 169.928 47.2183 170.766 47.2183Z" fill="black"/>
    <path d="M180.179 48.5602C179.521 48.5602 178.897 48.4733 178.307 48.2996C177.726 48.1172 177.252 47.8741 176.884 47.5701C176.688 47.4224 176.589 47.214 176.589 46.9447C176.589 46.7623 176.641 46.606 176.743 46.4757C176.854 46.3368 176.982 46.2673 177.128 46.2673C177.282 46.2673 177.457 46.3281 177.653 46.4497C178.021 46.7189 178.405 46.9143 178.807 47.0359C179.209 47.1575 179.653 47.2183 180.14 47.2183C180.764 47.2183 181.242 47.1098 181.576 46.8926C181.909 46.6668 182.076 46.3411 182.076 45.9155C182.076 45.5855 181.918 45.3336 181.601 45.1599C181.294 44.9775 180.777 44.8038 180.05 44.6388C179.298 44.4738 178.687 44.2827 178.217 44.0656C177.747 43.8485 177.393 43.5705 177.153 43.2318C176.914 42.8931 176.794 42.4632 176.794 41.9421C176.794 41.4036 176.944 40.9216 177.243 40.496C177.542 40.0704 177.957 39.7404 178.486 39.5059C179.025 39.2627 179.627 39.1411 180.294 39.1411C181.516 39.1411 182.512 39.4711 183.281 40.1312C183.392 40.2268 183.469 40.3223 183.511 40.4178C183.563 40.5047 183.588 40.6176 183.588 40.7566C183.588 40.9389 183.533 41.0996 183.422 41.2386C183.319 41.3689 183.195 41.434 183.05 41.434C182.964 41.434 182.883 41.421 182.806 41.3949C182.738 41.3689 182.644 41.3211 182.524 41.2516C182.174 40.9911 181.832 40.8 181.499 40.6784C181.174 40.5481 180.772 40.483 180.294 40.483C179.713 40.483 179.251 40.6046 178.909 40.8477C178.576 41.0822 178.41 41.4123 178.41 41.8379C178.41 42.194 178.559 42.4675 178.858 42.6586C179.157 42.8497 179.666 43.0277 180.384 43.1927C181.144 43.3664 181.76 43.5619 182.23 43.779C182.708 43.9874 183.071 44.2567 183.319 44.5867C183.575 44.9168 183.704 45.3293 183.704 45.8244C183.704 46.3628 183.554 46.8405 183.255 47.2574C182.964 47.6656 182.55 47.987 182.012 48.2215C181.482 48.4473 180.871 48.5602 180.179 48.5602Z" fill="black"/>
    <path d="M188.673 48.5602C188.015 48.5602 187.392 48.4733 186.802 48.2996C186.221 48.1172 185.746 47.8741 185.379 47.5701C185.182 47.4224 185.084 47.214 185.084 46.9447C185.084 46.7623 185.135 46.606 185.238 46.4757C185.349 46.3368 185.477 46.2673 185.623 46.2673C185.776 46.2673 185.952 46.3281 186.148 46.4497C186.516 46.7189 186.9 46.9143 187.302 47.0359C187.703 47.1575 188.148 47.2183 188.635 47.2183C189.259 47.2183 189.737 47.1098 190.071 46.8926C190.404 46.6668 190.571 46.3411 190.571 45.9155C190.571 45.5855 190.412 45.3336 190.096 45.1599C189.789 44.9775 189.272 44.8038 188.545 44.6388C187.793 44.4738 187.182 44.2827 186.712 44.0656C186.242 43.8485 185.887 43.5705 185.648 43.2318C185.409 42.8931 185.289 42.4632 185.289 41.9421C185.289 41.4036 185.439 40.9216 185.738 40.496C186.037 40.0704 186.452 39.7404 186.981 39.5059C187.52 39.2627 188.122 39.1411 188.789 39.1411C190.011 39.1411 191.006 39.4711 191.776 40.1312C191.887 40.2268 191.964 40.3223 192.006 40.4178C192.058 40.5047 192.083 40.6176 192.083 40.7566C192.083 40.9389 192.028 41.0996 191.917 41.2386C191.814 41.3689 191.69 41.434 191.545 41.434C191.459 41.434 191.378 41.421 191.301 41.3949C191.233 41.3689 191.139 41.3211 191.019 41.2516C190.669 40.9911 190.327 40.8 189.994 40.6784C189.669 40.5481 189.267 40.483 188.789 40.483C188.208 40.483 187.746 40.6046 187.404 40.8477C187.071 41.0822 186.904 41.4123 186.904 41.8379C186.904 42.194 187.054 42.4675 187.353 42.6586C187.652 42.8497 188.161 43.0277 188.879 43.1927C189.639 43.3664 190.254 43.5619 190.724 43.779C191.203 43.9874 191.566 44.2567 191.814 44.5867C192.07 44.9168 192.199 45.3293 192.199 45.8244C192.199 46.3628 192.049 46.8405 191.75 47.2574C191.459 47.6656 191.045 47.987 190.506 48.2215C189.977 48.4473 189.366 48.5602 188.673 48.5602Z" fill="black"/>
    <path d="M194.861 48.5211C194.613 48.5211 194.412 48.4429 194.258 48.2866C194.113 48.1303 194.041 47.9262 194.041 47.6743V40.027C194.041 39.7751 194.113 39.5754 194.258 39.4277C194.412 39.2714 194.613 39.1932 194.861 39.1932C195.117 39.1932 195.318 39.2714 195.463 39.4277C195.617 39.5754 195.694 39.7751 195.694 40.027V47.6743C195.694 47.9262 195.617 48.1303 195.463 48.2866C195.318 48.4429 195.117 48.5211 194.861 48.5211Z" fill="black"/>
    <path d="M203.53 43.7008C204.051 43.8485 204.452 44.1177 204.735 44.5085C205.025 44.8994 205.17 45.3771 205.17 45.9416C205.17 46.7233 204.893 47.3356 204.337 47.7785C203.79 48.2215 203.034 48.4429 202.068 48.4429H198.761C198.513 48.4429 198.317 48.3734 198.171 48.2345C198.035 48.0955 197.966 47.9001 197.966 47.6482V40.0531C197.966 39.8012 198.035 39.6058 198.171 39.4668C198.317 39.3278 198.513 39.2584 198.761 39.2584H201.94C202.88 39.2584 203.615 39.4711 204.145 39.8967C204.683 40.3136 204.952 40.8999 204.952 41.6555C204.952 42.1418 204.824 42.5631 204.568 42.9192C204.32 43.2753 203.974 43.5358 203.53 43.7008ZM199.581 43.1276H201.671C202.807 43.1276 203.376 42.6977 203.376 41.8379C203.376 41.4036 203.235 41.0822 202.953 40.8738C202.671 40.6654 202.243 40.5611 201.671 40.5611H199.581V43.1276ZM201.889 47.1402C202.487 47.1402 202.923 47.0316 203.196 46.8145C203.47 46.5973 203.606 46.2586 203.606 45.7983C203.606 45.338 203.465 44.9949 203.183 44.7691C202.91 44.5433 202.478 44.4304 201.889 44.4304H199.581V47.1402H201.889Z" fill="black"/>
    <path d="M207.857 48.5211C207.61 48.5211 207.409 48.4429 207.255 48.2866C207.11 48.1303 207.037 47.9262 207.037 47.6743V40.027C207.037 39.7751 207.11 39.5754 207.255 39.4277C207.409 39.2714 207.61 39.1932 207.857 39.1932C208.114 39.1932 208.315 39.2714 208.46 39.4277C208.614 39.5754 208.691 39.7751 208.691 40.027V47.6743C208.691 47.9262 208.614 48.1303 208.46 48.2866C208.315 48.4429 208.114 48.5211 207.857 48.5211Z" fill="black"/>
    <path d="M211.745 48.4429C211.497 48.4429 211.305 48.3734 211.168 48.2345C211.031 48.0955 210.963 47.9044 210.963 47.6613V40.027C210.963 39.7751 211.035 39.5754 211.181 39.4277C211.334 39.2714 211.535 39.1932 211.783 39.1932C212.039 39.1932 212.24 39.2714 212.386 39.4277C212.539 39.5754 212.616 39.7751 212.616 40.027V47.062H216.218C216.731 47.062 216.987 47.2921 216.987 47.7525C216.987 48.2128 216.731 48.4429 216.218 48.4429H211.745Z" fill="black"/>
    <path d="M219.214 48.5211C218.966 48.5211 218.765 48.4429 218.611 48.2866C218.466 48.1303 218.394 47.9262 218.394 47.6743V40.027C218.394 39.7751 218.466 39.5754 218.611 39.4277C218.765 39.2714 218.966 39.1932 219.214 39.1932C219.47 39.1932 219.671 39.2714 219.816 39.4277C219.97 39.5754 220.047 39.7751 220.047 40.027V47.6743C220.047 47.9262 219.97 48.1303 219.816 48.2866C219.671 48.4429 219.47 48.5211 219.214 48.5211Z" fill="black"/>
    <path d="M225.28 48.5081C225.024 48.5081 224.819 48.4342 224.665 48.2866C224.52 48.1303 224.447 47.9262 224.447 47.6743V40.6393H222.114C221.601 40.6393 221.345 40.4091 221.345 39.9488C221.345 39.4885 221.601 39.2584 222.114 39.2584H228.434C228.946 39.2584 229.203 39.4885 229.203 39.9488C229.203 40.4091 228.946 40.6393 228.434 40.6393H226.101V47.6743C226.101 47.9262 226.024 48.1303 225.87 48.2866C225.725 48.4342 225.528 48.5081 225.28 48.5081Z" fill="black"/>
    <path d="M231.322 48.5211C231.074 48.5211 230.873 48.4429 230.719 48.2866C230.574 48.1303 230.501 47.9262 230.501 47.6743V40.027C230.501 39.7751 230.574 39.5754 230.719 39.4277C230.873 39.2714 231.074 39.1932 231.322 39.1932C231.578 39.1932 231.779 39.2714 231.924 39.4277C232.078 39.5754 232.155 39.7751 232.155 40.027V47.6743C232.155 47.9262 232.078 48.1303 231.924 48.2866C231.779 48.4429 231.578 48.5211 231.322 48.5211Z" fill="black"/>
    <path d="M235.222 48.4429C234.974 48.4429 234.777 48.3734 234.632 48.2345C234.495 48.0955 234.427 47.9001 234.427 47.6482V40.0531C234.427 39.8012 234.495 39.6058 234.632 39.4668C234.777 39.3278 234.974 39.2584 235.222 39.2584H239.849C240.097 39.2584 240.289 39.3148 240.426 39.4277C240.563 39.5406 240.631 39.7013 240.631 39.9098C240.631 40.1269 240.563 40.2962 240.426 40.4178C240.289 40.5307 240.097 40.5872 239.849 40.5872H236.042V43.1146H239.593C239.841 43.1146 240.033 43.171 240.17 43.2839C240.306 43.3968 240.375 43.5619 240.375 43.779C240.375 43.9874 240.306 44.1481 240.17 44.261C240.033 44.3739 239.841 44.4304 239.593 44.4304H236.042V47.1141H239.849C240.097 47.1141 240.289 47.1749 240.426 47.2965C240.563 47.4094 240.631 47.5744 240.631 47.7915C240.631 48 240.563 48.1607 240.426 48.2736C240.289 48.3865 240.097 48.4429 239.849 48.4429H235.222Z" fill="black"/>
    <path d="M245.298 48.5602C244.64 48.5602 244.017 48.4733 243.427 48.2996C242.846 48.1172 242.371 47.8741 242.004 47.5701C241.807 47.4224 241.709 47.214 241.709 46.9447C241.709 46.7623 241.76 46.606 241.863 46.4757C241.974 46.3368 242.102 46.2673 242.248 46.2673C242.401 46.2673 242.577 46.3281 242.773 46.4497C243.141 46.7189 243.525 46.9143 243.927 47.0359C244.328 47.1575 244.773 47.2183 245.26 47.2183C245.884 47.2183 246.362 47.1098 246.696 46.8926C247.029 46.6668 247.196 46.3411 247.196 45.9155C247.196 45.5855 247.037 45.3336 246.721 45.1599C246.414 44.9775 245.897 44.8038 245.17 44.6388C244.418 44.4738 243.807 44.2827 243.337 44.0656C242.867 43.8485 242.512 43.5705 242.273 43.2318C242.034 42.8931 241.914 42.4632 241.914 41.9421C241.914 41.4036 242.064 40.9216 242.363 40.496C242.662 40.0704 243.077 39.7404 243.606 39.5059C244.145 39.2627 244.747 39.1411 245.414 39.1411C246.636 39.1411 247.631 39.4711 248.401 40.1312C248.512 40.2268 248.589 40.3223 248.631 40.4178C248.683 40.5047 248.708 40.6176 248.708 40.7566C248.708 40.9389 248.653 41.0996 248.542 41.2386C248.439 41.3689 248.315 41.434 248.17 41.434C248.084 41.434 248.003 41.421 247.926 41.3949C247.858 41.3689 247.764 41.3211 247.644 41.2516C247.294 40.9911 246.952 40.8 246.619 40.6784C246.294 40.5481 245.892 40.483 245.414 40.483C244.833 40.483 244.371 40.6046 244.029 40.8477C243.696 41.0822 243.529 41.4123 243.529 41.8379C243.529 42.194 243.679 42.4675 243.978 42.6586C244.277 42.8497 244.786 43.0277 245.504 43.1927C246.264 43.3664 246.879 43.5619 247.349 43.779C247.828 43.9874 248.191 44.2567 248.439 44.5867C248.695 44.9168 248.824 45.3293 248.824 45.8244C248.824 46.3628 248.674 46.8405 248.375 47.2574C248.084 47.6656 247.67 47.987 247.131 48.2215C246.602 48.4473 245.991 48.5602 245.298 48.5602Z" fill="black"/>
</svg>
