<svg width="600" height="401" viewBox="0 0 600 401" fill="none" xmlns="http://www.w3.org/2000/svg">
    <mask id="mask0_1426_3321" style="mask-type:luminance" maskUnits="userSpaceOnUse" x="100" y="1" width="400" height="400">
        <path d="M100 0.999994H500V401H100V0.999994Z" fill="white"/>
    </mask>
    <g mask="url(#mask0_1426_3321)">
        <path d="M444.424 328.658C482.416 299.77 499.336 219.666 437.648 180.386C396.808 154.386 371.408 169.218 325.464 152.018C269.376 131.026 261.016 67.6021 192.792 98.8101C156.648 115.338 131.592 161.922 127.184 214.866C122.864 266.714 141.24 302.29 178.792 326.634C266.976 330.386 355.336 329.706 444.424 328.658Z" fill="#DFF3FC"/>
        <path d="M288.346 100.808C282.607 123.848 303.917 146.656 326.366 156.112C348.817 165.576 374.562 164.448 398.612 159.936C408.99 157.992 419.658 155.256 427.719 148.64C435.782 142.024 440.456 130.536 436.037 121.256C432.138 113.072 422.646 108.88 413.596 106.728C404.546 104.576 394.934 103.696 386.872 99.1679C379.226 94.8719 373.804 87.7598 367.154 82.1278C354.87 71.7358 337.613 66.5838 321.642 69.8718C305.662 73.1598 293.224 81.2238 288.346 100.808Z" fill="#DFF3FC"/>
        <path d="M420.461 213.168C412.118 213.168 405.354 206.404 405.354 198.061C405.354 189.728 412.118 182.964 420.461 182.964C428.794 182.964 435.558 189.728 435.558 198.061C435.558 206.404 428.794 213.168 420.461 213.168ZM460.236 206.781V189.351H453.626C452.833 186.304 451.622 183.43 450.073 180.784L454.746 176.103L442.42 163.776L437.739 168.45C435.092 166.9 432.218 165.69 429.171 164.896V158.287H411.741V164.896C408.694 165.69 405.82 166.9 403.174 168.45L398.493 163.776L386.166 176.103L390.84 180.784C389.29 183.43 388.087 186.304 387.286 189.351H380.677V206.781H387.286C388.087 209.828 389.29 212.702 390.84 215.349L386.166 220.03L398.493 232.356L403.174 227.683C405.82 229.232 408.694 230.435 411.741 231.236V237.846H429.171V231.236C432.218 230.435 435.092 229.232 437.739 227.683L442.42 232.356L454.746 220.03L450.073 215.349C451.622 212.702 452.833 209.828 453.626 206.781H460.236Z" fill="#A2C7EB"/>
        <path d="M389.054 261.189C384.916 262.776 380.275 260.709 378.688 256.571C377.102 252.438 379.17 247.797 383.307 246.21C387.44 244.625 392.081 246.692 393.666 250.825C395.254 254.962 393.186 259.603 389.054 261.189ZM407.564 250.454L404.248 241.81L400.97 243.067C399.997 241.707 398.85 240.512 397.578 239.494L399.005 236.284L390.546 232.517L389.114 235.725C387.507 235.459 385.852 235.406 384.19 235.592L382.932 232.314L374.288 235.63L375.545 238.908C374.185 239.881 372.99 241.029 371.973 242.301L368.762 240.873L364.994 249.332L368.202 250.764C367.937 252.371 367.887 254.025 368.07 255.689L364.792 256.946L368.109 265.591L371.386 264.333C372.363 265.692 373.506 266.889 374.778 267.906L373.352 271.117L381.81 274.884L383.242 271.676C384.85 271.941 386.503 271.991 388.167 271.809L389.424 275.086L398.069 271.77L396.811 268.493C398.17 267.515 399.366 266.372 400.384 265.1L403.594 266.527L407.362 258.069L404.154 256.637C404.419 255.029 404.473 253.374 404.286 251.712L407.564 250.454Z" stroke="#A2C7EB" stroke-width="1.33333" stroke-miterlimit="10"/>
        <path d="M366.735 227.386C363.94 228.459 360.804 227.062 359.731 224.266C358.66 221.474 360.057 218.338 362.853 217.266C365.645 216.194 368.781 217.591 369.852 220.384C370.925 223.179 369.527 226.315 366.735 227.386ZM379.242 220.134L377.001 214.293L374.787 215.142C374.129 214.223 373.354 213.416 372.494 212.728L373.459 210.558L367.744 208.013L366.776 210.181C365.69 210.002 364.572 209.966 363.449 210.091L362.599 207.877L356.758 210.117L357.608 212.332C356.689 212.99 355.881 213.765 355.193 214.624L353.025 213.66L350.478 219.375L352.646 220.342C352.467 221.429 352.433 222.546 352.557 223.67L350.342 224.52L352.583 230.361L354.797 229.511C355.457 230.43 356.23 231.238 357.089 231.926L356.125 234.094L361.841 236.64L362.808 234.473C363.894 234.652 365.012 234.686 366.136 234.562L366.985 236.777L372.826 234.536L371.977 232.322C372.895 231.661 373.703 230.889 374.391 230.029L376.56 230.994L379.105 225.278L376.938 224.31C377.117 223.225 377.153 222.106 377.028 220.983L379.242 220.134Z" stroke="#A2C7EB" stroke-width="1.33333" stroke-miterlimit="10"/>
        <path d="M377.209 117.87C377.209 126.628 373.115 134.436 366.747 139.48C362.058 143.202 356.127 145.411 349.668 145.411C343.226 145.411 337.295 143.202 332.59 139.48C326.214 134.436 322.127 126.628 322.127 117.87C322.127 102.66 334.459 90.3293 349.668 90.3293C364.878 90.3293 377.209 102.66 377.209 117.87Z" fill="#0097D8"/>
        <path d="M377.209 117.87C377.209 126.628 373.115 134.436 366.747 139.48C362.058 143.202 356.127 145.411 349.668 145.411C343.226 145.411 337.295 143.202 332.59 139.48C326.214 134.436 322.127 126.628 322.127 117.87C322.127 102.66 334.459 90.3293 349.668 90.3293C364.878 90.3293 377.209 102.66 377.209 117.87Z" stroke="#0097D8" stroke-width="1.33333" stroke-miterlimit="10"/>
        <path d="M349.669 99.7907C354.647 99.7907 358.683 103.827 358.683 108.805C358.683 113.784 354.647 117.82 349.669 117.82C344.69 117.82 340.653 113.784 340.653 108.805C340.653 103.827 344.69 99.7907 349.669 99.7907Z" fill="white"/>
        <path d="M366.747 136.007C362.057 139.729 356.127 141.937 349.668 141.937C343.226 141.937 337.295 139.729 332.59 136.007C334.351 128.258 335.972 121.567 337.659 119.871C340.041 117.49 346.368 116.1 349.66 116.1C352.951 116.1 359.576 117.787 360.8 119.011C363.298 121.501 365.448 128.374 366.747 136.007Z" fill="white"/>
        <path d="M310.088 185.762V172.162C310.088 168.45 313.096 165.442 316.808 165.442H359.656C363.368 165.442 366.376 168.45 366.376 172.162V185.762C366.376 189.474 363.368 192.482 359.656 192.482H316.816C313.104 192.49 310.088 189.474 310.088 185.762Z" fill="#0097D8"/>
        <path d="M328.184 185.05L307.448 205.25L341.056 188.266" fill="#0097D8"/>
        <path d="M315.288 171.826V171.754C315.288 171.202 315.736 170.754 316.288 170.754H337.472C338.024 170.754 338.472 171.202 338.472 171.754V171.826C338.472 172.378 338.024 172.826 337.472 172.826H316.288C315.736 172.826 315.288 172.378 315.288 171.826Z" fill="white"/>
        <path d="M339.424 171.826V171.754C339.424 171.202 339.872 170.754 340.424 170.754H358.912C359.464 170.754 359.912 171.202 359.912 171.754V171.826C359.912 172.378 359.464 172.826 358.912 172.826H340.424C339.872 172.826 339.424 172.378 339.424 171.826Z" fill="white"/>
        <path d="M331.352 176.378V176.306C331.352 175.754 331.8 175.306 332.352 175.306H358.912C359.464 175.306 359.912 175.754 359.912 176.306V176.378C359.912 176.93 359.464 177.378 358.912 177.378H332.352C331.8 177.378 331.352 176.93 331.352 176.378Z" fill="white"/>
        <path d="M315.288 176.378V176.306C315.288 175.754 315.736 175.306 316.288 175.306H328.152C328.704 175.306 329.152 175.754 329.152 176.306V176.378C329.152 176.93 328.704 177.378 328.152 177.378H316.288C315.736 177.378 315.288 176.93 315.288 176.378Z" fill="white"/>
        <path d="M335.04 180.93V180.858C335.04 180.306 335.488 179.858 336.04 179.858H358.912C359.464 179.858 359.912 180.306 359.912 180.858V180.93C359.912 181.482 359.464 181.93 358.912 181.93H336.04C335.488 181.93 335.04 181.482 335.04 180.93Z" fill="white"/>
        <path d="M315.288 180.93V180.858C315.288 180.306 315.736 179.858 316.288 179.858H332.088C332.64 179.858 333.088 180.306 333.088 180.858V180.93C333.088 181.482 332.64 181.93 332.088 181.93H316.288C315.736 181.93 315.288 181.482 315.288 180.93Z" fill="white"/>
        <path d="M315.288 185.482V185.41C315.288 184.858 315.736 184.41 316.288 184.41H322.152C322.704 184.41 323.152 184.858 323.152 185.41V185.482C323.152 186.034 322.704 186.482 322.152 186.482H316.288C315.736 186.482 315.288 186.034 315.288 185.482Z" fill="white"/>
        <path d="M325.224 185.482V185.41C325.224 184.858 325.672 184.41 326.224 184.41H358.912C359.464 184.41 359.912 184.858 359.912 185.41V185.482C359.912 186.034 359.464 186.482 358.912 186.482H326.224C325.672 186.482 325.224 186.034 325.224 185.482Z" fill="white"/>
        <path d="M170.893 130.56C184.574 125.368 199.873 132.25 205.066 145.93C210.258 159.612 203.377 174.912 189.696 180.104C176.014 185.296 160.714 178.414 155.522 164.734C150.33 151.052 157.211 135.752 170.893 130.56Z" fill="#0097D8"/>
        <path d="M179.839 171.115C178.304 174.312 174.468 175.659 171.272 174.124C168.075 172.59 166.728 168.754 168.263 165.557C169.797 162.361 173.633 161.014 176.83 162.548C180.026 164.083 181.374 167.919 179.839 171.115Z" fill="white"/>
        <path d="M170.679 170.641L170.37 166.569L173.741 164.264L177.422 166.032L177.732 170.104L174.361 172.408L170.679 170.641Z" fill="#0097D8"/>
        <path d="M192.327 145.106C190.791 148.303 186.956 149.65 183.759 148.115C180.563 146.581 179.215 142.745 180.751 139.548C182.285 136.352 186.121 135.005 189.318 136.539C192.514 138.074 193.862 141.91 192.327 145.106Z" fill="white"/>
        <path d="M183.354 144.243L183.574 139.065L187.477 135.655L191.158 137.423L190.938 142.6L187.035 146.01L183.354 144.243Z" fill="#0097D8"/>
        <path d="M178.497 165.369L173.585 163.01L177.215 154.637C177.445 154.106 177.696 153.584 177.967 153.072L182.231 145.003L187.143 147.362L183.643 155.608C183.371 156.246 183.071 156.87 182.743 157.481L178.497 165.369Z" fill="white"/>
        <path d="M198.699 169.587C199.646 169.149 214.848 169.842 214.848 169.842L203.89 159.781L198.699 169.587Z" fill="#0097D8"/>
        <path d="M241.734 74.149C256.117 74.0626 267.845 85.6522 267.932 100.035C268.018 114.417 256.429 126.146 242.047 126.232C227.665 126.319 215.935 114.729 215.849 100.347C215.762 85.9642 227.352 74.2354 241.734 74.149Z" fill="#0097D8"/>
        <path d="M242.76 99.8679H241.021V77.9975H242.76V99.8679Z" fill="white"/>
        <path d="M240.901 99.8678L241.891 101.298L223.663 113.915L222.673 112.485L240.901 99.8678Z" fill="white"/>
        <path d="M244.288 100.191C244.288 101.515 243.215 102.588 241.891 102.588C240.567 102.588 239.494 101.515 239.494 100.191C239.494 98.8671 240.567 97.7943 241.891 97.7943C243.215 97.7943 244.288 98.8671 244.288 100.191Z" fill="white"/>
        <path d="M312.592 276.53C311.048 252.722 321.464 228.082 339.008 213.986C339.552 237.914 329.24 262.13 312.592 276.53Z" fill="#A2C7EB"/>
        <path d="M336.145 220.394C328.753 234.17 322.361 248.586 317.049 263.458C310.593 281.514 305.513 300.698 294.457 315.834" stroke="#6F8BBF" stroke-width="1.33333" stroke-miterlimit="10" stroke-linecap="round"/>
        <path d="M307.056 291.506C315.936 271.642 333.56 256.634 352.992 252.386C344.72 273.674 326.112 289.914 307.056 291.506Z" fill="#A2C7EB"/>
        <path d="M348.224 256.762C334.952 268.442 321.456 279.794 307.736 290.81" stroke="#6F8BBF" stroke-width="1.33333" stroke-miterlimit="10" stroke-linecap="round"/>
        <path d="M301.816 308.81C313.68 291.09 335.568 281.842 353.68 286.898C340.36 304.394 318.424 313.666 301.816 308.81Z" fill="#A2C7EB"/>
        <path d="M349.336 288.178C333.784 297.906 317.008 305.09 299.712 309.41" stroke="#6F8BBF" stroke-width="1.33333" stroke-miterlimit="10" stroke-linecap="round"/>
        <path d="M308.224 285.482C312.016 265.53 306.328 243.29 293.664 228.578C288.472 248.186 293.424 271.162 308.224 285.482Z" fill="#A2C7EB"/>
        <path d="M294.968 233.666C297.464 252.226 301.904 269.61 308.784 286.602" stroke="#6F8BBF" stroke-width="1.33333" stroke-miterlimit="10" stroke-linecap="round"/>
        <path d="M301.712 302.474C300.096 281.962 289.584 262.698 274.208 252.066C275.096 262.93 277.984 273.402 282.568 282.922C287.84 293.858 295.584 300.794 301.712 302.474Z" fill="#A2C7EB"/>
        <path d="M276.489 256.218C282.537 273.322 291.241 289.178 302.097 302.906" stroke="#6F8BBF" stroke-width="1.33333" stroke-miterlimit="10" stroke-linecap="round"/>
        <path d="M420.456 297.554C428.848 275.722 448.152 258.01 469.44 252.618C460.112 274.154 441.072 291.514 420.456 297.554Z" fill="#A2C7EB"/>
        <path d="M464.281 257.154C452.105 266.41 440.536 276.642 429.753 287.722C416.649 301.178 404.288 316.186 388.312 325.162" stroke="#6F8BBF" stroke-width="1.33333" stroke-miterlimit="10" stroke-linecap="round"/>
        <path d="M409.424 308.634C425.416 294.562 447.144 288.386 466.056 292.53C450.024 308.122 426.92 314.994 409.424 308.634Z" fill="#A2C7EB"/>
        <path d="M460.048 294.49C443.528 299.482 426.944 304.082 410.304 308.298" stroke="#6F8BBF" stroke-width="1.33333" stroke-miterlimit="10" stroke-linecap="round"/>
        <path d="M397.696 321.914C415.448 310.97 438.584 311.666 452.52 323.562C433.576 333.706 410.384 333.01 397.696 321.914Z" fill="#A2C7EB"/>
        <path d="M448.16 322.922C430.432 325.242 412.648 324.794 395.6 321.586" stroke="#6F8BBF" stroke-width="1.33333" stroke-miterlimit="10" stroke-linecap="round"/>
        <path d="M412.928 303.746C424.456 287.522 428.544 265.386 423.384 247.114C410.752 262.458 405.712 284.946 412.928 303.746Z" fill="#A2C7EB"/>
        <path d="M422.448 252.17C417.04 269.722 413.848 287.018 412.968 304.97" stroke="#6F8BBF" stroke-width="1.33333" stroke-miterlimit="10" stroke-linecap="round"/>
        <path d="M400.209 316.226C407.185 297.298 405.793 275.842 396.561 260.098C392.897 270.138 391.153 280.642 391.305 290.994C391.473 302.882 395.473 312.226 400.209 316.226Z" fill="#A2C7EB"/>
        <path d="M396.864 264.722C395.2 282.426 396.392 300.106 400.36 316.762" stroke="#6F8BBF" stroke-width="1.33333" stroke-miterlimit="10" stroke-linecap="round"/>
        <path d="M182.614 259.382C174.059 233.215 150.184 212.072 122.411 206.072C134.087 228.71 155.266 246.727 182.614 259.382Z" fill="#A2C7EB"/>
        <path d="M184.062 263.442C165.322 252.845 141.842 250.509 121.488 257.207C140.367 266.637 162.737 269.265 184.062 263.442Z" fill="#A2C7EB"/>
        <path d="M189.246 269.116C168.992 266.309 147.783 271.302 131.334 282.746C149.985 289.526 172.363 285.128 189.246 269.116Z" fill="#A2C7EB"/>
        <path d="M195.561 281.512C175.505 281.429 155.784 290.961 143.995 306.438C152.922 308.226 162.4 307.157 170.59 303.449C178.778 299.741 185.639 293.412 195.561 281.512Z" fill="#A2C7EB"/>
        <path d="M209.701 302.252C189.924 298.862 168.852 304.99 154.592 318.282C163.103 321.514 172.633 322.031 181.342 319.734C190.051 317.438 197.892 312.338 209.701 302.252Z" fill="#A2C7EB"/>
        <path d="M188.349 260.622C175.29 243.019 171.746 219.299 179.165 199.12C184.832 208.715 189.72 218.859 192.001 229.641C194.283 240.423 193.84 251.92 188.349 260.622Z" fill="#A2C7EB"/>
        <path d="M196.328 277.605C193.236 258.904 199.63 239.083 213.136 225.539C214.69 244.887 208.771 264.596 196.328 277.605Z" fill="#A2C7EB"/>
        <path d="M128.49 210.761C168.237 236.192 199.322 274.099 215.731 317.166" stroke="#6F8BBF" stroke-width="1.33333" stroke-miterlimit="10" stroke-linecap="round"/>
        <path d="M180.4 208.4C185.235 228.031 188.176 248.073 189.172 268.175" stroke="#6F8BBF" stroke-width="1.33333" stroke-miterlimit="10" stroke-linecap="round"/>
        <path d="M210.167 233.132C208.583 248.97 203.688 264.45 195.869 278.393" stroke="#6F8BBF" stroke-width="1.33333" stroke-miterlimit="10" stroke-linecap="round"/>
        <path d="M129.854 257.664C148.077 261.128 166.598 263.007 185.123 263.283" stroke="#6F8BBF" stroke-width="1.33333" stroke-miterlimit="10" stroke-linecap="round"/>
        <path d="M140.835 281.19C157.638 279.969 174.168 275.899 189.448 269.212" stroke="#6F8BBF" stroke-width="1.33333" stroke-miterlimit="10" stroke-linecap="round"/>
        <path d="M150.902 303.613C166.406 295.879 181.912 288.137 197.416 280.402" stroke="#6F8BBF" stroke-width="1.33333" stroke-miterlimit="10" stroke-linecap="round"/>
        <path d="M160.985 317.27C181.228 313.364 187.242 308.703 209.709 302.254" stroke="#6F8BBF" stroke-width="1.33333" stroke-miterlimit="10" stroke-linecap="round"/>
        <path d="M289.136 280.194C289.136 280.194 290.888 296.25 292.848 297.538C296.352 299.85 336.912 305.194 336.912 305.194L335.584 315.746C335.584 315.746 280.032 320.738 277.672 317.962C273.576 313.146 266.376 289.914 266.376 289.914L289.136 280.194Z" fill="#E06A58"/>
        <path d="M262.352 238.858L266.84 228.082C266.84 228.082 279.016 233.802 283.032 240.866C287.328 248.418 292.584 288.57 292.584 288.57C292.584 288.57 271.088 293.522 267.136 291.418C263.184 289.314 262.352 238.858 262.352 238.858Z" fill="#F2AE30"/>
        <path d="M228.168 188.842C225.024 187.69 221.696 186.682 218.328 186.938C214.96 187.194 211.52 188.978 210.376 191.938C209.56 194.034 209.936 196.506 208.648 198.394C207.416 200.202 204.968 200.954 202.68 201.106C200.384 201.266 198.072 200.962 195.792 201.258C188.752 202.194 183.728 209.842 186.04 216.106C186.96 218.602 188.848 220.986 188.416 223.586C187.96 226.37 185.04 228.202 183.84 230.786C182.248 234.226 184.152 238.394 187.296 240.738C190.44 243.074 194.528 243.962 198.496 244.554C203.96 245.37 209.6 245.754 215 244.602C220.4 243.45 225.56 240.602 228.352 236.154C229.592 234.186 230.344 231.962 231.784 230.114C234.76 226.298 240.032 224.818 244.184 222.114C248.72 219.146 252.048 213.37 249.376 208.85C246.8 204.506 240.096 203.538 237.408 199.258C236.296 197.49 236.032 195.386 235.312 193.458C234.576 191.522 232.816 190.546 228.168 188.842Z" fill="#0A2240"/>
        <path d="M246.488 242.13C247.28 243.042 248.216 244.042 249.512 244.13C250.88 244.226 252.024 243.258 252.904 242.322C257.448 237.514 260.448 231.61 261.664 225.522C260.536 224.882 259.448 224.266 258.464 223.69C257.552 223.146 256.864 222.386 256.472 221.498C256.2 220.842 256.104 220.154 256.176 219.434C256.816 213.418 257.384 210.066 259.496 203.962C249.464 201.698 240 199.01 234.56 194.466C233.896 197.266 233.112 202.746 231.44 208.178C229.656 213.93 226.872 219.618 222.152 222.066C231.416 227.538 239.68 234.338 246.488 242.13Z" fill="#F9A07B"/>
        <path d="M256.176 219.442C256.104 220.162 256.2 220.858 256.472 221.506C250.536 228.706 237.264 219.298 231.44 208.186C233.112 202.754 233.896 197.274 234.56 194.474C239.992 199.018 249.464 201.714 259.496 203.97C257.384 210.074 256.816 213.418 256.176 219.442Z" fill="#E06A58"/>
        <path d="M272.704 306.482C271.392 315.17 280.768 324.522 281 329.162C261.088 329.162 219.376 330.378 198.136 327.49C197.168 322.13 207.656 310.074 207.656 298.17C207.656 296.594 207.592 294.866 207.464 293.01C207.128 287.698 206.344 281.378 205.472 274.898C203.104 257.514 199.952 238.922 202.28 235.066C206.84 227.554 217.504 222.45 222.792 220.258C224.608 219.506 225.792 219.098 225.88 219.05C232.512 230.362 246.008 240.01 251.104 239.578C252.52 239.466 256.72 238.002 259.496 224.026C260.576 224.642 261.656 225.21 262.728 225.762C268 228.506 272.944 230.77 274.368 234.298C278.128 243.586 281.816 267.002 281 275.33C280.176 283.73 276.8 290.146 274.432 298.578C273.88 300.554 273.376 302.65 272.968 304.906C272.864 305.41 272.784 305.938 272.704 306.482Z" fill="#FFC73C"/>
        <path d="M281 329.162C261.088 329.162 219.376 330.378 198.136 327.49C197.168 322.13 207.656 310.074 207.656 298.17C207.656 296.594 207.592 294.866 207.464 293.01C207.128 287.698 206.344 281.378 205.472 274.898C209.24 278.874 214.736 262.074 217.168 266.994C230.328 293.554 240.704 300.538 258.736 300.538C264.112 300.538 269.072 299.794 274.432 298.578C273.88 300.554 273.376 302.65 272.968 304.906C272.872 305.418 272.784 305.946 272.704 306.49C271.392 315.162 280.768 324.514 281 329.162Z" fill="#FFBB33"/>
        <path d="M262.728 225.762C261.872 231.978 259.336 240.354 251.96 242.562C241.992 245.546 227.568 226.922 222.792 220.258C224.608 219.506 225.792 219.098 225.88 219.05C232.512 230.362 246.008 240.01 251.104 239.578C252.52 239.466 256.72 238.002 259.496 224.026C260.576 224.634 261.656 225.202 262.728 225.762Z" fill="#FCE172"/>
        <path d="M266.824 319.81L266.752 326.746L390.752 327.482L391.008 319.618L266.824 319.81Z" fill="#325F73"/>
        <path d="M444.496 257.93L441.736 255.13L351.416 254.538L306.104 320.066L308.472 321.97L444.496 257.93Z" fill="#325F73"/>
        <path d="M353.16 256.962L308.472 321.97L393.832 322.394L444.496 257.93L353.16 256.962Z" fill="#0B2D50"/>
        <path d="M374.728 288.522C380.215 288.522 384.664 290.746 384.664 293.49C384.664 296.234 380.215 298.458 374.728 298.458C369.241 298.458 364.792 296.234 364.792 293.49C364.792 290.746 369.241 288.522 374.728 288.522Z" fill="#3C738C"/>
        <path d="M268.658 192.787C270.066 185.234 275.246 179.863 280.228 180.791C285.21 181.72 288.108 188.596 286.7 196.15C285.293 203.703 280.113 209.074 275.13 208.145C270.149 207.217 267.25 200.341 268.658 192.787Z" fill="#56C4F9"/>
        <path d="M286.712 172.442C285.784 179.018 282.848 186.266 278.568 194.274C277.064 187.714 276.104 179.722 274.776 171.73C273.424 163.722 271.704 155.714 268.72 149.17C268.048 147.722 267.32 146.338 266.528 145.058C268.296 144.89 270.088 145.058 271.792 145.53C274.456 146.242 276.952 147.618 278.992 149.458C282.384 152.474 284.656 156.586 286.008 160.922C287.12 164.522 287.32 168.346 286.712 172.442Z" fill="#0B2D50"/>
        <path d="M281.689 179.242C281.641 180.538 281.553 181.858 281.433 183.17C279.609 204.45 270.673 219.05 257.001 219.05C237.697 219.05 225.185 197.402 225.185 176.194C225.185 155.274 238.001 140.13 253.001 141.882C261.649 142.874 267.969 145.746 272.457 149.954C275.425 152.754 277.569 156.138 279.033 159.986C280.705 164.298 281.513 169.178 281.681 174.434C281.681 174.45 281.697 174.466 281.697 174.482C281.761 176.034 281.745 177.618 281.689 179.242Z" fill="#F9A07B"/>
        <path d="M281.688 179.242C281.112 177.186 280.256 175.178 279.088 173.378C267.704 179.33 254.136 181.626 241.272 179.45C238.824 181.49 236.432 183.498 234.024 185.506C234.072 175.826 234.208 169.274 237.984 164.586C241.528 160.186 247.44 158.53 253.04 157.81C259.344 156.986 265.752 157.018 272.04 157.93C274.448 158.266 276.944 158.786 279.04 160.002C280.712 164.314 281.52 169.194 281.688 174.45C281.688 174.466 281.704 174.482 281.704 174.498C281.76 176.034 281.744 177.618 281.688 179.242Z" fill="#E06A58"/>
        <path d="M284.472 166.138C281.824 168.378 278.504 170.234 274.776 171.738C264.168 176.018 250.384 177.434 239.64 176.914C234.36 188.514 232.224 192.674 230.872 202.794C225.712 197.954 221.512 189.09 220.264 182.122C219.032 175.178 219.152 167.89 221.088 161.066C224.136 150.306 231.824 144.546 237.152 141.746C238.48 141.018 239.68 140.514 240.608 140.146C247.416 137.514 255.088 137.754 262.072 139.89C265.88 141.074 269.088 143.074 271.784 145.538C277.232 150.458 280.6 157.122 282.776 162.114C283.464 163.642 284.016 165.026 284.472 166.138Z" fill="#0B2D50"/>
        <path d="M286.712 172.442C286.272 170.114 285.616 167.858 284.688 165.682C284.168 164.45 283.528 163.258 282.784 162.106C280.36 158.298 276.832 155.162 272.568 153.778C271.352 152.074 270.072 150.538 268.728 149.178C263.888 144.258 258.208 141.442 252.192 140.458C247.184 139.65 241.976 140.106 237.168 141.738C238.496 141.01 239.696 140.506 240.624 140.138C247.432 137.506 255.104 137.746 262.088 139.882C265.896 141.066 269.104 143.066 271.8 145.53C274.464 146.242 276.96 147.618 279 149.458C282.392 152.474 284.664 156.586 286.016 160.922C287.12 164.522 287.32 168.346 286.712 172.442Z" fill="#225570"/>
        <path d="M245.792 185.49C249.36 183.45 253.064 182.53 258.256 184.426" stroke="#0B2D50" stroke-width="2.66667" stroke-miterlimit="10" stroke-linecap="round"/>
        <path d="M270.224 185.346C273.28 183.066 277.808 182.834 280.168 185.346" stroke="#0B2D50" stroke-width="2.66667" stroke-miterlimit="10" stroke-linecap="round"/>
        <path d="M266.537 196.978C266.849 198.594 266.681 202.17 265.913 203.778" stroke="#CC454E" stroke-width="2.66667" stroke-miterlimit="10" stroke-linecap="round"/>
        <path d="M254.48 193.426C255.293 193.426 255.952 194.465 255.952 195.746C255.952 197.028 255.293 198.066 254.48 198.066C253.667 198.066 253.008 197.028 253.008 195.746C253.008 194.465 253.667 193.426 254.48 193.426Z" fill="#262D40"/>
        <path d="M273.72 192.346C274.532 192.346 275.192 193.384 275.192 194.666C275.192 195.947 274.532 196.986 273.72 196.986C272.907 196.986 272.248 195.947 272.248 194.666C272.248 193.384 272.907 192.346 273.72 192.346Z" fill="#262D40"/>
        <path d="M264.712 206.938C264.712 206.938 264.424 207.498 263.872 208.258C263.008 209.418 261.536 211.018 259.528 211.642H259.52C258.672 211.914 257.752 212.01 256.728 211.826C253.72 211.29 252.928 208.514 252.784 206.378C252.752 205.962 252.752 205.578 252.76 205.226C252.776 204.362 252.872 203.786 252.872 203.786C257.664 206.426 264.712 206.938 264.712 206.938Z" fill="#CC454E"/>
        <path d="M264.713 206.938C264.713 206.938 264.425 207.498 263.873 208.258C261.425 208.226 256.417 206.97 252.761 205.226C252.777 204.362 252.873 203.786 252.873 203.786C257.665 206.426 264.713 206.938 264.713 206.938Z" fill="white"/>
        <path d="M259.521 211.634C258.673 211.906 257.753 212.002 256.729 211.818C253.721 211.282 252.929 208.506 252.785 206.37C254.241 206.546 255.649 207.106 256.817 207.994C258.041 208.93 258.977 210.202 259.521 211.634Z" fill="#E8729B"/>
        <path d="M230.921 181.818C230.921 181.818 230.753 171.842 234.905 161.93C240.113 149.49 250.729 144.17 261.025 143.81C273.433 143.37 281.201 151.698 281.201 151.698C281.201 151.698 277.161 144.57 269.193 142.522C263.961 141.178 256.065 140.962 249.729 143.538C243.201 146.186 235.065 153.538 232.121 161.306C229.185 169.074 227.753 181.17 227.753 181.17L230.921 181.818Z" fill="#3D86E0"/>
        <path d="M227.683 178.639C232.996 178.087 237.981 184.166 238.818 192.216C239.655 200.266 236.027 207.241 230.714 207.793C225.401 208.346 220.416 202.266 219.579 194.216C218.741 186.166 222.37 179.191 227.683 178.639Z" fill="#56C4F9"/>
        <path d="M224.985 183.354C228.415 182.839 231.931 187.312 232.837 193.346C233.744 199.38 231.699 204.689 228.268 205.204C224.839 205.72 221.324 201.247 220.416 195.212C219.51 189.179 221.556 183.869 224.985 183.354Z" fill="#3D86E0"/>
        <path d="M261.105 212.93C263.95 212.93 266.257 214.366 266.257 216.138C266.257 217.91 263.95 219.346 261.105 219.346C258.259 219.346 255.953 217.91 255.953 216.138C255.953 214.366 258.259 212.93 261.105 212.93Z" fill="#3A92C9"/>
        <path d="M235.224 205.41C235.224 205.41 242.792 215.138 255.952 216.138" stroke="#3A92C9" stroke-width="2.66667" stroke-miterlimit="10" stroke-linecap="round"/>
        <path d="M266.753 301.29L266.257 314.082C266.257 314.082 219.993 327.946 212.353 323.562C208.625 321.418 205.145 309.626 202.545 298.114C199.825 286.018 198.081 274.242 198.081 274.242L225.201 268.93C225.201 268.93 225.217 285.466 226.137 295.026C226.465 298.586 226.937 301.178 227.569 301.602C229.961 303.178 266.753 301.29 266.753 301.29Z" fill="#F9A07B"/>
        <path d="M226.137 295.01C221.209 296.61 211.697 299.082 202.545 298.106C199.825 286.01 198.081 274.234 198.081 274.234L225.201 268.922C225.201 268.914 225.217 285.45 226.137 295.01Z" fill="#E06A58"/>
        <path d="M265.432 301.418C272.312 299.946 283.96 296.41 288.792 295.194C292.224 294.33 301.16 298.954 303.52 303.314C304.552 305.218 305.528 316.002 301.952 314.89C300.16 314.33 300.456 309.706 299.896 307.818C299.44 306.282 297.984 304.794 295.768 303.514C297.248 307.202 297.192 310.418 297.032 314.402C297 315.282 296.944 316.202 296.52 316.962C296.088 317.722 295.16 318.266 294.36 317.93C293.544 317.594 293.264 316.578 293.08 315.69C292.448 312.618 291.808 309.546 291.552 306.074C291.616 309.49 291.544 312.914 291.328 316.322C291.168 318.93 289.872 320.362 288.28 319.906C287.568 319.706 287.28 319.05 286.976 318.186C286.496 319.858 285.296 321.706 283.744 321.002C282.8 320.578 282.216 317.17 282.384 313.666C279.408 315.514 276.048 316.298 272.176 316.474C268.704 316.634 265.152 315.986 263.064 313.626C263.272 309.938 264.488 304.482 265.432 301.418Z" fill="#F9A07B"/>
        <path d="M287.048 317.658C287.28 314.89 287.04 312.082 286.336 309.41" stroke="#CC454E" stroke-width="1.33333" stroke-miterlimit="10" stroke-linecap="round"/>
        <path d="M222.152 242.098C220.184 236.554 212.976 225.21 212.976 225.21C212.976 225.21 201.976 229.786 198.072 237.554C191.464 250.706 194.824 288.466 194.824 288.466C203.728 292.194 221.6 292.25 229.208 291.178C229.208 291.178 226.096 253.178 222.152 242.098Z" fill="#FFC73C"/>
        <path d="M223.552 244.418C226.552 258.778 228.16 272.17 228.672 285.29" stroke="#F2AE30" stroke-width="1.33333" stroke-miterlimit="10" stroke-linecap="round"/>
        <path d="M143.567 325.202H458.991V333.114H143.567V325.202Z" fill="#0B2D50"/>
    </g>
</svg>
