<svg width="441" height="273" viewBox="0 0 441 273" fill="none" xmlns="http://www.w3.org/2000/svg">
    <path d="M22.3822 128.04C22.3822 128.04 19.6493 135.56 13.8379 136.584C8.02646 137.608 -2.22668 126.331 4.26959 120.519C10.7659 114.708 19.6623 123.924 22.3822 128.04Z" fill="#068BF7" stroke="#263238" stroke-linecap="round" stroke-linejoin="round"/>
    <path d="M31.2722 91.1232C31.2722 91.1232 22.7279 111.995 26.1456 122.228C29.5633 132.462 50.7544 140.002 56.905 126.67C63.0556 113.338 49.3847 94.5736 44.2582 90.4384C39.1316 86.3032 32.981 87.7055 31.2722 91.1232Z" fill="#068BF7" stroke="#263238" stroke-linecap="round" stroke-linejoin="round"/>
    <path d="M81.1747 100.007C81.1747 100.007 66.4733 113.338 64.7645 126.67C63.0556 140.002 72.9696 144.789 83.2227 143.074C93.4759 141.358 98.6024 115.393 95.5304 103.424C92.4584 91.4558 81.1747 100.007 81.1747 100.007Z" fill="#068BF7" stroke="#263238" stroke-linecap="round" stroke-linejoin="round"/>
    <path d="M83.9075 173.839C83.9075 173.839 67.5038 174.524 66.819 182.384C66.1341 190.243 73.9935 191.952 81.8595 185.117C89.7255 178.281 90.756 174.179 83.9075 173.839Z" fill="#068BF7" stroke="#263238" stroke-linecap="round" stroke-linejoin="round"/>
    <path d="M43.2341 190.243C43.2341 190.243 41.5253 198.449 35.4073 201.527C29.2893 204.606 18.3122 198.109 24.1236 188.195C29.9351 178.281 40.1556 186.147 43.2341 190.243Z" fill="#068BF7" stroke="#263238" stroke-linecap="round" stroke-linejoin="round"/>
    <path d="M28.8784 164.61C28.8784 164.61 25.7999 157.775 13.8379 162.217C1.87589 166.658 -2.91152 173.5 4.60876 175.914C12.129 178.327 28.8784 164.61 28.8784 164.61Z" fill="#068BF7" stroke="#263238" stroke-linecap="round" stroke-linejoin="round"/>
    <path d="M63.0555 82.5787C63.0555 82.5787 65.1101 87.3596 69.2126 86.3356C73.3152 85.3116 74.3392 79.161 80.829 80.8698C87.3187 82.5787 92.7975 90.099 92.7975 86.6812C92.7975 83.2635 84.5924 74.354 75.3632 74.354C66.1341 74.354 63.4012 78.137 63.0555 82.5787Z" fill="#068BF7" stroke="#263238" stroke-linecap="round" stroke-linejoin="round"/>
    <path d="M39.5751 102.407L38.6033 97.73" stroke="#263238" stroke-linecap="round" stroke-linejoin="round"/>
    <path d="M54.8309 219.496C54.8309 219.496 56.3636 190.895 54.8309 173.024C53.2981 155.153 46.1496 134.203 46.1496 134.203L40.0251 104.579" stroke="#263238" stroke-linecap="round" stroke-linejoin="round"/>
    <path d="M84.2401 111.825L85.5968 108.753" stroke="#263238" stroke-linecap="round" stroke-linejoin="round"/>
    <path d="M58.4051 219.496C58.4051 219.496 58.9204 196.015 60.9619 180.681C63.0034 165.347 71.1889 141.358 71.1889 141.358L83.4444 113.658" stroke="#263238" stroke-linecap="round" stroke-linejoin="round"/>
    <path d="M78.7354 180.212L81.0638 179.403" stroke="#263238" stroke-linecap="round" stroke-linejoin="round"/>
    <path d="M61.4706 220.011C63.5121 185.28 67.0864 184.256 67.0864 184.256L76.8699 180.851" stroke="#263238" stroke-linecap="round" stroke-linejoin="round"/>
    <path d="M31.0243 193.061C30.3264 193.433 29.6155 193.844 28.885 194.313" stroke="#263238" stroke-linecap="round" stroke-linejoin="round"/>
    <path d="M49.7239 218.987C49.7239 218.987 50.7479 200.601 48.6999 193.961C46.6518 187.321 43.2341 190.243 43.2341 190.243C43.2341 190.243 39.0533 189.5 33.1049 192.063" stroke="#263238" stroke-linecap="round" stroke-linejoin="round"/>
    <path d="M52.0719 186.956C54.7396 201.925 52.2741 218.498 52.2741 218.498" stroke="#263238" stroke-linecap="round" stroke-linejoin="round"/>
    <path d="M10.9811 169.189C10.2179 169.541 9.48744 169.926 8.78955 170.33" stroke="#263238" stroke-linecap="round" stroke-linejoin="round"/>
    <path d="M51.2631 183.134C50.8454 181.438 50.3314 179.768 49.7239 178.131C43.5928 161.786 28.8523 164.61 28.8523 164.61C23.8658 165.165 18.954 166.258 14.2031 167.871" stroke="#263238" stroke-linecap="round" stroke-linejoin="round"/>
    <path d="M90.2995 148.781C90.2995 148.781 93.378 141.939 105.34 146.387C117.302 150.835 122.089 157.664 114.569 160.084C107.049 162.504 90.2995 148.781 90.2995 148.781Z" fill="#068BF7" stroke="#263238" stroke-linecap="round" stroke-linejoin="round"/>
    <path d="M77.2156 151.768C74.261 153.797 71.4172 157.064 69.454 162.295C63.323 178.64 64.0274 218.987 64.0274 218.987" stroke="#263238" stroke-linecap="round" stroke-linejoin="round"/>
    <path d="M80.1115 150.163C83.3152 148.772 86.841 148.294 90.2995 148.781C90.2995 148.781 95.5174 146.25 105.047 153.151" stroke="#263238" stroke-linecap="round" stroke-linejoin="round"/>
    <path d="M38.4989 138.462C42.341 143.094 45.2832 148.403 47.1736 154.116C55.3396 177.597 58.4051 207.743 56.8723 218.981" stroke="#263238" stroke-linecap="round" stroke-linejoin="round"/>
    <path d="M10.1267 127.061L8.14386 126.905" stroke="#263238" stroke-linecap="round" stroke-linejoin="round"/>
    <path d="M36.7248 136.519C29.5111 129.148 22.3756 128.039 22.3756 128.039L12.0312 127.185" stroke="#263238" stroke-linecap="round" stroke-linejoin="round"/>
    <path d="M59.253 160.449C58.7573 190.1 58.4051 219.496 58.4051 219.496" stroke="#263238" stroke-linecap="round" stroke-linejoin="round"/>
    <path d="M78.6766 77.6152C80.0761 77.9811 81.4223 78.527 82.6813 79.2393" stroke="#263238" stroke-linecap="round" stroke-linejoin="round"/>
    <path d="M59.3183 156.764C59.6575 137.158 60.0553 117.969 60.4467 107.644C61.4707 81.0851 63.0556 82.5787 63.0556 82.5787C63.0556 82.5787 67.8691 77.2761 74.9067 77.1782" stroke="#263238" stroke-linecap="round" stroke-linejoin="round"/>
    <path d="M73.1456 271.597H43.1754C41.6258 271.597 40.1316 271.02 38.9846 269.978C37.8376 268.936 37.1203 267.504 36.9726 265.961L32.3613 218.498H83.9466L79.3353 265.981C79.1805 267.516 78.4622 268.94 77.3191 269.977C76.1759 271.015 74.6891 271.591 73.1456 271.597Z" fill="#263238" stroke="#263238" stroke-linecap="round" stroke-linejoin="round"/>
    <path d="M33.8941 234.308L34.442 239.93H81.8595L82.4074 234.308H33.8941Z" fill="white" stroke="#263238" stroke-linecap="round" stroke-linejoin="round"/>
    <path d="M80.6724 252.186L80.9659 249.121H35.3355L35.629 252.186H80.6724Z" fill="white" stroke="#263238" stroke-linecap="round" stroke-linejoin="round"/>
    <path d="M72.7087 227.668C72.7074 228.478 72.9463 229.269 73.3951 229.943C73.844 230.616 74.4826 231.142 75.2302 231.452C75.9777 231.762 76.8005 231.844 77.5944 231.686C78.3883 231.529 79.1176 231.139 79.6899 230.567C80.2622 229.994 80.6518 229.265 80.8094 228.471C80.967 227.677 80.8855 226.855 80.5751 226.107C80.2648 225.359 79.7396 224.721 79.0661 224.272C78.3926 223.823 77.601 223.584 76.7916 223.585C75.7093 223.587 74.6718 224.018 73.9064 224.783C73.1411 225.549 72.7104 226.586 72.7087 227.668Z" fill="white" stroke="#263238" stroke-linecap="round" stroke-linejoin="round"/>
    <path d="M40.0186 231.758C40.829 231.766 41.6235 231.532 42.3012 231.088C42.9788 230.643 43.5091 230.007 43.8246 229.261C44.1401 228.514 44.2267 227.691 44.0734 226.895C43.92 226.099 43.5337 225.367 42.9633 224.791C42.393 224.215 41.6644 223.822 40.87 223.661C40.0757 223.5 39.2514 223.578 38.5019 223.887C37.7524 224.195 37.1113 224.719 36.6602 225.392C36.2091 226.066 35.9682 226.858 35.9682 227.668C35.9682 228.746 36.3936 229.781 37.1521 230.546C37.9106 231.312 38.9408 231.748 40.0186 231.758Z" fill="white" stroke="#263238" stroke-linecap="round" stroke-linejoin="round"/>
    <path d="M52.2806 231.751C54.5356 231.751 56.3636 229.923 56.3636 227.668C56.3636 225.413 54.5356 223.585 52.2806 223.585C50.0257 223.585 48.1976 225.413 48.1976 227.668C48.1976 229.923 50.0257 231.751 52.2806 231.751Z" fill="white" stroke="#263238" stroke-linecap="round" stroke-linejoin="round"/>
    <path d="M60.4466 227.668C60.4453 228.478 60.6841 229.269 61.1326 229.942C61.5812 230.616 62.2195 231.141 62.9666 231.451C63.7137 231.762 64.5362 231.844 65.3299 231.687C66.1237 231.53 66.8529 231.141 67.4255 230.569C67.9981 229.997 68.3882 229.269 68.5466 228.475C68.7049 227.682 68.6243 226.859 68.315 226.111C68.0056 225.364 67.4815 224.725 66.8088 224.275C66.1361 223.825 65.3452 223.585 64.5361 223.585C63.4526 223.585 62.4134 224.015 61.6467 224.781C60.8799 225.546 60.4483 226.585 60.4466 227.668Z" fill="white" stroke="#263238" stroke-linecap="round" stroke-linejoin="round"/>
    <g opacity="0.2">
        <path d="M85.4729 36.916C93.3005 36.916 99.646 30.5705 99.646 22.7429C99.646 14.9153 93.3005 8.56982 85.4729 8.56982C77.6453 8.56982 71.2998 14.9153 71.2998 22.7429C71.2998 30.5705 77.6453 36.916 85.4729 36.916Z" stroke="black" stroke-linecap="round" stroke-linejoin="round"/>
        <path d="M85.4729 36.916C88.9166 36.916 91.7083 30.5705 91.7083 22.7429C91.7083 14.9153 88.9166 8.56982 85.4729 8.56982C82.0292 8.56982 79.2375 14.9153 79.2375 22.7429C79.2375 30.5705 82.0292 36.916 85.4729 36.916Z" stroke="black" stroke-linecap="round" stroke-linejoin="round"/>
        <path d="M75.709 12.5681C78.3518 15.0756 81.8585 16.4697 85.5016 16.4612C89.1448 16.4527 92.6449 15.0423 95.276 12.5225" stroke="black" stroke-linecap="round" stroke-linejoin="round"/>
        <path d="M75.709 33.0157C78.3518 30.5082 81.8585 29.1141 85.5016 29.1226C89.1448 29.1311 92.6449 30.5415 95.276 33.0613" stroke="black" stroke-linecap="round" stroke-linejoin="round"/>
        <path d="M71.2998 22.7432H99.6394" stroke="black" stroke-linecap="round" stroke-linejoin="round"/>
    </g>
    <g opacity="0.2">
        <path d="M230.941 12.7705H211.106C209.658 12.7705 208.484 13.9444 208.484 15.3925V28.7046C208.484 30.1527 209.658 31.3266 211.106 31.3266H230.941C232.389 31.3266 233.563 30.1527 233.563 28.7046V15.3925C233.563 13.9444 232.389 12.7705 230.941 12.7705Z" stroke="black" stroke-linecap="round" stroke-linejoin="round"/>
        <path d="M233.628 25.5086L242.218 30.4721V13.6313L233.609 18.6014" stroke="black" stroke-linecap="round" stroke-linejoin="round"/>
    </g>
    <g opacity="0.2">
        <path d="M293.549 25.6257C292.502 25.6257 291.499 25.21 290.759 24.47C290.019 23.73 289.603 22.7263 289.603 21.6797V14.2508C289.603 13.2042 290.019 12.2005 290.759 11.4605C291.499 10.7205 292.502 10.3047 293.549 10.3047C294.069 10.3022 294.584 10.4023 295.065 10.5995C295.546 10.7966 295.983 11.0869 296.352 11.4536C296.72 11.8202 297.013 12.2561 297.212 12.7362C297.412 13.2162 297.515 13.7309 297.515 14.2508V21.6797C297.515 22.1996 297.412 22.7143 297.212 23.1943C297.013 23.6744 296.72 24.1102 296.352 24.4769C295.983 24.8436 295.546 25.1339 295.065 25.331C294.584 25.5282 294.069 25.6283 293.549 25.6257Z" stroke="black" stroke-linecap="round" stroke-linejoin="round"/>
        <path d="M287.281 21.8232C287.281 22.6464 287.443 23.4614 287.758 24.2219C288.073 24.9824 288.535 25.6733 289.117 26.2554C289.699 26.8374 290.39 27.2991 291.15 27.6141C291.911 27.9291 292.726 28.0912 293.549 28.0912C294.372 28.0912 295.187 27.9291 295.948 27.6141C296.708 27.2991 297.399 26.8374 297.981 26.2554C298.563 25.6733 299.025 24.9824 299.34 24.2219C299.655 23.4614 299.817 22.6464 299.817 21.8232" stroke="black" stroke-width="2" stroke-linecap="round" stroke-linejoin="round"/>
        <path d="M293.549 28.0913V33.4331" stroke="black" stroke-width="2" stroke-linecap="round" stroke-linejoin="round"/>
        <path d="M289.049 33.7915H298.16" stroke="black" stroke-width="2" stroke-linecap="round" stroke-linejoin="round"/>
    </g>
    <g opacity="0.2">
        <path d="M368.497 16.8726C368.497 15.5424 367.969 14.2666 367.028 13.326C366.088 12.3854 364.812 11.8569 363.482 11.8569H340.908C339.578 11.8587 338.303 12.3877 337.363 13.3279C336.423 14.2682 335.894 15.5429 335.892 16.8726V25.9061C335.894 27.2358 336.423 28.5106 337.363 29.4508C338.303 30.3911 339.578 30.9201 340.908 30.9218H363.482C363.799 30.9214 364.116 30.8908 364.428 30.8305L368.497 37.255V26.0887C368.497 26.0235 368.497 25.9583 368.497 25.893V16.8726Z" stroke="black" stroke-linecap="round" stroke-linejoin="round"/>
        <path d="M342.871 18.0986H362.588" stroke="black" stroke-linecap="round" stroke-linejoin="round"/>
        <path d="M342.871 21.6338H362.588" stroke="black" stroke-linecap="round" stroke-linejoin="round"/>
        <path d="M342.871 25.1626H362.588" stroke="black" stroke-linecap="round" stroke-linejoin="round"/>
    </g>
    <g opacity="0.2">
        <path d="M135.799 16.8726C135.801 15.5418 136.331 14.266 137.273 13.3256C138.214 12.3852 139.491 11.8569 140.822 11.8569H163.389C164.719 11.8569 165.995 12.3854 166.936 13.326C167.876 14.2666 168.405 15.5424 168.405 16.8726V25.9061C168.405 27.2363 167.876 28.5121 166.936 29.4527C165.995 30.3933 164.719 30.9218 163.389 30.9218H140.822C140.502 30.9214 140.183 30.8909 139.869 30.8305L135.799 37.255V26.0887C135.799 26.0235 135.799 25.9583 135.799 25.893V16.8726Z" stroke="black" stroke-linecap="round" stroke-linejoin="round"/>
        <path d="M161.432 18.0986H141.709" stroke="black" stroke-linecap="round" stroke-linejoin="round"/>
        <path d="M161.432 21.6338H141.709" stroke="black" stroke-linecap="round" stroke-linejoin="round"/>
        <path d="M161.432 25.1626H141.709" stroke="black" stroke-linecap="round" stroke-linejoin="round"/>
    </g>
    <path d="M5.96545 272.125H439.702" stroke="#263238" stroke-linecap="round" stroke-linejoin="round"/>
    <path d="M99.8287 53.4824H399.916C401.725 53.4824 403.46 54.2012 404.74 55.4806C406.019 56.7601 406.738 58.4954 406.738 60.3048V257.136H93.0128V60.3048C93.0128 58.4965 93.7307 56.7622 95.0087 55.483C96.2868 54.2037 98.0204 53.4842 99.8287 53.4824Z" fill="#636363" stroke="#263238" stroke-linecap="round" stroke-linejoin="round"/>
    <path d="M249.823 62.3921C251.343 62.3921 252.576 61.1598 252.576 59.6396C252.576 58.1195 251.343 56.8872 249.823 56.8872C248.303 56.8872 247.071 58.1195 247.071 59.6396C247.071 61.1598 248.303 62.3921 249.823 62.3921Z" fill="#263238"/>
    <path d="M95.9739 110.794C95.7658 110.792 95.5667 110.709 95.4201 110.561C95.2735 110.413 95.1912 110.213 95.1913 110.005V87.1767C95.1913 86.9691 95.2737 86.7701 95.4205 86.6233C95.5673 86.4765 95.7664 86.394 95.9739 86.394C96.1821 86.394 96.3819 86.4763 96.5297 86.6229C96.6775 86.7695 96.7614 86.9685 96.7631 87.1767V110.005C96.7631 110.214 96.68 110.415 96.532 110.563C96.384 110.711 96.1832 110.794 95.9739 110.794Z" fill="#263238"/>
    <path d="M394.032 69.3906H105.738V232.312H394.032V69.3906Z" fill="#263238" stroke="#263238" stroke-linecap="round" stroke-linejoin="round"/>
    <path d="M358.42 253.855H142.791V257.958H358.42V253.855Z" fill="#263238" stroke="#263238" stroke-linecap="round" stroke-linejoin="round"/>
    <path d="M67.6408 264.252C67.6408 264.252 71.1825 268.583 81.8074 272.125H419.411C419.411 272.125 427.283 270.168 430.825 264.644L67.6408 264.252Z" fill="#263238" stroke="#263238" stroke-linecap="round" stroke-linejoin="round"/>
    <path d="M430.349 256.497H68.1496C67.4688 256.497 66.9169 257.049 66.9169 257.73V263.535C66.9169 264.215 67.4688 264.767 68.1496 264.767H430.349C431.03 264.767 431.582 264.215 431.582 263.535V257.73C431.582 257.049 431.03 256.497 430.349 256.497Z" fill="#636363" stroke="#263238" stroke-linecap="round" stroke-linejoin="round"/>
    <path d="M390.289 152.355H299.563V227.434H390.289V152.355Z" fill="white"/>
    <path d="M335.853 202.486L328.248 208.624L328.117 227.506H362.001L360.266 206.889L352.394 201.423L335.853 202.486Z" fill="#263238" stroke="#263238" stroke-linecap="round" stroke-linejoin="round"/>
    <path d="M335.344 194.888C335.344 194.888 334.816 203.693 335.344 205.16C335.873 206.628 337.881 211.683 344.821 212.335C352.955 213.163 354.911 203.823 354.911 203.823L354.376 194.888C354.376 194.888 349.159 196.088 344.776 195.54C340.393 194.992 335.188 194.366 335.188 194.366" fill="white"/>
    <path d="M335.344 194.888C335.344 194.888 334.816 203.693 335.344 205.16C335.873 206.628 337.881 211.683 344.821 212.335C352.955 213.163 354.911 203.823 354.911 203.823L354.376 194.888C354.376 194.888 349.159 196.088 344.776 195.54C340.393 194.992 335.188 194.366 335.188 194.366" stroke="#263238" stroke-linecap="round" stroke-linejoin="round"/>
    <path d="M346.041 198.038L338.501 194.776L335.188 194.359L335.318 194.894C335.318 194.894 335.044 199.459 335.09 202.584L346.041 200.731V198.038Z" fill="#263238" stroke="#263238" stroke-linecap="round" stroke-linejoin="round"/>
    <path d="M327.987 179.142C327.987 179.142 327.048 182.077 327.583 184.36C328.117 186.643 332.651 188.495 332.651 188.495C332.651 188.495 333.055 193.433 334.255 194.763C335.455 196.094 340.777 200.366 343.06 201.038C345.343 201.709 347.195 201.69 348.663 200.77C350.13 199.851 355.596 196.1 356.398 194.098C357.08 192.173 357.659 190.214 358.133 188.228C358.133 188.228 360.801 187.83 361.871 185.691C362.94 183.551 363.071 180.355 363.071 179.423C363.071 178.49 360.403 176.488 358.668 175.157C356.933 173.826 346.393 167.415 344.528 167.285C342.662 167.154 340.256 167.819 339.46 168.589C338.664 169.359 327.987 179.142 327.987 179.142Z" fill="white" stroke="#263238" stroke-linecap="round" stroke-linejoin="round"/>
    <path d="M342.564 188.75C343.423 189.469 344.517 189.848 345.636 189.813C347.371 189.683 347.9 188.75 347.9 188.75" stroke="#263238" stroke-linecap="round" stroke-linejoin="round"/>
    <path d="M341.501 191.685C341.501 191.685 344.704 193.818 349.237 191.685" stroke="#263238" stroke-linecap="round" stroke-linejoin="round"/>
    <path d="M342.03 182.625C342.03 182.625 339.499 179.423 336.159 181.555" stroke="#263238" stroke-linecap="round" stroke-linejoin="round"/>
    <path d="M349.106 182.743C349.626 181.958 350.397 181.372 351.293 181.082C352.188 180.792 353.156 180.814 354.037 181.145" stroke="#263238" stroke-linecap="round" stroke-linejoin="round"/>
    <path d="M340.562 181.81C340.562 181.626 340.507 181.445 340.405 181.292C340.302 181.139 340.157 181.019 339.986 180.948C339.816 180.878 339.628 180.859 339.448 180.895C339.267 180.931 339.1 181.02 338.97 181.151C338.84 181.281 338.751 181.447 338.715 181.628C338.679 181.809 338.697 181.997 338.768 182.167C338.838 182.337 338.958 182.483 339.111 182.586C339.265 182.688 339.445 182.743 339.629 182.743C339.877 182.743 340.114 182.645 340.289 182.47C340.464 182.295 340.562 182.058 340.562 181.81Z" fill="#263238"/>
    <path d="M352.302 181.81C352.302 181.626 352.248 181.445 352.145 181.292C352.043 181.139 351.897 181.019 351.727 180.948C351.556 180.878 351.369 180.859 351.188 180.895C351.007 180.931 350.841 181.02 350.71 181.151C350.58 181.281 350.491 181.447 350.455 181.628C350.419 181.809 350.437 181.997 350.508 182.167C350.579 182.337 350.698 182.483 350.852 182.586C351.005 182.688 351.185 182.743 351.37 182.743C351.617 182.743 351.854 182.645 352.029 182.47C352.204 182.295 352.302 182.058 352.302 181.81Z" fill="#263238"/>
    <path d="M343.171 179.279C342.006 178.667 340.697 178.381 339.382 178.451C338.068 178.521 336.797 178.945 335.703 179.677" stroke="#263238" stroke-width="2" stroke-miterlimit="10" stroke-linecap="round"/>
    <path d="M355.466 179.279C354.3 178.667 352.991 178.381 351.677 178.451C350.362 178.521 349.091 178.945 347.998 179.677" stroke="#263238" stroke-width="2" stroke-miterlimit="10" stroke-linecap="round"/>
    <path d="M342.793 169.535C342.793 169.535 340.927 173.807 339.192 175.542C337.457 177.277 334.118 178.34 334.118 178.34C333.688 179.177 333.198 179.981 332.65 180.747C332.253 181.145 332.39 185.41 332.39 185.815C332.39 186.219 330.785 184.614 330.785 183.682C330.756 182.919 330.667 182.16 330.518 181.412C329.757 181.107 329.04 180.704 328.385 180.212C327.85 179.677 327.185 179.807 327.185 178.477V176.207C327.185 176.207 324.25 175.809 324.784 173.005C325.319 170.2 331.052 160.612 336.257 158.597C341.462 156.581 344.795 158.734 344.795 158.734C347.393 157.287 350.376 156.681 353.333 156.999C358.264 157.534 364.936 166.867 366.273 171.27C367.61 175.672 366.273 179.142 365.621 179.279C364.781 179.372 363.936 179.416 363.09 179.41C363.09 179.41 362.953 179.807 361.89 180.61C360.99 181.179 359.996 181.585 358.955 181.81C359.101 182.788 359.055 183.785 358.818 184.745C358.623 185.312 358.355 185.851 358.022 186.349L357.488 179.279C355.127 178.512 352.92 177.338 350.965 175.809C349.336 174.533 347.935 172.989 346.824 171.244C346.824 171.244 348.03 173.911 347.476 174.179C346.921 174.446 343.328 172.189 342.793 169.535Z" fill="#263238" stroke="#263238" stroke-linecap="round" stroke-linejoin="round"/>
    <path d="M335.057 204.091L333.453 227.434H304.102C304.102 227.434 308.909 216.098 310.905 214.898C312.901 213.698 329.168 207.424 329.168 207.424C329.168 207.424 330.231 205.826 331.568 204.221C332.905 202.617 334.79 203.021 335.057 204.091Z" fill="#068BF7" stroke="#263238" stroke-linecap="round" stroke-linejoin="round"/>
    <path d="M329.187 207.41C328.654 210.255 327.939 213.063 327.048 215.817C325.985 218.616 324.648 220.22 324.785 220.755C324.922 221.29 326.65 221.407 327.72 219.953C328.789 218.498 331.45 214.617 332.285 214.617C333.12 214.617 333.753 220.22 333.753 220.22" stroke="#263238" stroke-linecap="round" stroke-linejoin="round"/>
    <path d="M354.8 204.091L356.398 227.434H385.749C385.749 227.434 380.949 216.098 378.946 214.898C376.944 213.698 360.684 207.424 360.684 207.424C360.684 207.424 359.614 205.826 358.277 204.221C356.94 202.617 355.068 203.021 354.8 204.091Z" fill="#068BF7" stroke="#263238" stroke-linecap="round" stroke-linejoin="round"/>
    <path d="M360.671 207.41C360.671 207.41 361.734 213.013 362.803 215.817C363.873 218.622 365.204 220.22 365.073 220.755C364.943 221.29 363.201 221.407 362.138 219.953C361.075 218.498 358.401 214.617 357.572 214.617C356.744 214.617 356.105 220.22 356.105 220.22" stroke="#263238" stroke-linecap="round" stroke-linejoin="round"/>
    <path d="M294.938 152.355H204.212V227.434H294.938V152.355Z" fill="white"/>
    <path d="M288.383 223.618C288.383 223.618 287.77 219.601 287.568 218.994C287.366 218.387 284.692 217.187 280.393 214.572C276.095 211.956 261.113 203.321 261.113 203.321H236.668C236.668 203.321 221.692 211.976 217.388 214.585C213.083 217.194 210.415 218.407 210.213 219.007C210.011 219.607 209.391 223.631 209.391 223.631L209.189 227.447H288.566L288.383 223.618Z" fill="#263238" stroke="#263238" stroke-linecap="round" stroke-linejoin="round"/>
    <path d="M238.122 197.092C238.122 197.092 234.704 198.096 234.502 199.499C234.3 200.901 232.095 205.734 232.095 205.734C232.095 205.734 234.502 209.954 236.315 213.561C238.129 217.168 238.122 218.185 238.722 218.185C239.322 218.185 245.557 210.143 246.158 209.543C246.758 208.943 250.58 209.947 250.58 209.947C250.58 209.947 256.809 219.594 257.82 219.594C258.83 219.594 263.644 207.332 263.644 204.319C263.644 201.305 259.626 197.483 259.626 197.483L238.122 197.092Z" fill="white" stroke="#263238" stroke-linecap="round" stroke-linejoin="round"/>
    <path d="M237.509 194.477C237.509 194.477 236.909 198.899 237.711 201.11C238.513 203.321 245.753 214.807 248.362 214.807C250.971 214.807 258.009 203.719 259.215 202.551C260.422 201.384 260.624 195.311 260.624 195.311C260.624 195.311 252.797 199.134 246.353 197.125C239.909 195.116 237.509 194.477 237.509 194.477Z" fill="#B8B8B8" stroke="#263238" stroke-linecap="round" stroke-linejoin="round"/>
    <path d="M244.031 196.362C239.368 194.933 237.548 194.477 237.548 194.477C237.548 194.477 236.948 198.899 237.75 201.11C238.162 202.052 238.642 202.963 239.185 203.836L248.832 200.236L244.031 196.362Z" fill="#263238" stroke="#263238" stroke-linecap="round" stroke-linejoin="round"/>
    <path d="M235.911 175.985C235.911 175.985 233.498 170.161 231.893 174.779C230.289 179.397 234.3 182.606 235.311 183.225C236.322 183.845 235.911 175.985 235.911 175.985Z" fill="#B8B8B8" stroke="#263238" stroke-linecap="round" stroke-linejoin="round"/>
    <path d="M262.64 175.985C262.64 175.985 265.053 170.161 266.657 174.779C268.262 179.397 264.251 182.606 263.24 183.225C262.229 183.845 262.64 175.985 262.64 175.985Z" fill="#B8B8B8" stroke="#263238" stroke-linecap="round" stroke-linejoin="round"/>
    <path d="M263.24 177.799C263.24 177.799 264.048 169.555 263.044 163.124C262.04 156.693 253.397 153.275 246.966 154.482C240.535 155.688 236.315 159.106 235.507 164.917C234.698 170.729 235.311 188.626 235.709 191.444C236.107 194.261 242.727 200.105 250.378 200.105C258.028 200.105 262.235 192.67 262.842 190.459C263.448 188.248 263.24 177.799 263.24 177.799Z" fill="#B8B8B8" stroke="#263238" stroke-linecap="round" stroke-linejoin="round"/>
    <path d="M248.395 184.308C248.395 184.308 240.118 186.715 238.311 187.465C236.505 188.215 235.454 189.572 235.454 192.578C235.454 195.585 239.061 198.749 240.868 199.955C242.675 201.162 248.245 203.562 252.608 202.362C256.972 201.162 261.785 197.999 263.442 195.142C265.099 192.285 262.985 190.022 262.535 189.422C262.085 188.822 255.015 184.308 252.752 184.308H248.395Z" fill="white" stroke="#263238" stroke-linecap="round" stroke-linejoin="round"/>
    <path d="M246.438 181.745C246.438 181.745 245.838 183.401 246.438 183.851C247.66 184.593 249.073 184.96 250.502 184.908C252.458 184.908 252.758 184.001 253.208 183.401C253.658 182.801 252.908 181.745 252.908 181.745" fill="#B8B8B8"/>
    <path d="M246.438 181.745C246.438 181.745 245.838 183.401 246.438 183.851C247.66 184.593 249.073 184.96 250.502 184.908C252.458 184.908 252.758 184.001 253.208 183.401C253.658 182.801 252.908 181.745 252.908 181.745" stroke="#263238" stroke-linecap="round" stroke-linejoin="round"/>
    <path d="M243.881 188.496C245.627 189.363 247.509 189.924 249.445 190.152C252.458 190.452 255.915 188.496 255.915 188.496C255.915 188.496 256.215 189.402 254.565 191.059C252.915 192.716 252.158 192.768 250.045 192.859C246.738 193.061 244.331 190.172 243.881 188.496Z" fill="#B8B8B8" stroke="#263238" stroke-linecap="round" stroke-linejoin="round"/>
    <path d="M243.881 188.495C243.881 188.495 246.888 188.495 248.845 188.345C250.802 188.195 255.915 188.495 255.915 188.495C255.915 188.495 250.802 192.278 243.881 188.495Z" fill="#B8B8B8" stroke="#263238" stroke-linecap="round" stroke-linejoin="round"/>
    <path d="M244.331 175.653C244.293 175.823 244.208 175.979 244.085 176.103C243.962 176.227 243.807 176.313 243.637 176.353C243.467 176.392 243.29 176.383 243.125 176.326C242.96 176.269 242.815 176.167 242.705 176.031C242.596 175.895 242.528 175.731 242.507 175.558C242.487 175.384 242.517 175.209 242.592 175.052C242.667 174.894 242.785 174.761 242.932 174.668C243.08 174.575 243.25 174.525 243.425 174.524C243.694 174.556 243.94 174.691 244.109 174.903C244.279 175.114 244.359 175.383 244.331 175.653Z" fill="#263238"/>
    <path d="M255.915 176.781C256.412 176.781 256.815 176.276 256.815 175.653C256.815 175.03 256.412 174.524 255.915 174.524C255.418 174.524 255.015 175.03 255.015 175.653C255.015 176.276 255.418 176.781 255.915 176.781Z" fill="#263238"/>
    <path d="M246.588 177.082C245.187 178.298 243.462 179.082 241.625 179.338" stroke="#263238" stroke-linecap="round" stroke-linejoin="round"/>
    <path d="M253.058 177.838C253.729 178.51 254.526 179.042 255.404 179.404C256.282 179.765 257.222 179.949 258.172 179.945" stroke="#263238" stroke-linecap="round" stroke-linejoin="round"/>
    <path d="M246.438 170.611C245.185 170.067 243.805 169.877 242.452 170.064C241.098 170.25 239.821 170.805 238.761 171.668" stroke="#263238" stroke-width="2" stroke-linecap="round" stroke-linejoin="round"/>
    <path d="M252.758 170.761C253.866 170.256 255.098 170.087 256.302 170.275C257.505 170.462 258.627 170.999 259.528 171.818" stroke="#263238" stroke-width="2" stroke-linecap="round" stroke-linejoin="round"/>
    <path d="M199.581 152.355H108.855V227.434H199.581V152.355Z" fill="white"/>
    <path d="M150.977 158.251C150.977 158.251 147.507 155.688 143.15 158.558C138.793 161.428 138.624 163.084 138.317 167.161C138.01 171.237 138.017 172.138 135.604 174.707C133.19 177.277 129.734 179.984 130.321 185.724C130.908 191.463 138.8 193.27 141.037 193.27C143.274 193.27 151.146 193.72 151.146 193.72C151.146 193.72 161.413 195.677 167.452 193.87C170.988 192.856 174.142 190.812 176.512 188C176.512 188 183.002 187.543 182.552 179.247C182.102 170.95 176.681 170.944 174.073 168.381C171.464 165.817 172.285 158.251 166.676 155.232C161.067 152.212 151.127 151.762 150.977 158.251Z" fill="#263238" stroke="#263238" stroke-linecap="round" stroke-linejoin="round"/>
    <path d="M189.765 214.455C187.052 210.835 183.426 210.685 176.936 209.021C170.446 207.358 164.263 205.108 163.656 203.151C163.05 201.195 161.7 191.228 161.7 191.228L154.447 191.104H154.023L146.776 191.248C146.776 191.248 145.42 201.208 144.82 203.171C144.22 205.134 138.03 207.397 131.54 209.041C125.05 210.685 121.431 210.854 118.711 214.474C115.991 218.094 114.484 227.454 114.484 227.454H193.992C193.992 227.454 192.505 218.081 189.765 214.455Z" fill="white" stroke="#263238" stroke-linecap="round" stroke-linejoin="round"/>
    <path d="M154.923 198.233L146.75 191.215C146.75 191.215 145.876 197.614 145.224 201.162L154.923 198.233Z" fill="#263238" stroke="#263238" stroke-linecap="round" stroke-linejoin="round"/>
    <path d="M189.765 214.454C187.052 210.834 183.426 210.684 176.936 209.021C176.564 208.93 176.192 208.832 175.827 208.728C170.072 214.03 162.577 217.046 154.753 217.207C142.126 217.578 134.788 211.023 132.636 208.728L131.508 209.021C125.018 210.684 121.398 210.834 118.678 214.454C115.958 218.074 114.452 227.434 114.452 227.434H193.992C193.992 227.434 192.505 218.081 189.765 214.454Z" fill="#068BF7" stroke="#263238" stroke-linecap="round" stroke-linejoin="round"/>
    <path d="M151.733 166.854C150.626 168.706 149.194 170.343 147.507 171.688C144.787 173.801 143.43 173.344 142.224 174.857C141.017 176.371 142.074 184.367 142.374 187.38C142.674 190.394 148.564 196.133 150.201 197.497C151.838 198.86 153.977 200.516 155.484 199.76C156.99 199.003 159.56 197.803 164.693 191.281C166.096 189.507 165.75 187.504 166.05 186.454C166.222 185.915 166.325 185.356 166.357 184.791C166.357 184.791 164.993 185.548 164.087 183.284C163.18 181.021 164.243 176.945 162.28 175.457C160.317 173.97 156.697 172.594 154.453 171.688C152.21 170.781 151.733 166.854 151.733 166.854Z" fill="white" stroke="#263238" stroke-linecap="round" stroke-linejoin="round"/>
    <path d="M152.49 187.08C152.767 187.517 153.144 187.881 153.59 188.143C154.036 188.405 154.537 188.557 155.053 188.587C155.508 188.589 155.947 188.419 156.283 188.112C156.619 187.805 156.827 187.383 156.866 186.93" stroke="#263238" stroke-linecap="round" stroke-linejoin="round"/>
    <path d="M151.277 190.1C151.277 190.1 155.053 192.663 158.073 190.1" stroke="#263238" stroke-linecap="round" stroke-linejoin="round"/>
    <path d="M149.62 180.016C149.62 180.851 149.281 181.53 148.864 181.53C148.446 181.53 148.113 180.877 148.113 180.016C148.113 179.155 148.446 178.51 148.864 178.51C149.281 178.51 149.62 179.155 149.62 180.016Z" fill="#263238"/>
    <path d="M161.093 180.016C161.093 180.851 160.754 181.53 160.336 181.53C159.919 181.53 159.58 180.877 159.58 180.016C159.58 179.155 159.919 178.51 160.336 178.51C160.754 178.51 161.093 179.155 161.093 180.016Z" fill="#263238"/>
    <path d="M148.864 184.21C151.364 184.21 153.39 182.184 153.39 179.684C153.39 177.184 151.364 175.157 148.864 175.157C146.364 175.157 144.337 177.184 144.337 179.684C144.337 182.184 146.364 184.21 148.864 184.21Z" stroke="#263238" stroke-linecap="round" stroke-linejoin="round"/>
    <path d="M160.636 184.21C163.136 184.21 165.163 182.184 165.163 179.684C165.163 177.184 163.136 175.157 160.636 175.157C158.136 175.157 156.11 177.184 156.11 179.684C156.11 182.184 158.136 184.21 160.636 184.21Z" stroke="#263238" stroke-linecap="round" stroke-linejoin="round"/>
    <path d="M153.547 178.777C153.547 178.777 155.203 177.57 156.11 178.777" stroke="#263238" stroke-linecap="round" stroke-linejoin="round"/>
    <path d="M144.337 179.684H141.617" stroke="#263238" stroke-linecap="round" stroke-linejoin="round"/>
    <path d="M145.394 175.45C146.193 174.823 147.139 174.41 148.142 174.251C149.146 174.093 150.173 174.193 151.127 174.544" stroke="#263238" stroke-linecap="round" stroke-linejoin="round"/>
    <path d="M157.284 175.079C158.158 174.561 159.151 174.275 160.167 174.249C161.183 174.222 162.189 174.457 163.089 174.929" stroke="#263238" stroke-linecap="round" stroke-linejoin="round"/>
    <path d="M390.289 73.4019H299.563V148.481H390.289V73.4019Z" fill="white"/>
    <path d="M386.747 148.481C386.656 147.268 386.14 140.654 385.299 138.958C384.366 137.099 380.081 135.103 376.383 132.977C372.685 130.851 360.82 123.533 359.092 122.47C357.609 121.654 356.049 120.985 354.435 120.474L345.128 119.958H344.926H344.73L335.416 120.474C333.802 120.985 332.242 121.654 330.759 122.47C329.031 123.533 317.192 130.844 313.468 132.977C309.744 135.11 305.485 137.099 304.559 138.958C303.711 140.654 303.195 147.268 303.104 148.481H386.747Z" fill="#263238" stroke="#263238" stroke-linecap="round" stroke-linejoin="round"/>
    <path d="M343.393 148.481H347.593C350.502 143.693 355.55 135.325 356.301 133.642C357.364 131.248 357.494 124.863 356.568 122.332C355.642 119.802 354.168 119.541 354.168 119.541L335.951 119.273C335.951 119.273 333.29 122.998 333.29 124.596C333.29 126.194 336.747 136.988 338.344 140.028C339.29 141.841 341.638 145.663 343.393 148.481Z" fill="white" stroke="#263238" stroke-linecap="round" stroke-linejoin="round"/>
    <path d="M342.284 146.694L343.393 148.481H347.593L349.009 146.139L346.719 142.017L350.443 136.799L344.86 132.279L341.403 137.732L344.325 142.389L342.284 146.694Z" fill="#068BF7" stroke="#263238" stroke-linecap="round" stroke-linejoin="round"/>
    <path d="M356.301 133.642C357.364 131.248 357.494 124.863 356.568 122.332C355.642 119.802 354.168 119.541 354.168 119.541L335.951 119.273C335.951 119.273 333.29 122.998 333.29 124.596C333.29 126.194 336.747 136.988 338.344 140.028C338.54 140.406 338.808 140.882 339.108 141.417L345.395 135.501L351.963 141.228C354.011 137.79 355.87 134.614 356.301 133.642Z" fill="white" stroke="#263238" stroke-linecap="round" stroke-linejoin="round"/>
    <path d="M335.018 115.445C335.018 115.445 336.323 124.087 337.144 126.22C337.966 128.353 344.195 135.527 345.395 135.527C346.595 135.527 354.037 126.885 354.703 125.554C355.368 124.224 356.568 116.371 356.568 116.371C356.568 116.371 350.046 118.771 346.458 118.771C342.871 118.771 335.018 115.445 335.018 115.445Z" fill="white" stroke="#263238" stroke-linecap="round" stroke-linejoin="round"/>
    <path d="M346.269 123.213L337.712 116.476C336.133 115.889 335.018 115.419 335.018 115.419C335.018 115.419 335.709 119.913 336.394 123.213H346.269Z" fill="#263238" stroke="#263238" stroke-linecap="round" stroke-linejoin="round"/>
    <path d="M332.624 102.4C332.624 102.4 331.424 99.876 329.565 102.002C327.707 104.129 329.161 106.392 330.361 108.655C331.561 110.918 332.892 111.714 333.42 111.316C333.948 110.918 332.624 102.4 332.624 102.4Z" stroke="#263238" stroke-linecap="round" stroke-linejoin="round"/>
    <path d="M359.66 102.4C359.66 102.4 360.86 99.876 362.719 102.002C364.577 104.129 363.116 106.392 361.923 108.655C360.729 110.918 359.392 111.714 358.864 111.316C358.336 110.918 359.66 102.4 359.66 102.4Z" fill="white" stroke="#263238" stroke-linecap="round" stroke-linejoin="round"/>
    <path d="M337.81 85.2205C337.81 85.2205 332.487 89.0818 331.561 92.3951C330.635 95.7085 332.866 111.545 333.153 113.678C333.44 115.81 340.98 122.587 343.399 123.65C345.819 124.713 349.119 124.185 350.313 123.65C351.507 123.115 357.096 116.997 358.14 115.269C359.183 113.541 360.938 98.911 360.938 95.5846C360.938 92.2582 358.675 87.4708 355.72 85.4749C352.765 83.4791 348.545 81.8876 344.417 82.6833C342.076 83.113 339.836 83.9733 337.81 85.2205Z" fill="white" stroke="#263238" stroke-linecap="round" stroke-linejoin="round"/>
    <path d="M342.46 110.096C342.46 110.096 341.664 110.227 342.858 111.029C344.052 111.831 345.519 113.025 347.378 112.49C349.237 111.955 350.704 111.427 350.443 109.562" stroke="#263238" stroke-linecap="round" stroke-linejoin="round"/>
    <path d="M341.26 114.884C344.626 115.886 348.229 115.746 351.507 114.486" stroke="#263238" stroke-linecap="round" stroke-linejoin="round"/>
    <path d="M340.132 104.781C340.535 104.781 340.862 104.244 340.862 103.581C340.862 102.918 340.535 102.381 340.132 102.381C339.728 102.381 339.401 102.918 339.401 103.581C339.401 104.244 339.728 104.781 340.132 104.781Z" fill="#263238"/>
    <path d="M352.765 103.581C352.765 104.233 352.439 104.775 352.035 104.775C351.631 104.775 351.304 104.24 351.304 103.581C351.304 102.922 351.631 102.381 352.035 102.381C352.439 102.381 352.765 102.916 352.765 103.581Z" fill="#263238"/>
    <path d="M337.301 100.118C338.041 99.5328 338.909 99.1316 339.834 98.9468C340.759 98.762 341.715 98.7989 342.623 99.0545" stroke="#263238" stroke-linecap="round" stroke-linejoin="round"/>
    <path d="M349.517 99.0544C349.517 99.0544 353.105 97.9913 355.498 100.652" stroke="#263238" stroke-linecap="round" stroke-linejoin="round"/>
    <path d="M331.561 92.4077C331.561 92.4077 333.022 92.6686 333.29 96.2624C333.557 99.8562 333.818 104.507 333.153 104.741C332.487 104.976 332.5 104.089 331.294 101.552C330.087 99.0149 330.779 92.8056 331.561 92.4077Z" fill="#263238" stroke="#263238" stroke-linecap="round" stroke-linejoin="round"/>
    <path d="M360.292 92.6687C360.292 92.6687 358.988 95.9952 358.825 97.5931C358.662 99.1911 358.557 104.768 359.477 105.042C360.397 105.316 360.677 103.979 361.342 98.9237C362.008 93.8689 360.821 92.1404 360.292 92.6687Z" fill="#263238" stroke="#263238" stroke-linecap="round" stroke-linejoin="round"/>
    <path d="M328.9 123.663C328.22 124.237 327.692 124.97 327.361 125.796C326.148 131.066 326.148 135.925 324.935 141.189C326.956 143.217 330.198 142.402 332.761 143.882M332.761 143.882C330.955 143.354 331.039 145.063 332.761 143.882ZM332.761 143.882L327.596 147.404" stroke="#6B6B6B" stroke-linecap="round" stroke-linejoin="round"/>
    <path d="M360.957 123.533C360.957 123.533 364.682 128.848 365.347 132.012C366.012 135.175 368.139 141.326 368.139 141.326L359.359 144.143L366.534 147.6" stroke="#6B6B6B" stroke-linecap="round" stroke-linejoin="round"/>
    <path d="M294.938 73.4019H204.212V148.481H294.938V73.4019Z" fill="white"/>
    <path d="M245.988 85.9052C245.988 85.9052 243.555 82.4614 240.522 85.2986C237.489 88.1358 231 96.8432 231.391 101.5C231.782 106.157 235.239 112.229 235.239 114.46C235.239 116.691 233.824 122.939 236.048 125.392C238.272 127.844 246.379 127.42 246.379 127.42L250.43 127.218C250.43 127.218 259.561 129.644 263.996 127.218C268.431 124.791 266.605 113.443 266.025 111.623L265.412 109.803C265.412 109.803 266.833 100.672 264.198 95.2191C261.563 89.7664 257.924 87.1184 254.278 86.5118C251.532 86.1203 248.762 85.9176 245.988 85.9052Z" fill="#263238" stroke="#263238" stroke-linecap="round" stroke-linejoin="round"/>
    <path d="M283.642 139.975C281.411 137.543 275.945 136.329 268.451 132.683C260.957 129.037 257.924 127.218 257.924 127.218C254.78 126.057 250.554 126.794 249.112 127.1C247.671 126.794 243.451 126.057 240.301 127.218C240.301 127.218 237.268 129.037 229.773 132.683C222.279 136.329 216.814 137.543 214.583 139.975C212.352 142.408 211.974 148.455 211.974 148.455H286.27C286.27 148.455 285.866 142.402 283.642 139.975Z" fill="#068BF7" stroke="#263238" stroke-linecap="round" stroke-linejoin="round"/>
    <path d="M243.542 124.179C243.542 124.179 242.127 122.359 240.509 123.168C238.892 123.976 235.644 130.251 235.644 130.251C235.644 130.251 236.048 141.189 237.672 141.991C239.296 142.793 240.509 135.717 240.933 134.908C241.357 134.099 248.421 138.345 248.421 138.345L254.5 135.514C254.5 135.514 257.109 142.8 258.348 143.009C259.587 143.217 259.965 132.677 259.561 130.244C259.157 127.812 256.3 123.97 253.691 123.768C251.861 123.729 250.05 124.146 248.421 124.981L243.542 124.179Z" fill="white" stroke="#263238" stroke-linecap="round" stroke-linejoin="round"/>
    <path d="M241.722 117.904C241.722 117.904 241.925 127.622 242.531 129.847C243.138 132.071 246.986 138.978 248.812 139.369C250.638 139.761 255.895 129.24 255.895 129.24L256.906 117.089C256.906 117.089 252.249 119.926 241.722 117.904Z" fill="white" stroke="#263238" stroke-linecap="round" stroke-linejoin="round"/>
    <path d="M249.706 120.187L247.423 118.595C245.508 118.504 243.603 118.273 241.722 117.904C241.722 117.904 241.807 122.019 242.035 125.502L251.206 122.711L249.706 120.187Z" fill="#263238" stroke="#263238" stroke-linecap="round" stroke-linejoin="round"/>
    <path d="M245.773 87.5228C245.773 87.5228 248.382 81.6527 254.48 81.4505C260.578 81.2483 265.209 85.7031 266.631 89.7534C268.053 93.8038 273.31 110.625 275.762 117.702C278.215 124.778 277.987 131.268 273.943 137.921C269.899 144.574 260.168 146.4 256.522 142.989C252.876 139.578 251.258 129.011 253.691 123.748C256.124 118.484 256.117 115.647 255.915 110.181C255.713 104.716 247.208 95.5975 246.197 92.969C245.593 91.2195 245.447 89.3446 245.773 87.5228Z" fill="#263238" stroke="#263238" stroke-linecap="round" stroke-linejoin="round"/>
    <path d="M237.47 105.348C237.47 105.348 234.43 103.724 234.633 106.562C234.835 109.399 237.242 111.825 238.076 112.23L238.885 112.634L237.47 105.348Z" stroke="#263238" stroke-linecap="round" stroke-linejoin="round"/>
    <path d="M245.988 89.3555C245.988 89.3555 240.118 94.8212 238.696 98.0628C237.732 100.367 237.317 102.863 237.483 105.355C237.911 109.373 238.586 113.362 239.505 117.297C240.111 119.326 244.429 123.37 249.23 123.78C254.513 124.23 258.543 117.095 258.543 117.095C258.543 117.095 259.959 106.164 259.959 104.944C259.959 103.724 247.795 99.0673 245.988 89.3555Z" fill="white" stroke="#263238" stroke-linecap="round" stroke-linejoin="round"/>
    <path d="M249.621 103.118C249.621 103.118 250.43 108.988 250.43 110.207C250.43 111.427 246.784 110.814 246.784 110.814" stroke="#263238" stroke-linecap="round" stroke-linejoin="round"/>
    <path d="M245.773 113.24C245.773 113.24 249.419 115.269 251.036 113.038" stroke="#263238" stroke-linecap="round" stroke-linejoin="round"/>
    <path d="M244.762 103.829C244.727 104.002 244.644 104.162 244.522 104.29C244.4 104.418 244.244 104.508 244.073 104.551C243.901 104.594 243.721 104.587 243.554 104.531C243.386 104.476 243.237 104.374 243.126 104.237C243.014 104.1 242.943 103.934 242.921 103.759C242.9 103.584 242.929 103.406 243.005 103.246C243.08 103.086 243.2 102.952 243.349 102.857C243.499 102.763 243.672 102.713 243.849 102.713C244.117 102.741 244.364 102.874 244.535 103.083C244.706 103.292 244.787 103.56 244.762 103.829Z" fill="#263238"/>
    <path d="M254.076 103.829C254.041 104.002 253.958 104.162 253.836 104.29C253.714 104.418 253.558 104.508 253.387 104.551C253.215 104.594 253.035 104.587 252.868 104.531C252.7 104.476 252.551 104.374 252.439 104.237C252.327 104.1 252.257 103.934 252.235 103.759C252.214 103.584 252.243 103.406 252.319 103.246C252.394 103.086 252.514 102.952 252.663 102.857C252.813 102.763 252.986 102.713 253.163 102.713C253.431 102.741 253.678 102.874 253.849 103.083C254.02 103.292 254.101 103.56 254.076 103.829Z" fill="#263238"/>
    <path d="M241.318 101.298C241.318 101.298 241.925 99.0674 246.379 100.078" stroke="#263238" stroke-linecap="round" stroke-linejoin="round"/>
    <path d="M250.632 100.685C250.632 100.685 253.469 98.2586 256.906 101.298" stroke="#263238" stroke-linecap="round" stroke-linejoin="round"/>
    <path d="M199.581 73.4019H108.855V148.481H199.581V73.4019Z" fill="white"/>
    <path d="M192.779 142.839C190.483 137.171 187.645 134.608 187.645 134.608L165.502 122.867L155.516 121.315V121.237L155.242 121.276L154.975 121.237V121.315L144.983 122.854L122.846 134.595C122.846 134.595 120.009 137.158 117.713 142.826L115.417 148.5H195.074L192.779 142.839Z" fill="white" stroke="#263238" stroke-linecap="round" stroke-linejoin="round"/>
    <path d="M155.921 130.12V147.267" stroke="#263238" stroke-linecap="round" stroke-linejoin="round"/>
    <path d="M125.142 136.871C125.142 136.871 128.403 144.698 128.651 148.344" stroke="#263238" stroke-linecap="round" stroke-linejoin="round"/>
    <path d="M185.082 136.734C185.082 136.734 180.758 143.621 179.277 148.344" stroke="#263238" stroke-linecap="round" stroke-linejoin="round"/>
    <path d="M155.784 113.514C167.639 113.514 177.249 104.599 177.249 93.6017C177.249 82.6042 167.639 73.689 155.784 73.689C143.929 73.689 134.319 82.6042 134.319 93.6017C134.319 104.599 143.929 113.514 155.784 113.514Z" fill="#263238" stroke="#263238" stroke-linecap="round" stroke-linejoin="round"/>
    <path d="M146.196 112.027L146.737 119.991L155.784 129.716L164.83 120.669V112.569L155.242 114.591L146.196 112.027Z" fill="#B8B8B8" stroke="#263238" stroke-linecap="round" stroke-linejoin="round"/>
    <path d="M151.218 113.449L146.196 112.027L146.737 119.991L146.966 120.239L155.94 117.95L151.218 113.449Z" fill="#263238" stroke="#263238" stroke-linecap="round" stroke-linejoin="round"/>
    <path d="M144.846 99.4587C144.846 99.4587 142.38 97.6977 142.38 101.044C142.398 102.049 142.626 103.039 143.051 103.95C143.476 104.862 144.087 105.674 144.846 106.333V99.4587Z" fill="#B8B8B8" stroke="#263238" stroke-linecap="round" stroke-linejoin="round"/>
    <path d="M165.991 99.4587C165.991 99.4587 168.457 97.6977 168.457 101.044C168.439 102.049 168.211 103.039 167.786 103.95C167.361 104.862 166.75 105.674 165.991 106.333V99.4587Z" fill="#B8B8B8" stroke="#263238" stroke-linecap="round" stroke-linejoin="round"/>
    <path d="M144.846 96.165C144.846 96.165 144.494 109.21 145.55 112.027C146.607 114.845 152.601 118.55 154.89 119.071C157.18 119.593 164.406 115.373 165.639 112.549C166.872 109.725 166.344 94.0452 166.344 94.0452C166.344 94.0452 165.111 86.6424 156.123 86.2901C147.135 85.9379 145.198 91.7624 144.846 96.165Z" fill="#B8B8B8" stroke="#263238" stroke-linecap="round" stroke-linejoin="round"/>
    <path d="M152.953 107.442C152.953 107.442 152.601 107.97 153.657 108.675C154.714 109.379 157.18 110.083 158.588 107.794" stroke="#263238" stroke-linecap="round" stroke-linejoin="round"/>
    <path d="M151.72 110.612C151.72 110.612 155.771 112.203 159.645 110.612" stroke="#263238" stroke-linecap="round" stroke-linejoin="round"/>
    <path d="M151.336 100.483C151.336 101.207 150.957 101.787 150.481 101.787C150.005 101.787 149.627 101.2 149.627 100.483C149.627 99.7652 150.012 99.1782 150.481 99.1782C150.951 99.1782 151.336 99.7913 151.336 100.483Z" fill="#263238"/>
    <path d="M161.302 100.483C161.302 101.207 160.923 101.787 160.447 101.787C159.971 101.787 159.593 101.2 159.593 100.483C159.593 99.7652 159.978 99.1782 160.447 99.1782C160.917 99.1782 161.302 99.7913 161.302 100.483Z" fill="#263238"/>
    <path d="M153.37 98.2778H146.431C146.431 98.2778 145.028 98.5844 145.726 101.63C146.196 103.685 151.218 103.215 152.249 103.215C154.277 103.215 154.61 100.606 154.284 99.0475C154.239 98.8359 154.125 98.6453 153.959 98.5058C153.794 98.3664 153.587 98.2862 153.37 98.2778Z" stroke="#263238" stroke-linecap="round" stroke-linejoin="round"/>
    <path d="M157.656 98.2778H164.576C164.576 98.2778 165.985 98.5844 165.28 101.63C164.811 103.685 159.795 103.215 158.758 103.215C156.73 103.215 156.39 100.606 156.717 99.0475C156.763 98.8322 156.882 98.639 157.052 98.4993C157.223 98.3596 157.435 98.2816 157.656 98.2778Z" stroke="#263238" stroke-linecap="round" stroke-linejoin="round"/>
    <path d="M153.677 98.3892H157.18" stroke="#263238" stroke-linecap="round" stroke-linejoin="round"/>
    <path d="M154.453 99.7131C154.453 99.7131 155.229 98.4086 156.632 99.7131" stroke="#263238" stroke-linecap="round" stroke-linejoin="round"/>
    <path d="M146.431 98.2778L144.872 99.1714" stroke="#263238" stroke-linecap="round" stroke-linejoin="round"/>
    <path d="M164.889 98.4673L166.526 99.4" stroke="#263238" stroke-linecap="round" stroke-linejoin="round"/>
    <path d="M158.08 97.5804C158.08 97.5804 160.108 96.0998 164.022 97.5804" stroke="#263238" stroke-width="2" stroke-linecap="round" stroke-linejoin="round"/>
    <path d="M153.488 97.5804C153.488 97.5804 150.227 96.0998 147.142 97.5804" stroke="#263238" stroke-width="2" stroke-linecap="round" stroke-linejoin="round"/>
    <path d="M146.607 117.832L155.784 129.716L151.192 135.116L143.77 123.637L146.607 117.832Z" fill="white" stroke="#263238" stroke-linecap="round" stroke-linejoin="round"/>
    <path d="M155.921 130.12L161.452 135.658L168.339 123.507L165.098 118.915L155.921 130.12Z" fill="white" stroke="#263238" stroke-linecap="round" stroke-linejoin="round"/>
</svg>
