<svg width="300" height="200" viewBox="0 0 271 226" fill="none" xmlns="http://www.w3.org/2000/svg">
    <path d="M196.648 46.0561C158.008 43.1841 143.103 63.0187 120.626 52.3834C97.7927 41.5731 103.656 16.6213 83.1572 8.14365C53.828 -4.01516 0.821714 29.7277 0.0579339 60.4601C-0.567638 85.5431 34.1298 93.2189 33.3223 120.496C32.5949 148.32 -1.59329 155.719 0.0579339 178.083C2.02921 204.463 53.1152 232.644 95.3486 224.429C121.804 219.326 121.361 204.463 155.964 191.408C200.466 174.642 218.288 192.662 241.478 175.612C270.494 154.297 280.474 98.2121 257.241 69.5865C240.452 48.8844 210.003 47.0475 196.648 46.0561Z" fill="#DEF3FF"/>
    <path d="M82.4949 1.00038C83.599 0.98981 84.6945 1.19766 85.7184 1.61203C86.7423 2.02639 87.6746 2.63912 88.4618 3.41513C89.249 4.19113 89.8757 5.11515 90.306 6.13426C90.7362 7.15337 90.9616 8.24755 90.9692 9.35409L92.1767 149.428C92.1873 150.535 91.9799 151.633 91.5665 152.66C91.1531 153.686 90.5418 154.621 89.7675 155.41C88.9932 156.2 88.0712 156.829 87.0542 157.26C86.0372 157.692 84.9452 157.919 83.8406 157.928L26.8336 158.394C24.6047 158.412 22.46 157.542 20.8709 155.975C19.2819 154.409 18.3785 152.274 18.3593 150.041L17.1518 9.9737C17.1412 8.86683 17.3485 7.76873 17.762 6.74225C18.1754 5.71578 18.7867 4.78108 19.5609 3.99162C20.3352 3.20217 21.2572 2.57347 22.2742 2.1415C23.2913 1.70953 24.3833 1.48277 25.4878 1.47419L35.1842 1.38672H39.0759C39.3968 1.39148 39.7138 1.45955 40.0085 1.58705C40.3032 1.71454 40.5699 1.89897 40.7935 2.1298C41.0171 2.36062 41.1931 2.63332 41.3115 2.93233C41.4299 3.23133 41.4883 3.55078 41.4835 3.87243V5.8916C41.4758 6.70303 41.7891 7.48451 42.3548 8.06509C42.9205 8.64567 43.6926 8.97809 44.5023 8.98962L66.0918 8.80738C66.4934 8.79701 66.8889 8.70721 67.2557 8.54313C67.6225 8.37904 67.9533 8.14391 68.2291 7.85127C68.5049 7.55862 68.7203 7.21423 68.8629 6.83789C69.0054 6.46155 69.0722 6.06067 69.0596 5.65833V3.64646C69.04 2.99659 69.2774 2.36527 69.7203 1.8901C70.1631 1.41493 70.7754 1.13443 71.4237 1.10972L82.4949 1.00038Z" fill="white" stroke="black"/>
    <path d="M84.3067 14.8214C84.3067 14.8578 82.8519 14.9161 81.0916 14.9453C79.3313 14.9745 77.8691 14.9453 77.8691 14.9453C77.8691 14.9453 79.324 14.8505 81.0916 14.8214C82.8592 14.7922 84.3067 14.7849 84.3067 14.8214Z" fill="#263238"/>
    <path d="M84.3282 16.4685C84.3282 16.5123 82.8735 16.5633 81.1131 16.5997C79.3528 16.6362 77.8979 16.5997 77.8979 16.5997C77.8979 16.5997 79.3528 16.505 81.1131 16.4758C82.8735 16.4466 84.3282 16.4321 84.3282 16.4685Z" fill="#263238"/>
    <path d="M84.3649 18.1163C84.3649 18.1527 82.91 18.2111 81.1424 18.2402C79.3747 18.2694 77.9272 18.2402 77.9272 18.2402C77.9272 18.2402 79.382 18.1454 81.1424 18.1163C82.9027 18.0871 84.3649 18.0798 84.3649 18.1163Z" fill="#263238"/>
    <path d="M25.8301 20.5215H25.961H26.3392L27.714 20.4778V20.5142C27.714 20.2081 27.714 19.8728 27.714 19.5156C27.714 19.3261 27.714 19.1511 27.714 18.9397C27.7341 18.8289 27.7896 18.7276 27.8723 18.6513C27.9551 18.575 28.0604 18.5278 28.1723 18.5169C28.3904 18.5059 28.6089 18.5059 28.827 18.5169C28.9542 18.533 29.0711 18.5953 29.1556 18.6921C29.2401 18.7888 29.2863 18.9132 29.2852 19.0418C29.2852 19.5083 29.2852 19.9967 29.2852 20.4997L29.2197 20.4413L30.9509 20.4049L30.8928 20.4778C30.8928 19.7489 30.8928 19.0564 30.8928 18.291C30.8928 18.1014 30.8928 17.9192 30.8928 17.737C30.8837 17.6541 30.8561 17.5744 30.8121 17.5037C30.768 17.433 30.7086 17.3732 30.6382 17.3288L29.9108 16.5998L29.1834 15.8709L28.827 15.521C28.7033 15.4043 28.6088 15.2804 28.4706 15.2586C28.4022 15.24 28.3305 15.2377 28.2611 15.2516C28.1917 15.2655 28.1264 15.2953 28.0705 15.3387C27.9584 15.4401 27.8516 15.5472 27.7504 15.6595L27.1321 16.2936C26.7465 16.7018 26.3392 17.0809 26.041 17.4308C25.9558 17.6357 25.9281 17.86 25.961 18.0796C25.961 18.291 25.961 18.5024 25.961 18.6919V20.3101C25.9681 20.3804 25.9681 20.4513 25.961 20.5215C25.9523 20.4538 25.9523 20.3852 25.961 20.3174C25.961 20.1498 25.961 19.9384 25.961 19.6978C25.961 19.4573 25.961 19.0855 25.961 18.6992C25.961 18.5096 25.961 18.291 25.961 18.0723C25.961 17.8536 25.961 17.8463 25.961 17.7297C25.964 17.6025 25.9963 17.4777 26.0555 17.3652C26.3756 16.9716 26.7829 16.6363 27.1466 16.1989L27.7576 15.5574C27.8667 15.4481 27.9541 15.3387 28.085 15.2221C28.155 15.1671 28.2365 15.1287 28.3234 15.1097C28.4104 15.0908 28.5004 15.0918 28.5869 15.1128C28.7518 15.1688 28.8979 15.2698 29.0088 15.4043L29.3653 15.7542C29.6053 15.9802 29.8526 16.2208 30.0927 16.4832C30.3327 16.7456 30.5945 16.9716 30.8637 17.2121C30.9321 17.275 30.9953 17.3432 31.0528 17.4162C31.11 17.5058 31.1426 17.6089 31.1474 17.7151C31.1474 17.8973 31.1474 18.0796 31.1474 18.2618C31.1474 18.9907 31.1474 19.7197 31.1474 20.4486V20.5215H31.0746H29.3507H29.2852V20.4632C29.2852 19.9529 29.2852 19.4718 29.2852 19.0053C29.2897 18.9029 29.2555 18.8025 29.1894 18.7242C29.1234 18.6458 29.0304 18.5953 28.9288 18.5825C28.7324 18.5825 28.4923 18.5825 28.3032 18.5825C28.2138 18.5916 28.1296 18.6289 28.0629 18.6893C27.9962 18.7496 27.9504 18.8297 27.9323 18.9178C27.9323 19.0928 27.9323 19.2969 27.9323 19.4791C27.9323 19.8363 27.9323 20.1716 27.9323 20.4705V20.507H26.1355L25.8301 20.5215Z" fill="#263238"/>
    <path d="M79.5347 39.8386L28.0851 40.2978C27.4731 40.3036 26.866 40.1884 26.2985 39.9588C25.731 39.7292 25.2142 39.3898 24.7778 38.9598C24.3413 38.5299 23.9938 38.018 23.755 37.4533C23.5161 36.8886 23.3908 36.2823 23.386 35.669V33.9414C23.3793 33.3276 23.4935 32.7184 23.7222 32.1488C23.9509 31.5793 24.2895 31.0606 24.7186 30.6225C25.1477 30.1843 25.6589 29.8353 26.2228 29.5956C26.7868 29.3558 27.3925 29.2299 28.0051 29.2251L79.4475 28.7659C80.6835 28.7562 81.873 29.2379 82.7552 30.1056C83.6375 30.9733 84.1403 32.1561 84.1538 33.3947V35.1296C84.1605 35.7431 84.0462 36.3519 83.8174 36.9211C83.5887 37.4902 83.25 38.0084 82.8208 38.446C82.3916 38.8836 81.8803 39.2318 81.3164 39.4708C80.7525 39.7098 80.147 39.8348 79.5347 39.8386Z" fill="#F5F5F5"/>
    <path d="M79.5346 39.8383H79.8837C80.2225 39.8081 80.5568 39.7397 80.8803 39.6343C81.4069 39.4579 81.8991 39.1915 82.3351 38.847C82.9345 38.3815 83.4073 37.7724 83.7099 37.0757C83.8942 36.667 84.0121 36.2314 84.0591 35.7854C84.0873 35.2999 84.0873 34.8131 84.0591 34.3275C84.0728 33.7866 84.0436 33.2455 83.9718 32.7093C83.8069 31.7831 83.3631 30.9296 82.6999 30.2637C82.0367 29.5978 81.1859 29.1514 80.262 28.9844C79.5619 28.9031 78.8563 28.8811 78.1525 28.9187H75.9121L27.9612 29.3707C26.8217 29.3819 25.7279 29.8209 24.8956 30.601C24.0633 31.381 23.5532 32.4454 23.4659 33.584C23.4659 34.138 23.4659 34.7211 23.4659 35.2824C23.4439 35.8381 23.5078 36.3937 23.655 36.9299C23.9641 37.9858 24.6402 38.896 25.5608 39.4958C26.0046 39.7867 26.4976 39.9943 27.0157 40.1081C27.5401 40.2102 28.0752 40.2469 28.6086 40.2174H31.8311L38.0577 40.1737L59.6181 39.9987L74.1663 39.904H79.5346H79.1855H78.1598L74.21 39.955L59.6618 40.1226L38.1159 40.3341L31.882 40.3923H28.6668C28.114 40.4209 27.5599 40.3842 27.0157 40.283C26.4658 40.1577 25.9417 39.9382 25.4663 39.6343C24.5013 39.008 23.7918 38.0565 23.4659 36.9517C23.313 36.3943 23.2492 35.8161 23.2768 35.2387C23.2768 34.6701 23.2768 34.1161 23.2768 33.5257C23.3628 32.3291 23.8957 31.2091 24.7694 30.3889C25.6431 29.5688 26.7933 29.1089 27.9904 29.101L75.9412 28.7074H78.1816C78.8977 28.6693 79.6156 28.6936 80.3274 28.7802C80.9775 28.9046 81.5946 29.1632 82.1394 29.5397C82.6842 29.9162 83.1447 30.4023 83.4917 30.9671C83.8061 31.475 84.0187 32.0396 84.1173 32.6291C84.1861 33.1729 84.2128 33.7213 84.1973 34.2692C84.227 34.7693 84.227 35.2708 84.1973 35.7709C84.1199 36.3808 83.9224 36.9693 83.6165 37.5024C83.3106 38.0354 82.9023 38.5023 82.4151 38.8762C81.9795 39.2196 81.4871 39.4836 80.9603 39.6561C80.6307 39.7528 80.2917 39.8139 79.9492 39.8383H79.5346Z" fill="#263238"/>
    <path d="M80.4147 34.0289C80.4147 34.0289 80.4148 33.8539 80.2984 33.555C80.1777 33.1365 79.9219 32.7698 79.571 32.5126C79.3506 32.3537 79.0988 32.2439 78.8326 32.1904C78.5664 32.1369 78.2918 32.1411 78.0273 32.2026C77.7628 32.2641 77.5145 32.3815 77.2989 32.547C77.0834 32.7125 76.9056 32.9222 76.7776 33.1621C76.6495 33.4021 76.574 33.6667 76.5563 33.9382C76.5385 34.2097 76.5789 34.4819 76.6746 34.7365C76.7704 34.9911 76.9194 35.2223 77.1115 35.4145C77.3037 35.6068 77.5346 35.7557 77.7888 35.8512C78.0897 35.9583 78.4122 35.9898 78.728 35.9427C79.0438 35.8957 79.3433 35.7717 79.6 35.5815C79.9545 35.3183 80.2106 34.9436 80.3274 34.5172C80.4147 34.2038 80.4075 34.0289 80.4366 34.0289C80.4657 34.0289 80.4366 34.0726 80.4366 34.1601C80.4524 34.2835 80.4524 34.4084 80.4366 34.5318C80.3389 34.9944 80.0813 35.4075 79.7092 35.6981C79.4352 35.9155 79.1113 36.0606 78.767 36.1205C78.4227 36.1803 78.069 36.1529 77.7379 36.0408C77.3271 35.8975 76.971 35.6296 76.7189 35.2743C76.4669 34.919 76.3315 34.4939 76.3315 34.058C76.3315 33.6221 76.4669 33.197 76.7189 32.8417C76.971 32.4864 77.3271 32.2186 77.7379 32.0753C78.0666 31.9541 78.4206 31.9186 78.7667 31.9721C79.1128 32.0257 79.4396 32.1665 79.7164 32.3814C80.0881 32.6663 80.346 33.0747 80.4438 33.5332C80.4759 33.6519 80.4907 33.7747 80.4875 33.8977C80.4293 33.9851 80.422 34.0289 80.4147 34.0289Z" fill="#263238"/>
    <path d="M81.5427 37.484C81.1679 37.2449 80.8359 36.9443 80.5607 36.5947C80.2276 36.2938 79.9473 35.939 79.7314 35.545C80.1077 35.785 80.442 36.0854 80.7207 36.4343C81.0512 36.7359 81.329 37.0906 81.5427 37.484Z" fill="#263238"/>
    <path d="M31.5692 33.6206H30.478V33.3436H32.9731V33.6279H31.8819V36.4343H31.5546L31.5692 33.6206Z" fill="#E0E0E0"/>
    <path d="M35.2211 35.3341H33.2863C33.2937 35.4471 33.3233 35.5576 33.3734 35.6592C33.4235 35.7607 33.4931 35.8514 33.5782 35.9259C33.6634 36.0004 33.7624 36.0573 33.8696 36.0933C33.9768 36.1294 34.0901 36.1439 34.2028 36.136C34.3399 36.1426 34.4766 36.1178 34.6027 36.0635C34.7287 36.0092 34.8408 35.9268 34.9303 35.8225L35.1048 36.0193C34.9394 36.193 34.7269 36.3145 34.4936 36.3689C34.2602 36.4232 34.016 36.408 33.7911 36.3252C33.5662 36.2423 33.3704 36.0954 33.2277 35.9025C33.085 35.7096 33.0017 35.479 32.988 35.2393C32.9755 35.0828 32.9954 34.9255 33.0465 34.7771C33.0977 34.6287 33.179 34.4925 33.2852 34.3771C33.3915 34.2618 33.5205 34.1697 33.664 34.1067C33.8075 34.0437 33.9624 34.0112 34.1191 34.0112C34.2758 34.0112 34.4308 34.0437 34.5743 34.1067C34.7178 34.1697 34.8467 34.2618 34.953 34.3771C35.0592 34.4925 35.1405 34.6287 35.1917 34.7771C35.2428 34.9255 35.2628 35.0828 35.2503 35.2393C35.2503 35.2393 35.2211 35.2976 35.2211 35.3341ZM33.279 35.1154H34.923C34.923 34.897 34.8363 34.6875 34.6822 34.533C34.528 34.3785 34.319 34.2917 34.101 34.2917C33.883 34.2917 33.6739 34.3785 33.5197 34.533C33.3656 34.6875 33.279 34.897 33.279 35.1154Z" fill="#E0E0E0"/>
    <path d="M37.2796 36.3835L36.5522 35.414L35.8247 36.3908H35.4756L36.3776 35.1881L35.4973 34.0728H35.8465L36.5739 34.9693L37.265 34.0582H37.6069L36.7413 35.1953L37.6796 36.3835H37.2796Z" fill="#E0E0E0"/>
    <path d="M39.3822 36.2162C39.2456 36.3298 39.0722 36.3895 38.8948 36.3839C38.8035 36.3953 38.7109 36.386 38.6237 36.3566C38.5365 36.3272 38.4571 36.2784 38.3914 36.2139C38.3257 36.1495 38.2753 36.071 38.2441 35.9843C38.2129 35.8976 38.2015 35.8049 38.211 35.7133V34.3137H37.7964V34.0731H38.211V33.5629H38.5238V34.0731H39.2512V34.3355H38.5238V35.7206C38.5238 35.9976 38.6621 36.1434 38.9239 36.1361C39.0515 36.1388 39.1756 36.0947 39.2731 36.0121L39.3822 36.2162Z" fill="#E0E0E0"/>
    <path d="M39.3669 49.3805L26.0698 49.4971L26.1862 62.8223L39.4832 62.7056L39.3669 49.3805Z" fill="#068BF7"/>
    <path d="M64.9862 50.525C64.9862 50.5833 60.5344 50.6708 55.0498 50.7218C49.5651 50.7728 45.1206 50.7218 45.1206 50.7218C45.1206 50.7218 49.5651 50.5687 55.0498 50.5177C60.5344 50.4667 64.9862 50.4594 64.9862 50.525Z" fill="#068BF7"/>
    <path d="M80.8371 54.4828C80.8371 54.5412 72.8356 54.6651 62.9937 54.7526C53.1518 54.84 45.1357 54.8546 45.1357 54.7963C45.1357 54.738 53.1373 54.6141 62.9937 54.5266C72.8501 54.4391 80.8371 54.4027 80.8371 54.4828Z" fill="#263238"/>
    <path d="M80.4438 57.3992C80.4438 57.4575 72.5514 57.5815 62.8042 57.6689C53.0569 57.7564 45.1572 57.771 45.1572 57.7127C45.1572 57.6543 53.0569 57.5304 62.8042 57.443C72.5514 57.3555 80.4438 57.3263 80.4438 57.3992Z" fill="#263238"/>
    <path d="M66.0196 60.3147C66.0196 60.3803 61.3568 60.4751 55.603 60.5188C49.8492 60.5625 45.1865 60.5625 45.1865 60.5188C45.1865 60.4751 49.8492 60.3584 55.603 60.3147C61.3568 60.2709 66.0196 60.2418 66.0196 60.3147Z" fill="#263238"/>
    <path d="M39.5636 71.5182L26.2593 71.6349L26.3757 84.9673L39.6799 84.8506L39.5636 71.5182Z" fill="#068BF7"/>
    <path d="M65.1608 72.7073C65.1608 72.7656 60.7091 72.8531 55.2244 72.9041C49.7398 72.9552 45.2881 72.9479 45.2881 72.9041C45.2881 72.8604 49.7398 72.751 55.2244 72.7C60.7091 72.649 65.1608 72.6636 65.1608 72.7073Z" fill="#068BF7"/>
    <path d="M81.0406 76.6719C81.0406 76.7375 73.0391 76.8542 63.19 76.9416C53.3409 77.0291 45.332 77.0437 45.332 76.9854C45.332 76.9271 53.3336 76.8031 63.19 76.7157C73.0464 76.6282 81.0406 76.6063 81.0406 76.6719Z" fill="#263238"/>
    <path d="M80.6402 79.5952C80.6402 79.6608 72.7405 79.7774 62.9932 79.8649C53.2459 79.9523 45.3535 79.9669 45.3535 79.9086C45.3535 79.8503 53.2532 79.7264 62.9932 79.6389C72.7332 79.5514 80.6402 79.5295 80.6402 79.5952Z" fill="#263238"/>
    <path d="M66.2157 82.5035C66.2157 82.5691 61.553 82.6639 55.7992 82.7149C50.0454 82.7659 45.3755 82.7586 45.3755 82.7149C45.3755 82.6712 50.0381 82.5618 55.792 82.5108C61.5458 82.4598 66.2157 82.4452 66.2157 82.5035Z" fill="#263238"/>
    <path d="M39.7526 93.7299L26.4336 93.8465L26.55 107.172L39.847 107.055L39.7526 93.7299Z" fill="#020202"/>
    <path d="M65.3578 94.9327C65.3578 94.9983 60.9133 95.0858 55.4286 95.1369C49.944 95.1879 45.4922 95.1733 45.4922 95.1369C45.4922 95.1004 49.9367 94.9911 55.4286 94.94C60.9206 94.889 65.3505 94.8671 65.3578 94.9327Z" fill="#068BF7"/>
    <path d="M81.2296 98.876C81.2296 98.9416 73.2281 99.0582 63.3863 99.1457C53.5444 99.2332 45.5283 99.255 45.5283 99.1894C45.5283 99.1238 53.5299 99.0072 63.3863 98.9197C73.2427 98.8323 81.2296 98.8177 81.2296 98.876Z" fill="#263238"/>
    <path d="M80.837 101.799C80.837 101.865 72.9446 101.981 63.1973 102.069C53.45 102.156 45.5576 102.178 45.5576 102.113C45.5576 102.047 53.45 101.93 63.1973 101.843C72.9446 101.755 80.837 101.741 80.837 101.799Z" fill="#263238"/>
    <path d="M66.4415 104.715C66.4415 104.773 61.786 104.868 56.0322 104.919C50.2783 104.97 45.6084 104.963 45.6084 104.919C45.6084 104.875 50.2712 104.766 56.025 104.715C61.7788 104.664 66.4415 104.649 66.4415 104.715Z" fill="#263238"/>
    <path d="M39.9488 115.934L26.6445 116.05L26.7681 129.375L40.0652 129.259L39.9488 115.934Z" fill="#068BF7"/>
    <path d="M65.5541 117.173C65.5541 117.239 61.1023 117.326 55.6176 117.377C50.133 117.428 45.6885 117.377 45.6885 117.377C45.6885 117.377 50.133 117.231 55.6176 117.18C61.1023 117.129 65.5541 117.078 65.5541 117.173Z" fill="#455A64"/>
    <path d="M81.4259 121.08C81.4259 121.145 73.4244 121.262 63.5753 121.349C53.7262 121.437 45.7246 121.459 45.7246 121.393C45.7246 121.327 53.7262 121.211 63.5753 121.123C73.4244 121.036 81.4259 121.021 81.4259 121.08Z" fill="#263238"/>
    <path d="M81.0332 124.003C81.0332 124.069 73.1335 124.185 63.3935 124.273C53.6535 124.36 45.7466 124.382 45.7466 124.316C45.7466 124.251 53.6462 124.134 63.3935 124.054C73.1408 123.974 81.0332 123.945 81.0332 124.003Z" fill="#263238"/>
    <path d="M66.6084 126.918C66.6084 126.977 61.9458 127.072 56.192 127.123C50.4381 127.174 45.7754 127.166 45.7754 127.123C45.7754 127.079 50.4309 126.962 56.1847 126.911C61.9385 126.86 66.6012 126.853 66.6084 126.918Z" fill="#263238"/>
    <path d="M40.1457 138.137L26.8486 138.254L26.965 151.586L40.2694 151.469L40.1457 138.137Z" fill="#020202"/>
    <path d="M65.7143 139.347C65.7143 139.405 61.2698 139.492 55.7851 139.543C50.3004 139.594 45.8486 139.543 45.8486 139.543C45.8486 139.543 50.3004 139.39 55.7851 139.339C61.2698 139.288 65.7143 139.281 65.7143 139.347Z" fill="#E0E0E0"/>
    <path d="M81.6227 143.291C81.6227 143.349 73.6211 143.473 63.772 143.561C53.9228 143.648 45.9141 143.663 45.9141 143.604C45.9141 143.546 53.9155 143.422 63.772 143.335C73.6284 143.247 81.6227 143.225 81.6227 143.291Z" fill="#EBEBEB"/>
    <path d="M81.2296 146.214C81.2296 146.272 73.3299 146.396 63.5826 146.484C53.8353 146.571 45.9429 146.586 45.9429 146.527C45.9429 146.469 53.8353 146.345 63.5826 146.258C73.3299 146.17 81.2296 146.148 81.2296 146.214Z" fill="#EBEBEB"/>
    <path d="M66.7978 149.123C66.7978 149.188 62.1425 149.283 56.3887 149.334C50.6349 149.385 45.9648 149.334 45.9648 149.334C45.9648 149.334 50.6276 149.174 56.3814 149.13C62.1352 149.086 66.7978 149.064 66.7978 149.123Z" fill="#EBEBEB"/>
    <path d="M229.257 156.149V154.808C229.252 154.607 229.287 154.406 229.36 154.219C229.433 154.031 229.542 153.86 229.682 153.715C229.821 153.57 229.988 153.454 230.172 153.374C230.356 153.293 230.555 153.251 230.756 153.248L238.146 153.299C239.608 153.309 241.006 153.899 242.034 154.94C243.063 155.981 243.637 157.389 243.631 158.854L243.093 218.933C243.088 219.658 242.94 220.375 242.659 221.043C242.377 221.711 241.967 222.316 241.451 222.825C240.936 223.333 240.325 223.735 239.654 224.006C238.983 224.278 238.266 224.414 237.542 224.408L199.492 224.138C198.032 224.126 196.637 223.536 195.611 222.497C194.584 221.457 194.01 220.053 194.014 218.591L194.552 158.504C194.558 157.779 194.706 157.063 194.988 156.396C195.271 155.729 195.681 155.125 196.197 154.617C196.712 154.109 197.322 153.708 197.993 153.437C198.663 153.166 199.38 153.03 200.103 153.037L206.577 153.08H209.173C209.573 153.105 209.947 153.283 210.219 153.578C210.49 153.873 210.636 154.261 210.628 154.662V156.003C210.616 156.569 210.829 157.117 211.218 157.527C211.608 157.936 212.144 158.175 212.709 158.19L227.126 158.292C227.688 158.279 228.224 158.049 228.621 157.65C229.018 157.25 229.246 156.713 229.257 156.149Z" fill="white" stroke="black"/>
    <path d="M238.969 170.181L198.765 170.086L198.699 198.063L238.903 198.158L238.969 170.181Z" fill="#068BF7"/>
    <path d="M219.969 189.804C221.095 189.575 222.129 189.017 222.939 188.199C223.75 187.382 224.3 186.343 224.521 185.212C224.743 184.082 224.625 182.911 224.183 181.847C223.741 180.784 222.994 179.875 222.038 179.236C221.081 178.598 219.957 178.257 218.807 178.258C217.658 178.259 216.534 178.6 215.578 179.24C214.622 179.881 213.877 180.79 213.436 181.854C212.996 182.918 212.879 184.089 213.102 185.219C213.251 185.973 213.546 186.69 213.972 187.329C214.398 187.968 214.946 188.516 215.584 188.942C216.222 189.368 216.938 189.664 217.691 189.812C218.443 189.96 219.217 189.957 219.969 189.804Z" fill="white"/>
    <path d="M217.393 184.061V181.429L219.67 182.756L221.94 184.075L219.663 185.38L217.379 186.699L217.393 184.061Z" fill="#068BF7"/>
    <path d="M203.035 202.255V201.804C203.036 201.795 203.04 201.787 203.045 201.78C203.05 201.772 203.056 201.767 203.064 201.762C203.072 201.758 203.08 201.756 203.089 201.755C203.098 201.755 203.107 201.756 203.115 201.76L203.5 201.986L203.893 202.212C203.901 202.216 203.907 202.223 203.911 202.23C203.915 202.238 203.918 202.247 203.918 202.255C203.918 202.264 203.915 202.273 203.911 202.281C203.907 202.288 203.901 202.295 203.893 202.299L203.5 202.525L203.115 202.751C203.107 202.755 203.098 202.756 203.089 202.756C203.08 202.755 203.072 202.753 203.064 202.749C203.056 202.744 203.05 202.739 203.045 202.731C203.04 202.724 203.036 202.716 203.035 202.707V202.255Z" fill="#263238"/>
    <path d="M206.686 201.913H206.352C206.338 201.913 206.325 201.918 206.316 201.928C206.306 201.937 206.301 201.95 206.301 201.964V202.562C206.301 202.568 206.302 202.575 206.305 202.581C206.307 202.587 206.311 202.593 206.316 202.598C206.32 202.602 206.326 202.606 206.332 202.609C206.338 202.611 206.345 202.613 206.352 202.613H206.686L207.21 203.137V201.388L206.686 201.913Z" fill="#263238"/>
    <path d="M204.206 202.802C204.183 202.8 204.162 202.79 204.146 202.774C204.13 202.758 204.12 202.737 204.118 202.714V201.81C204.118 201.787 204.127 201.765 204.144 201.748C204.16 201.732 204.182 201.723 204.206 201.723C204.229 201.723 204.251 201.732 204.267 201.748C204.284 201.765 204.293 201.787 204.293 201.81V202.714C204.293 202.737 204.284 202.76 204.267 202.776C204.251 202.792 204.229 202.802 204.206 202.802Z" fill="#263238"/>
    <path d="M207.421 201.73V202.823C207.529 202.779 207.622 202.703 207.688 202.606C207.753 202.509 207.788 202.394 207.788 202.277C207.788 202.159 207.753 202.045 207.688 201.947C207.622 201.85 207.529 201.774 207.421 201.73Z" fill="#263238"/>
    <path d="M207.421 201.301V201.527C207.578 201.574 207.716 201.67 207.815 201.801C207.914 201.932 207.97 202.091 207.974 202.255C207.978 202.422 207.926 202.585 207.826 202.718C207.725 202.85 207.582 202.945 207.421 202.984V203.21C207.641 203.163 207.837 203.042 207.979 202.867C208.12 202.692 208.197 202.473 208.197 202.248C208.197 202.023 208.12 201.805 207.979 201.63C207.837 201.454 207.641 201.333 207.421 201.286V201.301Z" fill="#263238"/>
    <path d="M210.243 201.912V202.976H210.09V202.051H209.857V201.919L210.243 201.912Z" fill="#263238"/>
    <path d="M210.468 202.27C210.468 202.256 210.471 202.243 210.476 202.23C210.481 202.218 210.489 202.207 210.498 202.197C210.508 202.188 210.519 202.18 210.531 202.175C210.544 202.17 210.557 202.167 210.57 202.167C210.584 202.167 210.598 202.17 210.611 202.176C210.624 202.181 210.635 202.19 210.645 202.2C210.655 202.21 210.662 202.222 210.667 202.236C210.671 202.249 210.673 202.263 210.672 202.277C210.672 202.304 210.661 202.33 210.642 202.349C210.623 202.368 210.597 202.379 210.57 202.379C210.544 202.374 210.519 202.361 210.501 202.341C210.482 202.322 210.471 202.296 210.468 202.27ZM210.468 202.882C210.468 202.868 210.471 202.855 210.476 202.843C210.481 202.83 210.489 202.819 210.498 202.81C210.508 202.8 210.519 202.793 210.531 202.788C210.544 202.782 210.557 202.78 210.57 202.78C210.584 202.78 210.598 202.783 210.611 202.788C210.624 202.794 210.635 202.802 210.645 202.812C210.655 202.823 210.662 202.835 210.667 202.848C210.671 202.861 210.673 202.875 210.672 202.889C210.672 202.916 210.661 202.942 210.642 202.961C210.623 202.98 210.597 202.991 210.57 202.991C210.543 202.989 210.517 202.977 210.498 202.957C210.479 202.936 210.468 202.91 210.468 202.882Z" fill="#263238"/>
    <path d="M210.811 202.459C210.811 202.109 211 201.912 211.24 201.912C211.48 201.912 211.676 202.109 211.676 202.459C211.676 202.809 211.487 202.998 211.24 202.998C210.992 202.998 210.811 202.787 210.811 202.459ZM211.538 202.459C211.538 202.189 211.429 202.051 211.254 202.051C211.08 202.051 210.978 202.189 210.978 202.459C210.978 202.729 211.087 202.867 211.254 202.867C211.422 202.867 211.523 202.721 211.523 202.459H211.538Z" fill="#263238"/>
    <path d="M212.15 201.919V202.984H211.997V202.058H211.764V201.919H212.15Z" fill="#263238"/>
    <path d="M213.168 201.73H213.299L212.796 203.188H212.65L213.168 201.73Z" fill="#263238"/>
    <path d="M214.556 202.678C214.556 202.874 214.396 202.991 214.134 202.991C213.873 202.991 213.72 202.874 213.72 202.678C213.719 202.621 213.736 202.566 213.769 202.52C213.801 202.474 213.848 202.44 213.902 202.423C213.857 202.403 213.818 202.37 213.792 202.329C213.766 202.287 213.754 202.238 213.756 202.189C213.756 202.014 213.909 201.905 214.134 201.905C214.36 201.905 214.513 202.014 214.513 202.189C214.514 202.238 214.501 202.286 214.475 202.328C214.449 202.37 214.412 202.402 214.367 202.423C214.422 202.44 214.469 202.473 214.503 202.519C214.537 202.565 214.556 202.621 214.556 202.678ZM214.404 202.678C214.404 202.561 214.302 202.495 214.134 202.495C213.967 202.495 213.865 202.568 213.865 202.678C213.865 202.787 213.967 202.874 214.134 202.874C214.302 202.874 214.404 202.802 214.404 202.678ZM213.902 202.204C213.902 202.313 213.989 202.372 214.134 202.372C214.28 202.372 214.375 202.313 214.375 202.204C214.375 202.095 214.28 202.036 214.134 202.036C213.989 202.036 213.902 202.095 213.902 202.204Z" fill="#263238"/>
    <path d="M214.688 202.277C214.688 202.263 214.691 202.249 214.696 202.236C214.702 202.223 214.71 202.212 214.72 202.202C214.73 202.193 214.742 202.185 214.756 202.181C214.769 202.176 214.783 202.174 214.797 202.175C214.824 202.175 214.85 202.186 214.869 202.205C214.888 202.224 214.899 202.25 214.899 202.277C214.9 202.291 214.898 202.305 214.893 202.318C214.889 202.332 214.881 202.344 214.872 202.354C214.862 202.364 214.851 202.372 214.838 202.378C214.825 202.384 214.811 202.386 214.797 202.386C214.768 202.385 214.742 202.373 214.722 202.352C214.701 202.332 214.689 202.305 214.688 202.277ZM214.688 202.889C214.683 202.873 214.683 202.856 214.686 202.84C214.69 202.823 214.697 202.808 214.707 202.795C214.717 202.781 214.73 202.771 214.745 202.763C214.76 202.756 214.777 202.752 214.793 202.752C214.81 202.752 214.827 202.756 214.842 202.763C214.857 202.771 214.87 202.781 214.88 202.795C214.89 202.808 214.897 202.823 214.9 202.84C214.904 202.856 214.903 202.873 214.899 202.889C214.899 202.903 214.896 202.916 214.891 202.928C214.886 202.941 214.878 202.952 214.869 202.961C214.86 202.971 214.848 202.978 214.836 202.984C214.824 202.989 214.81 202.991 214.797 202.991C214.77 202.99 214.744 202.979 214.724 202.96C214.704 202.942 214.691 202.916 214.688 202.889Z" fill="#263238"/>
    <path d="M215.044 202.459C215.044 202.116 215.226 201.919 215.473 201.919C215.72 201.919 215.902 202.116 215.902 202.459C215.902 202.801 215.713 203.006 215.473 203.006C215.233 203.006 215.044 202.801 215.044 202.459ZM215.771 202.459C215.771 202.196 215.662 202.058 215.495 202.058C215.328 202.058 215.211 202.196 215.211 202.459C215.211 202.721 215.328 202.867 215.495 202.867C215.662 202.867 215.75 202.721 215.75 202.459H215.771Z" fill="#263238"/>
    <path d="M216.048 202.459C216.048 202.116 216.237 201.919 216.477 201.919C216.717 201.919 216.906 202.116 216.906 202.459C216.906 202.801 216.724 203.006 216.477 203.006C216.23 203.006 216.048 202.801 216.048 202.459ZM216.775 202.459C216.775 202.189 216.659 202.058 216.492 202.058C216.324 202.058 216.208 202.189 216.208 202.459C216.208 202.729 216.324 202.867 216.492 202.867C216.659 202.867 216.761 202.729 216.761 202.459H216.775Z" fill="#263238"/>
    <path d="M199.172 202.795C199.124 202.795 199.078 202.775 199.044 202.741C199.009 202.707 198.99 202.661 198.99 202.612V201.679C198.99 201.631 199.009 201.585 199.044 201.551C199.078 201.516 199.124 201.497 199.172 201.497C199.221 201.497 199.267 201.516 199.301 201.551C199.335 201.585 199.354 201.631 199.354 201.679V202.612C199.354 202.661 199.335 202.707 199.301 202.741C199.267 202.775 199.221 202.795 199.172 202.795Z" fill="#263238"/>
    <path d="M199.987 202.795C199.938 202.795 199.892 202.775 199.858 202.741C199.824 202.707 199.805 202.661 199.805 202.612V201.679C199.805 201.631 199.824 201.585 199.858 201.551C199.892 201.516 199.938 201.497 199.987 201.497C200.035 201.497 200.081 201.516 200.116 201.551C200.15 201.585 200.169 201.631 200.169 201.679V202.612C200.169 202.661 200.15 202.707 200.116 202.741C200.081 202.775 200.035 202.795 199.987 202.795Z" fill="#263238"/>
    <path d="M238.706 200.644L199.07 200.549C199.013 200.565 198.954 200.568 198.896 200.557C198.839 200.546 198.785 200.522 198.738 200.487C198.691 200.452 198.653 200.406 198.627 200.354C198.601 200.301 198.587 200.243 198.587 200.185C198.587 200.126 198.601 200.068 198.627 200.015C198.653 199.963 198.691 199.917 198.738 199.882C198.785 199.847 198.839 199.823 198.896 199.812C198.954 199.801 199.013 199.804 199.07 199.82L238.706 199.908C238.781 199.934 238.847 199.983 238.893 200.049C238.939 200.114 238.964 200.192 238.964 200.272C238.964 200.352 238.939 200.43 238.893 200.495C238.847 200.561 238.781 200.61 238.706 200.636V200.644Z" fill="#E0E0E0"/>
    <path d="M213.633 200.585H199.085C198.983 200.585 198.884 200.545 198.812 200.472C198.74 200.4 198.699 200.302 198.699 200.199C198.699 200.149 198.709 200.099 198.729 200.052C198.748 200.006 198.777 199.964 198.813 199.928C198.849 199.893 198.891 199.865 198.938 199.847C198.985 199.828 199.034 199.819 199.085 199.82H213.633C213.72 199.82 213.804 199.854 213.867 199.916C213.93 199.977 213.966 200.06 213.968 200.148V200.272C213.96 200.356 213.922 200.435 213.86 200.493C213.798 200.551 213.717 200.584 213.633 200.585Z" fill="#068BF7"/>
    <path d="M214.353 200.2C214.353 200.344 214.31 200.485 214.23 200.605C214.15 200.725 214.037 200.818 213.904 200.873C213.771 200.928 213.625 200.943 213.483 200.915C213.342 200.887 213.213 200.817 213.111 200.715C213.009 200.613 212.94 200.483 212.912 200.342C212.884 200.201 212.898 200.054 212.953 199.921C213.008 199.788 213.102 199.674 213.221 199.594C213.341 199.514 213.481 199.471 213.625 199.471C213.818 199.471 214.003 199.548 214.14 199.684C214.276 199.821 214.353 200.006 214.353 200.2Z" fill="#068BF7"/>
    <path d="M238.772 207.686C238.772 207.773 229.912 207.824 218.994 207.795C208.076 207.766 199.208 207.679 199.208 207.584C199.208 207.489 208.068 207.438 218.994 207.467C229.92 207.496 238.772 207.598 238.772 207.686Z" fill="#263238"/>
    <path d="M238.765 211.6C238.765 211.688 229.905 211.746 218.979 211.717C208.054 211.688 199.201 211.593 199.201 211.498C199.201 211.404 208.054 211.36 218.979 211.389C229.905 211.418 238.765 211.513 238.765 211.6Z" fill="#263238"/>
    <path d="M238.757 215.522C238.757 215.609 229.897 215.667 218.979 215.631C208.06 215.594 199.193 215.514 199.193 215.42C199.193 215.325 208.053 215.274 218.979 215.31C229.905 215.347 238.757 215.434 238.757 215.522Z" fill="#263238"/>
    <path d="M237.696 58.3322C237.696 58.4197 229.65 58.4925 219.743 58.4925C209.836 58.4925 201.798 58.4197 201.798 58.3322C201.798 58.2447 209.799 58.1645 219.743 58.1645C229.687 58.1645 237.696 58.2447 237.696 58.3322Z" fill="#263238"/>
    <path d="M236.088 118.368H203.463V141.067H236.088V118.368Z" fill="#068BF7"/>
    <path d="M170.577 67.6044H159.506C159.144 67.612 158.787 67.691 158.455 67.8369C158.124 67.9828 157.824 68.1927 157.574 68.4547C157.323 68.7166 157.126 69.0255 156.995 69.3637C156.863 69.7018 156.8 70.0626 156.807 70.4254V72.4373C156.816 72.7992 156.754 73.1593 156.623 73.4969C156.493 73.8345 156.298 74.1432 156.049 74.4051C155.799 74.6671 155.501 74.8773 155.171 75.0237C154.84 75.1701 154.484 75.2498 154.123 75.2584H132.534C131.805 75.2393 131.114 74.9317 130.611 74.4031C130.108 73.8744 129.834 73.1676 129.85 72.4373V70.4254C129.865 69.6939 129.591 68.9861 129.086 68.4572C128.581 67.9283 127.888 67.6216 127.158 67.6044H113.57C111.255 67.6044 109.035 68.526 107.398 70.1665C105.761 71.8069 104.841 74.0318 104.841 76.3518V216.419C104.841 218.739 105.761 220.964 107.398 222.604C109.035 224.244 111.255 225.166 113.57 225.166H170.577C172.892 225.166 175.113 224.244 176.75 222.604C178.386 220.964 179.306 218.739 179.306 216.419V76.3518C179.306 74.0318 178.386 71.8069 176.75 70.1665C175.113 68.526 172.892 67.6044 170.577 67.6044Z" fill="#3E3D3D"/>
    <path d="M172.352 82.708C172.352 82.708 170.897 82.7882 169.137 82.8028C167.377 82.8174 165.922 82.8028 165.922 82.7591C165.922 82.7153 167.377 82.6789 169.137 82.6643C170.897 82.6497 172.352 82.6716 172.352 82.708Z" fill="#263238"/>
    <path d="M172.367 84.3697C172.367 84.3697 170.912 84.4499 169.152 84.4645C167.391 84.479 165.929 84.4645 165.929 84.4207C165.929 84.377 167.384 84.3333 169.152 84.326C170.919 84.3187 172.367 84.3187 172.367 84.3697Z" fill="#263238"/>
    <path d="M172.381 86.003C172.381 86.0467 170.926 86.0904 169.158 86.0977C167.391 86.105 165.943 86.0977 165.943 86.054C165.943 86.0102 167.398 85.9738 169.158 85.9592C170.919 85.9446 172.381 85.9665 172.381 86.003Z" fill="#263238"/>
    <path d="M111.141 87.0601H111.272H111.643H113.017C113.017 86.7539 113.017 86.4186 113.017 86.0614C113.017 85.8792 113.017 85.7043 113.017 85.4856C113.04 85.3747 113.097 85.2738 113.181 85.1978C113.265 85.1217 113.371 85.0745 113.483 85.0628C113.701 85.0628 113.897 85.0628 114.138 85.0628C114.264 85.0821 114.379 85.1466 114.462 85.2444C114.545 85.3421 114.59 85.4666 114.589 85.5949C114.589 86.0614 114.589 86.5498 114.589 87.0528L114.53 86.9945H116.262L116.189 87.0674C116.189 86.3385 116.189 85.646 116.189 84.8806C116.189 84.6983 116.189 84.5161 116.189 84.3339C116.179 84.251 116.152 84.1712 116.11 84.0996C116.067 84.0279 116.01 83.9662 115.942 83.9183C115.687 83.6705 115.432 83.4154 115.214 83.1894C114.996 82.9634 114.72 82.701 114.487 82.4605L114.13 82.1106C114.037 81.9912 113.914 81.8983 113.774 81.8409C113.705 81.8229 113.634 81.8208 113.565 81.8347C113.495 81.8486 113.43 81.8781 113.374 81.921C113.265 82.0085 113.156 82.1324 113.046 82.2345C112.835 82.4532 112.632 82.6646 112.428 82.8614C112.028 83.2696 111.628 83.6413 111.33 83.9985C111.242 84.2027 111.212 84.4271 111.242 84.6473V85.2596C111.242 85.6386 111.242 85.9886 111.242 86.2437V87.1038C111.236 87.0335 111.236 86.9628 111.242 86.8925C111.242 86.7248 111.242 86.5207 111.242 86.2728C111.242 86.025 111.242 85.6605 111.242 85.2815C111.242 85.0847 111.242 84.8733 111.242 84.6546C111.242 84.4359 111.242 84.4286 111.242 84.312C111.244 84.1845 111.276 84.0593 111.337 83.9475C111.657 83.5539 112.064 83.2186 112.435 82.7885L113.054 82.1543C113.17 82.0523 113.257 81.9356 113.396 81.8263C113.465 81.7726 113.545 81.7356 113.631 81.7179C113.717 81.7002 113.805 81.7024 113.89 81.7242C114.054 81.7855 114.2 81.8885 114.312 82.0231L114.669 82.373L115.396 83.1019L116.123 83.8309C116.194 83.8962 116.26 83.9668 116.32 84.0423C116.377 84.1318 116.41 84.2349 116.414 84.3411C116.414 84.5234 116.414 84.7056 116.414 84.8879C116.414 85.6168 116.414 86.3457 116.414 87.0747V87.1403H116.349H114.618H114.45V87.0747C114.45 86.5717 114.45 86.0833 114.45 85.6168C114.453 85.5158 114.42 85.4172 114.355 85.3394C114.291 85.2616 114.201 85.2099 114.101 85.194H113.468C113.378 85.2034 113.293 85.2419 113.226 85.3036C113.159 85.3654 113.114 85.447 113.097 85.5366C113.086 85.7211 113.086 85.9061 113.097 86.0906V87.1257H111.701H111.213L111.141 87.0601Z" fill="#263238"/>
    <path d="M127.995 176.451H114.69V189.776H127.995V176.451Z" fill="#068BF7"/>
    <path d="M153.578 177.886C153.578 177.945 149.134 177.996 143.649 177.996C138.164 177.996 133.712 177.945 133.712 177.886C133.712 177.828 138.164 177.77 143.649 177.77C149.134 177.77 153.578 177.821 153.578 177.886Z" fill="#068BF7"/>
    <path d="M169.421 181.969C169.421 182.034 161.419 182.085 151.57 182.085C141.721 182.085 133.712 182.034 133.712 181.969C133.712 181.903 141.714 181.859 151.57 181.859C161.427 181.859 169.421 181.911 169.421 181.969Z" fill="white"/>
    <path d="M169.006 184.891C169.006 184.95 161.099 185 151.367 185C141.634 185 133.72 184.95 133.72 184.891C133.72 184.833 141.619 184.775 151.367 184.775C161.114 184.775 169.006 184.826 169.006 184.891Z" fill="white"/>
    <path d="M154.553 187.669C154.553 187.727 149.883 187.778 144.136 187.778C138.39 187.778 133.712 187.727 133.712 187.669C133.712 187.611 138.375 187.552 144.136 187.552C149.897 187.552 154.553 187.604 154.553 187.669Z" fill="white"/>
    <path d="M127.995 198.144H114.69V211.469H127.995V198.144Z" fill="#068BF7"/>
    <path d="M153.578 199.543C153.578 199.609 149.134 199.66 143.649 199.66C138.164 199.66 133.712 199.609 133.712 199.543C133.712 199.478 138.164 199.434 143.649 199.434C149.134 199.434 153.578 199.543 153.578 199.543Z" fill="#068BF7"/>
    <path d="M169.421 203.662C169.421 203.727 161.419 203.778 151.57 203.778C141.721 203.778 133.712 203.727 133.712 203.662C133.712 203.596 141.714 203.552 151.57 203.552C161.427 203.552 169.421 203.603 169.421 203.662Z" fill="white"/>
    <path d="M169.006 206.578C169.006 206.643 161.099 206.694 151.367 206.694C141.634 206.694 133.72 206.643 133.72 206.578C133.72 206.512 141.619 206.468 151.367 206.468C161.114 206.468 169.006 206.519 169.006 206.578Z" fill="white"/>
    <path d="M154.553 209.369C154.553 209.428 149.883 209.479 144.136 209.479C138.39 209.479 133.712 209.428 133.712 209.369C133.712 209.311 138.375 209.253 144.136 209.253C149.897 209.253 154.553 209.304 154.553 209.369Z" fill="white"/>
    <path d="M122.176 105.954L122.001 136.818L162.976 137.044L163.143 106.187L122.176 105.954Z" fill="white"/>
    <path d="M121.47 136.854L135.887 117.749L144.682 129.806L150.734 123.42L162.46 137.044L121.47 136.854Z" fill="#068BF7"/>
    <path d="M148.529 115.438C148.526 116.078 148.334 116.703 147.976 117.234C147.619 117.765 147.112 118.178 146.52 118.42C145.929 118.662 145.279 118.722 144.652 118.594C144.026 118.466 143.452 118.154 143.003 117.699C142.554 117.243 142.249 116.665 142.128 116.036C142.007 115.407 142.075 114.756 142.323 114.166C142.572 113.576 142.989 113.073 143.523 112.721C144.056 112.368 144.682 112.182 145.321 112.187C145.745 112.189 146.164 112.274 146.555 112.439C146.946 112.603 147.3 112.843 147.598 113.145C147.896 113.447 148.132 113.805 148.292 114.199C148.451 114.592 148.532 115.013 148.529 115.438Z" fill="#068BF7"/>
    <path d="M168.613 142.911C168.613 142.999 156.713 143.072 142.034 143.072C127.355 143.072 115.461 142.999 115.461 142.911C115.461 142.824 127.355 142.751 142.034 142.751C156.713 142.751 168.613 142.817 168.613 142.911Z" fill="white"/>
    <path d="M168.613 146.374C168.613 146.462 156.713 146.534 142.034 146.534C127.355 146.534 115.461 146.462 115.461 146.374C115.461 146.287 127.355 146.214 142.034 146.214C156.713 146.214 168.613 146.287 168.613 146.374Z" fill="white"/>
    <path d="M150.705 162.994H133.363C132.159 162.994 131.005 162.515 130.154 161.662C129.302 160.809 128.824 159.652 128.824 158.446C128.824 157.239 129.302 156.082 130.154 155.229C131.005 154.376 132.159 153.897 133.363 153.897H150.69C151.894 153.897 153.048 154.376 153.9 155.229C154.751 156.082 155.229 157.239 155.229 158.446C155.229 159.652 154.751 160.809 153.9 161.662C153.048 162.515 151.894 162.994 150.69 162.994H150.705Z" fill="#068BF7"/>
    <path d="M178.542 167.513C178.542 167.601 162.161 167.681 141.961 167.681C121.761 167.681 105.372 167.601 105.372 167.513C105.372 167.426 121.753 167.353 141.961 167.353C162.168 167.353 178.542 167.426 178.542 167.513Z" fill="#E0E0E0"/>
    <path d="M157.113 98.4456C157.113 98.533 150.363 98.6059 142.041 98.6059C133.72 98.6059 126.962 98.533 126.962 98.4456C126.962 98.3581 133.705 98.2852 142.041 98.2852C150.377 98.2852 157.113 98.3508 157.113 98.4456Z" fill="#068BF7"/>
    <path d="M160.132 158.446C160.132 158.642 160.074 158.834 159.965 158.997C159.856 159.161 159.701 159.288 159.519 159.362C159.338 159.437 159.139 159.456 158.947 159.418C158.755 159.379 158.579 159.284 158.441 159.144C158.302 159.005 158.209 158.828 158.171 158.635C158.134 158.442 158.155 158.242 158.231 158.061C158.307 157.88 158.435 157.726 158.598 157.618C158.762 157.51 158.954 157.453 159.15 157.454C159.28 157.454 159.408 157.479 159.528 157.528C159.649 157.578 159.757 157.651 159.849 157.743C159.94 157.835 160.013 157.945 160.061 158.066C160.11 158.187 160.134 158.316 160.132 158.446Z" fill="#068BF7"/>
    <path d="M200.117 93.1829H199.87H199.143H196.4L186.217 93.2339L186.333 93.1246C186.333 102.718 186.333 116.721 186.333 132.276C186.333 141.818 186.289 150.777 186.26 158.387V158.533H186.115L166.606 158.475H161.136H159.681H159.317H159.193H159.317H159.681H161.136C162.416 158.475 164.263 158.475 166.606 158.438C171.334 158.438 178.062 158.394 186.115 158.38L185.969 158.526C185.969 150.901 185.969 141.949 185.969 132.407C186.02 116.852 186.071 102.856 186.1 93.2631V93.1173H186.202L196.429 93.1683H199.165H199.892L200.117 93.1829Z" fill="#068BF7"/>
    <path d="M219.772 134.42C220.709 134.421 221.625 134.144 222.405 133.623C223.185 133.103 223.793 132.362 224.152 131.495C224.512 130.628 224.607 129.674 224.425 128.753C224.243 127.832 223.792 126.986 223.13 126.321C222.468 125.657 221.625 125.204 220.706 125.02C219.787 124.837 218.835 124.93 217.969 125.289C217.103 125.648 216.363 126.256 215.842 127.037C215.322 127.817 215.044 128.735 215.044 129.674C215.046 130.931 215.544 132.136 216.43 133.025C217.317 133.914 218.518 134.416 219.772 134.42Z" fill="white"/>
    <path d="M218.608 129.674V127.531L220.456 128.602L222.296 129.674L220.456 130.738L218.608 131.81V129.674Z" fill="#068BF7"/>
    <path d="M203.122 63.6536L202.983 88.0077L235.324 88.1899L235.462 63.8286L203.122 63.6536Z" fill="#D3EBFF"/>
    <path d="M202.562 88.0148L213.946 72.9329L220.885 82.4529L225.664 77.4087L234.909 88.197L202.562 88.0148Z" fill="#068BF7"/>
    <path d="M223.926 71.1393C223.923 71.6439 223.771 72.1363 223.489 72.5543C223.207 72.9722 222.807 73.2969 222.341 73.4874C221.874 73.6778 221.362 73.7254 220.869 73.6241C220.376 73.5229 219.923 73.2773 219.569 72.9184C219.215 72.5596 218.976 72.1036 218.88 71.6082C218.785 71.1127 218.838 70.6 219.033 70.1349C219.229 69.6699 219.557 69.2733 219.978 68.9953C220.398 68.7174 220.891 68.5706 221.394 68.5735C221.729 68.5754 222.059 68.6433 222.368 68.7732C222.676 68.9032 222.955 69.0928 223.19 69.331C223.425 69.5693 223.611 69.8516 223.738 70.1619C223.864 70.4722 223.928 70.8043 223.926 71.1393Z" fill="#068BF7"/>
    <path d="M231.796 92.8476H206.759V94.5242H231.796V92.8476Z" fill="#068BF7"/>
    <path d="M237.222 99.3497C237.222 99.4372 229.221 99.5101 219.277 99.5101C209.333 99.5101 201.325 99.4372 201.325 99.3497C201.325 99.2622 209.326 99.1821 219.277 99.1821C229.228 99.1821 237.222 99.2549 237.222 99.3497Z" fill="#263238"/>
    <path d="M237.222 103.942C237.222 104.037 229.221 104.102 219.277 104.102C209.333 104.102 201.325 104.029 201.325 103.942C201.325 103.854 209.326 103.782 219.277 103.782C229.228 103.782 237.222 103.847 237.222 103.942Z" fill="#263238"/>
    <path d="M237.222 108.534C237.222 108.629 229.221 108.702 219.277 108.702C209.333 108.702 201.325 108.622 201.325 108.534C201.325 108.447 209.326 108.374 219.277 108.374C229.228 108.374 237.222 108.425 237.222 108.534Z" fill="#263238"/>
    <path d="M237.222 113.134C237.222 113.229 229.221 113.294 219.277 113.294C209.333 113.294 201.325 113.221 201.325 113.134C201.325 113.046 209.326 112.966 219.277 112.966C229.228 112.966 237.222 113.039 237.222 113.134Z" fill="#263238"/>
    <path d="M201.106 93.183C201.106 93.3791 201.048 93.5708 200.94 93.7338C200.831 93.8968 200.677 94.0239 200.496 94.0989C200.315 94.174 200.116 94.1936 199.924 94.1554C199.732 94.1171 199.556 94.0226 199.418 93.884C199.279 93.7454 199.185 93.5688 199.147 93.3764C199.109 93.1841 199.128 92.9848 199.203 92.8037C199.278 92.6225 199.405 92.4677 199.568 92.3588C199.73 92.2498 199.922 92.1917 200.117 92.1917C200.38 92.1917 200.631 92.2961 200.817 92.482C201.002 92.668 201.106 92.9201 201.106 93.183Z" fill="#068BF7"/>
    <path d="M220.725 144.144C220.69 144.373 220.574 144.582 220.399 144.734C220.223 144.885 220 144.968 219.768 144.968C219.537 144.968 219.313 144.885 219.137 144.734C218.962 144.582 218.846 144.373 218.812 144.144C218.846 143.914 218.962 143.705 219.137 143.554C219.313 143.403 219.537 143.319 219.768 143.319C220 143.319 220.223 143.403 220.399 143.554C220.574 143.705 220.69 143.914 220.725 144.144Z" fill="#068BF7"/>
    <path d="M220.725 166.471C220.71 166.709 220.601 166.932 220.422 167.091C220.244 167.249 220.01 167.33 219.772 167.316C219.533 167.33 219.298 167.25 219.118 167.091C218.939 166.933 218.828 166.71 218.812 166.471C218.846 166.242 218.962 166.032 219.137 165.881C219.313 165.73 219.537 165.647 219.768 165.647C220 165.647 220.223 165.73 220.399 165.881C220.574 166.032 220.69 166.242 220.725 166.471Z" fill="#068BF7"/>
    <path d="M219.772 166.471C219.685 166.471 219.612 161.478 219.612 155.311C219.612 149.144 219.685 144.143 219.772 144.143C219.86 144.143 219.94 149.144 219.94 155.311C219.94 161.478 219.867 166.471 219.772 166.471Z" fill="#068BF7"/>
    <path d="M141.954 90.6024C141.943 90.547 141.943 90.4901 141.954 90.4348C141.954 90.3036 141.954 90.1359 141.954 89.9318C141.954 89.4726 141.954 88.8311 141.954 88.0001C141.954 86.3016 141.954 83.8597 141.91 80.8054C141.91 74.6531 141.91 66.0515 141.859 56.1524L142.012 56.3055H131.101L99.0946 56.2545L89.391 56.2035H86.7578H86.0667C85.9895 56.2144 85.9112 56.2144 85.834 56.2035H86.0667H86.7578L89.391 56.167L99.0946 56.1233L131.101 56.0723H142.092V56.2327C142.092 66.1244 142.048 74.7333 142.041 80.8856C142.041 83.9398 142.041 86.3818 141.997 88.0875C141.997 88.9112 141.997 89.5454 141.997 90.012C141.997 90.2234 141.997 90.3837 141.997 90.5149C141.985 90.545 141.97 90.5743 141.954 90.6024Z" fill="#068BF7"/>
    <path d="M142.943 90.6027C142.943 90.7988 142.885 90.9905 142.776 91.1535C142.667 91.3165 142.513 91.4436 142.332 91.5186C142.151 91.5936 141.953 91.6133 141.761 91.575C141.569 91.5368 141.393 91.4424 141.254 91.3037C141.116 91.1651 141.022 90.9884 140.983 90.7961C140.945 90.6038 140.965 90.4045 141.04 90.2233C141.115 90.0422 141.241 89.8874 141.404 89.7784C141.567 89.6695 141.758 89.6114 141.954 89.6114C142.084 89.6104 142.213 89.6354 142.333 89.6849C142.454 89.7343 142.563 89.8073 142.655 89.8996C142.747 89.9918 142.82 90.1015 142.87 90.2222C142.919 90.3429 142.944 90.4723 142.943 90.6027Z" fill="#068BF7"/>
    <path d="M86.7579 56.1597C86.7579 56.356 86.6996 56.548 86.5906 56.7112C86.4816 56.8743 86.3266 57.0014 86.1455 57.0763C85.9643 57.1511 85.765 57.1703 85.5729 57.1314C85.3808 57.0926 85.2045 56.9974 85.0665 56.858C84.9284 56.7187 84.8348 56.5413 84.7974 56.3486C84.7601 56.1558 84.7807 55.9562 84.8567 55.7752C84.9327 55.5942 85.0607 55.4399 85.2243 55.3318C85.388 55.2238 85.5799 55.1669 85.7758 55.1683C86.0369 55.1702 86.2867 55.2755 86.4706 55.4612C86.6546 55.6469 86.7579 55.898 86.7579 56.1597Z" fill="#068BF7"/>
</svg>
