<svg width="300" height="200" viewBox="0 0 300 200" fill="none" xmlns="http://www.w3.org/2000/svg">
<path d="M184.215 163.595H257.724C259.128 163.595 260.475 163.037 261.469 162.044C262.462 161.05 263.02 159.703 263.02 158.299V22.2961C263.02 20.8915 262.462 19.5444 261.469 18.5512C260.475 17.558 259.128 17 257.724 17H45.0343C43.6297 17 42.2827 17.558 41.2895 18.5512C40.2963 19.5444 39.7383 20.8915 39.7383 22.2961V158.299C39.7383 159.703 40.2963 161.05 41.2895 162.044C42.2827 163.037 43.6297 163.595 45.0343 163.595H118.544" stroke="black" stroke-width="1.23768" stroke-linecap="round" stroke-linejoin="round"/>
<path d="M257.936 22.9316H44.3994V147.918H257.936V22.9316Z" stroke="black" stroke-width="1.23768" stroke-linecap="round" stroke-linejoin="round"/>
<path d="M184.215 163.596H118.544V178.403H184.215V163.596Z" stroke="black" stroke-width="1.23768" stroke-linecap="round" stroke-linejoin="round"/>
<path d="M184.214 178.402H195.653V184.054H107.104V178.402H118.543" stroke="black" stroke-width="1.23768" stroke-linecap="round" stroke-linejoin="round"/>
<path d="M76.3317 62.5464H59.7021V40.375H72.7686L76.3317 43.8577V62.5464Z" fill="white" stroke="#263238" stroke-width="1.23768" stroke-linecap="round" stroke-linejoin="round"/>
<path d="M73.2178 43.4941V44.4008L76.3318 43.8627L73.2178 43.4941Z" fill="#263238" stroke="#263238" stroke-width="1.23768" stroke-linecap="round" stroke-linejoin="round"/>
<path d="M72.7695 40.375V43.8619H76.3327L72.7695 40.375Z" fill="white" stroke="#263238" stroke-width="1.23768" stroke-linecap="round" stroke-linejoin="round"/>
<path d="M61.8164 45.1934H74.6159" stroke="#263238" stroke-width="1.23768" stroke-linecap="round" stroke-linejoin="round"/>
<path d="M61.8164 48.3613H74.6159" stroke="#263238" stroke-width="1.23768" stroke-linecap="round" stroke-linejoin="round"/>
<path d="M61.8164 51.5254H74.6159" stroke="#263238" stroke-width="1.23768" stroke-linecap="round" stroke-linejoin="round"/>
<path d="M61.8164 54.6953H74.6159" stroke="#263238" stroke-width="1.23768" stroke-linecap="round" stroke-linejoin="round"/>
<path d="M61.8164 57.8594H74.6159" stroke="#263238" stroke-width="1.23768" stroke-linecap="round" stroke-linejoin="round"/>
<path d="M29.3711 89.3398H35.3281" stroke="#263238" stroke-width="1.23768" stroke-linecap="round" stroke-linejoin="round"/>
<path d="M22.7871 89.3398H28.295" stroke="#263238" stroke-width="1.23768" stroke-linecap="round" stroke-linejoin="round"/>
<path d="M33.0234 91.2207H35.3283" stroke="#263238" stroke-width="1.23768" stroke-linecap="round" stroke-linejoin="round"/>
<path d="M22.7871 91.2207H31.9472" stroke="#263238" stroke-width="1.23768" stroke-linecap="round" stroke-linejoin="round"/>
<path d="M34.4219 93.1016H35.3286" stroke="#263238" stroke-width="1.23768" stroke-linecap="round" stroke-linejoin="round"/>
<path d="M29.4775 93.1016H32.9179" stroke="#263238" stroke-width="1.23768" stroke-linecap="round" stroke-linejoin="round"/>
<path d="M22.7871 93.1016H28.5111" stroke="#263238" stroke-width="1.23768" stroke-linecap="round" stroke-linejoin="round"/>
<path d="M22.7871 94.9824H35.3282" stroke="#263238" stroke-width="1.23768" stroke-linecap="round" stroke-linejoin="round"/>
<path d="M33.2393 96.8652H35.328" stroke="#263238" stroke-width="1.23768" stroke-linecap="round" stroke-linejoin="round"/>
<path d="M26.041 96.8652H31.0913" stroke="#263238" stroke-width="1.23768" stroke-linecap="round" stroke-linejoin="round"/>
<path d="M22.7871 96.8652H24.5369" stroke="#263238" stroke-width="1.23768" stroke-linecap="round" stroke-linejoin="round"/>
<path d="M28.5117 98.7461H35.3288" stroke="#263238" stroke-width="1.23768" stroke-linecap="round" stroke-linejoin="round"/>
<path d="M22.7871 98.7461H27.329" stroke="#263238" stroke-width="1.23768" stroke-linecap="round" stroke-linejoin="round"/>
<path d="M31.9473 100.627H35.3283" stroke="#263238" stroke-width="1.23768" stroke-linecap="round" stroke-linejoin="round"/>
<path d="M28.6162 100.627H30.9804" stroke="#263238" stroke-width="1.23768" stroke-linecap="round" stroke-linejoin="round"/>
<path d="M22.7871 100.627H27.329" stroke="#263238" stroke-width="1.23768" stroke-linecap="round" stroke-linejoin="round"/>
<path d="M67.5574 114.626H53.8428V96.3398H64.6171L67.5574 99.2082V114.626Z" fill="#068BF7" stroke="#263238" stroke-width="1.23768" stroke-linecap="round" stroke-linejoin="round"/>
<path d="M64.9854 98.9102V99.6558L67.5571 99.211L64.9854 98.9102Z" fill="#263238" stroke="#263238" stroke-width="1.23768" stroke-linecap="round" stroke-linejoin="round"/>
<path d="M64.6172 96.3398V99.2124H67.5576L64.6172 96.3398Z" fill="white" stroke="#263238" stroke-width="1.23768" stroke-linecap="round" stroke-linejoin="round"/>
<path d="M55.585 100.309H66.1432" stroke="#263238" stroke-width="1.23768" stroke-linecap="round" stroke-linejoin="round"/>
<path d="M55.585 102.924H66.1432" stroke="#263238" stroke-width="1.23768" stroke-linecap="round" stroke-linejoin="round"/>
<path d="M55.585 105.537H66.1432" stroke="#263238" stroke-width="1.23768" stroke-linecap="round" stroke-linejoin="round"/>
<path d="M55.585 108.148H66.1432" stroke="#263238" stroke-width="1.23768" stroke-linecap="round" stroke-linejoin="round"/>
<path d="M55.585 110.762H66.1432" stroke="#263238" stroke-width="1.23768" stroke-linecap="round" stroke-linejoin="round"/>
<path d="M53.1403 64.5972H36.5107V42.4258H49.5772L53.1403 45.9042V64.5972Z" fill="#068BF7" stroke="#263238" stroke-width="1.23768" stroke-linecap="round" stroke-linejoin="round"/>
<path d="M50.0205 45.543V46.4497L53.1388 45.9073L50.0205 45.543Z" fill="#263238" stroke="#263238" stroke-width="1.23768" stroke-linecap="round" stroke-linejoin="round"/>
<path d="M49.5762 42.4258V45.9085H53.1394L49.5762 42.4258Z" fill="white" stroke="#263238" stroke-width="1.23768" stroke-linecap="round" stroke-linejoin="round"/>
<path d="M38.6211 47.2422H51.4248" stroke="#263238" stroke-width="1.23768" stroke-linecap="round" stroke-linejoin="round"/>
<path d="M38.6211 50.4062H51.4248" stroke="#263238" stroke-width="1.23768" stroke-linecap="round" stroke-linejoin="round"/>
<path d="M38.6211 53.5762H51.4248" stroke="#263238" stroke-width="1.23768" stroke-linecap="round" stroke-linejoin="round"/>
<path d="M38.6211 56.7461H51.4248" stroke="#263238" stroke-width="1.23768" stroke-linecap="round" stroke-linejoin="round"/>
<path d="M38.6211 59.9121H51.4248" stroke="#263238" stroke-width="1.23768" stroke-linecap="round" stroke-linejoin="round"/>
<path d="M88.7546 74.7381H72.125V52.5625H85.1914L88.7546 56.0452V74.7381Z" fill="#068BF7" stroke="#263238" stroke-width="1.23768" stroke-linecap="round" stroke-linejoin="round"/>
<path d="M85.6406 55.6816V56.5926L88.7547 56.0502L85.6406 55.6816Z" fill="#263238" stroke="#263238" stroke-width="1.23768" stroke-linecap="round" stroke-linejoin="round"/>
<path d="M85.1914 52.5625V56.0494H88.7546L85.1914 52.5625Z" fill="white" stroke="#263238" stroke-width="1.23768" stroke-linecap="round" stroke-linejoin="round"/>
<path d="M74.2393 57.3867H87.0388" stroke="#263238" stroke-width="1.23768" stroke-linecap="round" stroke-linejoin="round"/>
<path d="M74.2393 60.5508H87.0388" stroke="#263238" stroke-width="1.23768" stroke-linecap="round" stroke-linejoin="round"/>
<path d="M74.2393 63.7188H87.0388" stroke="#263238" stroke-width="1.23768" stroke-linecap="round" stroke-linejoin="round"/>
<path d="M74.2393 66.8867H87.0388" stroke="#263238" stroke-width="1.23768" stroke-linecap="round" stroke-linejoin="round"/>
<path d="M74.2393 70.0547H87.0388" stroke="#263238" stroke-width="1.23768" stroke-linecap="round" stroke-linejoin="round"/>
<path d="M111.066 99.3143H94.4365V77.1387H107.503L111.066 80.6214V99.3143Z" fill="white" stroke="#263238" stroke-width="1.23768" stroke-linecap="round" stroke-linejoin="round"/>
<path d="M107.948 80.2559V81.1668L111.067 80.6245L107.948 80.2559Z" fill="#263238" stroke="#263238" stroke-width="1.23768" stroke-linecap="round" stroke-linejoin="round"/>
<path d="M107.503 77.1387V80.6256H111.066L107.503 77.1387Z" fill="white" stroke="#263238" stroke-width="1.23768" stroke-linecap="round" stroke-linejoin="round"/>
<path d="M96.5469 81.9609H109.351" stroke="#263238" stroke-width="1.23768" stroke-linecap="round" stroke-linejoin="round"/>
<path d="M96.5469 85.125H109.351" stroke="#263238" stroke-width="1.23768" stroke-linecap="round" stroke-linejoin="round"/>
<path d="M96.5469 88.2949H109.351" stroke="#263238" stroke-width="1.23768" stroke-linecap="round" stroke-linejoin="round"/>
<path d="M96.5469 91.459H109.351" stroke="#263238" stroke-width="1.23768" stroke-linecap="round" stroke-linejoin="round"/>
<path d="M96.5469 94.627H109.351" stroke="#263238" stroke-width="1.23768" stroke-linecap="round" stroke-linejoin="round"/>
<path d="M64.6597 58.877H46.3608C44.3461 58.877 42.7129 60.5102 42.7129 62.5249V84.2768C42.7129 86.2915 44.3461 87.9247 46.3608 87.9247H64.6597C66.6744 87.9247 68.3076 86.2915 68.3076 84.2768V62.5249C68.3076 60.5102 66.6744 58.877 64.6597 58.877Z" fill="white" stroke="#263238" stroke-width="1.23768" stroke-linecap="round" stroke-linejoin="round"/>
<path d="M65.4612 58.877H45.548C44.794 58.877 44.0709 59.1765 43.5378 59.7096C43.0046 60.2428 42.7051 60.9659 42.7051 61.7199V62.3342H68.2956V61.7241C68.2967 60.9709 67.9989 60.2479 67.4674 59.7141C66.936 59.1803 66.2144 58.8792 65.4612 58.877Z" fill="#263238" stroke="#263238" stroke-width="1.23768" stroke-linecap="round" stroke-linejoin="round"/>
<path d="M46.3643 67.4102H64.6462" stroke="#263238" stroke-width="1.23768" stroke-linecap="round" stroke-linejoin="round"/>
<path d="M46.3643 71.875H64.6462" stroke="#263238" stroke-width="1.23768" stroke-linecap="round" stroke-linejoin="round"/>
<path d="M46.3643 76.3457H64.6462" stroke="#263238" stroke-width="1.23768" stroke-linecap="round" stroke-linejoin="round"/>
<path d="M46.3643 80.8145H64.6462" stroke="#263238" stroke-width="1.23768" stroke-linecap="round" stroke-linejoin="round"/>
<path d="M61.7705 60.5029C61.7705 60.342 61.7228 60.1848 61.6334 60.051C61.544 59.9172 61.417 59.8129 61.2683 59.7514C61.1197 59.6898 60.9561 59.6737 60.7983 59.7051C60.6405 59.7365 60.4956 59.8139 60.3818 59.9277C60.268 60.0415 60.1906 60.1864 60.1592 60.3442C60.1278 60.502 60.1439 60.6656 60.2055 60.8142C60.267 60.9629 60.3713 61.0899 60.5051 61.1793C60.6389 61.2687 60.7961 61.3164 60.957 61.3164C61.1728 61.3164 61.3797 61.2307 61.5322 61.0781C61.6848 60.9256 61.7705 60.7187 61.7705 60.5029Z" fill="white"/>
<path d="M64.4648 60.5029C64.4648 60.342 64.4171 60.1848 64.3277 60.051C64.2384 59.9172 64.1113 59.8129 63.9627 59.7514C63.814 59.6898 63.6505 59.6737 63.4927 59.7051C63.3349 59.7365 63.1899 59.8139 63.0762 59.9277C62.9624 60.0415 62.8849 60.1864 62.8535 60.3442C62.8221 60.502 62.8382 60.6656 62.8998 60.8142C62.9614 60.9629 63.0657 61.0899 63.1994 61.1793C63.3332 61.2687 63.4905 61.3164 63.6514 61.3164C63.8671 61.3164 64.074 61.2307 64.2266 61.0781C64.3791 60.9256 64.4648 60.7187 64.4648 60.5029Z" fill="white"/>
<path d="M67.1387 60.5029C67.1387 60.3418 67.0908 60.1844 67.0013 60.0505C66.9117 59.9167 66.7844 59.8124 66.6355 59.751C66.4866 59.6895 66.3228 59.6737 66.1649 59.7054C66.007 59.7371 65.8621 59.815 65.7485 59.9292C65.6349 60.0434 65.5577 60.1888 65.5268 60.3468C65.4959 60.5049 65.5126 60.6686 65.5749 60.8172C65.6371 60.9657 65.742 61.0925 65.8763 61.1814C66.0107 61.2702 66.1684 61.3172 66.3294 61.3164C66.4361 61.3164 66.5416 61.2953 66.6401 61.2544C66.7386 61.2135 66.828 61.1535 66.9032 61.0779C66.9784 61.0023 67.0379 60.9126 67.0783 60.8139C67.1187 60.7152 67.1392 60.6095 67.1387 60.5029Z" fill="white"/>
<path d="M47.1188 82.6641H36.6665C34.6518 82.6641 33.0186 84.2973 33.0186 86.312V99.1581C33.0186 101.173 34.6518 102.806 36.6665 102.806H47.1188C49.1335 102.806 50.7667 101.173 50.7667 99.1581V86.312C50.7667 84.2973 49.1335 82.6641 47.1188 82.6641Z" fill="white" stroke="#263238" stroke-width="1.23768" stroke-linecap="round" stroke-linejoin="round"/>
<path d="M48.7923 82.6719H34.9887C34.4662 82.6719 33.9651 82.8794 33.5956 83.2489C33.2261 83.6184 33.0186 84.1195 33.0186 84.642V85.0657H50.754V84.642C50.754 84.121 50.5476 83.6211 50.1799 83.2519C49.8123 82.8827 49.3134 82.6741 48.7923 82.6719Z" fill="#263238" stroke="#263238" stroke-width="1.23768" stroke-linecap="round" stroke-linejoin="round"/>
<path d="M35.5527 88.5762H48.2294" stroke="#263238" stroke-width="1.23768" stroke-linecap="round" stroke-linejoin="round"/>
<path d="M35.5527 91.6738H48.2294" stroke="#263238" stroke-width="1.23768" stroke-linecap="round" stroke-linejoin="round"/>
<path d="M35.5527 94.7754H48.2294" stroke="#263238" stroke-width="1.23768" stroke-linecap="round" stroke-linejoin="round"/>
<path d="M35.5527 97.875H48.2294" stroke="#263238" stroke-width="1.23768" stroke-linecap="round" stroke-linejoin="round"/>
<path d="M45.6836 84.3497C45.9948 84.3497 46.2471 84.0974 46.2471 83.7862C46.2471 83.4749 45.9948 83.2227 45.6836 83.2227C45.3724 83.2227 45.1201 83.4749 45.1201 83.7862C45.1201 84.0974 45.3724 84.3497 45.6836 84.3497Z" fill="white"/>
<path d="M47.5381 84.3497C47.8493 84.3497 48.1016 84.0974 48.1016 83.7862C48.1016 83.4749 47.8493 83.2227 47.5381 83.2227C47.2269 83.2227 46.9746 83.4749 46.9746 83.7862C46.9746 84.0974 47.2269 84.3497 47.5381 84.3497Z" fill="white"/>
<path d="M49.9571 83.7862C49.9571 83.6747 49.924 83.5658 49.8621 83.4731C49.8002 83.3804 49.7122 83.3082 49.6092 83.2656C49.5063 83.2229 49.393 83.2117 49.2836 83.2335C49.1743 83.2552 49.0739 83.3089 48.9951 83.3877C48.9163 83.4665 48.8626 83.5669 48.8409 83.6762C48.8192 83.7855 48.8303 83.8988 48.873 84.0018C48.9156 84.1048 48.9878 84.1928 49.0805 84.2547C49.1732 84.3166 49.2821 84.3497 49.3936 84.3497C49.4676 84.3497 49.5409 84.3351 49.6092 84.3068C49.6776 84.2784 49.7397 84.2369 49.792 84.1846C49.8444 84.1323 49.8859 84.0702 49.9142 84.0018C49.9425 83.9334 49.9571 83.8602 49.9571 83.7862Z" fill="white"/>
<path d="M41.7988 108.867H47.7558" stroke="#263238" stroke-width="1.23768" stroke-linecap="round" stroke-linejoin="round"/>
<path d="M35.21 108.867H40.7221" stroke="#263238" stroke-width="1.23768" stroke-linecap="round" stroke-linejoin="round"/>
<path d="M45.4502 110.748H47.755" stroke="#263238" stroke-width="1.23768" stroke-linecap="round" stroke-linejoin="round"/>
<path d="M35.21 110.748H44.3742" stroke="#263238" stroke-width="1.23768" stroke-linecap="round" stroke-linejoin="round"/>
<path d="M46.8438 112.629H47.7547" stroke="#263238" stroke-width="1.23768" stroke-linecap="round" stroke-linejoin="round"/>
<path d="M41.9033 112.629H45.3394" stroke="#263238" stroke-width="1.23768" stroke-linecap="round" stroke-linejoin="round"/>
<path d="M35.21 112.629H40.9382" stroke="#263238" stroke-width="1.23768" stroke-linecap="round" stroke-linejoin="round"/>
<path d="M35.21 114.51H47.7552" stroke="#263238" stroke-width="1.23768" stroke-linecap="round" stroke-linejoin="round"/>
<path d="M45.666 116.393H47.7548" stroke="#263238" stroke-width="1.23768" stroke-linecap="round" stroke-linejoin="round"/>
<path d="M38.4668 116.393H43.5129" stroke="#263238" stroke-width="1.23768" stroke-linecap="round" stroke-linejoin="round"/>
<path d="M35.21 116.393H36.964" stroke="#263238" stroke-width="1.23768" stroke-linecap="round" stroke-linejoin="round"/>
<path d="M40.9375 118.273H47.7546" stroke="#263238" stroke-width="1.23768" stroke-linecap="round" stroke-linejoin="round"/>
<path d="M35.21 118.273H39.7561" stroke="#263238" stroke-width="1.23768" stroke-linecap="round" stroke-linejoin="round"/>
<path d="M44.374 120.154H47.755" stroke="#263238" stroke-width="1.23768" stroke-linecap="round" stroke-linejoin="round"/>
<path d="M41.0439 120.154H43.4081" stroke="#263238" stroke-width="1.23768" stroke-linecap="round" stroke-linejoin="round"/>
<path d="M35.21 120.154H39.7561" stroke="#263238" stroke-width="1.23768" stroke-linecap="round" stroke-linejoin="round"/>
<path d="M83.9072 106.338H89.8685" stroke="#263238" stroke-width="1.23768" stroke-linecap="round" stroke-linejoin="round"/>
<path d="M77.3232 106.338H82.8354" stroke="#263238" stroke-width="1.23768" stroke-linecap="round" stroke-linejoin="round"/>
<path d="M87.5596 108.223H89.8687" stroke="#263238" stroke-width="1.23768" stroke-linecap="round" stroke-linejoin="round"/>
<path d="M77.3232 108.223H86.4875" stroke="#263238" stroke-width="1.23768" stroke-linecap="round" stroke-linejoin="round"/>
<path d="M88.958 110.105H89.8689" stroke="#263238" stroke-width="1.23768" stroke-linecap="round" stroke-linejoin="round"/>
<path d="M84.0176 110.105H87.4537" stroke="#263238" stroke-width="1.23768" stroke-linecap="round" stroke-linejoin="round"/>
<path d="M77.3232 110.105H83.0514" stroke="#263238" stroke-width="1.23768" stroke-linecap="round" stroke-linejoin="round"/>
<path d="M77.3232 111.986H89.8685" stroke="#263238" stroke-width="1.23768" stroke-linecap="round" stroke-linejoin="round"/>
<path d="M87.7764 113.867H89.8694" stroke="#263238" stroke-width="1.23768" stroke-linecap="round" stroke-linejoin="round"/>
<path d="M80.5771 113.867H85.6275" stroke="#263238" stroke-width="1.23768" stroke-linecap="round" stroke-linejoin="round"/>
<path d="M77.3232 113.867H79.0731" stroke="#263238" stroke-width="1.23768" stroke-linecap="round" stroke-linejoin="round"/>
<path d="M83.0518 115.748H89.8688" stroke="#263238" stroke-width="1.23768" stroke-linecap="round" stroke-linejoin="round"/>
<path d="M77.3232 115.748H81.8694" stroke="#263238" stroke-width="1.23768" stroke-linecap="round" stroke-linejoin="round"/>
<path d="M86.4883 117.629H89.8693" stroke="#263238" stroke-width="1.23768" stroke-linecap="round" stroke-linejoin="round"/>
<path d="M83.1582 117.629H85.5224" stroke="#263238" stroke-width="1.23768" stroke-linecap="round" stroke-linejoin="round"/>
<path d="M77.3232 117.629H81.8694" stroke="#263238" stroke-width="1.23768" stroke-linecap="round" stroke-linejoin="round"/>
<path d="M97.8467 63.6641H103.804" stroke="#263238" stroke-width="1.23768" stroke-linecap="round" stroke-linejoin="round"/>
<path d="M91.2588 63.6641H96.7709" stroke="#263238" stroke-width="1.23768" stroke-linecap="round" stroke-linejoin="round"/>
<path d="M101.5 65.5469H103.805" stroke="#263238" stroke-width="1.23768" stroke-linecap="round" stroke-linejoin="round"/>
<path d="M91.2588 65.5469H100.423" stroke="#263238" stroke-width="1.23768" stroke-linecap="round" stroke-linejoin="round"/>
<path d="M102.894 67.4277H103.804" stroke="#263238" stroke-width="1.23768" stroke-linecap="round" stroke-linejoin="round"/>
<path d="M97.9531 67.4277H101.389" stroke="#263238" stroke-width="1.23768" stroke-linecap="round" stroke-linejoin="round"/>
<path d="M91.2588 67.4277H96.987" stroke="#263238" stroke-width="1.23768" stroke-linecap="round" stroke-linejoin="round"/>
<path d="M91.2588 69.3086H103.804" stroke="#263238" stroke-width="1.23768" stroke-linecap="round" stroke-linejoin="round"/>
<path d="M101.715 71.1895H103.804" stroke="#263238" stroke-width="1.23768" stroke-linecap="round" stroke-linejoin="round"/>
<path d="M94.5166 71.1895H99.5627" stroke="#263238" stroke-width="1.23768" stroke-linecap="round" stroke-linejoin="round"/>
<path d="M91.2588 71.1895H93.0128" stroke="#263238" stroke-width="1.23768" stroke-linecap="round" stroke-linejoin="round"/>
<path d="M96.9863 73.0703H103.803" stroke="#263238" stroke-width="1.23768" stroke-linecap="round" stroke-linejoin="round"/>
<path d="M91.2588 73.0703H95.8049" stroke="#263238" stroke-width="1.23768" stroke-linecap="round" stroke-linejoin="round"/>
<path d="M100.423 74.9531H103.804" stroke="#263238" stroke-width="1.23768" stroke-linecap="round" stroke-linejoin="round"/>
<path d="M97.0928 74.9531H99.4569" stroke="#263238" stroke-width="1.23768" stroke-linecap="round" stroke-linejoin="round"/>
<path d="M91.2588 74.9531H95.8049" stroke="#263238" stroke-width="1.23768" stroke-linecap="round" stroke-linejoin="round"/>
<path d="M32.4893 67.9141H38.4463" stroke="#263238" stroke-width="1.23768" stroke-linecap="round" stroke-linejoin="round"/>
<path d="M25.9004 67.9141H31.4125" stroke="#263238" stroke-width="1.23768" stroke-linecap="round" stroke-linejoin="round"/>
<path d="M36.1416 69.7969H38.4464" stroke="#263238" stroke-width="1.23768" stroke-linecap="round" stroke-linejoin="round"/>
<path d="M25.9004 69.7969H35.0647" stroke="#263238" stroke-width="1.23768" stroke-linecap="round" stroke-linejoin="round"/>
<path d="M37.54 71.6777H38.4467" stroke="#263238" stroke-width="1.23768" stroke-linecap="round" stroke-linejoin="round"/>
<path d="M32.5957 71.6777H36.036" stroke="#263238" stroke-width="1.23768" stroke-linecap="round" stroke-linejoin="round"/>
<path d="M25.9004 71.6777H31.6286" stroke="#263238" stroke-width="1.23768" stroke-linecap="round" stroke-linejoin="round"/>
<path d="M25.9004 73.5586H38.4457" stroke="#263238" stroke-width="1.23768" stroke-linecap="round" stroke-linejoin="round"/>
<path d="M36.3584 75.4395H38.4472" stroke="#263238" stroke-width="1.23768" stroke-linecap="round" stroke-linejoin="round"/>
<path d="M29.1592 75.4395H34.2095" stroke="#263238" stroke-width="1.23768" stroke-linecap="round" stroke-linejoin="round"/>
<path d="M25.9004 75.4395H27.6544" stroke="#263238" stroke-width="1.23768" stroke-linecap="round" stroke-linejoin="round"/>
<path d="M31.6299 77.3184H38.447" stroke="#263238" stroke-width="1.23768" stroke-linecap="round" stroke-linejoin="round"/>
<path d="M25.9004 77.3184H30.4465" stroke="#263238" stroke-width="1.23768" stroke-linecap="round" stroke-linejoin="round"/>
<path d="M35.0664 79.2031H38.4474" stroke="#263238" stroke-width="1.23768" stroke-linecap="round" stroke-linejoin="round"/>
<path d="M31.7354 79.2031H34.0995" stroke="#263238" stroke-width="1.23768" stroke-linecap="round" stroke-linejoin="round"/>
<path d="M25.9004 79.2031H30.4465" stroke="#263238" stroke-width="1.23768" stroke-linecap="round" stroke-linejoin="round"/>
<path d="M69.7441 82.8183V101.511H86.3737V79.3398H73.3116L69.7441 82.8183Z" fill="white" stroke="#263238" stroke-width="1.23768" stroke-linecap="round" stroke-linejoin="round"/>
<path d="M72.8624 82.459V83.3657L69.7441 82.8276L72.8624 82.459Z" fill="#263238" stroke="#263238" stroke-width="1.23768" stroke-linecap="round" stroke-linejoin="round"/>
<path d="M73.3073 79.3398V82.8268H69.7441L73.3073 79.3398Z" fill="white" stroke="#263238" stroke-width="1.23768" stroke-linecap="round" stroke-linejoin="round"/>
<path d="M84.2637 84.1582H71.46" stroke="#263238" stroke-width="1.23768" stroke-linecap="round" stroke-linejoin="round"/>
<path d="M84.2637 87.3223H71.46" stroke="#263238" stroke-width="1.23768" stroke-linecap="round" stroke-linejoin="round"/>
<path d="M84.2637 90.4922H71.46" stroke="#263238" stroke-width="1.23768" stroke-linecap="round" stroke-linejoin="round"/>
<path d="M84.2637 93.6602H71.46" stroke="#263238" stroke-width="1.23768" stroke-linecap="round" stroke-linejoin="round"/>
<path d="M86.3737 96.3398H69.7441V101.517H86.3737V96.3398Z" fill="#263238" stroke="#263238" stroke-width="1.23768" stroke-linecap="round" stroke-linejoin="round"/>
<path d="M88.9409 84.2734H77.4336V89.8152H88.9409V84.2734Z" fill="#263238" stroke="#263238" stroke-width="1.23768" stroke-linecap="round" stroke-linejoin="round"/>
<path d="M82.1575 85.0566C82.7464 85.0566 83.0049 85.4041 83.0049 85.9676V86.4167C83.0236 86.5345 83.0151 86.655 82.9799 86.769C82.9448 86.883 82.8839 86.9874 82.8021 87.0741C82.7202 87.1609 82.6195 87.2277 82.5078 87.2694C82.396 87.3112 82.2762 87.3267 82.1575 87.3149H81.7889V88.7893H81.3652V85.0566H82.1575ZM82.1279 86.942C82.4372 86.942 82.5854 86.798 82.5854 86.4421V85.9464C82.5854 85.6074 82.4626 85.4337 82.1618 85.4337H81.7635V86.942H82.1279Z" fill="white"/>
<path d="M84.2257 85.0566C84.8061 85.0566 85.073 85.4083 85.073 85.9845V87.8657C85.073 88.4376 84.8061 88.7893 84.2257 88.7893H83.3359V85.0566H84.2257ZM84.2257 88.408C84.5223 88.408 84.6494 88.2216 84.6494 87.8826V85.9633C84.6494 85.6201 84.5053 85.4337 84.2045 85.4337H83.7554V88.3995L84.2257 88.408Z" fill="white"/>
<path d="M86.7173 86.7937V87.1708H85.87V88.7893H85.4463V85.0566H86.9292V85.4337H85.8615V86.7937H86.7173Z" fill="white"/>
<path opacity="0.2" d="M285.509 100.125L282.577 100.053L282.535 101.722C281.813 101.798 281.103 101.954 280.416 102.188L279.59 100.676L277.001 102.082L277.798 103.544C277.208 103.977 276.666 104.473 276.184 105.023L274.713 104.12L273.188 106.624L274.607 107.471C274.312 108.141 274.092 108.842 273.951 109.56L272.226 109.514L272.154 112.45L273.824 112.492C273.899 113.213 274.055 113.924 274.29 114.611L272.764 115.471L274.167 118.051L275.633 117.254C276.063 117.844 276.558 118.384 277.107 118.864L276.209 120.339L278.713 121.868L279.581 120.449C280.25 120.744 280.949 120.964 281.666 121.106L281.624 122.83L284.56 122.902L284.628 121.224C285.349 121.149 286.06 120.992 286.746 120.758L287.568 122.271L290.148 120.868L289.347 119.402C289.938 118.972 290.48 118.478 290.962 117.928L292.432 118.826L293.966 116.322L292.542 115.454C292.839 114.785 293.06 114.084 293.199 113.365L294.923 113.411L294.999 110.475L293.33 110.433C293.252 109.712 293.096 109.002 292.864 108.315L294.372 107.493L292.97 104.912L291.504 105.713C291.076 105.12 290.581 104.579 290.03 104.099L290.932 102.624L288.441 101.087L287.572 102.51C286.905 102.211 286.205 101.989 285.488 101.849L285.509 100.125ZM283.39 118.542C281.993 118.508 280.638 118.059 279.495 117.254C278.353 116.449 277.475 115.323 276.972 114.019C276.469 112.714 276.365 111.29 276.671 109.927C276.978 108.563 277.682 107.321 278.695 106.358C279.708 105.394 280.983 104.753 282.36 104.514C283.738 104.276 285.155 104.451 286.432 105.018C287.71 105.584 288.791 106.517 289.538 107.699C290.286 108.88 290.666 110.256 290.631 111.653C290.583 113.527 289.794 115.304 288.436 116.596C287.079 117.888 285.264 118.588 283.39 118.542Z" stroke="black" stroke-width="1.23768" stroke-linecap="round" stroke-linejoin="round"/>
<path opacity="0.2" d="M277.217 78.197L274.285 78.125L274.243 79.7901C273.522 79.8686 272.811 80.0263 272.124 80.2604L271.277 78.7478L268.701 80.1502L269.498 81.6162C268.908 82.0475 268.366 82.5419 267.883 83.0906L266.409 82.1924L264.879 84.6963L266.299 85.5649C266.003 86.2333 265.783 86.9324 265.642 87.6494L263.918 87.607L263.846 90.5432L265.511 90.5813C265.588 91.3097 265.746 92.0273 265.981 92.7209L264.469 93.5429L265.871 96.1189L267.337 95.3223C267.767 95.9133 268.262 96.4547 268.811 96.9366L267.913 98.4068L270.417 99.9405L271.264 98.5169C271.932 98.8142 272.631 99.0345 273.349 99.1736L273.307 100.898L276.243 100.974L276.285 99.305C277.007 99.228 277.717 99.0702 278.403 98.8347L279.225 100.347L281.801 98.9448L281.052 97.5001C281.643 97.0699 282.184 96.5754 282.666 96.0257L284.136 96.9239L285.67 94.4199L284.246 93.5513C284.544 92.8839 284.764 92.1845 284.903 91.4668L286.627 91.5092L286.703 88.5773L285.034 88.5349C284.958 87.8133 284.8 87.1026 284.564 86.4165L286.076 85.5903L284.674 83.0143L283.208 83.8108C282.778 83.2197 282.283 82.6783 281.734 82.1966L282.632 80.7264L280.128 79.1969L279.281 80.6163C278.612 80.3202 277.913 80.1 277.196 79.9596L277.217 78.197ZM275.099 96.6103C273.701 96.5755 272.346 96.127 271.203 95.3216C270.06 94.5162 269.182 93.39 268.68 92.0855C268.178 90.7811 268.073 89.3569 268.38 87.9931C268.687 86.6294 269.392 85.3873 270.405 84.424C271.418 83.4608 272.694 82.8196 274.072 82.5816C275.449 82.3436 276.866 82.5195 278.144 83.087C279.421 83.6545 280.502 84.5881 281.249 85.7697C281.995 86.9514 282.375 88.328 282.339 89.7255C282.292 91.5985 281.502 93.3759 280.144 94.6669C278.787 95.958 276.972 96.657 275.099 96.6103Z" stroke="black" stroke-width="1.23768" stroke-linecap="round" stroke-linejoin="round"/>
<path opacity="0.2" d="M134.406 50.8929V47.9271H132.736C132.642 47.2038 132.467 46.4932 132.215 45.8087L133.706 44.9613L132.236 42.4192L130.792 43.2666C130.346 42.6878 129.839 42.1593 129.279 41.6905L130.126 40.1991L127.584 38.7289L126.737 40.1737C126.055 39.8948 125.345 39.6916 124.618 39.5678V37.8223H121.682V39.4916C120.959 39.5858 120.248 39.7606 119.564 40.0127L118.717 38.5213L116.174 39.9915L117.022 41.4363C116.444 41.8828 115.916 42.3899 115.446 42.9488L113.954 42.1015L112.488 44.6436L113.929 45.4909C113.65 46.1728 113.447 46.8832 113.323 47.6094H111.599V50.5455H113.268C113.362 51.2689 113.537 51.9794 113.789 52.6639L112.298 53.5113L113.768 56.0534L115.213 55.206C115.659 55.7839 116.166 56.3122 116.725 56.7821L115.878 58.2735L118.42 59.7394L119.267 58.2989C119.949 58.5778 120.66 58.781 121.386 58.9048V60.6377H124.322V58.9429C125.045 58.8487 125.756 58.6739 126.44 58.4218L127.288 59.9131L129.83 58.443L128.982 56.9982C129.561 56.5528 130.09 56.0456 130.558 55.4857L132.05 56.333L133.52 53.7909L132.075 52.9435C132.354 52.2617 132.557 51.5513 132.681 50.8251L134.406 50.8929ZM115.941 49.2363C115.941 47.8386 116.356 46.4722 117.132 45.3101C117.909 44.1479 119.013 43.2421 120.304 42.7072C121.595 42.1723 123.016 42.0324 124.387 42.3051C125.758 42.5777 127.017 43.2508 128.006 44.2392C128.994 45.2275 129.667 46.4867 129.94 47.8576C130.212 49.2285 130.072 50.6494 129.538 51.9408C129.003 53.2321 128.097 54.3358 126.935 55.1123C125.773 55.8889 124.406 56.3034 123.008 56.3034C122.079 56.3034 121.159 56.12 120.3 55.7638C119.442 55.4076 118.662 54.8855 118.005 54.2275C117.349 53.5695 116.829 52.7884 116.474 51.929C116.12 51.0696 115.939 50.1489 115.941 49.2194V49.2363Z" stroke="black" stroke-width="1.23768" stroke-linecap="round" stroke-linejoin="round"/>
<path opacity="0.2" d="M156.12 42.0338V39.0977H154.455C154.361 38.3744 154.186 37.6638 153.934 36.9793L155.421 36.1319L153.955 33.5898L152.51 34.4372C152.066 33.8563 151.557 33.3276 150.993 32.8611L151.841 31.3655L149.299 29.8995L148.451 31.3401C147.77 31.0595 147.06 30.8576 146.333 30.7384V28.9844H143.401V30.6537C142.677 30.7467 141.967 30.9215 141.283 31.1748L140.435 29.6835L137.893 31.1494L138.741 32.5942C138.167 33.04 137.646 33.5488 137.186 34.111L135.694 33.2636L134.224 35.8057L135.669 36.6531C135.385 37.3331 135.182 38.0441 135.063 38.7715H133.33V41.7076H134.999C135.095 42.4308 135.269 43.1412 135.521 43.826L134.029 44.6734L135.495 47.2155L136.944 46.3681C137.388 46.9429 137.896 47.466 138.457 47.9273L137.609 49.4187L140.151 50.8888L140.999 49.4441C141.679 49.7275 142.39 49.9308 143.117 50.0499V51.7743H146.053V50.105C146.777 50.0128 147.488 49.838 148.172 49.5839L149.019 51.0753L151.561 49.6093L150.714 48.1646C151.294 47.7188 151.822 47.2101 152.29 46.6478L153.786 47.4951L155.252 44.953L153.811 44.1057C154.092 43.4248 154.293 42.714 154.413 41.9872L156.12 42.0338ZM137.66 40.3772C137.66 38.9795 138.075 37.6132 138.851 36.451C139.628 35.2888 140.731 34.383 142.023 33.8481C143.314 33.3132 144.735 33.1733 146.106 33.446C147.477 33.7187 148.736 34.3917 149.724 35.3801C150.713 36.3684 151.386 37.6277 151.658 38.9985C151.931 40.3694 151.791 41.7903 151.256 43.0817C150.721 44.373 149.816 45.4767 148.653 46.2533C147.491 47.0298 146.125 47.4443 144.727 47.4443C143.799 47.4448 142.88 47.2624 142.022 46.9075C141.164 46.5525 140.385 46.032 139.729 45.3756C139.072 44.7193 138.552 43.94 138.197 43.0823C137.842 42.2247 137.66 41.3055 137.66 40.3772Z" stroke="black" stroke-width="1.23768" stroke-linecap="round" stroke-linejoin="round"/>
<g opacity="0.2">
<path d="M68.6418 135.973C72.7835 135.973 76.141 132.616 76.141 128.474C76.141 124.332 72.7835 120.975 68.6418 120.975C64.5001 120.975 61.1426 124.332 61.1426 128.474C61.1426 132.616 64.5001 135.973 68.6418 135.973Z" stroke="black" stroke-width="1.23768" stroke-linecap="round" stroke-linejoin="round"/>
<path d="M74.2699 129.527C74.8545 126.418 72.808 123.423 69.6989 122.839C66.5898 122.254 63.5954 124.3 63.0108 127.41C62.4261 130.519 64.4726 133.513 67.5817 134.098C70.6908 134.682 73.6852 132.636 74.2699 129.527Z" stroke="black" stroke-width="1.23768" stroke-linecap="round" stroke-linejoin="round"/>
<path d="M79.6232 133.617L75.577 131.422L74.9033 132.663L78.9537 134.854C78.8648 135.018 78.8447 135.212 78.8979 135.391C78.9511 135.571 79.0733 135.722 79.2376 135.811L86.9529 139.989C87.1176 140.078 87.3108 140.098 87.4903 140.045C87.6698 139.991 87.8208 139.869 87.9104 139.705L88.5841 138.464C88.6716 138.298 88.6904 138.105 88.6365 137.926C88.5826 137.746 88.4602 137.596 88.296 137.506L80.5807 133.328C80.4153 133.241 80.222 133.222 80.0428 133.276C79.8636 133.33 79.7128 133.452 79.6232 133.617Z" stroke="black" stroke-width="1.23768" stroke-miterlimit="10"/>
</g>
<path opacity="0.2" d="M194.806 42.4203C194.807 44.0411 194.327 45.6257 193.427 46.9738C192.527 48.3219 191.248 49.3728 189.751 49.9936C188.253 50.6145 186.606 50.7773 185.016 50.4616C183.426 50.1459 181.966 49.3659 180.819 48.2201C179.673 47.0743 178.892 45.6143 178.576 44.0247C178.259 42.4351 178.421 40.7873 179.041 39.2898C179.661 37.7923 180.712 36.5123 182.059 35.6117C183.407 34.7112 184.991 34.2305 186.612 34.2305" stroke="black" stroke-width="1.23768" stroke-linecap="round" stroke-linejoin="round"/>
<path opacity="0.2" d="M194.807 42.4203H186.613V34.2305C188.786 34.2305 190.869 35.0932 192.406 36.629C193.942 38.1647 194.806 40.2478 194.807 42.4203Z" stroke="black" stroke-width="1.23768" stroke-linecap="round" stroke-linejoin="round"/>
<path opacity="0.2" d="M193.959 36.7703L198.196 33.3809H204.127" stroke="black" stroke-width="1.23768" stroke-linecap="round" stroke-linejoin="round"/>
<path opacity="0.2" d="M207.517 33.3809H215.423" stroke="black" stroke-width="1.23768" stroke-linecap="round" stroke-linejoin="round"/>
<path opacity="0.2" d="M207.517 35.9238H215.423" stroke="black" stroke-width="1.23768" stroke-linecap="round" stroke-linejoin="round"/>
<path opacity="0.2" d="M207.517 38.4668H215.423" stroke="black" stroke-width="1.23768" stroke-linecap="round" stroke-linejoin="round"/>
<path opacity="0.2" d="M207.517 41.0078H215.423" stroke="black" stroke-width="1.23768" stroke-linecap="round" stroke-linejoin="round"/>
<g opacity="0.2">
<path d="M103.808 129.745L103.503 128.254H98.1387L98.4437 129.745L98.7191 131.076L100.541 139.973H114.861L112.768 129.745H103.808Z" stroke="black" stroke-width="1.23768" stroke-linecap="round" stroke-linejoin="round"/>
<path d="M114.861 139.975L117.501 130.438H112.988" stroke="black" stroke-width="1.23768" stroke-linecap="round" stroke-linejoin="round"/>
</g>
<g opacity="0.2">
<path d="M123.916 129.745L123.607 128.254H118.247L118.552 129.745L118.828 131.076L120.649 139.973H134.97L132.873 129.745H123.916Z" stroke="black" stroke-width="1.23768" stroke-linecap="round" stroke-linejoin="round"/>
<path d="M134.969 139.975L137.609 130.438H133.097" stroke="black" stroke-width="1.23768" stroke-linecap="round" stroke-linejoin="round"/>
</g>
<path d="M154.329 105.943C154.43 105.942 154.531 105.961 154.625 105.999C154.72 106.037 154.806 106.093 154.878 106.165C154.95 106.236 155.008 106.321 155.048 106.415C155.087 106.508 155.108 106.609 155.108 106.71V111.557C155.094 111.755 155.005 111.939 154.86 112.074C154.715 112.209 154.525 112.283 154.327 112.283C154.129 112.283 153.938 112.209 153.793 112.074C153.648 111.939 153.559 111.755 153.545 111.557V106.71C153.546 106.608 153.567 106.508 153.607 106.414C153.647 106.321 153.705 106.236 153.778 106.164C153.851 106.093 153.937 106.037 154.031 105.999C154.126 105.961 154.227 105.942 154.329 105.943Z" fill="#263238"/>
<path d="M152.439 105.943C152.541 105.942 152.642 105.961 152.736 105.999C152.831 106.037 152.917 106.093 152.99 106.164C153.062 106.236 153.12 106.321 153.16 106.414C153.2 106.508 153.221 106.608 153.223 106.71V111.557C153.208 111.755 153.119 111.939 152.974 112.074C152.829 112.209 152.639 112.283 152.441 112.283C152.243 112.283 152.052 112.209 151.907 112.074C151.762 111.939 151.674 111.755 151.659 111.557V106.71C151.661 106.505 151.745 106.31 151.891 106.166C152.037 106.022 152.234 105.942 152.439 105.943Z" fill="#263238"/>
<path d="M150.578 105.943C150.68 105.942 150.781 105.961 150.875 105.999C150.969 106.037 151.055 106.093 151.128 106.165C151.2 106.236 151.258 106.321 151.297 106.415C151.337 106.508 151.357 106.609 151.358 106.71V111.557C151.357 111.659 151.337 111.759 151.297 111.853C151.258 111.947 151.2 112.031 151.128 112.103C151.055 112.174 150.969 112.23 150.875 112.268C150.781 112.306 150.68 112.325 150.578 112.324C150.477 112.325 150.376 112.306 150.282 112.268C150.187 112.23 150.102 112.174 150.029 112.103C149.957 112.031 149.899 111.947 149.86 111.853C149.82 111.759 149.799 111.659 149.799 111.557V106.71C149.799 106.609 149.82 106.508 149.86 106.415C149.899 106.321 149.957 106.236 150.029 106.165C150.102 106.093 150.187 106.037 150.282 105.999C150.376 105.961 150.477 105.942 150.578 105.943Z" fill="#263238"/>
<path d="M148.701 105.943C148.803 105.942 148.904 105.961 148.999 105.999C149.093 106.037 149.179 106.093 149.252 106.164C149.325 106.236 149.383 106.321 149.423 106.414C149.463 106.508 149.484 106.608 149.485 106.71V111.557C149.471 111.755 149.382 111.939 149.237 112.074C149.092 112.209 148.901 112.283 148.704 112.283C148.506 112.283 148.315 112.209 148.17 112.074C148.025 111.939 147.936 111.755 147.922 111.557V106.71C147.924 106.505 148.007 106.31 148.153 106.166C148.3 106.022 148.497 105.942 148.701 105.943Z" fill="#263238"/>
<path d="M146.829 105.943C146.931 105.942 147.032 105.961 147.126 105.999C147.22 106.037 147.306 106.093 147.379 106.165C147.451 106.236 147.509 106.321 147.548 106.415C147.588 106.508 147.608 106.609 147.609 106.71V111.557C147.609 111.764 147.527 111.962 147.381 112.108C147.234 112.255 147.036 112.337 146.829 112.337C146.623 112.337 146.424 112.255 146.278 112.108C146.132 111.962 146.05 111.764 146.05 111.557V106.71C146.05 106.609 146.071 106.508 146.111 106.415C146.15 106.321 146.208 106.236 146.28 106.165C146.353 106.093 146.438 106.037 146.533 105.999C146.627 105.961 146.728 105.942 146.829 105.943Z" fill="#263238"/>
<path d="M144.952 105.943C145.054 105.942 145.155 105.961 145.25 105.999C145.344 106.037 145.43 106.093 145.503 106.164C145.576 106.236 145.634 106.321 145.674 106.414C145.714 106.508 145.735 106.608 145.736 106.71V111.557C145.735 111.659 145.714 111.76 145.674 111.853C145.634 111.947 145.576 112.032 145.503 112.103C145.43 112.174 145.344 112.23 145.25 112.268C145.155 112.306 145.054 112.325 144.952 112.324C144.748 112.325 144.551 112.245 144.404 112.102C144.258 111.958 144.175 111.762 144.173 111.557V106.71C144.175 106.505 144.258 106.31 144.404 106.166C144.551 106.022 144.748 105.942 144.952 105.943Z" fill="#263238"/>
<path d="M143.078 105.943C143.18 105.942 143.281 105.961 143.375 105.999C143.469 106.037 143.555 106.093 143.628 106.165C143.7 106.236 143.758 106.321 143.797 106.415C143.837 106.508 143.857 106.609 143.858 106.71V111.557C143.858 111.764 143.776 111.962 143.63 112.108C143.483 112.255 143.285 112.337 143.078 112.337C142.872 112.337 142.673 112.255 142.527 112.108C142.381 111.962 142.299 111.764 142.299 111.557V106.71C142.299 106.609 142.32 106.508 142.36 106.415C142.399 106.321 142.457 106.236 142.529 106.165C142.602 106.093 142.687 106.037 142.782 105.999C142.876 105.961 142.977 105.942 143.078 105.943Z" fill="#263238"/>
<path d="M141.207 105.943C141.412 105.942 141.609 106.022 141.755 106.166C141.901 106.31 141.984 106.505 141.986 106.71V111.557C141.972 111.755 141.883 111.939 141.738 112.074C141.593 112.209 141.402 112.283 141.205 112.283C141.007 112.283 140.816 112.209 140.671 112.074C140.526 111.939 140.437 111.755 140.423 111.557V106.71C140.424 106.608 140.445 106.508 140.485 106.414C140.525 106.321 140.583 106.236 140.656 106.164C140.729 106.093 140.815 106.037 140.909 105.999C141.004 105.961 141.105 105.942 141.207 105.943Z" fill="#263238"/>
<path d="M139.329 105.943C139.431 105.942 139.532 105.961 139.626 105.999C139.72 106.037 139.806 106.093 139.879 106.165C139.951 106.236 140.009 106.321 140.048 106.415C140.088 106.508 140.108 106.609 140.109 106.71V111.557C140.109 111.764 140.027 111.962 139.881 112.108C139.734 112.255 139.536 112.337 139.329 112.337C139.123 112.337 138.924 112.255 138.778 112.108C138.632 111.962 138.55 111.764 138.55 111.557V106.71C138.55 106.609 138.571 106.508 138.611 106.415C138.65 106.321 138.708 106.236 138.78 106.165C138.853 106.093 138.938 106.037 139.033 105.999C139.127 105.961 139.228 105.942 139.329 105.943Z" fill="#263238"/>
<path d="M137.457 105.943C137.662 105.942 137.859 106.022 138.005 106.166C138.151 106.31 138.234 106.505 138.236 106.71V111.557C138.222 111.755 138.133 111.939 137.988 112.074C137.843 112.209 137.652 112.283 137.455 112.283C137.257 112.283 137.066 112.209 136.921 112.074C136.776 111.939 136.687 111.755 136.673 111.557V106.71C136.674 106.608 136.695 106.508 136.735 106.414C136.775 106.321 136.833 106.236 136.906 106.164C136.979 106.093 137.065 106.037 137.159 105.999C137.254 105.961 137.355 105.942 137.457 105.943Z" fill="#263238"/>
<path d="M135.58 105.943C135.682 105.942 135.783 105.961 135.877 105.999C135.971 106.037 136.057 106.093 136.13 106.165C136.202 106.236 136.26 106.321 136.299 106.415C136.339 106.508 136.359 106.609 136.36 106.71V111.557C136.36 111.764 136.278 111.962 136.132 112.108C135.985 112.255 135.787 112.337 135.58 112.337C135.374 112.337 135.175 112.255 135.029 112.108C134.883 111.962 134.801 111.764 134.801 111.557V106.71C134.801 106.609 134.822 106.508 134.861 106.415C134.901 106.321 134.959 106.236 135.031 106.165C135.104 106.093 135.189 106.037 135.284 105.999C135.378 105.961 135.479 105.942 135.58 105.943Z" fill="#263238"/>
<path d="M134.241 105.943C134.221 106.017 134.221 106.094 134.241 106.168C134.313 106.239 134.37 106.323 134.409 106.416C134.449 106.509 134.469 106.609 134.47 106.71V111.557C134.469 111.658 134.449 111.758 134.409 111.851C134.37 111.944 134.313 112.029 134.241 112.099C133.902 112.26 133.531 112.337 133.156 112.324C132.275 112.324 131.716 111.981 131.906 111.557L133.906 106.71C134.037 106.463 134.149 106.207 134.241 105.943Z" fill="#263238"/>
<path d="M134.241 105.943C134.091 106.189 133.96 106.445 133.847 106.71L131.377 111.557C131.178 111.981 130.305 112.324 129.424 112.324C128.543 112.324 128.183 111.981 128.627 111.557L133.474 106.71L134.029 106.168C134.169 106.028 134.241 105.943 134.241 105.943Z" fill="#263238"/>
<path d="M134.241 105.943C134.162 106.007 134.087 106.077 134.016 106.151L133.474 106.71L128.627 111.557C128.204 111.981 127.86 111.629 127.86 110.71C127.86 109.79 128.204 108.922 128.627 108.731L133.474 106.308C133.739 106.206 133.995 106.084 134.241 105.943Z" fill="#263238"/>
<path d="M134.241 105.945C133.978 106.028 133.722 106.13 133.474 106.25L128.627 108.186C128.204 108.373 127.86 107.797 127.86 106.894C127.86 106.685 127.88 106.476 127.92 106.271C127.938 106.18 127.962 106.089 127.992 106C127.999 105.968 128.013 105.937 128.034 105.911L128.085 105.856C128.155 105.783 128.239 105.724 128.332 105.684C128.426 105.644 128.526 105.623 128.627 105.623H133.474C133.576 105.623 133.676 105.644 133.769 105.684C133.862 105.724 133.946 105.783 134.016 105.856L134.063 105.911C134.063 105.937 134.093 105.954 134.11 105.949H134.241V105.945Z" fill="#263238"/>
<path d="M134.241 104.504C134.243 104.607 134.225 104.709 134.188 104.805C134.151 104.9 134.095 104.988 134.023 105.062C133.952 105.136 133.867 105.195 133.773 105.236C133.678 105.277 133.577 105.299 133.474 105.3H128.627C128.426 105.286 128.237 105.195 128.099 105.047C127.961 104.899 127.885 104.704 127.885 104.502C127.885 104.299 127.961 104.105 128.099 103.957C128.237 103.808 128.426 103.718 128.627 103.703H133.474C133.577 103.705 133.679 103.728 133.773 103.769C133.867 103.811 133.952 103.87 134.024 103.945C134.095 104.019 134.151 104.107 134.188 104.203C134.225 104.299 134.243 104.401 134.241 104.504Z" fill="#263238"/>
<path d="M134.241 102.586C134.243 102.689 134.225 102.791 134.188 102.887C134.151 102.983 134.095 103.07 134.024 103.145C133.952 103.219 133.867 103.279 133.773 103.32C133.679 103.362 133.577 103.384 133.474 103.386H128.627C128.426 103.372 128.237 103.281 128.099 103.133C127.961 102.985 127.885 102.79 127.885 102.588C127.885 102.385 127.961 102.191 128.099 102.042C128.237 101.894 128.426 101.804 128.627 101.789H133.474C133.577 101.791 133.678 101.813 133.773 101.854C133.867 101.895 133.952 101.954 134.023 102.028C134.095 102.102 134.151 102.189 134.188 102.285C134.225 102.381 134.243 102.483 134.241 102.586Z" fill="#263238"/>
<path d="M134.241 100.672C134.243 100.774 134.225 100.877 134.188 100.973C134.151 101.069 134.095 101.156 134.024 101.231C133.952 101.305 133.867 101.365 133.773 101.406C133.679 101.448 133.577 101.47 133.474 101.472H128.627C128.426 101.458 128.237 101.367 128.099 101.219C127.961 101.071 127.885 100.876 127.885 100.674C127.885 100.471 127.961 100.277 128.099 100.128C128.237 99.9802 128.426 99.8897 128.627 99.875H133.474C133.577 99.8767 133.678 99.8986 133.773 99.9396C133.867 99.9806 133.952 100.04 134.023 100.114C134.095 100.188 134.151 100.275 134.188 100.371C134.225 100.467 134.243 100.569 134.241 100.672Z" fill="#263238"/>
<path d="M134.241 98.7715C134.243 98.8742 134.225 98.9764 134.188 99.0721C134.151 99.1678 134.095 99.2552 134.023 99.3292C133.952 99.4032 133.867 99.4624 133.773 99.5034C133.678 99.5444 133.577 99.5663 133.474 99.568H128.627C128.426 99.5533 128.237 99.4628 128.099 99.3146C127.961 99.1664 127.885 98.9716 127.885 98.7693C127.885 98.567 127.961 98.3722 128.099 98.2241C128.237 98.0759 128.426 97.9854 128.627 97.9707H133.474C133.577 97.9729 133.679 97.9954 133.773 98.0368C133.867 98.0782 133.952 98.1378 134.024 98.2122C134.095 98.2866 134.151 98.3742 134.188 98.4702C134.225 98.5662 134.243 98.6685 134.241 98.7715Z" fill="#263238"/>
<path d="M134.241 96.8375C134.243 96.9405 134.225 97.0428 134.188 97.1388C134.151 97.2348 134.095 97.3224 134.024 97.3968C133.952 97.4712 133.867 97.5308 133.773 97.5722C133.679 97.6136 133.577 97.6361 133.474 97.6383H128.627C128.426 97.6236 128.237 97.5331 128.099 97.3849C127.961 97.2368 127.885 97.042 127.885 96.8397C127.885 96.6374 127.961 96.4426 128.099 96.2944C128.237 96.1462 128.426 96.0557 128.627 96.041H133.474C133.577 96.0427 133.678 96.0646 133.773 96.1056C133.867 96.1466 133.952 96.2058 134.023 96.2798C134.095 96.3538 134.151 96.4412 134.188 96.5369C134.225 96.6326 134.243 96.7348 134.241 96.8375Z" fill="#263238"/>
<path d="M134.241 94.9219C134.243 95.0246 134.225 95.1268 134.188 95.2225C134.151 95.3182 134.095 95.4056 134.023 95.4796C133.952 95.5536 133.867 95.6128 133.773 95.6538C133.678 95.6948 133.577 95.7167 133.474 95.7184H128.627C128.426 95.7037 128.237 95.6131 128.099 95.465C127.961 95.3168 127.885 95.122 127.885 94.9197C127.885 94.7174 127.961 94.5226 128.099 94.3745C128.237 94.2263 128.426 94.1358 128.627 94.1211H133.474C133.577 94.1233 133.679 94.1458 133.773 94.1872C133.867 94.2286 133.952 94.2882 134.024 94.3626C134.095 94.437 134.151 94.5246 134.188 94.6206C134.225 94.7165 134.243 94.8189 134.241 94.9219Z" fill="#263238"/>
<path d="M134.242 92.5316C134.241 92.7408 134.22 92.9494 134.178 93.1544C134.161 93.2461 134.138 93.3367 134.11 93.4256C134.103 93.4575 134.087 93.4868 134.064 93.5103C134.051 93.5319 134.035 93.5518 134.017 93.5696C133.947 93.643 133.863 93.7014 133.77 93.7414C133.677 93.7815 133.576 93.8023 133.475 93.8027H128.628C128.526 93.8023 128.426 93.7815 128.333 93.7414C128.24 93.7014 128.156 93.643 128.086 93.5696L128.035 93.5103C128.035 93.4891 128.005 93.4722 127.992 93.4764H127.865C128.129 93.3979 128.386 93.2958 128.632 93.1714L133.479 91.2394C133.898 91.0487 134.242 91.6292 134.242 92.5316Z" fill="#263238"/>
<path d="M134.241 88.6959C134.241 89.5984 133.898 90.4839 133.474 90.6745L128.627 93.0938C128.364 93.2051 128.108 93.3325 127.86 93.4751C127.86 93.4751 127.945 93.4073 128.085 93.2675L128.627 92.7125L133.474 87.8655C133.898 87.4206 134.241 87.7935 134.241 88.6959Z" fill="#263238"/>
<path d="M132.728 87.0977C133.576 87.0977 133.915 87.4408 133.474 87.8645L128.627 92.7115L128.068 93.2623C127.995 93.3317 127.925 93.4053 127.86 93.4826C128.012 93.2378 128.146 92.983 128.263 92.7199L130.805 87.873C131.021 87.4408 131.881 87.0977 132.728 87.0977Z" fill="#263238"/>
<path d="M129.11 87.099C129.958 87.099 130.487 87.4422 130.288 87.8659L128.17 92.7128C128.043 92.9595 127.933 93.2143 127.839 93.4755C127.845 93.4022 127.845 93.3285 127.839 93.2552V93.1408C127.811 93.0994 127.787 93.0554 127.767 93.0094C127.728 92.9156 127.708 92.8147 127.708 92.7128V87.8659C127.708 87.7627 127.728 87.6605 127.767 87.5651C127.786 87.52 127.81 87.4773 127.839 87.438C127.894 87.3931 127.954 87.3547 128.017 87.3236C128.359 87.1632 128.733 87.0862 129.11 87.099Z" fill="#263238"/>
<path d="M126.674 87.0977C126.876 87.0999 127.068 87.1818 127.209 87.3255C127.351 87.4692 127.429 87.663 127.428 87.8645V92.7115C127.428 92.9115 127.349 93.1033 127.207 93.2447C127.066 93.3862 126.874 93.4656 126.674 93.4656C126.474 93.4656 126.282 93.3862 126.141 93.2447C125.999 93.1033 125.92 92.9115 125.92 92.7115V87.8645C125.919 87.663 125.997 87.4692 126.139 87.3255C126.28 87.1818 126.473 87.0999 126.674 87.0977Z" fill="#263238"/>
<path d="M124.866 87.0977C125.067 87.0999 125.26 87.1818 125.401 87.3255C125.542 87.4692 125.621 87.663 125.62 87.8645V92.7115C125.62 92.9115 125.54 93.1033 125.399 93.2447C125.257 93.3862 125.066 93.4656 124.866 93.4656C124.666 93.4656 124.474 93.3862 124.332 93.2447C124.191 93.1033 124.111 92.9115 124.111 92.7115V87.8645C124.11 87.7646 124.129 87.6654 124.166 87.5727C124.204 87.48 124.259 87.3955 124.329 87.3243C124.399 87.253 124.483 87.1963 124.575 87.1574C124.667 87.1185 124.766 87.0982 124.866 87.0977Z" fill="#263238"/>
<path d="M123.056 87.0977C123.258 87.0999 123.45 87.1818 123.592 87.3255C123.733 87.4692 123.812 87.663 123.81 87.8645V92.7115C123.811 92.8111 123.792 92.9098 123.754 93.002C123.717 93.0942 123.661 93.1782 123.591 93.249C123.521 93.3198 123.438 93.3761 123.346 93.4148C123.254 93.4534 123.156 93.4735 123.056 93.4741C122.956 93.4741 122.857 93.4543 122.765 93.416C122.673 93.3776 122.589 93.3213 122.518 93.2505C122.448 93.1796 122.392 93.0955 122.354 93.003C122.317 92.9105 122.297 92.8114 122.298 92.7115V87.8645C122.297 87.7644 122.316 87.6651 122.354 87.5724C122.392 87.4796 122.448 87.3952 122.518 87.324C122.589 87.2528 122.672 87.1962 122.765 87.1573C122.857 87.1185 122.956 87.0982 123.056 87.0977Z" fill="#263238"/>
<path d="M121.772 96.4283V84.2559C123.028 84.2559 124.231 84.7545 125.119 85.642C126.006 86.5295 126.505 87.7333 126.505 88.9884V91.6958C126.505 92.3172 126.383 92.9326 126.145 93.5068C125.907 94.081 125.558 94.6027 125.119 95.0422C124.679 95.4816 124.158 95.8302 123.584 96.0681C123.009 96.3059 122.394 96.4283 121.772 96.4283Z" fill="white" stroke="#263238" stroke-width="1.23768" stroke-linecap="round" stroke-linejoin="round"/>
<path d="M109.6 108.171L122.259 101.921C122.857 101.626 123.36 101.17 123.712 100.604C124.064 100.038 124.251 99.3848 124.251 98.7183V82.1946C124.251 81.5281 124.064 80.8748 123.712 80.3088C123.36 79.7427 122.857 79.2864 122.259 78.9915L109.6 72.7422V108.171Z" fill="white" stroke="#263238" stroke-width="1.23768" stroke-linecap="round" stroke-linejoin="round"/>
<path d="M133.271 115.123H142.625" stroke="#263238" stroke-width="1.23768" stroke-linecap="round" stroke-linejoin="round"/>
<path d="M131.403 116.762H135.144" stroke="#263238" stroke-width="1.23768" stroke-linecap="round" stroke-linejoin="round"/>
<path d="M137.244 90.9023V100.024" stroke="#263238" stroke-width="1.23768" stroke-linecap="round" stroke-linejoin="round"/>
<path d="M135.609 94.1799V88.5703" stroke="#263238" stroke-width="1.23768" stroke-linecap="round" stroke-linejoin="round"/>
<path d="M124.852 105.635V110.312" stroke="#263238" stroke-width="1.23768" stroke-linecap="round" stroke-linejoin="round"/>
<path d="M126.492 104V108.211" stroke="#263238" stroke-width="1.23768" stroke-linecap="round" stroke-linejoin="round"/>
<path d="M206.941 72.7207H209.373" stroke="#263238" stroke-width="11.1391" stroke-linecap="round" stroke-linejoin="round"/>
<path d="M188.278 101.934H198.015V72.7207H206.942" stroke="#263238" stroke-width="4.95073" stroke-linecap="round" stroke-linejoin="round"/>
<path d="M206.941 131.689H209.916" stroke="#263238" stroke-width="11.1391" stroke-linecap="round" stroke-linejoin="round"/>
<path d="M186.384 110.861H197.743V131.69H206.941" stroke="#263238" stroke-width="4.95073" stroke-linecap="round" stroke-linejoin="round"/>
<path d="M151.32 74.2793H148.893V96.2727" stroke="#263238" stroke-width="4.95073" stroke-linecap="round" stroke-linejoin="round"/>
<path d="M153.209 74.2793H151.319" stroke="#263238" stroke-width="8.66377" stroke-linecap="round" stroke-linejoin="round"/>
<path d="M174.915 82.5312H163.818V94.4198H174.915V82.5312Z" fill="#263238" stroke="#263238" stroke-width="1.23768" stroke-linecap="round" stroke-linejoin="round"/>
<path d="M185.142 66.0898H174.245V76.7921H185.142V66.0898Z" fill="#263238" stroke="#263238" stroke-width="1.23768" stroke-linecap="round" stroke-linejoin="round"/>
<path d="M180.787 76.7871H185.613C184.464 79.834 182.47 82.4901 179.865 84.4437C177.26 86.3974 174.151 87.5676 170.905 87.8171C167.658 88.0666 164.407 87.3851 161.534 85.8524C158.661 84.3197 156.285 81.9995 154.684 79.1639C153.175 76.5098 152.411 73.4972 152.472 70.4445C152.472 70.1776 152.472 69.9065 152.493 69.6395C152.76 65.5359 154.494 61.6651 157.377 58.7334C160.261 55.8017 164.103 54.0046 168.201 53.6701C172.3 53.3356 176.382 54.486 179.703 56.9114C183.024 59.3367 185.362 62.8753 186.291 66.8813H180.783C180.132 66.8813 179.488 67.0095 178.887 67.2584C178.286 67.5073 177.74 67.8721 177.281 68.332C176.821 68.7919 176.456 69.3379 176.207 69.9388C175.958 70.5397 175.83 71.1838 175.83 71.8342C175.83 72.4846 175.958 73.1287 176.207 73.7296C176.456 74.3305 176.821 74.8765 177.281 75.3364C177.74 75.7963 178.286 76.1612 178.887 76.4101C179.488 76.659 180.132 76.7871 180.783 76.7871H180.787Z" fill="white" stroke="#263238" stroke-width="1.23768" stroke-linecap="round" stroke-linejoin="round"/>
<path d="M170.877 71.4355H175.834" stroke="#263238" stroke-width="1.23768" stroke-linecap="round" stroke-linejoin="round"/>
<path d="M166.916 54.3965V87.0922" stroke="#263238" stroke-width="1.23768" stroke-linecap="round" stroke-linejoin="round"/>
<path d="M166.517 75.7956C168.925 75.7956 170.877 73.8437 170.877 71.4359C170.877 69.0281 168.925 67.0762 166.517 67.0762C164.109 67.0762 162.157 69.0281 162.157 71.4359C162.157 73.8437 164.109 75.7956 166.517 75.7956Z" fill="#263238" stroke="#263238" stroke-width="1.23768" stroke-linecap="round" stroke-linejoin="round"/>
<path d="M168.7 71.4359C168.7 71.0041 168.572 70.5821 168.332 70.2232C168.092 69.8643 167.751 69.5846 167.352 69.4196C166.953 69.2546 166.514 69.2116 166.091 69.2961C165.667 69.3807 165.279 69.5889 164.974 69.8945C164.669 70.2001 164.461 70.5893 164.377 71.0128C164.294 71.4363 164.337 71.8752 164.503 72.2738C164.669 72.6725 164.949 73.0129 165.309 73.2522C165.668 73.4914 166.09 73.6187 166.522 73.6179C166.808 73.6179 167.092 73.5614 167.357 73.4517C167.621 73.342 167.861 73.1812 168.064 72.9785C168.266 72.7758 168.426 72.5353 168.535 72.2706C168.645 72.0059 168.7 71.7222 168.7 71.4359Z" fill="white" stroke="#263238" stroke-width="1.23768" stroke-linecap="round" stroke-linejoin="round"/>
<path d="M181.181 73.6133C182.383 73.6133 183.358 72.6383 183.358 71.4355C183.358 70.2328 182.383 69.2578 181.181 69.2578C179.978 69.2578 179.003 70.2328 179.003 71.4355C179.003 72.6383 179.978 73.6133 181.181 73.6133Z" fill="#068BF7"/>
<path d="M157.996 70.4453V79.1647H154.67C153.161 76.5105 152.397 73.4979 152.459 70.4453H157.996Z" fill="#263238" stroke="#263238" stroke-width="1.23768" stroke-linecap="round" stroke-linejoin="round"/>
<path d="M169.368 128.643V154.381" stroke="#263238" stroke-width="3.71305" stroke-linecap="round" stroke-linejoin="round"/>
<path d="M169.369 146.441C173.024 146.441 175.987 143.478 175.987 139.823C175.987 136.168 173.024 133.205 169.369 133.205C165.714 133.205 162.751 136.168 162.751 139.823C162.751 143.478 165.714 146.441 169.369 146.441Z" fill="white" stroke="#263238" stroke-width="1.23768" stroke-linecap="round" stroke-linejoin="round"/>
<path d="M169.369 156.236C171.124 156.236 172.547 154.813 172.547 153.058C172.547 151.304 171.124 149.881 169.369 149.881C167.614 149.881 166.191 151.304 166.191 153.058C166.191 154.813 167.614 156.236 169.369 156.236Z" fill="white" stroke="#263238" stroke-width="1.23768" stroke-linecap="round" stroke-linejoin="round"/>
<path d="M193.074 98.8898L185.765 120.671C183.727 126.739 177.55 130.882 170.547 130.882H168.187C161.183 130.882 155.006 126.739 152.972 120.671L145.659 98.8898C144.549 95.5808 147.286 92.2422 151.104 92.2422H187.63C191.451 92.2422 194.184 95.5808 193.074 98.8898Z" fill="white" stroke="#263238" stroke-width="1.23768" stroke-linecap="round" stroke-linejoin="round"/>
<path d="M190.02 100.932C189.135 100.69 188.191 100.795 187.38 101.225C186.57 101.655 185.953 102.377 185.656 103.245L179.75 120.497C179.462 121.338 179.495 122.255 179.842 123.073C180.189 123.891 180.826 124.552 181.631 124.929L182.902 125.535C184.173 124.124 185.143 122.469 185.753 120.671L192.176 101.525L190.02 100.932Z" fill="white" stroke="#263238" stroke-width="1.23768" stroke-linecap="round" stroke-linejoin="round"/>
<path d="M152.901 103.245C152.603 102.377 151.987 101.655 151.176 101.225C150.366 100.795 149.422 100.69 148.537 100.932L146.528 101.478L152.973 120.671C153.571 122.445 154.523 124.079 155.769 125.476L156.926 124.929C157.727 124.549 158.361 123.887 158.705 123.07C159.05 122.252 159.082 121.337 158.794 120.497L152.901 103.245Z" fill="white" stroke="#263238" stroke-width="1.23768" stroke-linecap="round" stroke-linejoin="round"/>
<path d="M180.826 92.2422C180.739 93.0467 180.358 93.7907 179.755 94.3312C179.153 94.8716 178.372 95.1703 177.563 95.1698H160.616C159.807 95.1703 159.026 94.8716 158.424 94.3312C157.821 93.7907 157.44 93.0467 157.354 92.2422H180.826Z" fill="white" stroke="#263238" stroke-width="1.23768" stroke-linecap="round" stroke-linejoin="round"/>
<path d="M169.386 130.759V95.1699" stroke="#263238" stroke-width="1.23768" stroke-linecap="round" stroke-linejoin="round"/>
<path d="M179.012 99.4082H159.726C158.542 99.4082 157.582 100.368 157.582 101.552V110.339C157.582 111.523 158.542 112.483 159.726 112.483H179.012C180.196 112.483 181.156 111.523 181.156 110.339V101.552C181.156 100.368 180.196 99.4082 179.012 99.4082Z" fill="#068BF7" stroke="#263238" stroke-width="1.23768" stroke-linecap="round" stroke-linejoin="round"/>
<path d="M166.34 101.068C166.929 101.068 167.187 101.424 167.187 102.009V103.916C167.187 104.496 166.92 104.852 166.34 104.852H165.45V101.068H166.34ZM166.34 104.458C166.645 104.458 166.789 104.267 166.789 103.92V101.975C166.789 101.628 166.645 101.441 166.336 101.441H165.882V104.458H166.34Z" fill="#263238"/>
<path d="M168.013 104.089L167.865 104.852H167.479L168.204 101.068H168.814L169.539 104.852H169.115L168.971 104.089H168.013ZM168.068 103.729H168.916L168.492 101.543L168.068 103.729Z" fill="#263238"/>
<path d="M170.208 104.853V101.464H169.509V101.078H171.322V101.464H170.623V104.853H170.208Z" fill="#263238"/>
<path d="M171.831 104.089L171.683 104.852H171.293L172.017 101.068H172.632L173.356 104.852H172.933L172.789 104.089H171.831ZM171.886 103.729H172.733L172.31 101.543L171.886 103.729Z" fill="#263238"/>
<path d="M161.006 107.947V108.324H160.065V109.672H161.201V110.053H159.642V106.27H161.201V106.655H160.065V107.947H161.006Z" fill="#263238"/>
<path d="M162.543 108.422L161.912 110.053H161.514L162.276 108.104L161.56 106.27H161.984L162.564 107.782L163.153 106.27H163.552L162.857 108.091L163.615 110.04H163.17L162.543 108.422Z" fill="#263238"/>
<path d="M164.501 110.054V106.665H163.807V106.279H165.616V106.665H164.921V110.054H164.501Z" fill="#263238"/>
<path d="M166.746 106.27C167.339 106.27 167.593 106.575 167.593 107.117V107.426C167.619 107.591 167.585 107.759 167.499 107.901C167.413 108.043 167.28 108.151 167.123 108.206C167.471 108.307 167.598 108.587 167.598 108.994V109.583C167.584 109.738 167.61 109.894 167.674 110.036H167.25C167.193 109.891 167.169 109.734 167.183 109.579V108.981C167.183 108.557 166.979 108.422 166.627 108.422H166.331V110.036H165.907V106.27H166.746ZM166.636 108.053C166.971 108.053 167.174 107.947 167.174 107.536V107.172C167.174 106.833 167.047 106.655 166.75 106.655H166.327V108.053H166.636Z" fill="#263238"/>
<path d="M168.458 109.29L168.314 110.053H167.924L168.648 106.27H169.258L169.983 110.053H169.559L169.411 109.29H168.458ZM168.513 108.93H169.36L168.936 106.744L168.513 108.93Z" fill="#263238"/>
<path d="M171.978 107.188V107.527H171.575V107.166C171.575 106.823 171.444 106.62 171.152 106.62C170.859 106.62 170.707 106.823 170.707 107.166V109.166C170.707 109.505 170.847 109.713 171.152 109.713C171.457 109.713 171.575 109.505 171.575 109.166V108.675H171.978V109.145C171.978 109.717 171.707 110.094 171.131 110.094C170.554 110.094 170.283 109.717 170.283 109.145V107.188C170.283 106.611 170.554 106.234 171.131 106.234C171.707 106.234 171.978 106.611 171.978 107.188Z" fill="#263238"/>
<path d="M172.906 110.054V106.665H172.211V106.279H174.02V106.665H173.325V110.054H172.906Z" fill="#263238"/>
<path d="M174.728 106.27V110.053H174.305V106.27H174.728Z" fill="#263238"/>
<path d="M175.13 107.188C175.13 106.607 175.414 106.234 175.977 106.234C176.541 106.234 176.825 106.607 176.825 107.188V109.145C176.825 109.717 176.541 110.094 175.977 110.094C175.414 110.094 175.13 109.717 175.13 109.145V107.188ZM175.554 109.166C175.554 109.509 175.698 109.713 176.003 109.713C176.308 109.713 176.452 109.509 176.452 109.166V107.166C176.452 106.823 176.312 106.62 176.003 106.62C175.693 106.62 175.554 106.823 175.554 107.166V109.166Z" fill="#263238"/>
<path d="M177.639 110.053H177.258V106.27H177.796L178.669 109.007V106.27H179.042V110.053H178.618L177.652 106.994L177.639 110.053Z" fill="#263238"/>
<path d="M169.369 119.11C170.773 119.11 171.911 117.971 171.911 116.567C171.911 115.164 170.773 114.025 169.369 114.025C167.965 114.025 166.827 115.164 166.827 116.567C166.827 117.971 167.965 119.11 169.369 119.11Z" fill="#263238" stroke="#263238" stroke-width="1.23768" stroke-linecap="round" stroke-linejoin="round"/>
<path d="M169.369 117.626C169.954 117.626 170.428 117.152 170.428 116.567C170.428 115.982 169.954 115.508 169.369 115.508C168.784 115.508 168.31 115.982 168.31 116.567C168.31 117.152 168.784 117.626 169.369 117.626Z" fill="#068BF7"/>
<path d="M272.464 46.7715H213.856C210.814 46.7715 208.348 49.2375 208.348 52.2794V92.7073C208.348 95.7492 210.814 98.2152 213.856 98.2152H272.464C275.506 98.2152 277.972 95.7492 277.972 92.7073V52.2794C277.972 49.2375 275.506 46.7715 272.464 46.7715Z" fill="#263238" stroke="#263238" stroke-width="1.23768" stroke-linecap="round" stroke-linejoin="round"/>
<path d="M271.117 49.9121H215.204C213.037 49.9121 211.28 51.6686 211.28 53.8354V91.1493C211.28 93.3161 213.037 95.0726 215.204 95.0726H271.117C273.284 95.0726 275.04 93.3161 275.04 91.1493V53.8354C275.04 51.6686 273.284 49.9121 271.117 49.9121Z" fill="white" stroke="#263238" stroke-width="1.23768" stroke-linecap="round" stroke-linejoin="round"/>
<path d="M270.083 57.457H219.529V59.3001H270.083V57.457Z" fill="#E0E0E0"/>
<path d="M270.083 61.7949H219.529V63.638H270.083V61.7949Z" fill="#E0E0E0"/>
<path d="M270.083 66.1348H219.529V67.9778H270.083V66.1348Z" fill="#E0E0E0"/>
<path d="M270.083 70.4766H219.529V72.3196H270.083V70.4766Z" fill="#E0E0E0"/>
<path d="M270.083 74.8145H219.529V76.6575H270.083V74.8145Z" fill="#E0E0E0"/>
<path d="M270.083 79.1543H219.529V80.9973H270.083V79.1543Z" fill="#E0E0E0"/>
<path d="M270.083 83.4902H219.529V85.3333H270.083V83.4902Z" fill="#E0E0E0"/>
<path d="M224.779 68.2734H219.855V88.6103H224.779V68.2734Z" fill="#263238"/>
<path d="M232.307 73.9766H227.384V88.6106H232.307V73.9766Z" fill="#068BF7"/>
<path d="M239.836 70.4297H234.913V88.61H239.836V70.4297Z" fill="#263238"/>
<path d="M247.369 77.7812H242.445V88.6148H247.369V77.7812Z" fill="#068BF7"/>
<path d="M254.898 70.8125H249.975V88.6157H254.898V70.8125Z" fill="#263238"/>
<path d="M262.431 66.1191H257.508V88.6083H262.431V66.1191Z" fill="#068BF7"/>
<path d="M269.96 63.207H265.037V88.6111H269.96V63.207Z" fill="#263238"/>
<path d="M215.801 57.7988H217.483" stroke="#263238" stroke-width="1.23768" stroke-linecap="round" stroke-linejoin="round"/>
<path d="M215.801 60.2148H217.483" stroke="#263238" stroke-width="1.23768" stroke-linecap="round" stroke-linejoin="round"/>
<path d="M215.801 62.6348H217.483" stroke="#263238" stroke-width="1.23768" stroke-linecap="round" stroke-linejoin="round"/>
<path d="M215.801 65.0547H217.483" stroke="#263238" stroke-width="1.23768" stroke-linecap="round" stroke-linejoin="round"/>
<path d="M215.801 67.4746H217.483" stroke="#263238" stroke-width="1.23768" stroke-linecap="round" stroke-linejoin="round"/>
<path d="M215.801 69.8887H217.483" stroke="#263238" stroke-width="1.23768" stroke-linecap="round" stroke-linejoin="round"/>
<path d="M215.801 72.3066H217.483" stroke="#263238" stroke-width="1.23768" stroke-linecap="round" stroke-linejoin="round"/>
<path d="M215.801 74.7266H217.483" stroke="#263238" stroke-width="1.23768" stroke-linecap="round" stroke-linejoin="round"/>
<path d="M215.801 77.1445H217.483" stroke="#263238" stroke-width="1.23768" stroke-linecap="round" stroke-linejoin="round"/>
<path d="M215.801 79.5605H217.483" stroke="#263238" stroke-width="1.23768" stroke-linecap="round" stroke-linejoin="round"/>
<path d="M215.801 81.9805H217.483" stroke="#263238" stroke-width="1.23768" stroke-linecap="round" stroke-linejoin="round"/>
<path d="M215.801 84.4004H217.483" stroke="#263238" stroke-width="1.23768" stroke-linecap="round" stroke-linejoin="round"/>
<path d="M215.801 86.8164H217.483" stroke="#263238" stroke-width="1.23768" stroke-linecap="round" stroke-linejoin="round"/>
<path d="M215.801 89.2324H217.483" stroke="#263238" stroke-width="1.23768" stroke-linecap="round" stroke-linejoin="round"/>
<path d="M270.1 89.9277V91.6098" stroke="#263238" stroke-width="1.23768" stroke-linecap="round" stroke-linejoin="round"/>
<path d="M266.084 89.9277V91.6098" stroke="#263238" stroke-width="1.23768" stroke-linecap="round" stroke-linejoin="round"/>
<path d="M262.066 89.9277V91.6098" stroke="#263238" stroke-width="1.23768" stroke-linecap="round" stroke-linejoin="round"/>
<path d="M258.055 89.9277V91.6098" stroke="#263238" stroke-width="1.23768" stroke-linecap="round" stroke-linejoin="round"/>
<path d="M254.038 89.9277V91.6098" stroke="#263238" stroke-width="1.23768" stroke-linecap="round" stroke-linejoin="round"/>
<path d="M250.021 89.9277V91.6098" stroke="#263238" stroke-width="1.23768" stroke-linecap="round" stroke-linejoin="round"/>
<path d="M246.009 89.9277V91.6098" stroke="#263238" stroke-width="1.23768" stroke-linecap="round" stroke-linejoin="round"/>
<path d="M241.992 89.9277V91.6098" stroke="#263238" stroke-width="1.23768" stroke-linecap="round" stroke-linejoin="round"/>
<path d="M237.976 89.9277V91.6098" stroke="#263238" stroke-width="1.23768" stroke-linecap="round" stroke-linejoin="round"/>
<path d="M233.963 89.9277V91.6098" stroke="#263238" stroke-width="1.23768" stroke-linecap="round" stroke-linejoin="round"/>
<path d="M229.946 89.9277V91.6098" stroke="#263238" stroke-width="1.23768" stroke-linecap="round" stroke-linejoin="round"/>
<path d="M225.931 89.9277V91.6098" stroke="#263238" stroke-width="1.23768" stroke-linecap="round" stroke-linejoin="round"/>
<path d="M221.914 89.9277V91.6098" stroke="#263238" stroke-width="1.23768" stroke-linecap="round" stroke-linejoin="round"/>
<path d="M217.902 89.9277V91.6098" stroke="#263238" stroke-width="1.23768" stroke-linecap="round" stroke-linejoin="round"/>
<path d="M248.581 53.2578H237.319V55.1051H248.581V53.2578Z" fill="#263238"/>
<path d="M272.464 104.457H213.856C210.814 104.457 208.348 106.923 208.348 109.965V150.393C208.348 153.435 210.814 155.901 213.856 155.901H272.464C275.506 155.901 277.972 153.435 277.972 150.393V109.965C277.972 106.923 275.506 104.457 272.464 104.457Z" fill="#263238" stroke="#263238" stroke-width="1.23768" stroke-linecap="round" stroke-linejoin="round"/>
<path d="M271.117 107.6H215.204C213.037 107.6 211.28 109.356 211.28 111.523V148.837C211.28 151.004 213.037 152.76 215.204 152.76H271.117C273.284 152.76 275.04 151.004 275.04 148.837V111.523C275.04 109.356 273.284 107.6 271.117 107.6Z" fill="white" stroke="#263238" stroke-width="1.23768" stroke-linecap="round" stroke-linejoin="round"/>
<path d="M232.456 148.393C228.194 148.393 224.084 146.807 220.927 143.944C217.769 141.081 215.79 137.145 215.375 132.903C214.959 128.661 216.137 124.416 218.679 120.994C221.221 117.573 224.945 115.22 229.126 114.393L229.939 118.553C228.202 118.894 226.553 119.588 225.094 120.593C223.636 121.597 222.4 122.891 221.462 124.393C220.524 125.895 219.905 127.574 219.643 129.325C219.381 131.076 219.482 132.863 219.939 134.574C220.396 136.284 221.199 137.883 222.299 139.271C223.4 140.658 224.774 141.805 226.335 142.639C227.897 143.474 229.614 143.978 231.379 144.122C233.144 144.266 234.919 144.045 236.595 143.474L237.956 147.487C236.184 148.087 234.326 148.394 232.456 148.393Z" fill="#263238"/>
<path d="M244.611 126.837C243.556 123.939 241.503 121.513 238.82 119.995C236.136 118.476 232.999 117.965 229.972 118.554L229.125 114.393C233.149 113.61 237.321 114.289 240.888 116.309C244.456 118.328 247.185 121.556 248.585 125.409L244.611 126.837Z" fill="#068BF7"/>
<path d="M237.967 147.493L236.607 143.481C238.235 142.927 239.735 142.055 241.021 140.915C242.308 139.775 243.354 138.39 244.099 136.841C244.844 135.292 245.273 133.61 245.361 131.893C245.449 130.177 245.194 128.46 244.611 126.843L248.598 125.402C249.371 127.549 249.709 129.829 249.592 132.108C249.474 134.387 248.904 136.62 247.915 138.677C246.925 140.733 245.536 142.572 243.828 144.086C242.12 145.599 240.128 146.758 237.967 147.493Z" fill="#A8A8A8"/>
<path d="M260.134 118.006H255.372V122.768H260.134V118.006Z" fill="#263238"/>
<path d="M260.134 129.66H255.372V134.422H260.134V129.66Z" fill="#068BF7"/>
<path d="M260.134 141.32H255.372V146.083H260.134V141.32Z" fill="#A8A8A8"/>
<path d="M262.639 120.512H270.663" stroke="#263238" stroke-width="1.23768" stroke-linecap="round" stroke-linejoin="round"/>
<path d="M262.639 131.793H270.663" stroke="#263238" stroke-width="1.23768" stroke-linecap="round" stroke-linejoin="round"/>
<path d="M228.044 131.543H236.069" stroke="#263238" stroke-width="1.23768" stroke-linecap="round" stroke-linejoin="round"/>
<path d="M262.639 143.574H270.663" stroke="#263238" stroke-width="1.23768" stroke-linecap="round" stroke-linejoin="round"/>
<path d="M32.5359 184.053H23.2148" stroke="#263238" stroke-width="0.928262" stroke-miterlimit="10" stroke-linecap="round"/>
<path d="M268.528 184.053H37.6201" stroke="#263238" stroke-width="0.928262" stroke-miterlimit="10" stroke-linecap="round"/>
<path d="M286.322 184.053H271.493" stroke="#263238" stroke-width="0.928262" stroke-miterlimit="10" stroke-linecap="round"/>
</svg>
